<?xml version="1.0" standalone="no"?>
<!DOCTYPE svg PUBLIC "-//W3C//DTD SVG 1.1//EN" "http://www.w3.org/Graphics/SVG/1.1/DTD/svg11.dtd" >
<svg xmlns="http://www.w3.org/2000/svg">
<metadata>
This is a custom SVG webfont generated by Font Squirrel.
Copyright   : Copyright c 2009 by Roman Shamin  Jovanny Lemonad All rights reserved
Designer    : Roman Shamin
Foundry     : Roman Shamin  Jovanny Lemonad
Foundry URL : httpwwwjovannyru
</metadata>
<defs>
<font id="HattoriHanzoLightItalic" horiz-adv-x="333" >
<font-face units-per-em="2048" ascent="1536" descent="-512" />
<missing-glyph horiz-adv-x="512" />
<glyph unicode=" "  horiz-adv-x="512" />
<glyph unicode="&#x09;" horiz-adv-x="512" />
<glyph unicode="&#xa0;" horiz-adv-x="512" />
<glyph unicode="!" horiz-adv-x="413" d="M109 74q4 41 37.5 70.5t76.5 29.5t71 -30q24 -26 24 -60q0 -5 -1 -10q-4 -41 -37.5 -71t-76.5 -30t-71 30q-24 26 -24 60q0 6 1 11zM184 291q31 451 54 667l49 476h141l-49 -476q-10 -96 -32.5 -263t-41.5 -285l-18 -119h-103z" />
<glyph unicode="&#x22;" horiz-adv-x="569" d="M229 807q-8 66 -7 157q0 183 30 470h123l-66 -627h-80zM428 807l66 627h122q-45 -430 -108 -627h-80z" />
<glyph unicode="#" horiz-adv-x="1382" d="M63 410l13 125h305l133 364h-264l12 125h295l150 410h129l-150 -410h379l149 410h129l-149 -410h274l-12 -125h-305l-133 -364h264l-12 -125h-297l-148 -410h-129l148 410h-379l-148 -410h-129l148 410h-273zM510 535h379l133 364h-379z" />
<glyph unicode="$" horiz-adv-x="976" d="M72 111l55 77q139 -88 319 -88h5l59 580q-314 121 -314 353q0 20 3 40q16 164 125.5 264.5t267.5 118.5l14 133h99l-15 -131q88 -4 168 -27.5t115 -44.5l35 -20l-52 -88q-125 57 -272 57h-6l-57 -538q199 -70 273 -170q61 -82 61 -209q0 -28 -3 -58q-16 -156 -129.5 -262 t-287.5 -121l-17 -163h-98l16 163q-117 6 -208 40t-124 65zM340 1083q-2 -17 -2 -32q0 -72 39 -119q47 -57 149 -101l54 496q-217 -39 -240 -244zM549 109q242 39 264 266q2 16 2 31q0 69 -38 122q-46 66 -171 117z" />
<glyph unicode="%" horiz-adv-x="1724" d="M168 1030q23 201 142.5 313.5t269.5 112.5q147 0 242 -113q77 -91 77 -239q0 -35 -4 -74q-20 -199 -140 -311.5t-270 -112.5q-147 0 -242 112q-78 92 -79 244q0 32 4 68zM244 0l1233 1434h151l-1231 -1434h-153zM301 1030q-4 -37 -4 -70q0 -241 199 -241q236 0 266 311 q4 39 4 74q0 238 -199 237q-104 0 -177 -75.5t-89 -235.5zM977 397q20 199 140 312.5t269.5 113.5t243.5 -112q77 -93 78 -245q0 -33 -4 -69q-23 -199 -142.5 -311.5t-269 -112.5t-243.5 113q-76 91 -76 238q0 35 4 73zM1110 397q-4 -39 -4 -73q0 -238 199 -238 q233 0 266 311q4 39 4 73q0 238 -201 239q-102 0 -175 -76t-89 -236z" />
<glyph unicode="&#x26;" horiz-adv-x="1275" d="M98 354q12 131 96.5 223.5t262.5 213.5q-130 194 -131 328q0 13 2 26q16 154 122.5 232.5t254.5 78.5q135 0 220 -72q74 -63 74 -165q0 -15 -2 -31q-12 -119 -97 -207t-277 -209q59 -84 174 -213l192 -207q94 152 113 330h104q-23 -248 -137 -414l195 -186l-64 -80 q-74 39 -209 168q-195 -197 -475 -197q-221 0 -329 102q-92 87 -91 229q-1 24 2 50zM231 356q-2 -19 -2 -36q0 -104 73 -163q85 -69 235 -69q227 0 374 162l-223 248q-104 123 -172 211q-137 -96 -206 -173.5t-79 -179.5zM461 1155l-2 -26q0 -114 110 -279l59 41l57 40 l49 35.5t47.5 40t35 38t32.5 43t18.5 43t11.5 51.5q1 10 1 19q0 62 -46 98q-53 42 -142 42q-211 0 -231 -186z" />
<glyph unicode="'" horiz-adv-x="329" d="M193 807l59 627h125l-72 -627h-112z" />
<glyph unicode="(" horiz-adv-x="532" d="M139 547q55 520 350 805q76 74 136 102l43 -61q-14 -10 -36 -32t-82.5 -99.5t-108.5 -166.5t-96 -237.5t-64 -310.5q-10 -92 -10 -179q0 -338 153 -581q37 -57 65 -86l-55 -61q-14 8 -38.5 26.5t-84 91t-101.5 165.5t-67 260q-13 91 -13 191q0 84 9 173z" />
<glyph unicode=")" horiz-adv-x="532" d="M-20 -299q12 10 34.5 31.5t82 99.5t108.5 167t97 237.5t65 310.5q9 89 9 172q0 344 -157 590q-35 55 -63 84l55 61q14 -8 38.5 -26.5t85 -91t102.5 -166t67 -260.5q13 -91 13 -191q0 -83 -9 -172q-20 -197 -78.5 -363t-126 -262t-132.5 -163.5t-108 -94.5l-43 -24z" />
<glyph unicode="*" horiz-adv-x="772" d="M176 1094l10 112q117 0 240 -24l-104 221l102 57q41 -84 78 -221l149 221l92 -57q-57 -88 -161 -197h254l-11 -112q-119 0 -237 24l104 -221l-104 -55q-47 98 -76 219l-152 -219l-90 55q68 102 162 197h-256z" />
<glyph unicode="+" horiz-adv-x="1024" d="M98 553l13 125h405l43 407h131l-43 -407h406l-13 -125h-405l-43 -408h-131l43 408h-406z" />
<glyph unicode="," d="M53 -178q74 66 99 151q-39 2 -64 31q-21 25 -21 58q0 6 1 12q4 41 37.5 70.5t76.5 29.5t71 -30q24 -26 24 -60q0 -5 -1 -10q0 -53 -28 -121q-18 -45 -55 -89t-66 -65l-29 -22z" />
<glyph unicode="-" horiz-adv-x="696" d="M90 471l12 125h615l-12 -125h-615z" />
<glyph unicode="." horiz-adv-x="331" d="M68 74q4 41 37.5 70.5t76.5 29.5q45 0 72 -30q23 -26 23 -60q0 -5 -1 -10q-4 -41 -36.5 -71t-77.5 -30q-43 0 -71 30q-24 26 -24 60q0 6 1 11z" />
<glyph unicode="/" horiz-adv-x="804" d="M0 0l825 1434h129l-825 -1434h-129z" />
<glyph unicode="0" horiz-adv-x="1157" d="M156 715q41 381 183 561t390 180q250 0 355 -180q76 -130 76 -364q0 -91 -11 -197q-39 -379 -182.5 -560.5t-393.5 -181.5q-248 0 -352 181q-76 131 -76 369q0 89 11 192zM305 715q-11 -108 -11 -196q0 -181 48 -277q72 -143 246 -143.5t274.5 143t134.5 473.5 q11 110 12 198q0 181 -47 277q-71 143 -245 143t-274.5 -143t-137.5 -475z" />
<glyph unicode="1" horiz-adv-x="550" d="M166 1202l10 98l338 134h84l-149 -1434h-136l136 1288z" />
<glyph unicode="2" horiz-adv-x="954" d="M61 0l13 125q12 119 94 227.5t192 191.5l221 162q110 79 190.5 174t90.5 193q2 25 3 48q0 97 -44 148q-53 62 -219 62q-78 0 -161 -28.5t-128 -57.5l-45 -28l-43 86q20 16 56 41.5t146 68.5t214 43q199 0 292 -95q76 -77 76 -217q0 -31 -3 -65q-14 -127 -87 -230.5 t-175 -178.5l-205 -149q-104 -73 -198.5 -175t-135.5 -221h684l-12 -125h-816z" />
<glyph unicode="3" horiz-adv-x="995" d="M51 98l45 84q14 -10 43 -24.5t123 -39t195 -24.5q344 0 374 309q3 33 4 63q0 261 -262 261h-221l8 80l484 502h-621l13 125h788l-12 -125l-445 -459h8q47 0 94.5 -7t111 -35t108.5 -74t72 -133q18 -60 18 -132q0 -33 -4 -70q-20 -195 -159.5 -310.5t-346.5 -115.5 q-119 0 -223.5 32t-149.5 63z" />
<glyph unicode="4" horiz-adv-x="1007" d="M82 403l14 125l631 930h145l-630 -930h508l43 426h131l-43 -426h141l-14 -125h-142l-41 -403h-131l41 403h-653z" />
<glyph unicode="5" horiz-adv-x="978" d="M72 98l51 84q8 -10 27.5 -24.5t97.5 -39t178 -24.5t178 37t121 94.5t64.5 112.5t27.5 108q4 38 4 72q0 269 -262 268q-170 -2 -287 -86l-79 17l133 717h723l-13 -125h-604l-86 -457q90 55 234 55q182 0 294 -120q94 -100 94 -264q0 -33 -3 -68q-23 -201 -173.5 -341.5 t-353.5 -140.5q-119 0 -210 32t-124 63z" />
<glyph unicode="6" horiz-adv-x="1017" d="M140 432q-1 27 -1 54q0 108 17 221q20 199 80.5 349t144.5 234t176 125t191 41q78 0 149.5 -28.5t103.5 -57.5l33 -29l-55 -75q-80 76 -219 75q-412 0 -477 -604l-4 -47h6q39 72 134 136.5t220 64.5q184 0 285 -121q82 -99 82 -255q0 -35 -5 -73q-23 -211 -163 -340 t-322 -129q-139 0 -225 61.5t-116 163t-35 234.5zM266 485v-12q0 -387 262 -387q125 0 225.5 92t116.5 264q3 32 4 61q0 108 -48 180q-60 91 -175 91q-74 0 -137 -25.5t-104 -60.5t-74 -80t-47.5 -72.5t-22.5 -50.5z" />
<glyph unicode="7" horiz-adv-x="931" d="M178 1309l12 125h850l-12 -125l-559 -1309h-143l559 1309h-707z" />
<glyph unicode="8" horiz-adv-x="1054" d="M106 342q10 88 55.5 166t109 130t110.5 82t90 48q-123 74 -175 156q-42 66 -42 156q0 21 2 44q14 139 125 235.5t297 96.5q182 0 274 -94q78 -80 79 -200q0 -21 -3 -44q-6 -63 -39 -122.5t-81 -103.5t-88 -72.5t-81 -49.5q162 -92 229 -185q55 -77 54 -185q0 -23 -2 -48 q-18 -174 -149.5 -276.5t-350.5 -102.5q-217 0 -323 100q-92 86 -93 225q0 21 2 44zM238 358q-2 -18 -2 -35q0 -95 58 -157q69 -74 241 -74q324 0 352 260q1 16 1 31q0 92 -53 158q-62 76 -237 157q-6 4 -23 13q-35 -14 -80.5 -40t-105 -70t-102.5 -108.5t-49 -134.5z M387 1124q-1 -14 -1 -28q0 -82 52 -138q61 -66 193 -129l2 -2h4q86 33 169 106t95 179q2 18 2 35q0 87 -54 135q-65 57 -183 57q-111 0 -189 -52t-90 -163z" />
<glyph unicode="9" horiz-adv-x="1017" d="M131 88l55 76q80 -76 220 -76q412 0 477 604l4 47h-6q-37 -72 -133.5 -136t-221.5 -64q-184 0 -283 119q-82 99 -83 260q0 33 4 69q23 211 163 340t322 129q139 0 225.5 -61.5t116 -163t35.5 -234.5q1 -31 1 -62q0 -104 -15 -212q-20 -199 -81 -349.5t-146 -234.5 t-177 -125t-190 -41q-78 0 -149.5 29t-104.5 57zM295 987q-3 -29 -3 -56q0 -111 48 -185q59 -91 174 -91q74 0 137.5 26t104.5 60.5t73.5 79.5t47 73t22.5 50v12q0 387 -262 387q-125 0 -224.5 -92t-117.5 -264z" />
<glyph unicode=":" horiz-adv-x="331" d="M68 74q4 41 37.5 70.5t76.5 29.5q45 0 72 -30q23 -26 23 -60q0 -5 -1 -10q-4 -41 -36.5 -71t-77.5 -30q-43 0 -71 30q-24 26 -24 60q0 6 1 11zM154 879q2 41 36.5 70.5t77.5 29.5t71 -29q24 -25 24 -61q0 -5 -1 -10q-4 -41 -37.5 -71t-78.5 -30q-43 0 -70 30 q-23 26 -23 60q0 6 1 11z" />
<glyph unicode=";" d="M53 -178q74 66 99 151q-39 2 -64 31q-21 25 -21 58q0 6 1 12q4 41 37.5 70.5t76.5 29.5t71 -30q24 -26 24 -60q0 -5 -1 -10q0 -53 -28 -121q-18 -45 -55 -89t-66 -65l-29 -22zM154 879q2 41 36.5 70.5t77.5 29.5t71 -29q24 -25 24 -61q0 -5 -1 -10q-4 -41 -37.5 -71 t-78.5 -30q-43 0 -70 30q-23 26 -23 60q0 6 1 11z" />
<glyph unicode="&#x3c;" horiz-adv-x="1044" d="M90 481l10 103l1016 495l-14 -135l-842 -412l756 -411l-15 -135z" />
<glyph unicode="=" horiz-adv-x="1024" d="M76 332l12 123h942l-12 -123h-942zM121 772l14 125h942l-14 -125h-942z" />
<glyph unicode="&#x3e;" horiz-adv-x="1044" d="M39 -14l14 135l842 411l-756 412l15 135l909 -495l-10 -103z" />
<glyph unicode="?" horiz-adv-x="884" d="M156 1303q20 16 56 41.5t145.5 68.5t213.5 43q197 0 299 -108q85 -90 86 -238q0 -29 -4 -61q-12 -115 -63 -199t-117 -137l-131 -105q-66 -51 -117 -131t-61 -186h-111q12 111 49 194.5t83 130t101 93.5l100 85q46 38 81 102.5t43 145.5q2 23 2 44q0 106 -59 169 q-72 76 -220 76q-78 0 -160.5 -28.5t-127.5 -57.5l-45 -28zM281 74q4 41 37.5 70.5t76.5 29.5t71 -30q24 -26 24 -60q0 -5 -1 -10q-4 -41 -37.5 -71t-76.5 -30t-71 30q-24 26 -24 60q0 6 1 11z" />
<glyph unicode="@" horiz-adv-x="1748" d="M133 690q29 274 182.5 485t363.5 315.5t433 104.5q348 0 525 -190q150 -161 150 -405q0 -45 -5 -93q-31 -291 -199 -490.5t-321 -199.5q-27 0 -48.5 7t-48 32t-31.5 72q-2 18 -2 40q0 36 5 85q-4 -10 -12.5 -25.5t-38 -56.5t-64.5 -72t-93.5 -56.5t-121.5 -25.5 q-131 0 -215 108q-66 85 -66 231q0 39 4 83q25 233 185 413.5t364 180.5q131 0 211 -72l13 47h120l-163 -716q-17 -52 -17 -100v-10q2 -52 45 -52q37 0 92.5 30.5t118 92t113.5 181.5t67 273q4 41 5 80q0 221 -140 352q-164 154 -442 154q-123 0 -257 -49t-259 -142.5 t-216 -253t-112 -358.5q-6 -57 -6 -110q0 -125 34 -228q48 -147 144 -231t211 -126t242 -42q172 0 332.5 69.5t267.5 184.5l53 -53q-131 -152 -307 -230t-357 -78q-168 0 -310 54.5t-246.5 157t-154.5 266.5q-35 113 -35 244q0 59 7 122zM666 649q-5 -46 -5 -86 q0 -233 175 -233q61 0 121.5 42t101.5 101t73.5 117.5t47.5 101.5l16 41l72 326q-66 68 -201 67q-158 0 -269.5 -143.5t-131.5 -333.5z" />
<glyph unicode="A" horiz-adv-x="1165" d="M41 0l604 1434h131l348 -1434h-139l-104 434h-527l-182 -434h-131zM403 551h449l-164 676z" />
<glyph unicode="B" horiz-adv-x="1142" d="M102 0l150 1434h418q252 0 353 -96q87 -82 87 -214q0 -21 -2 -45q-8 -80 -39 -141t-69.5 -91t-75.5 -48.5t-62 -20.5l-24 -4v-6q12 -2 31.5 -6t69.5 -26.5t87 -56.5t61 -105q18 -53 19 -116q0 -21 -2 -44q-23 -205 -148 -309.5t-391 -104.5h-463zM244 125h334q88 0 143 8 t111.5 36t88 88t42.5 157q2 22 2 41q0 114 -70 171q-82 67 -231 66h-361zM315 817h318q135 0 232.5 68.5t109.5 193.5q2 19 2 37q0 96 -66 141q-78 53 -254 54h-288z" />
<glyph unicode="C" horiz-adv-x="1142" d="M156 702q18 172 67 306.5t114.5 217.5t148.5 136t163 73.5t164 20.5q104 0 203.5 -31.5t146.5 -64.5l47 -31l-49 -80q-139 82 -315 82q-479 0 -545 -629q-8 -72 -8 -135q0 -469 428 -469q203 0 354 92l4 3l33 -80q-18 -16 -54 -39t-153 -62t-243 -39q-115 0 -210.5 37 t-173 117t-110.5 227q-20 91 -20 202q0 69 8 146z" />
<glyph unicode="D" horiz-adv-x="1171" d="M102 0l150 1434h405q258 0 401 -183q113 -145 113 -398q0 -66 -8 -138q-37 -350 -217 -532.5t-438 -182.5h-406zM246 125h274q88 0 167 32.5t147.5 100.5t116.5 184.5t65 272.5q7 67 7 127q0 208 -84 321q-108 145 -294 146h-274z" />
<glyph unicode="E" horiz-adv-x="1007" d="M102 0l150 1434h835l-12 -125h-706l-54 -506h603l-15 -125h-602l-57 -553h714l-12 -125h-844z" />
<glyph unicode="F" horiz-adv-x="978" d="M102 0l150 1434h835l-12 -125h-706l-54 -508h600l-14 -125h-600l-70 -676h-129z" />
<glyph unicode="G" horiz-adv-x="1204" d="M156 702q20 203 88.5 355.5t165 235.5t198 123t206 40t203.5 -31.5t146 -64.5l47 -31l-47 -80q-141 82 -317 82q-215 0 -362.5 -153.5t-180.5 -475.5q-8 -73 -7 -136q0 -212 84 -323q110 -144 331 -145q137 0 276 74l60 561h131l-66 -627q-18 -14 -54 -36.5t-153 -59.5 t-243 -37q-115 0 -210.5 37t-173 117t-110.5 227q-20 91 -20 202q0 69 8 146z" />
<glyph unicode="H" horiz-adv-x="1218" d="M102 0l150 1434h129l-66 -633h754l66 633h131l-150 -1434h-131l70 676h-754l-70 -676h-129z" />
<glyph unicode="I" d="M102 0l150 1434h129l-150 -1434h-129z" />
<glyph unicode="J" horiz-adv-x="462" d="M6 68q121 33 186.5 114.5t86.5 266.5l102 985h129l-102 -985q-8 -76 -28 -141.5t-60.5 -146.5t-120.5 -131t-189 -57z" />
<glyph unicode="K" horiz-adv-x="1079" d="M102 0l150 1434h129l-76 -723l684 723h166l-604 -637l528 -797h-164l-460 694l-170 -178l-54 -516h-129z" />
<glyph unicode="L" horiz-adv-x="987" d="M102 0l150 1434h129l-137 -1309h714l-12 -125h-844z" />
<glyph unicode="M" horiz-adv-x="1495" d="M102 0l150 1434h129l424 -1012l606 1012h131l-149 -1434h-131l118 1145l-530 -875h-119l-379 891l-121 -1161h-129z" />
<glyph unicode="N" horiz-adv-x="1245" d="M102 0l150 1434h145l637 -1225l129 1225h129l-149 -1434h-146l-639 1225l-127 -1225h-129z" />
<glyph unicode="O" horiz-adv-x="1325" d="M156 715q39 367 219 554t440 187t400 -186q110 -146 110 -404q0 -71 -8 -151q-39 -369 -218 -555.5t-439.5 -186.5t-401.5 187q-111 146 -111 404q1 71 9 151zM303 715q-8 -74 -8 -139q0 -213 83 -328q108 -150 296 -150q186 0 325.5 149.5t171.5 467.5q8 74 8 139 q0 213 -82 328q-108 150 -294 149q-188 0 -327.5 -149.5t-172.5 -466.5z" />
<glyph unicode="P" horiz-adv-x="1091" d="M102 0l150 1434h375q270 0 400 -105q112 -90 112 -258q0 -26 -2 -55q-23 -209 -173.5 -319.5t-424.5 -110.5h-240l-61 -586h-136zM311 711h240q90 0 155.5 10t132 41t106.5 94.5t50 159.5q3 25 3 48q0 62 -20 108q-28 62 -90.5 90t-124 37.5t-149.5 9.5h-239z" />
<glyph unicode="Q" horiz-adv-x="1339" d="M156 715q39 367 219 554t440 187t400 -186q110 -146 110 -404q0 -71 -8 -151q-31 -295 -156 -474.5t-311 -238.5l379 -260l-45 -61q-156 41 -525 292q-260 0 -401 187q-111 146 -111 404q1 71 9 151zM303 715q-8 -74 -8 -139q0 -213 83 -328q108 -150 296 -150 q186 0 324.5 149.5t170.5 467.5q8 75 8 140q0 213 -81 327q-106 150 -293 149q-188 0 -327.5 -149.5t-172.5 -466.5z" />
<glyph unicode="R" horiz-adv-x="1091" d="M102 0l150 1434h377q268 0 398 -105q112 -90 112 -258q0 -26 -2 -55q-35 -315 -353 -402l246 -614h-145l-236 590q-70 -4 -108 -4h-240l-61 -586h-138zM313 711h240q90 0 154.5 10t131 40t106.5 94.5t50 160.5q3 25 3 48q0 62 -20 108q-28 62 -89.5 90t-122.5 37.5 t-150 9.5h-239z" />
<glyph unicode="S" horiz-adv-x="1091" d="M72 106l49 87q186 -94 393 -95q381 0 412 273q1 13 1 24q0 89 -67 145q-76 62 -254 124q-59 20 -94 33.5t-86 36t-82 43t-64.5 52t-51 65.5t-27.5 79q-6 28 -7 59q0 19 3 39q20 182 158.5 283.5t346.5 101.5q225 0 412 -90l4 -2l-37 -88q-160 55 -348 55 q-367 0 -393 -252q-1 -14 -1 -26q0 -43 15 -77q20 -44 67.5 -74t95.5 -49t120 -44q14 -4 20 -6q231 -80 330 -174q83 -79 83 -217q0 -26 -3 -54q-20 -180 -159.5 -282.5t-352.5 -102.5q-301 0 -465 119z" />
<glyph unicode="T" horiz-adv-x="1067" d="M178 1309l12 125h986l-13 -125h-428l-137 -1309h-129l137 1309h-428z" />
<glyph unicode="U" horiz-adv-x="1196" d="M154 487l98 947h129l-98 -947q-4 -37 -4 -70q0 -141 69 -220q86 -98 260 -99q172 0 278.5 97.5t127.5 291.5l98 947h131l-98 -947q-14 -143 -72.5 -249.5t-141.5 -160.5t-167 -79t-170 -25t-164 25t-149.5 79t-106.5 161q-25 75 -25 169q1 38 5 80z" />
<glyph unicode="V" horiz-adv-x="1196" d="M150 1434h139l329 -1221l588 1221h140l-689 -1434h-118z" />
<glyph unicode="W" horiz-adv-x="1814" d="M150 1434h137l235 -1180l447 1044h147l230 -1044l481 1180h137l-584 -1434h-120l-240 1087l-465 -1087h-121z" />
<glyph unicode="X" horiz-adv-x="1126" d="M0 0l551 723l-389 711h157l322 -588h21l444 588h158l-537 -711l399 -723h-157l-342 616l-469 -616h-158z" />
<glyph unicode="Y" horiz-adv-x="1198" d="M150 1434h145l389 -750l518 750h146l-613 -881l-57 -553h-131l57 547z" />
<glyph unicode="Z" horiz-adv-x="1054" d="M41 0l12 125l932 1184h-778l12 125h936l-12 -125l-932 -1184h815l-12 -125h-973z" />
<glyph unicode="[" horiz-adv-x="534" d="M66 -342l186 1776h422l-12 -119h-293l-162 -1538h293l-13 -119h-421z" />
<glyph unicode="\" horiz-adv-x="804" d="M150 1434h129l526 -1434h-129z" />
<glyph unicode="]" horiz-adv-x="534" d="M-25 -342l13 119h291l161 1538h-293l13 119h422l-187 -1776h-420z" />
<glyph unicode="^" horiz-adv-x="716" d="M98 942l359 492h102l256 -492h-135l-186 358l-261 -358h-135z" />
<glyph unicode="_" horiz-adv-x="614" d="M-12 -125l12 125h614l-14 -125h-612z" />
<glyph unicode="`" horiz-adv-x="452" d="M150 1434h178l231 -410h-125z" />
<glyph unicode="a" horiz-adv-x="907" d="M115 410q25 238 155.5 403.5t323.5 165.5q84 0 159.5 -23.5t110.5 -46.5l33 -24l-92 -885h-100l-5 145q-63 -59 -152 -107t-169 -48q-270 0 -271 316q1 49 7 104zM240 410q-6 -53 -6 -97q0 -99 29 -148q42 -71 134 -71q143 0 310 178l59 562q-82 35 -160 34 q-145 0 -245.5 -129.5t-120.5 -328.5z" />
<glyph unicode="b" horiz-adv-x="933" d="M109 72l143 1362h125l-55 -521q94 66 235 66q184 0 289 -116q83 -92 83 -264q0 -44 -5 -93q-25 -236 -160 -382.5t-336 -146.5q-184 0 -315 91zM240 123q82 -35 176 -35q158 0 260 109.5t123 308.5q4 36 3 68q0 132 -60 206q-75 92 -220 92q-121 0 -213 -79z" />
<glyph unicode="c" horiz-adv-x="811" d="M111 469q25 229 153.5 369.5t298.5 140.5q172 -2 279 -84l-33 -76q-98 53 -227 53q-133 0 -231.5 -113.5t-117.5 -289.5q-4 -34 -3 -65q0 -128 61 -215q76 -108 211 -107q66 0 130 14.5t95 26.5l31 14l18 -76q-14 -10 -38.5 -23t-107.5 -37t-171 -24q-170 0 -272 133 q-82 106 -81 274q0 41 5 85z" />
<glyph unicode="d" horiz-adv-x="917" d="M105 265q-5 40 -5 81q0 45 6 92q55 539 486 539q115 0 192 -70l52 492h125l-146 -1399h-100l-4 143q-158 -168 -320 -168q-90 0 -153.5 39t-92.5 103.5t-40 147.5zM238 265q10 -77 55 -131t121 -54q135 0 305 194l55 527q-78 74 -186 73q-53 0 -92 -7t-85 -32.5 t-77 -70.5t-57.5 -128t-38.5 -198q-5 -48 -5 -91.5t5 -81.5z" />
<glyph unicode="e" horiz-adv-x="876" d="M109 467q25 231 167 371.5t318 140.5q154 0 231 -65q66 -54 66 -162q0 -20 -2 -41q-29 -262 -412 -262h-244q-3 -30 -3 -58q0 -134 74 -212q89 -93 216 -93q72 0 138.5 12.5t95.5 24.5l30 10l21 -72q-135 -84 -320 -84q-193 0 -297 131q-85 105 -84 275q0 40 5 84z M244 524h6q8 2 23.5 5t35 5.5l42.5 5.5l46 6q23 3 47.5 4t42.5 1q258 0 277 162q1 12 1 23q0 65 -40 100q-47 41 -143 41q-113 0 -207 -92.5t-131 -260.5z" />
<glyph unicode="f" horiz-adv-x="616" d="M-31 -395q111 31 166 116.5t76 278.5l88 846h-172l10 108h172l21 181q18 172 91 246.5t202 74.5q47 0 97 -19.5t75 -37.5l26 -19l-33 -71q-92 45 -170 45q-143 0 -165 -219l-21 -181h244l-10 -108q-141 0 -242 14l-90 -860q-4 -43 -8 -65.5l-12.5 -71.5t-20.5 -79 l-30 -73q-17 -43 -43.5 -69.5t-60.5 -54t-81 -43t-103 -17.5z" />
<glyph unicode="g" horiz-adv-x="933" d="M104 -360l35 75q94 -55 244 -55q287 0 319 320l9 63q-94 -66 -236 -66q-184 0 -289 116q-83 92 -83 265q0 44 6 93q25 236 159.5 382t335.5 146q184 0 316 -90l4 -4l-97 -905q-18 -195 -124.5 -309.5t-299.5 -114.5q-190 2 -299 84zM233 451q-4 -36 -3 -69 q0 -132 60 -206q75 -92 220 -92q121 0 213 80l70 670q-82 35 -177 34q-158 0 -260.5 -109t-122.5 -308z" />
<glyph unicode="h" horiz-adv-x="925" d="M102 0l150 1434h125l-64 -607q160 152 328 152q162 0 213 -91q39 -69 39 -182q0 -36 -4 -77l-66 -629h-125l66 629q4 39 4 71q0 75 -20 116q-29 58 -130 58q-145 0 -319 -180l-72 -694h-125z" />
<glyph unicode="i" horiz-adv-x="354" d="M115 0l98 954h125l-98 -954h-125zM253 1236q26 22 56.5 21.5t49.5 -21.5q16 -18 16 -40v-10q-2 -31 -25.5 -51.5t-54.5 -20.5t-51 21q-19 19 -19 45q0 33 28 56z" />
<glyph unicode="j" horiz-adv-x="399" d="M-82 -395q111 31 166 116.5t76 278.5l98 954h125l-98 -954q-6 -47 -10.5 -75.5t-16.5 -83t-26.5 -89.5t-42 -80t-62.5 -72.5t-87 -48t-116 -24.5zM298 1236q24 22 56 21q31 0 50 -21q16 -18 17 -40q0 -5 -1 -10q-2 -31 -25.5 -51.5t-54.5 -20.5q-33 0 -52 21 q-18 19 -18 45q0 31 28 56z" />
<glyph unicode="k" horiz-adv-x="854" d="M102 0l150 1434h125l-98 -930l454 450h154l-404 -399l351 -555h-152l-291 463l-129 -129l-35 -334h-125z" />
<glyph unicode="l" horiz-adv-x="376" d="M135 231q6 98 15 209q2 14 2 21l102 973h125l-103 -973q-18 -132 -18 -224q0 -21 1 -40q5 -102 60 -144l-22 -76q-90 10 -129 83q-34 63 -34 145q0 13 1 26z" />
<glyph unicode="m" horiz-adv-x="1431" d="M102 0l99 954h100l4 -139q135 164 293 164q109 0 163 -48t73 -147q143 195 315 195q164 0 212 -108q33 -73 33 -196q0 -58 -8 -126l-57 -549h-125l58 549q6 58 6 106q0 79 -17 132q-27 87 -123 87q-76 0 -137 -46t-141 -144l-72 -684h-125l62 588q5 44 5 82 q0 205 -142 204q-76 0 -138.5 -47t-140.5 -143l-72 -684h-125z" />
<glyph unicode="n" horiz-adv-x="937" d="M102 0l99 954h100l4 -143q158 168 322 168q166 0 226 -112q45 -83 45 -220q0 -46 -5 -98l-57 -549h-125l57 549q4 39 4 73q0 94 -29 161q-39 91 -137 91q-141 0 -309 -192l-70 -682h-125z" />
<glyph unicode="o" horiz-adv-x="976" d="M111 477q25 236 166 369t317 133q174 0 285 -133q90 -109 90 -287q0 -39 -4 -82q-25 -233 -166.5 -366.5t-317.5 -133.5q-174 0 -284 133q-90 108 -91 285q1 39 5 82zM240 477q-5 -43 -5 -81q0 -134 56 -211q72 -99 203 -99q135 0 228 99.5t114 291.5q4 41 4 79 q0 134 -58 213q-74 101 -200 101q-123 0 -222.5 -102.5t-119.5 -290.5z" />
<glyph unicode="p" horiz-adv-x="917" d="M55 -444l146 1398h100l4 -143q158 168 320 168q90 0 153.5 -39t92 -103.5t39.5 -147.5q5 -40 6 -81q0 -45 -7 -92q-55 -539 -485 -539q-115 0 -193 70l-51 -491h-125zM242 154q78 -74 186 -74q53 0 92 7t85 32.5t77 71t57.5 128t38.5 197.5q5 48 5 91.5t-5 81.5 q-10 77 -55 131t-121 54q-135 0 -305 -194z" />
<glyph unicode="q" horiz-adv-x="933" d="M109 451q25 236 159.5 382t335.5 146q184 0 316 -90l4 -4l-140 -1329h-125l52 487q-94 -66 -236 -66q-184 0 -289 116q-83 92 -83 265q1 44 6 93zM233 451q-4 -36 -3 -69q0 -132 60 -206q75 -92 220 -92q121 0 213 80l70 670q-82 35 -177 34q-158 0 -260.5 -109 t-122.5 -308z" />
<glyph unicode="r" horiz-adv-x="651" d="M102 0l99 954h100q2 -16 3 -41.5t2 -94.5v-26q0 -48 -3 -69l-2 -21q18 47 49 86q135 178 381 179l-14 -133q-98 0 -179 -29t-126 -70t-76 -82t-41 -69l-10 -29l-58 -555h-125z" />
<glyph unicode="s" horiz-adv-x="806" d="M68 68l36 67q129 -49 269 -49q260 0 278 176q1 10 1 20q0 57 -42 87q-49 35 -174 67q-70 18 -115 35.5t-95 49.5t-71 79q-17 37 -17 83q0 13 1 28q14 135 118.5 201.5t256.5 66.5q160 0 289 -64l-31 -69q-115 29 -244 29q-252 0 -268 -158q-2 -27 7 -47.5t22.5 -33.5 t45.5 -27.5t51.5 -21.5t62.5 -20q18 -6 26 -8l91 -31q30 -10 74 -29.5t63.5 -39t41 -49t26.5 -68.5q3 -22 3 -46q0 -20 -2 -42q-14 -131 -120.5 -204t-254.5 -73q-102 0 -185 23t-114 45z" />
<glyph unicode="t" horiz-adv-x="702" d="M129 846l10 108h172l13 105q6 57 20 115.5t25 87.5l12 30h92l-37 -338h242l-10 -108q-143 0 -240 14l-59 -561q-4 -39 -5 -70q0 -71 23 -103q33 -46 100 -46q35 0 80 11t72 24l29 10l18 -72q-115 -76 -221 -76q-225 0 -225 250q0 34 4 72l57 547h-172z" />
<glyph unicode="u" horiz-adv-x="935" d="M145 410l56 544h123l-56 -544q-5 -42 -5 -81q0 -90 28 -155q39 -92 137 -92q141 0 309 192l70 680h125l-98 -954h-101q-4 74 -4 145q-158 -168 -321 -168q-268 0 -269 326q0 50 6 107z" />
<glyph unicode="v" horiz-adv-x="835" d="M98 954h127l221 -751l361 751h127l-457 -954h-104z" />
<glyph unicode="w" horiz-adv-x="1277" d="M98 954h121l152 -733l301 643h114l166 -643l303 733h121l-393 -954h-100l-174 670l-314 -670h-100z" />
<glyph unicode="x" horiz-adv-x="815" d="M0 0l377 494l-256 460h141l199 -356h16l273 356h141l-350 -460l274 -494h-145l-221 395l-304 -395h-145z" />
<glyph unicode="y" horiz-adv-x="835" d="M-16 -375l49 70q63 -39 121 -39q121 0 206 223l50 121h-84l-228 954h135l209 -876l363 876h129l-455 -1106q-123 -299 -329 -299q-105 0 -166 76z" />
<glyph unicode="z" horiz-adv-x="774" d="M41 0l10 111l615 731h-519l11 112h667l-10 -110l-614 -731h542l-10 -113h-692z" />
<glyph unicode="{" horiz-adv-x="612" d="M115 508l8 90q68 0 125 46t67 153l35 315q33 322 289 322h113l-11 -103h-98q-68 0 -109.5 -46t-54.5 -173l-30 -289q-8 -68 -28 -121t-42.5 -79.5t-44 -44t-35.5 -21.5l-14 -4q6 -2 14 -5t29.5 -20.5t36 -44t23.5 -80t3 -120.5l-31 -289q-12 -127 20 -173t99 -46h99 l-11 -103h-112q-256 0 -224 322l33 315q10 106 -35.5 152.5t-113.5 46.5z" />
<glyph unicode="|" d="M86 -143l180 1720h129l-180 -1720h-129z" />
<glyph unicode="}" horiz-adv-x="612" d="M-23 -328l11 103h96q68 0 110 46t54 173l31 289q6 68 25.5 121t43 79.5t45 44t35.5 21.5l14 4q-6 2 -14 5t-29.5 20.5t-37 44t-24.5 79.5q-5 28 -5 61q0 29 4 60l31 289q3 35 3 65q0 75 -23 108q-32 46 -99 46h-98l10 103h112q227 0 227 -253q0 -32 -3 -69l-35 -315 q-2 -19 -2 -36q0 -79 39 -117q47 -46 114 -46l-8 -90q-70 0 -127 -46t-67 -153l-33 -315q-33 -322 -289 -322h-111z" />
<glyph unicode="~" horiz-adv-x="1058" d="M92 498q100 160 270 159q100 0 254 -67q133 -61 224 -62q100 0 176 82l61 -43q-102 -160 -272 -159q-102 0 -252 67q-133 61 -223 62q-100 0 -176 -82z" />
<glyph unicode="&#xa4;" horiz-adv-x="1132" d="M74 512l30 100h103l6 52h-123l31 100h102l70 670h377q266 0 398 -101q114 -87 114 -241q0 -24 -2 -50q-18 -182 -172 -280t-418 -98h-240l-6 -52h252q164 0 237.5 -51t129.5 -192l149 -369h-145l-140 344q-37 94 -92 131t-149 37h-252l-53 -512h-138l54 512h-123z M360 764h240q88 0 153.5 10t131 37t104.5 85t49 146q2 20 2 38q0 61 -21 104q-28 55 -89.5 80.5t-123 35t-149.5 9.5h-239z" />
<glyph unicode="&#xa6;" d="M86 -143l78 737h129l-78 -737h-129zM190 840l76 737h129l-76 -737h-129z" />
<glyph unicode="&#xa7;" horiz-adv-x="884" d="M94 68l37 67q129 -49 268 -49q258 0 279 176q1 10 1 20q0 63 -47 103q-54 47 -134 74.5t-161 59.5t-132 99q-43 56 -43 140q0 17 2 35q14 135 117 213q-47 57 -48 142q0 18 3 38q14 135 119.5 202.5t254.5 67.5q160 0 291 -63l-33 -70q-113 29 -241 29q-252 0 -269 -160 q-1 -10 -1 -20q0 -43 22 -76q27 -41 75 -66.5t106 -47t115.5 -47.5t104.5 -59.5t73 -92.5q19 -44 19 -99q0 -18 -2 -37q-14 -129 -118 -213q49 -61 48 -148q0 -16 -1 -32q-14 -131 -121 -204t-254 -73q-102 0 -185 23t-114 45zM285 799q-1 -9 -1 -19q0 -56 32 -97 q38 -48 89.5 -69.5t133.5 -52.5t125 -55q78 63 86 149q1 11 1 22q0 72 -49 114q-55 47 -174.5 85.5t-165.5 63.5q-70 -61 -77 -141z" />
<glyph unicode="&#xa9;" horiz-adv-x="1568" d="M135 715q25 233 146.5 405t291.5 254t363 82q311 0 497 -196q155 -164 154 -434q0 -54 -6 -111q-25 -227 -144.5 -399.5t-290.5 -257.5t-366 -85q-297 0 -488 200q-162 169 -162 440q0 49 5 102zM225 715q-5 -54 -5 -104q0 -249 135 -394q163 -174 433 -174 q172 0 319.5 71.5t253 227.5t128.5 373q5 52 5 101q0 247 -139 393q-167 175 -425 175q-164 0 -312.5 -70.5t-259 -227t-133.5 -371.5zM485 698q29 258 159 376t284 118q143 -2 252 -94l-41 -62q-86 55 -199 56q-139 0 -226 -89.5t-110 -304.5q-5 -48 -5 -90q0 -133 50 -199 q66 -87 213 -87q135 0 215 63l39 -63l-35 -28q-23 -17 -97.5 -45t-156.5 -28q-160 0 -263 116q-84 93 -83 272q-1 42 4 89z" />
<glyph unicode="&#xaa;" horiz-adv-x="907" d="M115 410q25 238 155.5 403.5t323.5 165.5q84 0 159.5 -23.5t110.5 -46.5l33 -24l-92 -885h-100l-5 145q-63 -59 -152 -107t-169 -48q-270 0 -271 316q1 49 7 104zM240 410q-6 -53 -6 -97q0 -99 29 -148q42 -71 134 -71q143 0 310 178l59 562q-82 35 -160 34 q-145 0 -245.5 -129.5t-120.5 -328.5z" />
<glyph unicode="&#xab;" horiz-adv-x="782" d="M92 492q123 180 225.5 310t143.5 169l41 39l65 -41l-331 -486l223 -473l-62 -35q-12 12 -36.5 42t-103.5 162.5t-165 312.5zM381 494q123 180 222 302t136 154l37 31l55 -35l-305 -444l219 -457l-73 -41l-33 34.5t-97.5 150t-160.5 305.5z" />
<glyph unicode="&#xac;" horiz-adv-x="888" d="M102 596l13 125h807l-33 -330h-129l20 205h-678z" />
<glyph unicode="&#xad;" horiz-adv-x="696" d="M90 471l12 125h615l-12 -125h-615z" />
<glyph unicode="&#xae;" horiz-adv-x="1568" d="M135 715q25 233 146.5 405t291.5 254t363 82q311 0 497 -196q155 -164 154 -434q0 -54 -6 -111q-25 -227 -144.5 -399.5t-290.5 -257.5t-366 -85q-297 0 -488 200q-162 169 -162 440q0 49 5 102zM225 715q-5 -54 -5 -104q0 -249 135 -394q163 -174 433 -174 q172 0 319.5 71.5t253 227.5t128.5 373q5 52 5 101q0 247 -139 393q-167 175 -425 175q-164 0 -312.5 -70.5t-259 -227t-133.5 -371.5zM535 242l98 934h231q174 0 259 -67q73 -57 73 -166q0 -18 -2 -38q-23 -207 -227 -262l157 -401h-110l-154 385q-16 -2 -53 -2h-127 l-41 -383h-104zM688 719h117q266 0 287 186q1 14 1 27q0 84 -59 115q-68 35 -190 34h-117z" />
<glyph unicode="&#xb0;" horiz-adv-x="808" d="M147 1030q23 201 143 313.5t269 112.5q147 0 243 -113q77 -91 77 -239q0 -35 -5 -74q-20 -199 -140 -311.5t-269 -112.5q-147 0 -243 112q-78 92 -78 244q-1 32 3 68zM281 1030q-4 -37 -4 -70q0 -241 198 -241q236 0 266 311q4 39 5 74q0 238 -199 237q-104 0 -177 -75.5 t-89 -235.5z" />
<glyph unicode="&#xb1;" horiz-adv-x="1187" d="M51 109l12 124h1106l-12 -124h-1106zM125 803l12 125h488l43 405h131l-43 -405h487l-12 -125h-488l-43 -406h-131l43 406h-487z" />
<glyph unicode="&#xb2;" horiz-adv-x="954" d="M61 0l13 125q12 119 94 227.5t192 191.5l221 162q110 79 190.5 174t90.5 193q2 25 3 48q0 97 -44 148q-53 62 -219 62q-78 0 -161 -28.5t-128 -57.5l-45 -28l-43 86q20 16 56 41.5t146 68.5t214 43q199 0 292 -95q76 -78 76 -218q0 -31 -3 -64q-14 -127 -87 -230.5 t-175 -178.5l-205 -149q-104 -73 -198.5 -175t-135.5 -221h684l-12 -125h-816z" />
<glyph unicode="&#xb3;" horiz-adv-x="995" d="M51 98l45 84q14 -10 43 -24.5t123 -39t195 -24.5q344 0 374 309q3 33 4 63q0 261 -262 261h-221l8 80l484 502h-621l13 125h788l-12 -125l-445 -459h8q47 0 94.5 -7t111 -35t108.5 -74t72 -133q18 -60 18 -132q0 -33 -4 -70q-20 -195 -159.5 -310.5t-346.5 -115.5 q-119 0 -223.5 32t-149.5 63z" />
<glyph unicode="&#xb5;" horiz-adv-x="935" d="M55 -444l146 1398h123l-50 -473q-6 -58 -6 -108q0 -103 26 -174q38 -106 144 -107q131 0 299 193l70 669h125l-98 -954h-101q-4 74 -4 145q-158 -168 -311 -168q-121 0 -187 99l-53 -520h-123z" />
<glyph unicode="&#x3bc;" horiz-adv-x="935" d="M55 -444l146 1398h123l-50 -473q-6 -58 -6 -108q0 -103 26 -174q38 -106 144 -107q131 0 299 193l70 669h125l-98 -954h-101q-4 74 -4 145q-158 -168 -311 -168q-121 0 -187 99l-53 -520h-123z" />
<glyph unicode="&#xb6;" horiz-adv-x="946" d="M170 1036q18 176 155.5 287t297.5 111h370l-196 -1878h-115l184 1753h-141l-184 -1753h-115l115 1089q-156 0 -273 113q-101 97 -101 234q0 21 3 44z" />
<glyph unicode="&#xb7;" horiz-adv-x="512" d="M225 719q4 41 39 70.5t78 29.5q45 0 71 -29q22 -26 22 -60q0 -5 -1 -11q-4 -41 -36.5 -71t-78.5 -30q-43 0 -70 30q-24 26 -24 60q-1 6 0 11z" />
<glyph unicode="&#xb9;" horiz-adv-x="550" d="M166 1202l10 98l338 134h84l-149 -1434h-136l136 1288z" />
<glyph unicode="&#xba;" horiz-adv-x="976" d="M111 477q25 236 166 369t317 133q174 0 285 -133q90 -109 90 -287q0 -39 -4 -82q-25 -233 -166.5 -366.5t-317.5 -133.5q-174 0 -284 133q-90 108 -91 285q1 39 5 82zM240 477q-5 -43 -5 -81q0 -134 56 -211q72 -99 203 -99q135 0 228 99.5t114 291.5q4 41 4 79 q0 134 -58 213q-74 101 -200 101q-123 0 -222.5 -102.5t-119.5 -290.5z" />
<glyph unicode="&#xbb;" horiz-adv-x="782" d="M45 45l313 457l-211 444l64 35q4 -4 12 -11t36 -43t58.5 -85t82 -141.5t104.5 -206.5q-266 -389 -393 -490zM324 10l321 473l-229 486l73 41q12 -12 36 -42t103 -163t165 -313q-123 -180 -227.5 -309.5t-147.5 -168.5l-41 -39z" />
<glyph unicode="&#xc0;" horiz-adv-x="1165" d="M41 0l604 1434h131l348 -1434h-139l-104 434h-527l-182 -434h-131zM395 1989h178l232 -410h-125zM403 551h449l-164 676z" />
<glyph unicode="&#xc2;" horiz-adv-x="1165" d="M41 0l604 1434h131l348 -1434h-139l-104 434h-527l-182 -434h-131zM383 1579l358 492h103l256 -492h-135l-187 358l-260 -358h-135zM403 551h449l-164 676z" />
<glyph unicode="&#xc3;" horiz-adv-x="1165" d="M41 0l604 1434h131l348 -1434h-139l-104 434h-527l-182 -434h-131zM276 1669q100 160 271 160q100 0 254 -68q133 -61 223 -61q100 0 176 82l62 -43q-102 -160 -273 -160q-102 0 -252 68q-133 61 -223 61q-100 0 -176 -82zM403 551h449l-164 676z" />
<glyph unicode="&#xc5;" horiz-adv-x="1165" d="M41 0l604 1434h131l348 -1434h-139l-104 434h-527l-182 -434h-131zM403 551h449l-164 676zM442 1851q23 201 143 313.5t269 112.5q147 0 243 -112q77 -91 77 -240q0 -35 -5 -74q-20 -199 -140 -311.5t-269 -112.5q-147 0 -243 112q-78 92 -78 244q-1 32 3 68zM575 1851 q-4 -37 -3 -70q0 -241 198 -241q236 0 266 311q4 39 4 74q0 238 -198 238q-104 0 -177.5 -76t-89.5 -236z" />
<glyph unicode="&#xc8;" horiz-adv-x="1007" d="M102 0l150 1434h835l-12 -125h-706l-54 -506h603l-15 -125h-602l-57 -553h714l-12 -125h-844zM354 1989h178l232 -410h-125z" />
<glyph unicode="&#xca;" horiz-adv-x="1007" d="M102 0l150 1434h835l-12 -125h-706l-54 -506h603l-15 -125h-602l-57 -553h714l-12 -125h-844zM342 1579l358 492h103l256 -492h-135l-187 358l-260 -358h-135z" />
<glyph unicode="&#xcc;" d="M0 1989h178l232 -410h-125zM102 0l150 1434h129l-150 -1434h-129z" />
<glyph unicode="&#xce;" d="M-10 1579l358 492h103l256 -492h-136l-186 358l-260 -358h-135zM102 0l150 1434h129l-150 -1434h-129z" />
<glyph unicode="&#xd1;" horiz-adv-x="1245" d="M102 0l150 1434h145l637 -1225l129 1225h129l-149 -1434h-146l-639 1225l-127 -1225h-129zM338 1669q100 160 270 160q100 0 254 -68q133 -61 223 -61q100 0 177 82l61 -43q-102 -160 -272 -160q-102 0 -252 68q-133 61 -224 61q-100 0 -176 -82z" />
<glyph unicode="&#xd2;" horiz-adv-x="1325" d="M156 715q39 367 219 554t440 187t400 -186q110 -146 110 -404q0 -71 -8 -151q-39 -369 -218 -555.5t-439.5 -186.5t-401.5 187q-111 146 -111 404q1 71 9 151zM303 715q-8 -74 -8 -139q0 -213 83 -328q108 -150 296 -150q186 0 325.5 149.5t171.5 467.5q8 74 8 139 q0 213 -82 328q-108 150 -294 149q-188 0 -327.5 -149.5t-172.5 -466.5zM494 1989h178l231 -410h-125z" />
<glyph unicode="&#xd4;" horiz-adv-x="1325" d="M156 715q39 367 219 554t440 187t400 -186q110 -146 110 -404q0 -71 -8 -151q-39 -369 -218 -555.5t-439.5 -186.5t-401.5 187q-111 146 -111 404q1 71 9 151zM303 715q-8 -74 -8 -139q0 -213 83 -328q108 -150 296 -150q186 0 325.5 149.5t171.5 467.5q8 74 8 139 q0 213 -82 328q-108 150 -294 149q-188 0 -327.5 -149.5t-172.5 -466.5zM483 1579l359 492h102l256 -492h-135l-186 358l-261 -358h-135z" />
<glyph unicode="&#xd5;" horiz-adv-x="1325" d="M156 715q39 367 219 554t440 187t400 -186q110 -146 110 -404q0 -71 -8 -151q-39 -369 -218 -555.5t-439.5 -186.5t-401.5 187q-111 146 -111 404q1 71 9 151zM303 715q-8 -74 -8 -139q0 -213 83 -328q108 -150 296 -150q186 0 325.5 149.5t171.5 467.5q8 74 8 139 q0 213 -82 328q-108 150 -294 149q-188 0 -327.5 -149.5t-172.5 -466.5zM375 1669q100 160 270 160q100 0 254 -68q133 -61 223 -61q100 0 176 82l62 -43q-102 -160 -273 -160q-102 0 -251 68q-133 61 -224 61q-100 0 -176 -82z" />
<glyph unicode="&#xd7;" horiz-adv-x="1069" d="M63 215l443 401l-359 402l101 92l360 -401l443 401l84 -92l-445 -402l361 -401l-103 -92l-360 401l-443 -401z" />
<glyph unicode="&#xd9;" horiz-adv-x="1196" d="M154 487l98 947h129l-98 -947q-4 -37 -4 -70q0 -141 69 -220q86 -98 260 -99q172 0 278.5 97.5t127.5 291.5l98 947h131l-98 -947q-14 -143 -72.5 -249.5t-141.5 -160.5t-167 -79t-170 -25t-164 25t-149.5 79t-106.5 161q-25 75 -25 169q1 38 5 80zM432 1989h178 l232 -410h-125z" />
<glyph unicode="&#xdb;" horiz-adv-x="1196" d="M154 487l98 947h129l-98 -947q-4 -37 -4 -70q0 -141 69 -220q86 -98 260 -99q172 0 278.5 97.5t127.5 291.5l98 947h131l-98 -947q-14 -143 -72.5 -249.5t-141.5 -160.5t-167 -79t-170 -25t-164 25t-149.5 79t-106.5 161q-25 75 -25 169q1 38 5 80zM420 1579l358 492h103 l256 -492h-136l-186 358l-260 -358h-135z" />
<glyph unicode="&#xe0;" horiz-adv-x="907" d="M115 410q25 238 155.5 403.5t323.5 165.5q84 0 159.5 -23.5t110.5 -46.5l33 -24l-92 -885h-100l-5 145q-63 -59 -152 -107t-169 -48q-270 0 -271 316q1 49 7 104zM240 410q-6 -53 -6 -97q0 -99 29 -148q42 -71 134 -71q143 0 310 178l59 562q-82 35 -160 34 q-145 0 -245.5 -129.5t-120.5 -328.5zM272 1511h179l231 -409h-125z" />
<glyph unicode="&#xe2;" horiz-adv-x="907" d="M115 410q25 238 155.5 403.5t323.5 165.5q84 0 159.5 -23.5t110.5 -46.5l33 -24l-92 -885h-100l-5 145q-63 -59 -152 -107t-169 -48q-270 0 -271 316q1 49 7 104zM240 410q-6 -53 -6 -97q0 -99 29 -148q42 -71 134 -71q143 0 310 178l59 562q-82 35 -160 34 q-145 0 -245.5 -129.5t-120.5 -328.5zM262 1102l359 491h102l256 -491h-135l-187 358l-260 -358h-135z" />
<glyph unicode="&#xe3;" horiz-adv-x="907" d="M115 410q25 238 155.5 403.5t323.5 165.5q84 0 159.5 -23.5t110.5 -46.5l33 -24l-92 -885h-100l-5 145q-63 -59 -152 -107t-169 -48q-270 0 -271 316q1 49 7 104zM154 1192q100 160 270 160q100 0 254 -68q133 -61 223 -61q100 0 176 82l62 -43q-102 -160 -273 -160 q-102 0 -252 67q-133 61 -223 62q-100 0 -176 -82zM240 410q-6 -53 -6 -97q0 -99 29 -148q42 -71 134 -71q143 0 310 178l59 562q-82 35 -160 34q-145 0 -245.5 -129.5t-120.5 -328.5z" />
<glyph unicode="&#xe5;" horiz-adv-x="907" d="M115 410q25 238 155.5 403.5t323.5 165.5q84 0 159.5 -23.5t110.5 -46.5l33 -24l-92 -885h-100l-5 145q-63 -59 -152 -107t-169 -48q-270 0 -271 316q1 49 7 104zM240 410q-6 -53 -6 -97q0 -99 29 -148q42 -71 134 -71q143 0 310 178l59 562q-82 35 -160 34 q-145 0 -245.5 -129.5t-120.5 -328.5zM346 1526q23 201 142.5 313.5t269.5 112.5q147 0 242 -113q77 -91 77 -240q0 -35 -4 -73q-20 -199 -140 -311.5t-269 -112.5q-147 0 -243 111q-78 92 -79 245q0 32 4 68zM479 1526q-4 -37 -3 -70q0 -241 198 -242q236 0 266 312 q4 39 4 73q0 238 -199 238q-104 0 -177 -75.5t-89 -235.5z" />
<glyph unicode="&#xe8;" horiz-adv-x="876" d="M109 467q25 231 167 371.5t318 140.5q154 0 231 -65q66 -54 66 -162q0 -20 -2 -41q-29 -262 -412 -262h-244q-3 -30 -3 -58q0 -134 74 -212q89 -93 216 -93q72 0 138.5 12.5t95.5 24.5l30 10l21 -72q-135 -84 -320 -84q-193 0 -297 131q-85 105 -84 275q0 40 5 84z M244 524h6q8 2 23.5 5t35 5.5l42.5 5.5l46 6q23 3 47.5 4t42.5 1q258 0 277 162q1 12 1 23q0 65 -40 100q-47 41 -143 41q-113 0 -207 -92.5t-131 -260.5zM272 1511h179l231 -409h-125z" />
<glyph unicode="&#xea;" horiz-adv-x="876" d="M109 467q25 231 167 371.5t318 140.5q154 0 231 -65q66 -54 66 -162q0 -20 -2 -41q-29 -262 -412 -262h-244q-3 -30 -3 -58q0 -134 74 -212q89 -93 216 -93q72 0 138.5 12.5t95.5 24.5l30 10l21 -72q-135 -84 -320 -84q-193 0 -297 131q-85 105 -84 275q0 40 5 84z M244 524h6q8 2 23.5 5t35 5.5l42.5 5.5l46 6q23 3 47.5 4t42.5 1q258 0 277 162q1 12 1 23q0 65 -40 100q-47 41 -143 41q-113 0 -207 -92.5t-131 -260.5zM262 1102l359 491h102l256 -491h-135l-187 358l-260 -358h-135z" />
<glyph unicode="&#xec;" horiz-adv-x="354" d="M-12 1790h178l231 -410h-125zM115 0l98 954h125l-98 -954h-125zM253 1236q26 22 56.5 21.5t49.5 -21.5q16 -18 16 -40v-10q-2 -31 -25.5 -51.5t-54.5 -20.5t-51 21q-19 19 -19 45q0 33 28 56z" />
<glyph unicode="&#xee;" horiz-adv-x="354" d="M-23 1380l359 492h102l256 -492h-135l-186 359l-260 -359h-136zM115 0l98 954h125l-98 -954h-125zM253 1236q26 22 56.5 21.5t49.5 -21.5q16 -18 16 -40v-10q-2 -31 -25.5 -51.5t-54.5 -20.5t-51 21q-19 19 -19 45q0 33 28 56z" />
<glyph unicode="&#xf1;" horiz-adv-x="937" d="M102 0l99 954h100l4 -143q158 168 322 168q166 0 226 -112q45 -83 45 -220q0 -46 -5 -98l-57 -549h-125l57 549q4 39 4 73q0 94 -29 161q-39 91 -137 91q-141 0 -309 -192l-70 -682h-125zM186 1192q100 160 271 160q100 0 254 -68q133 -61 223 -61q100 0 176 82l61 -43 q-102 -160 -272 -160q-102 0 -252 67q-133 61 -223 62q-100 0 -176 -82z" />
<glyph unicode="&#xf2;" horiz-adv-x="976" d="M111 477q25 236 166 369t317 133q174 0 285 -133q90 -109 90 -287q0 -39 -4 -82q-25 -233 -166.5 -366.5t-317.5 -133.5q-174 0 -284 133q-90 108 -91 285q1 39 5 82zM240 477q-5 -43 -5 -81q0 -134 56 -211q72 -99 203 -99q135 0 228 99.5t114 291.5q4 41 4 79 q0 134 -58 213q-74 101 -200 101q-123 0 -222.5 -102.5t-119.5 -290.5zM272 1511h179l231 -409h-125z" />
<glyph unicode="&#xf4;" horiz-adv-x="976" d="M111 477q25 236 166 369t317 133q174 0 285 -133q90 -109 90 -287q0 -39 -4 -82q-25 -233 -166.5 -366.5t-317.5 -133.5q-174 0 -284 133q-90 108 -91 285q1 39 5 82zM240 477q-5 -43 -5 -81q0 -134 56 -211q72 -99 203 -99q135 0 228 99.5t114 291.5q4 41 4 79 q0 134 -58 213q-74 101 -200 101q-123 0 -222.5 -102.5t-119.5 -290.5zM262 1102l359 491h102l256 -491h-135l-187 358l-260 -358h-135z" />
<glyph unicode="&#xf5;" horiz-adv-x="976" d="M111 477q25 236 166 369t317 133q174 0 285 -133q90 -109 90 -287q0 -39 -4 -82q-25 -233 -166.5 -366.5t-317.5 -133.5q-174 0 -284 133q-90 108 -91 285q1 39 5 82zM154 1192q100 160 270 160q100 0 254 -68q133 -61 223 -61q100 0 176 82l62 -43q-102 -160 -273 -160 q-102 0 -252 67q-133 61 -223 62q-100 0 -176 -82zM240 477q-5 -43 -5 -81q0 -134 56 -211q72 -99 203 -99q135 0 228 99.5t114 291.5q4 41 4 79q0 134 -58 213q-74 101 -200 101q-123 0 -222.5 -102.5t-119.5 -290.5z" />
<glyph unicode="&#xf7;" horiz-adv-x="1187" d="M98 553l13 125h1106l-13 -125h-1106zM551 267q33 28 74 28t66 -28q22 -24 22 -56v-10q-4 -41 -36 -69t-73 -28t-67 29q-23 25 -23 58q0 44 37 76zM637 1099q33 28 74 27.5t66 -27.5q22 -24 22 -58v-11q-4 -39 -35 -66.5t-72 -27.5t-68 28q-24 24 -24 56q0 47 37 79z" />
<glyph unicode="&#xf9;" horiz-adv-x="935" d="M145 410l56 544h123l-56 -544q-5 -42 -5 -81q0 -90 28 -155q39 -92 137 -92q141 0 309 192l70 680h125l-98 -954h-101q-4 74 -4 145q-158 -168 -321 -168q-268 0 -269 326q0 50 6 107zM252 1511h178l232 -409h-125z" />
<glyph unicode="&#xfb;" horiz-adv-x="935" d="M145 410l56 544h123l-56 -544q-5 -42 -5 -81q0 -90 28 -155q39 -92 137 -92q141 0 309 192l70 680h125l-98 -954h-101q-4 74 -4 145q-158 -168 -321 -168q-268 0 -269 326q0 50 6 107zM240 1102l358 491h102l256 -491h-135l-186 358l-260 -358h-135z" />
<glyph unicode="&#x152;" horiz-adv-x="2332" d="M156 715q39 367 219 554t440 187t400 -186q110 -146 110 -404q0 -71 -8 -151q-39 -369 -218 -555.5t-439.5 -186.5t-401.5 187q-111 146 -111 404q1 71 9 151zM303 715q-8 -74 -8 -139q0 -213 83 -328q108 -150 296 -150q186 0 325.5 149.5t171.5 467.5q8 74 8 139 q0 213 -82 328q-108 150 -294 149q-188 0 -327.5 -149.5t-172.5 -466.5zM1427 0l150 1434h836l-13 -125h-706l-54 -506h603l-15 -125h-602l-57 -553h715l-13 -125h-844z" />
<glyph unicode="&#x153;" horiz-adv-x="1853" d="M111 477q25 236 166 369t317 133q174 0 285 -133q90 -109 90 -287q0 -39 -4 -82q-25 -233 -166.5 -366.5t-317.5 -133.5q-174 0 -284 133q-90 108 -91 285q1 39 5 82zM240 477q-5 -43 -5 -81q0 -134 56 -211q72 -99 203 -99q135 0 228 99.5t114 291.5q4 41 4 79 q0 134 -58 213q-74 101 -200 101q-123 0 -222.5 -102.5t-119.5 -290.5zM1085 467q25 231 167.5 371.5t318.5 140.5q154 0 231 -65q66 -54 66 -162q0 -20 -2 -41q-29 -262 -412 -262h-244q-3 -30 -3 -58q0 -134 74 -212q89 -93 216 -93q72 0 138.5 12.5t95.5 24.5l30 10 l21 -72q-135 -84 -320 -84q-193 0 -297 131q-85 105 -84 275q-1 40 4 84zM1221 524h6q8 2 23.5 5t35 5.5l42.5 5.5l46 6q23 3 47.5 4t42.5 1q258 0 277 162q1 12 1 23q0 65 -40 100q-47 41 -143 41q-113 0 -207 -92.5t-131 -260.5z" />
<glyph unicode="&#x2c6;" horiz-adv-x="716" d="M98 942l359 492h102l256 -492h-135l-186 358l-261 -358h-135z" />
<glyph unicode="&#x2dc;" horiz-adv-x="512" d="M-440 213q100 160 270 160q100 0 254 -68q133 -61 223 -61q100 0 176 82l62 -43q-102 -160 -273 -160q-102 0 -252 67q-133 61 -223 62q-100 0 -176 -82z" />
<glyph unicode="&#x2013;" horiz-adv-x="1122" d="M90 471l12 125h1041l-13 -125h-1040z" />
<glyph unicode="&#x2014;" horiz-adv-x="1372" d="M90 471l12 125h1291l-13 -125h-1290z" />
<glyph unicode="&#x2018;" horiz-adv-x="327" d="M186 807q23 209 52.5 365.5t48.5 207.5l18 54h70l-66 -627h-123z" />
<glyph unicode="&#x2019;" d="M236 807q-13 62 -14 175q0 169 30 452h129l-66 -627h-79z" />
<glyph unicode="&#x201a;" d="M113 -360q-13 62 -13 175q0 169 29 451h129l-65 -626h-80z" />
<glyph unicode="&#x201c;" horiz-adv-x="571" d="M186 807q23 209 52.5 365.5t48.5 207.5l18 54h70l-66 -627h-123zM428 807l66 627h124l-65 -627h-125z" />
<glyph unicode="&#x201d;" horiz-adv-x="565" d="M236 807q-13 62 -14 175q0 169 30 452h129l-66 -627h-79zM428 807l66 627h118l-65 -627h-119z" />
<glyph unicode="&#x201e;" horiz-adv-x="565" d="M113 -360q-13 62 -13 175q0 169 29 451h129l-65 -626h-80zM305 -360l66 626h118l-65 -626h-119z" />
<glyph unicode="&#x2022;" horiz-adv-x="655" d="M176 717q10 100 80 162.5t170 62.5t156 -62q47 -53 46 -133q0 -15 -1 -30q-10 -100 -79 -162.5t-169 -62.5t-157 62q-48 53 -47 133q-1 15 1 30z" />
<glyph unicode="&#x2026;" horiz-adv-x="1159" d="M68 74q4 41 37.5 70.5t76.5 29.5q45 0 72 -30q23 -26 23 -60q0 -5 -1 -10q-4 -41 -36.5 -71t-77.5 -30q-43 0 -71 30q-24 26 -24 60q0 6 1 11zM481 74q4 41 38 70.5t77 29.5q45 0 72 -30q23 -26 23 -60q0 -5 -1 -10q-4 -41 -36.5 -71t-78.5 -30q-43 0 -70 30 q-24 26 -24 60q-1 6 0 11zM895 74q4 41 38 70.5t77 29.5q45 0 71 -30q23 -26 23 -60v-10q-4 -41 -37 -71t-78 -30q-43 0 -70 30q-24 26 -25 60q0 6 1 11z" />
<glyph unicode="&#x2039;" horiz-adv-x="1044" d="M90 481l10 103l1016 495l-14 -135l-842 -412l756 -411l-15 -135z" />
<glyph unicode="&#x203a;" horiz-adv-x="1044" d="M39 -14l14 135l842 411l-756 412l15 135l909 -495l-10 -103z" />
<glyph unicode="&#x20ac;" horiz-adv-x="1110" d="M55 535l39 98h152q4 45 8 69q4 53 8 78h-180l39 99h160q35 162 98 279.5t141 180t153 90t152 27.5q66 0 123.5 -13t92 -31.5t61 -37t37.5 -31.5l10 -14l-57 -74l-28 22q-17 13 -78.5 34.5t-127.5 21.5q-334 0 -432 -454h592l-39 -99h-569q-6 -25 -11 -78q-4 -25 -8 -69 h543l-39 -98h-506q0 -231 86 -334t258 -103q82 0 157 22.5t109 47.5l33 22l47 -77q-4 -6 -13 -15.5t-44 -33t-77 -42t-112.5 -34t-150.5 -15.5q-195 0 -316.5 132.5t-121.5 429.5h-189z" />
<glyph unicode="&#x2122;" horiz-adv-x="1204" d="M141 1350l9 84h479l-8 -84h-193l-55 -521h-97l56 521h-191zM623 829l63 605h94l183 -408l256 408h94l-64 -605h-94l45 418l-207 -325h-78l-153 331l-45 -424h-94z" />
<glyph unicode="&#xe000;" horiz-adv-x="955" d="M0 955h955v-955h-955v955z" />
<glyph unicode="&#xfb01;" horiz-adv-x="970" d="M-31 -395q111 31 166 116.5t76 278.5l88 846h-172l10 108h172l21 181q18 172 91 246.5t202 74.5q47 0 97 -19.5t75 -37.5l26 -19l-33 -71q-92 45 -170 45q-143 0 -165 -219l-21 -181h244l-10 -108q-141 0 -242 14l-90 -860q-4 -43 -8 -65.5l-12.5 -71.5t-20.5 -79 l-30 -73q-17 -43 -43.5 -69.5t-60.5 -54t-81 -43t-103 -17.5zM731 0l98 954h125l-98 -954h-125zM869 1236q26 22 56.5 21.5t50.5 -21.5q16 -18 16 -40q0 -5 -1 -10q-2 -31 -25.5 -51.5t-54 -20.5t-51.5 21q-19 19 -18 45q-1 33 27 56z" />
<glyph unicode="&#xfb02;" horiz-adv-x="993" d="M-31 -395q111 31 166 116.5t76 278.5l88 846h-172l10 108h172l21 181q18 172 91 246.5t202 74.5q47 0 97 -19.5t75 -37.5l26 -19l-33 -71q-92 45 -170 45q-143 0 -165 -219l-21 -181h244l-10 -108q-141 0 -242 14l-90 -860q-4 -43 -8 -65.5l-12.5 -71.5t-20.5 -79 l-30 -73q-17 -43 -43.5 -69.5t-60.5 -54t-81 -43t-103 -17.5zM752 231q6 98 14 209q2 14 2 21l102 973h125l-102 -973q-18 -132 -18 -224q0 -21 1 -40q5 -102 60 -144l-23 -76q-90 10 -129 83q-34 63 -33 145q0 13 1 26z" />
<glyph unicode="&#xfb03;" horiz-adv-x="1587" d="M-31 -395q111 31 166 116.5t76 278.5l88 846h-172l10 108h172l21 181q18 172 91 246.5t202 74.5q47 0 97 -19.5t75 -37.5l26 -19l-33 -71q-92 45 -170 45q-143 0 -165 -219l-21 -181h244l-10 -108q-141 0 -242 14l-90 -860q-4 -43 -8 -65.5l-12.5 -71.5t-20.5 -79 l-30 -73q-17 -43 -43.5 -69.5t-60.5 -54t-81 -43t-103 -17.5zM586 -395q111 31 166 116.5t75 278.5l88 846h-172l11 108h172l20 181q18 172 91 246.5t202 74.5q47 0 97 -19.5t75 -37.5l27 -19l-33 -71q-92 45 -170 45q-143 0 -166 -219l-20 -181h243l-10 -108 q-141 0 -242 14l-90 -860q-4 -43 -8 -65.5t-12 -71.5t-21 -79l-29 -73q-17 -43 -44 -69.5t-61 -54t-81 -43t-102 -17.5zM1348 0l98 954h125l-98 -954h-125zM1486 1236q26 22 56.5 21.5t49.5 -21.5q16 -18 16 -40v-10q-2 -31 -25.5 -51.5t-54.5 -20.5t-51 21q-19 19 -19 45 q0 33 28 56z" />
<glyph unicode="&#xfb04;" horiz-adv-x="1609" d="M-31 -395q111 31 166 116.5t76 278.5l88 846h-172l10 108h172l21 181q18 172 91 246.5t202 74.5q47 0 97 -19.5t75 -37.5l26 -19l-33 -71q-92 45 -170 45q-143 0 -165 -219l-21 -181h244l-10 -108q-141 0 -242 14l-90 -860q-4 -43 -8 -65.5l-12.5 -71.5t-20.5 -79 l-30 -73q-17 -43 -43.5 -69.5t-60.5 -54t-81 -43t-103 -17.5zM586 -395q111 31 166 116.5t75 278.5l88 846h-172l11 108h172l20 181q18 172 91 246.5t202 74.5q47 0 97 -19.5t75 -37.5l27 -19l-33 -71q-92 45 -170 45q-143 0 -166 -219l-20 -181h243l-10 -108 q-141 0 -242 14l-90 -860q-4 -43 -8 -65.5t-12 -71.5t-21 -79l-29 -73q-17 -43 -44 -69.5t-61 -54t-81 -43t-102 -17.5zM1368 231q6 98 14 209q2 14 2 21l103 973h125l-103 -973q-18 -132 -18 -224q0 -21 1 -40q5 -102 60 -144l-22 -76q-90 10 -129 83q-34 63 -34 145 q0 13 1 26z" />
</font>
</defs>
</svg>
