<?xml version="1.0" standalone="no"?>
<!DOCTYPE svg PUBLIC "-//W3C//DTD SVG 1.1//EN" "http://www.w3.org/Graphics/SVG/1.1/DTD/svg11.dtd" >
<svg xmlns="http://www.w3.org/2000/svg">
<metadata>
This is a custom SVG webfont generated by Font Squirrel.
Copyright   : Copyright c 2010 by  All rights reserved
Designer    : MRfrukta
Foundry     : MRfrukta Frolov Alexey
Foundry URL : httptwittercomMRfrukta
</metadata>
<defs>
<font id="SumkinfreetypeMRfrukta2010Rg" horiz-adv-x="843" >
<font-face units-per-em="1000" ascent="750" descent="-250" />
<missing-glyph horiz-adv-x="500" />
<glyph unicode=" "  horiz-adv-x="500" />
<glyph unicode="&#x09;" horiz-adv-x="500" />
<glyph unicode="&#xa0;" horiz-adv-x="500" />
<glyph unicode="!" horiz-adv-x="308" d="M62 542q1 7 9 74t10 101.5t-2 66.5q38 39 115 45q80 6 88 2q11 -41 11 -116q0 -77 -6 -161q-5 -82 -12 -156l-10 -103q-25 0 -89 6q-66 6 -103 42q-2 12 -8 77q-6 70 -3 122zM272 254q15 -32 2 -107q-14 -75 -6 -80q-35 -16 -117 -14q-75 3 -88 5q-23 33 -16 114 q7 84 33 99q3 0 89 -2q66 -2 103 -15z" />
<glyph unicode="&#x22;" horiz-adv-x="207" d="M44 786l-5 96q-2 13 5 19t23 4l32 -3q7 -7 10 -28q4 -22 -4 -98q-8 -74 -5 -79q0 -2 -19 -3q-20 -2 -27 10q-6 11 -10 82zM124 883q-2 13 4.5 18.5t22.5 4.5l32 -3q8 -8 11 -28q3 -23 -5 -98q-7 -72 -4 -79q0 -1 -20 -3q-19 -1 -26 10q-7 10 -11 82q-4 65 -4 96z" />
<glyph unicode="#" horiz-adv-x="1256" d="M405 472v19h5v9h5v5h9v4h10v-4h4v4h5v24h-24v-5h-4v-5h-5v10h-23v-19h-5v-23h-5v-24h-4v-28h23v10h5v23h4zM279 491v9h10v5h4v4h5v10h5v33h-5v4h-5v5h-4v4h-66v-9h-5v-23h-5v-24h-4v-23h-5v-24h-5v-23h24v5h5v14h4v23h5v10h14v-5h4v-9h5v-24h5v-14h28v14h-4v28h-5v10h-5z M794 477v23h5v23h5v10h-24v-10h-5v5h-4v5h-33v-5h-9v-5h-5v-4h-5v-5h-4v-9h-5v-14h-5v-33h5v-9h5v-5h4v-5h29v5h9v5h4v-10h24v14h5v24h4zM532 477v23h5v23h5v10h-29v-14h-5v-28h-4v-14h-5v-5h-4v-5h-5v-5h-5v-4h-9v4h-5v15h5v23h4v19h5v14h-28v-14h-5v-23h-4v-47h4v-5h5v-5 h28v5h10v5h4v-10h23v14h5v24h5zM677 472v24h5v18h23v19h-18v9h4v14h-28v-14h-5v-9h-13v-19h9v-18h-5v-24h-4v-19h4v-9h5v-5h33v5h4v18h-4v-4h-10v4h-5v10h5zM583 505v14h5v23h5v28h-24v-14h-4v-23h-5v-19h-5v-28h-4v-24h-5v-23h23v10h5v28h5v4h4v-9h5v-14h5v-9h5v-10h27v14 h-4v9h-5v10h-5v9h-4v15h4v4h5v5h5v4h4v5h5v5h5v4h5v10h-29v-5h-4v-5h-5v-4h-4v-5h-5v-5h-5v-4h-5zM190 496v23h5v23h4v23h-37v-4h-5v-5h-4v-9h-5v-5h-5v-9h-4v-10h-5v-9h-5v-5h-4v-9h-5v-9h-5v-5h-5v5h-5v37h-4v24h-5v9h-4v4h-33v-4h-5v-5h-5v-23h-4v-24h-5v-23h-5v-24h-4 v-23h23v5h5v23h4v29h5v23h5v19h5v-33h5v-28h4v-33h5v-5h23v5h5v9h5v9h4v10h5v9h5v5h4v10h5v9h5v9h4v5h5v9h5v-23h-5v-24h-5v-23h-4v-19h23v10h5v23h4v24h5zM363 542v5h5v5h19v18h-33v-5h-9v-4h-5v-9h-5v-14h-4v-5h-15v-19h10v-23h-5v-24h-5v-23h-4v-14h-5v-5h-14v-5h-4v-14 h32v5h5v5h5v4h4v10h5v23h5v24h4v19h5v18h19v5h4v14h-18v9h4zM-16 477h-5v84h5v28h5v19h5v18h5v15h4v13h4v10h5v14h5v9h4v10h5v9h5v9h4v5h5v9h5v10h4v5h5v9h5v5h4v4h5v9h5v5h5v5h5v5h4v5h5v9h4v4h5v5h4v5h5v4h5v5h5v5h9v5h5v4h5v5h4v9h5v5h5v5h4v4h5v5h5v5h4v4h5v5h5v5h4v5h5 v4h5v5h4v5h5v4h5v5h4v4h5v5h5v5h5v5h4v4h5v5h5v5h4v4h5v5h4v5h5v4h5v5h5v5h4v4h5v5h5v5h5v5h4v4h5v5h5v5h4v4h5v5h4v4h5v5h5v5h5v5h4v4h5v5h5v5h4v5h5v4h5v5h4v4h5v5h5v5h4v4h5v5h5v5h5v5h4v4h5v5h9v-5h5v-4h4v-5h5v-5h5v-5h5v-4h4v-5h5v-5h5v-4h4v-5h5v-4h4v-5h5v-5h5v-5h5 v-4h4v-5h5v-5h5v-5h5v-4h4v-5h5v-4h4v-5h5v-5h5v-4h4v-5h5v-5h5v-5h5v-4h5v-5h4v-5h5v-4h4v-5h5v-5h5v-4h4v-5h5v-5h5v-4h4v-5h5v-5h5v-5h5v-4h4v-5h5v-4h4v-5h5v-5h5v-4h4v-5h5v-5h5v-5h5v-4h5v-5h4v-5h5v-4h4v-5h5v-5h4v-4h5v-5h5v-5h5v-4h5v-5h4v-5h5v-5h5v-4h4v-5h5v-9 h5v-5h4v-4h5v-5h5v-5h4v-5h5v-9h5v-5h5v-4h4v-10h5v-4h4v-10h5v-5h5v-9h4v-9h5v-5h5v-9h5v-10h4v-9h5v-10h5v-9h4v-14h5v-14h4v-14h5v-14h5v-23h5v-33h4v-5h-4v-80h-5v-23h-5v-23h-5v-19h-4v-19h-5v-14h-4v-9h-5v-14h-5v-9h-4v-10h-5v-10h-5v-9h-5v-9h-4v-9h-5v-5h-5v-9h-4 v-5h-5v-10h-4v-4h-5v-10h-5v-4h-5v-5h-4v-9h-5v-5h-5v-5h-4v-5h-5v-4h-5v-5h-4v-4h-5v-5h-5v-5h-4v-4h-10v-5h-5v-5h-5v-5h-4v-4h-5v-5h-9v-5h-4v-4h-10v-5h-5v-5h-9v-4h-10v-5h-9v-5h-9v-4h-10v-5h-9v-5h-14v-5h-9v-4h-19v-5h-14v-5h-23v-4h-29v-5h-23v-4h-70v4h-38v5h-28 v4h-18v5h-19v5h-15v4h-13v5h-10v5h-9v5h-10v4h-9v5h-9v5h-10v4h-9v5h-5v5h-9v4h-5v5h-4v5h-10v4h-4v5h-5v5h-9v5h-5v4h-5v5h-5v5h-5v4h-4v5h-5v4h-4v5h-5v10h-4v5h-5v4h-5v9h-5v5h-5v5h-4v9h-5v5h-5v9h-4v10h-5v4h-5v10h-4v9h-5v9h-5v10h-4v14h-5v9h-5v14h-4v14h-4v14h-5v24 h-5v23h-5v38zM733 462v34h5v9h5v4h5v5h13v-5h5v-4h5v-14h-5v-14h-5v-10h-4v-5h-9v-4h-10v4h-5zM242 509v19h4v19h24v-5h4v-23h-4v-5h-10v-5h-18zM-317 119q-42 48 -61 176q-20 134 -20 276q0 150 19 276q20 132 56 174q37 43 91 50q56 9 104 2q50 -8 86 -21q9 -4 15 -6 t10.5 -4t6.5 -4l2 -1q-11 -16 -17 -84q-8 -74 -18 -148q-10 -78 -29 -151q-20 -71 -54 -89q-2 -2 -5 -6q2 3 5 6q4 4 26 -18q22 -23 39 -90q25 -95 34 -218q9 -121 25 -143l-2 -2q-2 -1 -7 -3t-11.5 -4t-16.5 -6q-36 -11 -90 -19q-54 -6 -105 4q-55 11 -83 53zM1116 105 q-29 -42 -84 -53q-51 -10 -105 -4q-57 8 -89 20l-14 4l-10.5 4.5t-7 2.5t-4.5 2l-1 1q15 22 24 143q9 123 34 218q18 69 39 91q23 23 27 17l5 -7l-1 1l-4 6q-35 18 -54 88t-30 151q-3 24 -17 149q-8 71 -17 84q-1 1 33 15q36 13 86 21q48 7 105 -1q54 -8 90 -51 q37 -43 57 -173q20 -129 18 -276q0 -143 -20 -277q-19 -129 -60 -176z" />
<glyph unicode="$" d="M551 301h4v9h4v30h-4v4h-17v-4h-4v-5h-5v-3h-4v-9h-4v-22h4v-4h4v-5h17v5h5v4zM422 292h30v18h5v22h-9v-5h-4v5h-13v-5h-4v-4h-5v-9h-4v-17h4v-5zM636 306h5v12h4v17h-4v9h-22v-4h-4v-5h-4v-8h-5v-30h5v-5h17v5h8v9zM328 301h-8v17h4v14h-13v-22h-4v-13h4v-5h13v5h9v-5h8 v18h4v22h-8v-9h-4v-17h-5v-5zM396 332h-3v-9h3v-13h-3v-13h3v-5h14v9h-5v22h13v9h-8v8h-14v-8zM290 318h4v5h13v9h-26v-18h-4v-22h8v9h5v17zM576 340v-5h-4v-3h9v-14h-5v-17h-13v-9h35v9h-9v22h4v21h-8v-4h-9zM166 318h-5v22h-4v4h-17v-17h-4v-21h-5v-14h13v26h4v14h5v-35h4 v-5h13v9h4v9h4v8h5v5h4v-13h-4v-18h8v14h4v8h5v30h-13v-4h-4v-5h-5v-8h-4v-9h-4v-4h-4v4zM486 332h5v3h12v-3h5v-5h-5v-4h-3v-5h-5v-4h-4v-4h-5v-4h-4v-5h-4v-9h34v9h-17v5h5v4h3v4h5v4h4v5h5v17h-5v4h-17v-4h-9v-8zM371 327v-4h-4v17h4v9h-13v-26h-4v-22h-4v-9h8v5h4v9h5 v-5h4v-9h8v14h-4v12h4v5h5v4h4v5h-13v-5h-4zM251 323h4v-26h-4v-8h-8v-9h12v4h5v13h4v17h4v9h9v9h-9v3h4v5h9v9h-13v-5h-4v-4h-4v-8h-9v3h-4v5h-4v4h-31v-17h-4v-21h-4v-14h13v22h13v-22h13v18h-5v8h5v5h4v4h4v-4zM709 421h-13v-13h5v-12h4v-5h-4v-8h-5v-5h-4v-8h-5v-9h14v5 h4v8h4v4h4v5h5v21h-5v9h-4v8zM735 421h-13v-8h4v-13h4v-13h-4v-4h-4v-9h-4v-4h-5v-9h13v5h4v4h5v4h4v9h4v4h5v9h-5v12h-4v9h-4v4zM615 400h4v17h5v-13h4v-13h4v-8h4v-13h5v-9h4v-4h17v4h5v22h3v13h5v21h4v25h-12v-4h-5v-21h-4v-21h-5v-13h-4v17h-4v8h-4v13h-5v13h-4v8h-21 v-4h-5v-30h-4v-21h-4v-13h-5v-17h13v4h5v17h4v22zM191 408h4v9h5v4h-13v-4h-4v-4h-5v-5h-4v-8h-4v-4h-4v-9h4v-13h4v-8h4v-5h13v9h-4v8h-4v18h4v8h4v4zM166 408h4v9h4v4h-17v-8h-4v-5h-5v-4h-4v-4h-4v-17h4v-13h4v-9h13v17h-4v9h-4v4h4v9h4v4h5v4zM452 413v4h5v-9h-5v-21h-4 v-30h13v4h4v22h4v17h5v25h4v17h-26v-4h-4v-4h-4v-9h-5v-8h-4v-4h-4v-9h-4v-8h-5v-5h-4v5h-4v8h-4v34h-5v4h-26v-4h-4v-30h-4v-17h-4v-13h-5v-21h17v26h5v13h4v21h5v-4h3v-22h5v-30h4v-4h13v4h4v9h5v4h4v9h4v8h4v9h5v4h4v9h4zM585 408h4v22h4v12h-17v-4h-4v-30h-4v-12h-5v-26 h-4v-13h17v9h5v21h4v21zM234 425h4v5h17v-5h13v13h-8v4h-22v-4h-12v-4h-5v-4h-4v-26h4v-4h5v-4h8v-5h9v-17h-5v-4h-21v4h-5v4h-4v-4h-4v-13h13v-4h21v4h13v5h4v4h5v4h4v22h-4v4h-5v4h-8v4h-9v5h-4v12zM508 391h4v-8h5v-9h4v-8h4v-9h17v13h-4v8h-4v9h-5v9h-4v8h4v4h5v5h4v4h4 v4h4v4h5v5h4v4h4v8h-17v-4h-4v-4h-4v-4h-5v-5h-4v-8h-4v-4h-9v29h-12v-4h-5v-17h-4v-21h-5v-34h-4v-9h18v17h3v13h5v4zM298 421h5v13h4v8h-17v-4h-5v-21h-4v-17h-4v-30h4v-4h4v-5h9v-4h26v4h13v5h4v4h4v4h4v9h5v21h4v21h4v17h-17v-8h-4v-21h-4v-30h-5v-5h-4v-4h-4v-4h-17v4 h-9v17h4v30zM491 468h4v9h34v-21h17v42h-4v22h-4v21h-21v-4h-5v-5h-4v-8h-5v-9h-3v-8h-5v-5h-4v-8h-5v-9h-4v-8h-4v-9h-4v-4h-5v-8h17v3h5v9zM333 498h4v4h4v30h-4v5h-9v4h-38v-4h-5v-30h-4v-13h-4v-21h-5v-17h18v12h4v17h21v5h13v4h5v4zM687 507h-25v21h34v13h-47v-4h-4 v-30h-4v-13h-5v-26h-4v-12h52v12h-31v26h31v4h3v9zM593 524h9v4h17v-4h5v-4h8v12h-4v5h-9v4h-21v-4h-13v-5h-4v-4h-5v-4h-4v-4h-4v-13h-5v-39h5v-4h4v-5h9v-3h30v3h4v5h4v13h-4v-4h-9v-5h-17v5h-4v4h-4v25h4v9h4v9h4v4zM405 507h-26v21h35v13h-47v-4h-5v-30h-4v-13h-4v-26 h-4v-12h51v12h-30v26h30v4h4v9zM144 537h-4v-9h21v-26h-4v-29h-4v-17h13v3h4v14h4v21h4v21h5v13h25v13h-64v-4zM444 528h30v4h4v9h-47v-4h-4v-30h-5v-22h-4v-12h-4v-17h17v17h4v17h30v4h4v8h-30v13h5v13zM272 528h5v9h4v4h-21v-9h-5v-4h-4v-8h-4v-5h-4v-8h-5v13h-4v8h-4v13 h-18v-13h5v-13h4v-13h5v-25h-5v-21h17v8h5v26h4v4h4v4h4v9h5v4h4v9h4v4h4v4zM264 605h4v4h4v22h-8v4h-9v4h-38v-4h-5v-17h-4v-34h-4v-22h-4v-8h17v13h4v21h13v-4h4v-4h5v-22h4v-4h17v13h-4v17h-5v4h-4v4h4v5h9v8zM396 605h-25v21h34v13h-47v-4h-4v-30h-4v-13h-5v-25h-4v-13 h52v13h-31v25h31v5h3v8zM333 605h-26v21h34v13h-47v-4h-4v-30h-5v-13h-4v-25h-4v-13h51v13h-30v25h30v5h5v8zM166 626h29v5h5v8h-47v-4h-5v-30h-4v-21h-4v-13h-4v-17h17v17h4v17h30v4h4v9h-30v13h5v12zM24 447h-4v77h4v26h5v17h4v17h4v13h5v12h4v9h4v13h4v8h5v9h4v9h4v8h4v4 h5v9h4v9h4v4h4v8h5v5h4v4h4v8h4v5h5v4h4v4h5v4h4v9h4v5h4v3h5v5h4v4h4v5h4v4h9v4h4v4h5v5h4v8h4v4h4v5h5v4h4v4h4v5h4v4h5v4h4v4h4v5h4v4h5v4h4v4h5v5h4v4h4v5h4v4h5v4h4v4h4v5h4v4h5v4h4v4h4v5h4v4h5v4h4v4h4v5h5v4h4v4h4v4h5v5h4v4h4v4h4v5h5v4h4v4h4v5h5v4h4v4h4v4h4v5h5 v4h4v4h4v5h4v4h5v4h4v4h4v5h4v4h5v4h4v4h5v5h3v4h5v5h4v3h9v-3h4v-5h4v-4h5v-5h4v-4h4v-4h4v-4h5v-5h4v-4h4v-4h5v-4h4v-5h4v-4h4v-4h5v-5h4v-4h4v-4h4v-4h5v-5h4v-4h5v-4h3v-5h5v-4h4v-4h5v-5h4v-4h4v-4h4v-4h5v-5h4v-4h4v-4h4v-4h5v-5h4v-4h4v-4h4v-4h5v-5h4v-4h4v-4h5v-4 h4v-5h4v-4h4v-5h5v-4h4v-4h4v-4h5v-5h4v-4h4v-4h5v-4h4v-5h4v-4h4v-4h5v-5h4v-4h4v-4h4v-4h5v-5h4v-4h5v-4h3v-4h5v-5h4v-4h5v-5h3v-8h5v-4h4v-5h5v-4h4v-4h4v-4h4v-9h5v-4h4v-4h4v-9h4v-4h5v-9h4v-4h4v-9h5v-8h4v-4h4v-9h5v-9h4v-8h4v-9h4v-8h5v-13h4v-13h4v-13h5v-13h4 v-21h4v-30h4v-60h-4v-17h-4v-30h-4v-21h-5v-9h-4v-17h-4v-13h-5v-12h-4v-9h-4v-13h-4v-9h-5v-9h-4v-8h-4v-4h-5v-9h-4v-8h-4v-5h-5v-8h-4v-4h-4v-9h-4v-4h-5v-4h-4v-5h-4v-8h-4v-5h-5v-4h-4v-4h-5v-4h-3v-5h-5v-4h-4v-4h-5v-4h-3v-5h-5v-4h-4v-5h-9v-4h-4v-4h-4v-4h-5v-5h-8 v-4h-4v-4h-9v-4h-9v-5h-8v-4h-5v-4h-8v-4h-9v-5h-13v-4h-8v-4h-13v-5h-8v-4h-22v-4h-9v-5h-29v-4h-30v-4h-65v4h-42v4h-26v5h-17v4h-9v4h-17v5h-8v4h-13v4h-9v5h-8v4h-9v4h-9v4h-4v5h-8v4h-5v4h-8v4h-4v5h-9v4h-4v4h-4v4h-9v5h-4v4h-5v5h-4v4h-4v4h-4v4h-5v5h-4v4h-4v4h-4v9 h-5v4h-4v4h-5v5h-4v8h-4v4h-4v5h-5v8h-4v9h-4v4h-4v8h-5v9h-4v8h-4v9h-4v9h-5v8h-4v14h-4v8h-4v13h-5v17h-4v13h-4v25h-5v39zM298 520h5v8h17v-4h4v-17h-4v-5h-5v-4h-17v22zM226 609h4v17h21v-21h-8v-4h-17v8zM521 511h4v-21h-22v4h5v8h4v9h5v4h4v-4zM431 318h4v5h9v-17h-5 v-5h-8v17z" />
<glyph unicode="%" d="M551 301h4v9h4v30h-4v4h-17v-4h-4v-5h-5v-3h-4v-9h-4v-22h4v-4h4v-5h17v5h5v4zM422 292h30v18h5v22h-9v-5h-4v5h-13v-5h-4v-4h-5v-9h-4v-17h4v-5zM636 306h5v12h4v17h-4v9h-22v-4h-4v-5h-4v-8h-5v-30h5v-5h17v5h8v9zM328 301h-8v17h4v14h-13v-22h-4v-13h4v-5h13v5h9v-5h8 v18h4v22h-8v-9h-4v-17h-5v-5zM396 332h-3v-9h3v-13h-3v-13h3v-5h14v9h-5v22h13v9h-8v8h-14v-8zM290 318h4v5h13v9h-26v-18h-4v-22h8v9h5v17zM576 340v-5h-4v-3h9v-14h-5v-17h-13v-9h35v9h-9v22h4v21h-8v-4h-9zM166 318h-5v22h-4v4h-17v-17h-4v-21h-5v-14h13v26h4v14h5v-35h4 v-5h13v9h4v9h4v8h5v5h4v-13h-4v-18h8v14h4v8h5v30h-13v-4h-4v-5h-5v-8h-4v-9h-4v-4h-4v4zM486 332h5v3h12v-3h5v-5h-5v-4h-3v-5h-5v-4h-4v-4h-5v-4h-4v-5h-4v-9h34v9h-17v5h5v4h3v4h5v4h4v5h5v17h-5v4h-17v-4h-9v-8zM371 327v-4h-4v17h4v9h-13v-26h-4v-22h-4v-9h8v5h4v9h5 v-5h4v-9h8v14h-4v12h4v5h5v4h4v5h-13v-5h-4zM251 323h4v-26h-4v-8h-8v-9h12v4h5v13h4v17h4v9h9v9h-9v3h4v5h9v9h-13v-5h-4v-4h-4v-8h-9v3h-4v5h-4v4h-31v-17h-4v-21h-4v-14h13v22h13v-22h13v18h-5v8h5v5h4v4h4v-4zM709 421h-13v-13h5v-12h4v-5h-4v-8h-5v-5h-4v-8h-5v-9h14v5 h4v8h4v4h4v5h5v21h-5v9h-4v8zM735 421h-13v-8h4v-13h4v-13h-4v-4h-4v-9h-4v-4h-5v-9h13v5h4v4h5v4h4v9h4v4h5v9h-5v12h-4v9h-4v4zM615 400h4v17h5v-13h4v-13h4v-8h4v-13h5v-9h4v-4h17v4h5v22h3v13h5v21h4v25h-12v-4h-5v-21h-4v-21h-5v-13h-4v17h-4v8h-4v13h-5v13h-4v8h-21 v-4h-5v-30h-4v-21h-4v-13h-5v-17h13v4h5v17h4v22zM191 408h4v9h5v4h-13v-4h-4v-4h-5v-5h-4v-8h-4v-4h-4v-9h4v-13h4v-8h4v-5h13v9h-4v8h-4v18h4v8h4v4zM166 408h4v9h4v4h-17v-8h-4v-5h-5v-4h-4v-4h-4v-17h4v-13h4v-9h13v17h-4v9h-4v4h4v9h4v4h5v4zM452 413v4h5v-9h-5v-21h-4 v-30h13v4h4v22h4v17h5v25h4v17h-26v-4h-4v-4h-4v-9h-5v-8h-4v-4h-4v-9h-4v-8h-5v-5h-4v5h-4v8h-4v34h-5v4h-26v-4h-4v-30h-4v-17h-4v-13h-5v-21h17v26h5v13h4v21h5v-4h3v-22h5v-30h4v-4h13v4h4v9h5v4h4v9h4v8h4v9h5v4h4v9h4zM585 408h4v22h4v12h-17v-4h-4v-30h-4v-12h-5v-26 h-4v-13h17v9h5v21h4v21zM234 425h4v5h17v-5h13v13h-8v4h-22v-4h-12v-4h-5v-4h-4v-26h4v-4h5v-4h8v-5h9v-17h-5v-4h-21v4h-5v4h-4v-4h-4v-13h13v-4h21v4h13v5h4v4h5v4h4v22h-4v4h-5v4h-8v4h-9v5h-4v12zM508 391h4v-8h5v-9h4v-8h4v-9h17v13h-4v8h-4v9h-5v9h-4v8h4v4h5v5h4v4h4 v4h4v4h5v5h4v4h4v8h-17v-4h-4v-4h-4v-4h-5v-5h-4v-8h-4v-4h-9v29h-12v-4h-5v-17h-4v-21h-5v-34h-4v-9h18v17h3v13h5v4zM298 421h5v13h4v8h-17v-4h-5v-21h-4v-17h-4v-30h4v-4h4v-5h9v-4h26v4h13v5h4v4h4v4h4v9h5v21h4v21h4v17h-17v-8h-4v-21h-4v-30h-5v-5h-4v-4h-4v-4h-17v4 h-9v17h4v30zM491 468h4v9h34v-21h17v42h-4v22h-4v21h-21v-4h-5v-5h-4v-8h-5v-9h-3v-8h-5v-5h-4v-8h-5v-9h-4v-8h-4v-9h-4v-4h-5v-8h17v3h5v9zM333 498h4v4h4v30h-4v5h-9v4h-38v-4h-5v-30h-4v-13h-4v-21h-5v-17h18v12h4v17h21v5h13v4h5v4zM687 507h-25v21h34v13h-47v-4h-4 v-30h-4v-13h-5v-26h-4v-12h52v12h-31v26h31v4h3v9zM593 524h9v4h17v-4h5v-4h8v12h-4v5h-9v4h-21v-4h-13v-5h-4v-4h-5v-4h-4v-4h-4v-13h-5v-39h5v-4h4v-5h9v-3h30v3h4v5h4v13h-4v-4h-9v-5h-17v5h-4v4h-4v25h4v9h4v9h4v4zM405 507h-26v21h35v13h-47v-4h-5v-30h-4v-13h-4v-26 h-4v-12h51v12h-30v26h30v4h4v9zM144 537h-4v-9h21v-26h-4v-29h-4v-17h13v3h4v14h4v21h4v21h5v13h25v13h-64v-4zM444 528h30v4h4v9h-47v-4h-4v-30h-5v-22h-4v-12h-4v-17h17v17h4v17h30v4h4v8h-30v13h5v13zM272 528h5v9h4v4h-21v-9h-5v-4h-4v-8h-4v-5h-4v-8h-5v13h-4v8h-4v13 h-18v-13h5v-13h4v-13h5v-25h-5v-21h17v8h5v26h4v4h4v4h4v9h5v4h4v9h4v4h4v4zM264 605h4v4h4v22h-8v4h-9v4h-38v-4h-5v-17h-4v-34h-4v-22h-4v-8h17v13h4v21h13v-4h4v-4h5v-22h4v-4h17v13h-4v17h-5v4h-4v4h4v5h9v8zM396 605h-25v21h34v13h-47v-4h-4v-30h-4v-13h-5v-25h-4v-13 h52v13h-31v25h31v5h3v8zM333 605h-26v21h34v13h-47v-4h-4v-30h-5v-13h-4v-25h-4v-13h51v13h-30v25h30v5h5v8zM166 626h29v5h5v8h-47v-4h-5v-30h-4v-21h-4v-13h-4v-17h17v17h4v17h30v4h4v9h-30v13h5v12zM24 447h-4v77h4v26h5v17h4v17h4v13h5v12h4v9h4v13h4v8h5v9h4v9h4v8h4v4 h5v9h4v9h4v4h4v8h5v5h4v4h4v8h4v5h5v4h4v4h5v4h4v9h4v5h4v3h5v5h4v4h4v5h4v4h9v4h4v4h5v5h4v8h4v4h4v5h5v4h4v4h4v5h4v4h5v4h4v4h4v5h4v4h5v4h4v4h5v5h4v4h4v5h4v4h5v4h4v4h4v5h4v4h5v4h4v4h4v5h4v4h5v4h4v4h4v5h5v4h4v4h4v4h5v5h4v4h4v4h4v5h5v4h4v4h4v5h5v4h4v4h4v4h4v5h5 v4h4v4h4v5h4v4h5v4h4v4h4v5h4v4h5v4h4v4h5v5h3v4h5v5h4v3h9v-3h4v-5h4v-4h5v-5h4v-4h4v-4h4v-4h5v-5h4v-4h4v-4h5v-4h4v-5h4v-4h4v-4h5v-5h4v-4h4v-4h4v-4h5v-5h4v-4h5v-4h3v-5h5v-4h4v-4h5v-5h4v-4h4v-4h4v-4h5v-5h4v-4h4v-4h4v-4h5v-5h4v-4h4v-4h4v-4h5v-5h4v-4h4v-4h5v-4 h4v-5h4v-4h4v-5h5v-4h4v-4h4v-4h5v-5h4v-4h4v-4h5v-4h4v-5h4v-4h4v-4h5v-5h4v-4h4v-4h4v-4h5v-5h4v-4h5v-4h3v-4h5v-5h4v-4h5v-5h3v-8h5v-4h4v-5h5v-4h4v-4h4v-4h4v-9h5v-4h4v-4h4v-9h4v-4h5v-9h4v-4h4v-9h5v-8h4v-4h4v-9h5v-9h4v-8h4v-9h4v-8h5v-13h4v-13h4v-13h5v-13h4 v-21h4v-30h4v-60h-4v-17h-4v-30h-4v-21h-5v-9h-4v-17h-4v-13h-5v-12h-4v-9h-4v-13h-4v-9h-5v-9h-4v-8h-4v-4h-5v-9h-4v-8h-4v-5h-5v-8h-4v-4h-4v-9h-4v-4h-5v-4h-4v-5h-4v-8h-4v-5h-5v-4h-4v-4h-5v-4h-3v-5h-5v-4h-4v-4h-5v-4h-3v-5h-5v-4h-4v-5h-9v-4h-4v-4h-4v-4h-5v-5h-8 v-4h-4v-4h-9v-4h-9v-5h-8v-4h-5v-4h-8v-4h-9v-5h-13v-4h-8v-4h-13v-5h-8v-4h-22v-4h-9v-5h-29v-4h-30v-4h-65v4h-42v4h-26v5h-17v4h-9v4h-17v5h-8v4h-13v4h-9v5h-8v4h-9v4h-9v4h-4v5h-8v4h-5v4h-8v4h-4v5h-9v4h-4v4h-4v4h-9v5h-4v4h-5v5h-4v4h-4v4h-4v4h-5v5h-4v4h-4v4h-4v9 h-5v4h-4v4h-5v5h-4v8h-4v4h-4v5h-5v8h-4v9h-4v4h-4v8h-5v9h-4v8h-4v9h-4v9h-5v8h-4v14h-4v8h-4v13h-5v17h-4v13h-4v25h-5v39zM298 520h5v8h17v-4h4v-17h-4v-5h-5v-4h-17v22zM226 609h4v17h21v-21h-8v-4h-17v8zM521 511h4v-21h-22v4h5v8h4v9h5v4h4v-4zM431 318h4v5h9v-17h-5 v-5h-8v17z" />
<glyph unicode="&#x26;" d="M551 301h4v9h4v30h-4v4h-17v-4h-4v-5h-5v-3h-4v-9h-4v-22h4v-4h4v-5h17v5h5v4zM422 292h30v18h5v22h-9v-5h-4v5h-13v-5h-4v-4h-5v-9h-4v-17h4v-5zM636 306h5v12h4v17h-4v9h-22v-4h-4v-5h-4v-8h-5v-30h5v-5h17v5h8v9zM328 301h-8v17h4v14h-13v-22h-4v-13h4v-5h13v5h9v-5h8 v18h4v22h-8v-9h-4v-17h-5v-5zM396 332h-3v-9h3v-13h-3v-13h3v-5h14v9h-5v22h13v9h-8v8h-14v-8zM290 318h4v5h13v9h-26v-18h-4v-22h8v9h5v17zM576 340v-5h-4v-3h9v-14h-5v-17h-13v-9h35v9h-9v22h4v21h-8v-4h-9zM166 318h-5v22h-4v4h-17v-17h-4v-21h-5v-14h13v26h4v14h5v-35h4 v-5h13v9h4v9h4v8h5v5h4v-13h-4v-18h8v14h4v8h5v30h-13v-4h-4v-5h-5v-8h-4v-9h-4v-4h-4v4zM486 332h5v3h12v-3h5v-5h-5v-4h-3v-5h-5v-4h-4v-4h-5v-4h-4v-5h-4v-9h34v9h-17v5h5v4h3v4h5v4h4v5h5v17h-5v4h-17v-4h-9v-8zM371 327v-4h-4v17h4v9h-13v-26h-4v-22h-4v-9h8v5h4v9h5 v-5h4v-9h8v14h-4v12h4v5h5v4h4v5h-13v-5h-4zM251 323h4v-26h-4v-8h-8v-9h12v4h5v13h4v17h4v9h9v9h-9v3h4v5h9v9h-13v-5h-4v-4h-4v-8h-9v3h-4v5h-4v4h-31v-17h-4v-21h-4v-14h13v22h13v-22h13v18h-5v8h5v5h4v4h4v-4zM709 421h-13v-13h5v-12h4v-5h-4v-8h-5v-5h-4v-8h-5v-9h14v5 h4v8h4v4h4v5h5v21h-5v9h-4v8zM735 421h-13v-8h4v-13h4v-13h-4v-4h-4v-9h-4v-4h-5v-9h13v5h4v4h5v4h4v9h4v4h5v9h-5v12h-4v9h-4v4zM615 400h4v17h5v-13h4v-13h4v-8h4v-13h5v-9h4v-4h17v4h5v22h3v13h5v21h4v25h-12v-4h-5v-21h-4v-21h-5v-13h-4v17h-4v8h-4v13h-5v13h-4v8h-21 v-4h-5v-30h-4v-21h-4v-13h-5v-17h13v4h5v17h4v22zM191 408h4v9h5v4h-13v-4h-4v-4h-5v-5h-4v-8h-4v-4h-4v-9h4v-13h4v-8h4v-5h13v9h-4v8h-4v18h4v8h4v4zM166 408h4v9h4v4h-17v-8h-4v-5h-5v-4h-4v-4h-4v-17h4v-13h4v-9h13v17h-4v9h-4v4h4v9h4v4h5v4zM452 413v4h5v-9h-5v-21h-4 v-30h13v4h4v22h4v17h5v25h4v17h-26v-4h-4v-4h-4v-9h-5v-8h-4v-4h-4v-9h-4v-8h-5v-5h-4v5h-4v8h-4v34h-5v4h-26v-4h-4v-30h-4v-17h-4v-13h-5v-21h17v26h5v13h4v21h5v-4h3v-22h5v-30h4v-4h13v4h4v9h5v4h4v9h4v8h4v9h5v4h4v9h4zM585 408h4v22h4v12h-17v-4h-4v-30h-4v-12h-5v-26 h-4v-13h17v9h5v21h4v21zM234 425h4v5h17v-5h13v13h-8v4h-22v-4h-12v-4h-5v-4h-4v-26h4v-4h5v-4h8v-5h9v-17h-5v-4h-21v4h-5v4h-4v-4h-4v-13h13v-4h21v4h13v5h4v4h5v4h4v22h-4v4h-5v4h-8v4h-9v5h-4v12zM508 391h4v-8h5v-9h4v-8h4v-9h17v13h-4v8h-4v9h-5v9h-4v8h4v4h5v5h4v4h4 v4h4v4h5v5h4v4h4v8h-17v-4h-4v-4h-4v-4h-5v-5h-4v-8h-4v-4h-9v29h-12v-4h-5v-17h-4v-21h-5v-34h-4v-9h18v17h3v13h5v4zM298 421h5v13h4v8h-17v-4h-5v-21h-4v-17h-4v-30h4v-4h4v-5h9v-4h26v4h13v5h4v4h4v4h4v9h5v21h4v21h4v17h-17v-8h-4v-21h-4v-30h-5v-5h-4v-4h-4v-4h-17v4 h-9v17h4v30zM491 468h4v9h34v-21h17v42h-4v22h-4v21h-21v-4h-5v-5h-4v-8h-5v-9h-3v-8h-5v-5h-4v-8h-5v-9h-4v-8h-4v-9h-4v-4h-5v-8h17v3h5v9zM333 498h4v4h4v30h-4v5h-9v4h-38v-4h-5v-30h-4v-13h-4v-21h-5v-17h18v12h4v17h21v5h13v4h5v4zM687 507h-25v21h34v13h-47v-4h-4 v-30h-4v-13h-5v-26h-4v-12h52v12h-31v26h31v4h3v9zM593 524h9v4h17v-4h5v-4h8v12h-4v5h-9v4h-21v-4h-13v-5h-4v-4h-5v-4h-4v-4h-4v-13h-5v-39h5v-4h4v-5h9v-3h30v3h4v5h4v13h-4v-4h-9v-5h-17v5h-4v4h-4v25h4v9h4v9h4v4zM405 507h-26v21h35v13h-47v-4h-5v-30h-4v-13h-4v-26 h-4v-12h51v12h-30v26h30v4h4v9zM144 537h-4v-9h21v-26h-4v-29h-4v-17h13v3h4v14h4v21h4v21h5v13h25v13h-64v-4zM444 528h30v4h4v9h-47v-4h-4v-30h-5v-22h-4v-12h-4v-17h17v17h4v17h30v4h4v8h-30v13h5v13zM272 528h5v9h4v4h-21v-9h-5v-4h-4v-8h-4v-5h-4v-8h-5v13h-4v8h-4v13 h-18v-13h5v-13h4v-13h5v-25h-5v-21h17v8h5v26h4v4h4v4h4v9h5v4h4v9h4v4h4v4zM264 605h4v4h4v22h-8v4h-9v4h-38v-4h-5v-17h-4v-34h-4v-22h-4v-8h17v13h4v21h13v-4h4v-4h5v-22h4v-4h17v13h-4v17h-5v4h-4v4h4v5h9v8zM396 605h-25v21h34v13h-47v-4h-4v-30h-4v-13h-5v-25h-4v-13 h52v13h-31v25h31v5h3v8zM333 605h-26v21h34v13h-47v-4h-4v-30h-5v-13h-4v-25h-4v-13h51v13h-30v25h30v5h5v8zM166 626h29v5h5v8h-47v-4h-5v-30h-4v-21h-4v-13h-4v-17h17v17h4v17h30v4h4v9h-30v13h5v12zM24 447h-4v77h4v26h5v17h4v17h4v13h5v12h4v9h4v13h4v8h5v9h4v9h4v8h4v4 h5v9h4v9h4v4h4v8h5v5h4v4h4v8h4v5h5v4h4v4h5v4h4v9h4v5h4v3h5v5h4v4h4v5h4v4h9v4h4v4h5v5h4v8h4v4h4v5h5v4h4v4h4v5h4v4h5v4h4v4h4v5h4v4h5v4h4v4h5v5h4v4h4v5h4v4h5v4h4v4h4v5h4v4h5v4h4v4h4v5h4v4h5v4h4v4h4v5h5v4h4v4h4v4h5v5h4v4h4v4h4v5h5v4h4v4h4v5h5v4h4v4h4v4h4v5h5 v4h4v4h4v5h4v4h5v4h4v4h4v5h4v4h5v4h4v4h5v5h3v4h5v5h4v3h9v-3h4v-5h4v-4h5v-5h4v-4h4v-4h4v-4h5v-5h4v-4h4v-4h5v-4h4v-5h4v-4h4v-4h5v-5h4v-4h4v-4h4v-4h5v-5h4v-4h5v-4h3v-5h5v-4h4v-4h5v-5h4v-4h4v-4h4v-4h5v-5h4v-4h4v-4h4v-4h5v-5h4v-4h4v-4h4v-4h5v-5h4v-4h4v-4h5v-4 h4v-5h4v-4h4v-5h5v-4h4v-4h4v-4h5v-5h4v-4h4v-4h5v-4h4v-5h4v-4h4v-4h5v-5h4v-4h4v-4h4v-4h5v-5h4v-4h5v-4h3v-4h5v-5h4v-4h5v-5h3v-8h5v-4h4v-5h5v-4h4v-4h4v-4h4v-9h5v-4h4v-4h4v-9h4v-4h5v-9h4v-4h4v-9h5v-8h4v-4h4v-9h5v-9h4v-8h4v-9h4v-8h5v-13h4v-13h4v-13h5v-13h4 v-21h4v-30h4v-60h-4v-17h-4v-30h-4v-21h-5v-9h-4v-17h-4v-13h-5v-12h-4v-9h-4v-13h-4v-9h-5v-9h-4v-8h-4v-4h-5v-9h-4v-8h-4v-5h-5v-8h-4v-4h-4v-9h-4v-4h-5v-4h-4v-5h-4v-8h-4v-5h-5v-4h-4v-4h-5v-4h-3v-5h-5v-4h-4v-4h-5v-4h-3v-5h-5v-4h-4v-5h-9v-4h-4v-4h-4v-4h-5v-5h-8 v-4h-4v-4h-9v-4h-9v-5h-8v-4h-5v-4h-8v-4h-9v-5h-13v-4h-8v-4h-13v-5h-8v-4h-22v-4h-9v-5h-29v-4h-30v-4h-65v4h-42v4h-26v5h-17v4h-9v4h-17v5h-8v4h-13v4h-9v5h-8v4h-9v4h-9v4h-4v5h-8v4h-5v4h-8v4h-4v5h-9v4h-4v4h-4v4h-9v5h-4v4h-5v5h-4v4h-4v4h-4v4h-5v5h-4v4h-4v4h-4v9 h-5v4h-4v4h-5v5h-4v8h-4v4h-4v5h-5v8h-4v9h-4v4h-4v8h-5v9h-4v8h-4v9h-4v9h-5v8h-4v14h-4v8h-4v13h-5v17h-4v13h-4v25h-5v39zM298 520h5v8h17v-4h4v-17h-4v-5h-5v-4h-17v22zM226 609h4v17h21v-21h-8v-4h-17v8zM521 511h4v-21h-22v4h5v8h4v9h5v4h4v-4zM431 318h4v5h9v-17h-5 v-5h-8v17z" />
<glyph unicode="'" horiz-adv-x="118" d="M39 719l5 94q4 72 10 83q7 12 27 10q19 -1 19 -3q-3 -5 5 -79q8 -76 4 -98q-3 -21 -10 -28l-32 -3q-16 -2 -23 4.5t-5 19.5z" />
<glyph unicode="(" horiz-adv-x="456" d="M163 21q-45 51 -80 157q-35 110 -45 239q-9 133 16 266q26 137 103 240q17 21 61 27q42 6 92 4q43 -1 83 -8l14 -2q6 -1 10 -1.5t7 -1.5t4 -1l1 -1q-11 -13 -19 -83q-5 -57 -17 -149q-12 -88 -29 -151q-19 -70 -53 -89l-6 -6q-5 -5 6 6q4 5 25 -17q22 -22 39 -91 q25 -95 34 -218q11 -120 25 -142l-34 -6q-34 -5 -81 -6q-51 -2 -91 5q-47 8 -65 29z" />
<glyph unicode=")" horiz-adv-x="472" d="M315 21q-23 -27 -91.5 -32.5t-126 1t-54.5 9.5q16 22 25 142q9 117 35 218q17 68 38 91q22 22 26 17l6 -7l-1 1l-5 6q-35 20 -54 89q-19 73 -29 151l-18 149q-6 69 -17 83l1 1q1 0 4 1t7 1.5t10 1.5t13 2q40 7 83 8q50 2 92 -4q44 -6 61 -27q77 -103 103 -240 q26 -139 16 -266q-9 -129 -45 -239q-36 -108 -79 -157z" />
<glyph unicode="*" horiz-adv-x="719" d="M618 336l-95 12l-141 21q-38 5 -132 22q-60 12 -71 20q-28 19 -19 68l10 47q7 -4 66 -4h132q74 2 144 0q75 -2 101 -8q57 -13 67 -33q1 -7 2 -17.5t0.5 -37.5t-5.5 -47t-20 -34t-39 -9z" />
<glyph unicode="+" horiz-adv-x="719" d="M478 633l9 -110q45 -1 119 -1q53 0 60 4l10 -47q9 -49 -19 -68q-19 -13 -163 -36l4 -126q2 -18 -5.5 -30.5t-20.5 -18t-29.5 -7.5t-33 -1t-30.5 3t-23 4l-8 2q-19 9 -26 70q-3 23 0 79q-26 -4 -61 -8l-43 -6q-38 -8 -53.5 28.5t-12.5 76.5l4 40q10 20 67 33q26 6 115 8 l13 127q6 55 3 63q-1 1 47 6q49 4 67 -26q6 -10 10 -59z" />
<glyph unicode="," horiz-adv-x="129" d="M83 59q40 0 36 -52q-3 -53 -60 -45l8 16q-26 11 -26 39q0 42 42 42z" />
<glyph unicode="-" horiz-adv-x="719" d="M313 348l-95 -12q-38 -8 -53.5 28.5t-12.5 76.5l4 40q10 20 67 33q26 6 100 8q71 2 144 0h132q60 0 67 4l10 -47q9 -49 -19 -68q-11 -8 -71 -20q-93 -16 -133 -22z" />
<glyph unicode="." horiz-adv-x="142" d="M83 62q40 -1 46 -35q8 -32 -18 -53q-8 -6 -19 -7t-18 1l-7 2q-26 12 -26 44q0 48 42 48z" />
<glyph unicode="0" horiz-adv-x="728" d="M339 650v-374q18 75 24 186q6 109 -5 188h-19zM279 18q-94 -3 -155 26q-59 28 -82 54q-13 254 -14 401q-2 162 26 252q28 94 97 132q69 39 199 42q148 3 240 -146q93 -150 97 -325q6 -176 -89 -316t-319 -120z" />
<glyph unicode="1" horiz-adv-x="548" d="M35 492q15 5 30.5 29t25 45t28.5 67q54 132 82 172q5 8 11 15q32 37 80 58t97.5 24.5t71 3t39.5 -2.5h1q17 -42 19 -146q2 -115 -5 -229q-6 -135 -19 -263l-23 -245q-36 0 -121 11q-80 10 -144 71l-15 123q-12 113 -2 197q-41 10 -76 25q-12 5 -25 11l-22 12 q-10 6 -17.5 11t-11.5 8z" />
<glyph unicode="2" horiz-adv-x="740" d="M683 817q-7 -25 7 -105q15 -78 8 -156q-6 -80 -54 -135t-180 -37q-1 0 -11 -40q-9 -39 -6 -39l10 37q10 37 12 37q4 -1 73 -14t116 -23.5t47 -14.5q-1 -82 -11 -157l-8 -70q-22 -25 -83 -54q-60 -29 -154 -26q-124 1 -247 31l-118 30q-33 117 -42 243q-10 61 37 142 q46 78 203 80q2 0 9 39q9 39 9 40l-12 -37l-11 -37l-37 6l-80 16l-81 17q-37 9 -37 13q-3 72 33 158q35 82 65 143q22 1 65 4q73 5 153 1q87 -4 179 -24q91 -19 146 -68z" />
<glyph unicode="3" horiz-adv-x="667" d="M91 312l201 -6v14l-63 3q-63 5 -124 21q-4 1 -22 60q-18 60 -5 155q25 4 84 5.5t92 8.5l1 15q1 0 -42.5 -1.5t-86.5 -2.5l-42 -2q-28 45 -37 94.5t-1 88.5t20 72t24 51l11 17q54 -70 137 -50q82 19 164 24q83 5 146 -56q66 -61 82 -286q5 -69 -47 -73l-51 -5l51 -10 q52 -10 51 -71q-7 -205 -111 -295q-103 -88 -406 -51l-25 98q-25 97 -1 182z" />
<glyph unicode="4" horiz-adv-x="708" d="M41 429l7 94q8 71 12 147q6 105 7 139q2 64 -5 72q-2 1 36 6l85 9q63 6 88 7q43 3 50 -1l18 -101q18 -99 1 -263q6 2 11.5 2t8.5 -1l2 -1l3 57q3 44 7 127l7 126l4 58q114 -4 184 -40q71 -36 83 -47l12 -107q13 -102 5 -220q-2 -34 -7.5 -101.5t-9 -115.5t-7 -101.5 t-3 -88t5.5 -45.5q0 -3 -116 -16q-121 -10 -147 -4q-1 0 -5.5 50t-9.5 122.5t-5 117.5q0 -1 -19 -6.5t-53 -11.5t-73.5 -8.5t-87.5 5t-89 26.5q0 15 -1 44q-1 34 1 70z" />
<glyph unicode="5" horiz-adv-x="737" d="M62 817q51 48 144 68q92 19 180 24t153 0l65 -4q27 -56 39.5 -85t28 -82t15.5 -97q0 -1 -14.5 -3.5t-42.5 -8.5t-52 -13q-116 -32 -142 -94l28 23q28 24 31 24q77 0 119 -39q42 -36 62 -84t23 -84l3 -38q-10 -129 -42 -242l-119 -30q-121 -29 -246 -32q-94 -3 -155 26 q-59 28 -82 54l-9 70q-7 70 -9 158q0 1 1.5 2t5.5 2l10 3q5 1 13 3q50 12 72 16l52 10l52 10q20 4 29 6q3 -13 10 -38q10 -37 12 -37q2 2 -8 40l-9 40q-132 -18 -181 37q-48 55 -54 134q-6 77 8 157q15 78 9 104z" />
<glyph unicode="6" horiz-adv-x="655" d="M368 368l-20 -5q0 -12 -1 -35q0 -49 -1 -77v-111l11 45q11 49 11 183zM40 548q1 208 90 286q88 77 195 88q107 10 195 -15l88 -26q3 -61 -15 -156q-17 -90 -38 -139q-11 -1 -34 -4l-73 -8l-73 -8l-33 -3l12 -28q108 12 181 -17q72 -28 83 -229q6 -110 -68.5 -182 t-211.5 -87q-100 -12 -179 44q-77 57 -105 267q-14 100 -14 217z" />
<glyph unicode="7" horiz-adv-x="669" d="M497 173q-9 -90 -64 -121q-53 -31 -116 -34q-62 -3 -112 9l-50 13q9 136 61 309.5t65 239.5l-47 5q-47 6 -93 11l-46 5l-28 91q-27 90 -25 204l65 9q70 10 159 11q101 2 196 -11q103 -14 175 -59q-16 -27 -39 -128q-24 -107 -45 -215q-17 -86 -38 -214q-16 -99 -18 -125z " />
<glyph unicode="8" horiz-adv-x="693" d="M39 283q-4 65 3.5 112t22 69t30 34t26.5 15t11 4q-94 215 -14 313q79 97 225 95q157 -1 225 -89q68 -87 -5 -316q27 7 51 -17q51 -49 41 -211q-8 -138 -102 -205q-93 -66 -206 -68q-111 -1 -206 65t-102 199zM333 563l18 -4q0 131 -4 170l-3 44l-3 -53q-3 -52 -5 -104z M353 373l-19 -4q2 -53 3 -105l5 -104q2 14 5 43q6 43 6 170z" />
<glyph unicode="9" horiz-adv-x="649" d="M619 394q-1 -206 -91 -286q-89 -79 -195 -89q-104 -10 -195 16l-32 9l-24 8q-10 3 -17.5 5t-10.5 3l-3 1q-3 60 14 155q18 94 39 139l33 -10l73 -20q38 -10 73 -21l34 -9q-1 1 -41 16q-39 15 -88 45q-46 32 -87 78q-39 45 -41 113q-1 32 -1 108q0 61 22 115q23 57 76 98 q56 42 163 54q101 12 178 -45q77 -55 106 -266q15 -107 15 -217zM355 708l-20 5q0 -134 11 -183l11 -45l-2 111v77v35z" />
<glyph unicode=":" horiz-adv-x="142" d="M82 584q39 -1 45 -35q8 -33 -18 -53q-7 -7 -18 -8t-18 2l-7 2q-27 12 -27 44q0 25 10.5 37t32.5 11zM83 282q40 -1 46 -35q8 -33 -18 -53q-7 -6 -18 -7t-19 1l-7 2q-26 12 -26 44q0 23 9.5 36t32.5 12z" />
<glyph unicode=";" horiz-adv-x="141" d="M88 282q46 0 41 -59t-68 -50l9 17q-29 12 -29 44q0 48 47 48zM82 584q39 -1 45 -35q8 -33 -18 -53q-7 -7 -18 -8t-18 2l-7 2q-27 12 -27 44q0 25 10.5 37t32.5 11z" />
<glyph unicode="&#x3c;" d="M551 301h4v9h4v30h-4v4h-17v-4h-4v-5h-5v-3h-4v-9h-4v-22h4v-4h4v-5h17v5h5v4zM422 292h30v18h5v22h-9v-5h-4v5h-13v-5h-4v-4h-5v-9h-4v-17h4v-5zM636 306h5v12h4v17h-4v9h-22v-4h-4v-5h-4v-8h-5v-30h5v-5h17v5h8v9zM328 301h-8v17h4v14h-13v-22h-4v-13h4v-5h13v5h9v-5h8 v18h4v22h-8v-9h-4v-17h-5v-5zM396 332h-3v-9h3v-13h-3v-13h3v-5h14v9h-5v22h13v9h-8v8h-14v-8zM290 318h4v5h13v9h-26v-18h-4v-22h8v9h5v17zM576 340v-5h-4v-3h9v-14h-5v-17h-13v-9h35v9h-9v22h4v21h-8v-4h-9zM166 318h-5v22h-4v4h-17v-17h-4v-21h-5v-14h13v26h4v14h5v-35h4 v-5h13v9h4v9h4v8h5v5h4v-13h-4v-18h8v14h4v8h5v30h-13v-4h-4v-5h-5v-8h-4v-9h-4v-4h-4v4zM486 332h5v3h12v-3h5v-5h-5v-4h-3v-5h-5v-4h-4v-4h-5v-4h-4v-5h-4v-9h34v9h-17v5h5v4h3v4h5v4h4v5h5v17h-5v4h-17v-4h-9v-8zM371 327v-4h-4v17h4v9h-13v-26h-4v-22h-4v-9h8v5h4v9h5 v-5h4v-9h8v14h-4v12h4v5h5v4h4v5h-13v-5h-4zM251 323h4v-26h-4v-8h-8v-9h12v4h5v13h4v17h4v9h9v9h-9v3h4v5h9v9h-13v-5h-4v-4h-4v-8h-9v3h-4v5h-4v4h-31v-17h-4v-21h-4v-14h13v22h13v-22h13v18h-5v8h5v5h4v4h4v-4zM709 421h-13v-13h5v-12h4v-5h-4v-8h-5v-5h-4v-8h-5v-9h14v5 h4v8h4v4h4v5h5v21h-5v9h-4v8zM735 421h-13v-8h4v-13h4v-13h-4v-4h-4v-9h-4v-4h-5v-9h13v5h4v4h5v4h4v9h4v4h5v9h-5v12h-4v9h-4v4zM615 400h4v17h5v-13h4v-13h4v-8h4v-13h5v-9h4v-4h17v4h5v22h3v13h5v21h4v25h-12v-4h-5v-21h-4v-21h-5v-13h-4v17h-4v8h-4v13h-5v13h-4v8h-21 v-4h-5v-30h-4v-21h-4v-13h-5v-17h13v4h5v17h4v22zM191 408h4v9h5v4h-13v-4h-4v-4h-5v-5h-4v-8h-4v-4h-4v-9h4v-13h4v-8h4v-5h13v9h-4v8h-4v18h4v8h4v4zM166 408h4v9h4v4h-17v-8h-4v-5h-5v-4h-4v-4h-4v-17h4v-13h4v-9h13v17h-4v9h-4v4h4v9h4v4h5v4zM452 413v4h5v-9h-5v-21h-4 v-30h13v4h4v22h4v17h5v25h4v17h-26v-4h-4v-4h-4v-9h-5v-8h-4v-4h-4v-9h-4v-8h-5v-5h-4v5h-4v8h-4v34h-5v4h-26v-4h-4v-30h-4v-17h-4v-13h-5v-21h17v26h5v13h4v21h5v-4h3v-22h5v-30h4v-4h13v4h4v9h5v4h4v9h4v8h4v9h5v4h4v9h4zM585 408h4v22h4v12h-17v-4h-4v-30h-4v-12h-5v-26 h-4v-13h17v9h5v21h4v21zM234 425h4v5h17v-5h13v13h-8v4h-22v-4h-12v-4h-5v-4h-4v-26h4v-4h5v-4h8v-5h9v-17h-5v-4h-21v4h-5v4h-4v-4h-4v-13h13v-4h21v4h13v5h4v4h5v4h4v22h-4v4h-5v4h-8v4h-9v5h-4v12zM508 391h4v-8h5v-9h4v-8h4v-9h17v13h-4v8h-4v9h-5v9h-4v8h4v4h5v5h4v4h4 v4h4v4h5v5h4v4h4v8h-17v-4h-4v-4h-4v-4h-5v-5h-4v-8h-4v-4h-9v29h-12v-4h-5v-17h-4v-21h-5v-34h-4v-9h18v17h3v13h5v4zM298 421h5v13h4v8h-17v-4h-5v-21h-4v-17h-4v-30h4v-4h4v-5h9v-4h26v4h13v5h4v4h4v4h4v9h5v21h4v21h4v17h-17v-8h-4v-21h-4v-30h-5v-5h-4v-4h-4v-4h-17v4 h-9v17h4v30zM491 468h4v9h34v-21h17v42h-4v22h-4v21h-21v-4h-5v-5h-4v-8h-5v-9h-3v-8h-5v-5h-4v-8h-5v-9h-4v-8h-4v-9h-4v-4h-5v-8h17v3h5v9zM333 498h4v4h4v30h-4v5h-9v4h-38v-4h-5v-30h-4v-13h-4v-21h-5v-17h18v12h4v17h21v5h13v4h5v4zM687 507h-25v21h34v13h-47v-4h-4 v-30h-4v-13h-5v-26h-4v-12h52v12h-31v26h31v4h3v9zM593 524h9v4h17v-4h5v-4h8v12h-4v5h-9v4h-21v-4h-13v-5h-4v-4h-5v-4h-4v-4h-4v-13h-5v-39h5v-4h4v-5h9v-3h30v3h4v5h4v13h-4v-4h-9v-5h-17v5h-4v4h-4v25h4v9h4v9h4v4zM405 507h-26v21h35v13h-47v-4h-5v-30h-4v-13h-4v-26 h-4v-12h51v12h-30v26h30v4h4v9zM144 537h-4v-9h21v-26h-4v-29h-4v-17h13v3h4v14h4v21h4v21h5v13h25v13h-64v-4zM444 528h30v4h4v9h-47v-4h-4v-30h-5v-22h-4v-12h-4v-17h17v17h4v17h30v4h4v8h-30v13h5v13zM272 528h5v9h4v4h-21v-9h-5v-4h-4v-8h-4v-5h-4v-8h-5v13h-4v8h-4v13 h-18v-13h5v-13h4v-13h5v-25h-5v-21h17v8h5v26h4v4h4v4h4v9h5v4h4v9h4v4h4v4zM264 605h4v4h4v22h-8v4h-9v4h-38v-4h-5v-17h-4v-34h-4v-22h-4v-8h17v13h4v21h13v-4h4v-4h5v-22h4v-4h17v13h-4v17h-5v4h-4v4h4v5h9v8zM396 605h-25v21h34v13h-47v-4h-4v-30h-4v-13h-5v-25h-4v-13 h52v13h-31v25h31v5h3v8zM333 605h-26v21h34v13h-47v-4h-4v-30h-5v-13h-4v-25h-4v-13h51v13h-30v25h30v5h5v8zM166 626h29v5h5v8h-47v-4h-5v-30h-4v-21h-4v-13h-4v-17h17v17h4v17h30v4h4v9h-30v13h5v12zM24 447h-4v77h4v26h5v17h4v17h4v13h5v12h4v9h4v13h4v8h5v9h4v9h4v8h4v4 h5v9h4v9h4v4h4v8h5v5h4v4h4v8h4v5h5v4h4v4h5v4h4v9h4v5h4v3h5v5h4v4h4v5h4v4h9v4h4v4h5v5h4v8h4v4h4v5h5v4h4v4h4v5h4v4h5v4h4v4h4v5h4v4h5v4h4v4h5v5h4v4h4v5h4v4h5v4h4v4h4v5h4v4h5v4h4v4h4v5h4v4h5v4h4v4h4v5h5v4h4v4h4v4h5v5h4v4h4v4h4v5h5v4h4v4h4v5h5v4h4v4h4v4h4v5h5 v4h4v4h4v5h4v4h5v4h4v4h4v5h4v4h5v4h4v4h5v5h3v4h5v5h4v3h9v-3h4v-5h4v-4h5v-5h4v-4h4v-4h4v-4h5v-5h4v-4h4v-4h5v-4h4v-5h4v-4h4v-4h5v-5h4v-4h4v-4h4v-4h5v-5h4v-4h5v-4h3v-5h5v-4h4v-4h5v-5h4v-4h4v-4h4v-4h5v-5h4v-4h4v-4h4v-4h5v-5h4v-4h4v-4h4v-4h5v-5h4v-4h4v-4h5v-4 h4v-5h4v-4h4v-5h5v-4h4v-4h4v-4h5v-5h4v-4h4v-4h5v-4h4v-5h4v-4h4v-4h5v-5h4v-4h4v-4h4v-4h5v-5h4v-4h5v-4h3v-4h5v-5h4v-4h5v-5h3v-8h5v-4h4v-5h5v-4h4v-4h4v-4h4v-9h5v-4h4v-4h4v-9h4v-4h5v-9h4v-4h4v-9h5v-8h4v-4h4v-9h5v-9h4v-8h4v-9h4v-8h5v-13h4v-13h4v-13h5v-13h4 v-21h4v-30h4v-60h-4v-17h-4v-30h-4v-21h-5v-9h-4v-17h-4v-13h-5v-12h-4v-9h-4v-13h-4v-9h-5v-9h-4v-8h-4v-4h-5v-9h-4v-8h-4v-5h-5v-8h-4v-4h-4v-9h-4v-4h-5v-4h-4v-5h-4v-8h-4v-5h-5v-4h-4v-4h-5v-4h-3v-5h-5v-4h-4v-4h-5v-4h-3v-5h-5v-4h-4v-5h-9v-4h-4v-4h-4v-4h-5v-5h-8 v-4h-4v-4h-9v-4h-9v-5h-8v-4h-5v-4h-8v-4h-9v-5h-13v-4h-8v-4h-13v-5h-8v-4h-22v-4h-9v-5h-29v-4h-30v-4h-65v4h-42v4h-26v5h-17v4h-9v4h-17v5h-8v4h-13v4h-9v5h-8v4h-9v4h-9v4h-4v5h-8v4h-5v4h-8v4h-4v5h-9v4h-4v4h-4v4h-9v5h-4v4h-5v5h-4v4h-4v4h-4v4h-5v5h-4v4h-4v4h-4v9 h-5v4h-4v4h-5v5h-4v8h-4v4h-4v5h-5v8h-4v9h-4v4h-4v8h-5v9h-4v8h-4v9h-4v9h-5v8h-4v14h-4v8h-4v13h-5v17h-4v13h-4v25h-5v39zM298 520h5v8h17v-4h4v-17h-4v-5h-5v-4h-17v22zM226 609h4v17h21v-21h-8v-4h-17v8zM521 511h4v-21h-22v4h5v8h4v9h5v4h4v-4zM431 318h4v5h9v-17h-5 v-5h-8v17z" />
<glyph unicode="=" horiz-adv-x="703" d="M600 657q24 5 39 -8t20 -35.5t6 -45t-0.5 -39.5t-2.5 -16q-11 -21 -67 -34q-35 -7 -101 -8q-47 -1 -144 -1q-49 1 -133 1q-57 0 -65 -3l-9 40q-1 4 -1 6q-9 48 19 69q11 8 70 18q70 14 133 23l140 20q58 9 96 13zM298 256l-94 -12q-33 -8 -47 15q-12 21 -17 50 q-2 20 -2 38t2 30l1 12q10 20 67 33q27 5 100 7q94 2 144 1h133q59 0 66 4l1 -2q1 -3 2.5 -9.5t2.5 -14.5t4 -22q9 -49 -19 -68q-9 -7 -71 -19q-86 -15 -132 -22z" />
<glyph unicode="&#x3e;" d="M551 301h4v9h4v30h-4v4h-17v-4h-4v-5h-5v-3h-4v-9h-4v-22h4v-4h4v-5h17v5h5v4zM422 292h30v18h5v22h-9v-5h-4v5h-13v-5h-4v-4h-5v-9h-4v-17h4v-5zM636 306h5v12h4v17h-4v9h-22v-4h-4v-5h-4v-8h-5v-30h5v-5h17v5h8v9zM328 301h-8v17h4v14h-13v-22h-4v-13h4v-5h13v5h9v-5h8 v18h4v22h-8v-9h-4v-17h-5v-5zM396 332h-3v-9h3v-13h-3v-13h3v-5h14v9h-5v22h13v9h-8v8h-14v-8zM290 318h4v5h13v9h-26v-18h-4v-22h8v9h5v17zM576 340v-5h-4v-3h9v-14h-5v-17h-13v-9h35v9h-9v22h4v21h-8v-4h-9zM166 318h-5v22h-4v4h-17v-17h-4v-21h-5v-14h13v26h4v14h5v-35h4 v-5h13v9h4v9h4v8h5v5h4v-13h-4v-18h8v14h4v8h5v30h-13v-4h-4v-5h-5v-8h-4v-9h-4v-4h-4v4zM486 332h5v3h12v-3h5v-5h-5v-4h-3v-5h-5v-4h-4v-4h-5v-4h-4v-5h-4v-9h34v9h-17v5h5v4h3v4h5v4h4v5h5v17h-5v4h-17v-4h-9v-8zM371 327v-4h-4v17h4v9h-13v-26h-4v-22h-4v-9h8v5h4v9h5 v-5h4v-9h8v14h-4v12h4v5h5v4h4v5h-13v-5h-4zM251 323h4v-26h-4v-8h-8v-9h12v4h5v13h4v17h4v9h9v9h-9v3h4v5h9v9h-13v-5h-4v-4h-4v-8h-9v3h-4v5h-4v4h-31v-17h-4v-21h-4v-14h13v22h13v-22h13v18h-5v8h5v5h4v4h4v-4zM709 421h-13v-13h5v-12h4v-5h-4v-8h-5v-5h-4v-8h-5v-9h14v5 h4v8h4v4h4v5h5v21h-5v9h-4v8zM735 421h-13v-8h4v-13h4v-13h-4v-4h-4v-9h-4v-4h-5v-9h13v5h4v4h5v4h4v9h4v4h5v9h-5v12h-4v9h-4v4zM615 400h4v17h5v-13h4v-13h4v-8h4v-13h5v-9h4v-4h17v4h5v22h3v13h5v21h4v25h-12v-4h-5v-21h-4v-21h-5v-13h-4v17h-4v8h-4v13h-5v13h-4v8h-21 v-4h-5v-30h-4v-21h-4v-13h-5v-17h13v4h5v17h4v22zM191 408h4v9h5v4h-13v-4h-4v-4h-5v-5h-4v-8h-4v-4h-4v-9h4v-13h4v-8h4v-5h13v9h-4v8h-4v18h4v8h4v4zM166 408h4v9h4v4h-17v-8h-4v-5h-5v-4h-4v-4h-4v-17h4v-13h4v-9h13v17h-4v9h-4v4h4v9h4v4h5v4zM452 413v4h5v-9h-5v-21h-4 v-30h13v4h4v22h4v17h5v25h4v17h-26v-4h-4v-4h-4v-9h-5v-8h-4v-4h-4v-9h-4v-8h-5v-5h-4v5h-4v8h-4v34h-5v4h-26v-4h-4v-30h-4v-17h-4v-13h-5v-21h17v26h5v13h4v21h5v-4h3v-22h5v-30h4v-4h13v4h4v9h5v4h4v9h4v8h4v9h5v4h4v9h4zM585 408h4v22h4v12h-17v-4h-4v-30h-4v-12h-5v-26 h-4v-13h17v9h5v21h4v21zM234 425h4v5h17v-5h13v13h-8v4h-22v-4h-12v-4h-5v-4h-4v-26h4v-4h5v-4h8v-5h9v-17h-5v-4h-21v4h-5v4h-4v-4h-4v-13h13v-4h21v4h13v5h4v4h5v4h4v22h-4v4h-5v4h-8v4h-9v5h-4v12zM508 391h4v-8h5v-9h4v-8h4v-9h17v13h-4v8h-4v9h-5v9h-4v8h4v4h5v5h4v4h4 v4h4v4h5v5h4v4h4v8h-17v-4h-4v-4h-4v-4h-5v-5h-4v-8h-4v-4h-9v29h-12v-4h-5v-17h-4v-21h-5v-34h-4v-9h18v17h3v13h5v4zM298 421h5v13h4v8h-17v-4h-5v-21h-4v-17h-4v-30h4v-4h4v-5h9v-4h26v4h13v5h4v4h4v4h4v9h5v21h4v21h4v17h-17v-8h-4v-21h-4v-30h-5v-5h-4v-4h-4v-4h-17v4 h-9v17h4v30zM491 468h4v9h34v-21h17v42h-4v22h-4v21h-21v-4h-5v-5h-4v-8h-5v-9h-3v-8h-5v-5h-4v-8h-5v-9h-4v-8h-4v-9h-4v-4h-5v-8h17v3h5v9zM333 498h4v4h4v30h-4v5h-9v4h-38v-4h-5v-30h-4v-13h-4v-21h-5v-17h18v12h4v17h21v5h13v4h5v4zM687 507h-25v21h34v13h-47v-4h-4 v-30h-4v-13h-5v-26h-4v-12h52v12h-31v26h31v4h3v9zM593 524h9v4h17v-4h5v-4h8v12h-4v5h-9v4h-21v-4h-13v-5h-4v-4h-5v-4h-4v-4h-4v-13h-5v-39h5v-4h4v-5h9v-3h30v3h4v5h4v13h-4v-4h-9v-5h-17v5h-4v4h-4v25h4v9h4v9h4v4zM405 507h-26v21h35v13h-47v-4h-5v-30h-4v-13h-4v-26 h-4v-12h51v12h-30v26h30v4h4v9zM144 537h-4v-9h21v-26h-4v-29h-4v-17h13v3h4v14h4v21h4v21h5v13h25v13h-64v-4zM444 528h30v4h4v9h-47v-4h-4v-30h-5v-22h-4v-12h-4v-17h17v17h4v17h30v4h4v8h-30v13h5v13zM272 528h5v9h4v4h-21v-9h-5v-4h-4v-8h-4v-5h-4v-8h-5v13h-4v8h-4v13 h-18v-13h5v-13h4v-13h5v-25h-5v-21h17v8h5v26h4v4h4v4h4v9h5v4h4v9h4v4h4v4zM264 605h4v4h4v22h-8v4h-9v4h-38v-4h-5v-17h-4v-34h-4v-22h-4v-8h17v13h4v21h13v-4h4v-4h5v-22h4v-4h17v13h-4v17h-5v4h-4v4h4v5h9v8zM396 605h-25v21h34v13h-47v-4h-4v-30h-4v-13h-5v-25h-4v-13 h52v13h-31v25h31v5h3v8zM333 605h-26v21h34v13h-47v-4h-4v-30h-5v-13h-4v-25h-4v-13h51v13h-30v25h30v5h5v8zM166 626h29v5h5v8h-47v-4h-5v-30h-4v-21h-4v-13h-4v-17h17v17h4v17h30v4h4v9h-30v13h5v12zM24 447h-4v77h4v26h5v17h4v17h4v13h5v12h4v9h4v13h4v8h5v9h4v9h4v8h4v4 h5v9h4v9h4v4h4v8h5v5h4v4h4v8h4v5h5v4h4v4h5v4h4v9h4v5h4v3h5v5h4v4h4v5h4v4h9v4h4v4h5v5h4v8h4v4h4v5h5v4h4v4h4v5h4v4h5v4h4v4h4v5h4v4h5v4h4v4h5v5h4v4h4v5h4v4h5v4h4v4h4v5h4v4h5v4h4v4h4v5h4v4h5v4h4v4h4v5h5v4h4v4h4v4h5v5h4v4h4v4h4v5h5v4h4v4h4v5h5v4h4v4h4v4h4v5h5 v4h4v4h4v5h4v4h5v4h4v4h4v5h4v4h5v4h4v4h5v5h3v4h5v5h4v3h9v-3h4v-5h4v-4h5v-5h4v-4h4v-4h4v-4h5v-5h4v-4h4v-4h5v-4h4v-5h4v-4h4v-4h5v-5h4v-4h4v-4h4v-4h5v-5h4v-4h5v-4h3v-5h5v-4h4v-4h5v-5h4v-4h4v-4h4v-4h5v-5h4v-4h4v-4h4v-4h5v-5h4v-4h4v-4h4v-4h5v-5h4v-4h4v-4h5v-4 h4v-5h4v-4h4v-5h5v-4h4v-4h4v-4h5v-5h4v-4h4v-4h5v-4h4v-5h4v-4h4v-4h5v-5h4v-4h4v-4h4v-4h5v-5h4v-4h5v-4h3v-4h5v-5h4v-4h5v-5h3v-8h5v-4h4v-5h5v-4h4v-4h4v-4h4v-9h5v-4h4v-4h4v-9h4v-4h5v-9h4v-4h4v-9h5v-8h4v-4h4v-9h5v-9h4v-8h4v-9h4v-8h5v-13h4v-13h4v-13h5v-13h4 v-21h4v-30h4v-60h-4v-17h-4v-30h-4v-21h-5v-9h-4v-17h-4v-13h-5v-12h-4v-9h-4v-13h-4v-9h-5v-9h-4v-8h-4v-4h-5v-9h-4v-8h-4v-5h-5v-8h-4v-4h-4v-9h-4v-4h-5v-4h-4v-5h-4v-8h-4v-5h-5v-4h-4v-4h-5v-4h-3v-5h-5v-4h-4v-4h-5v-4h-3v-5h-5v-4h-4v-5h-9v-4h-4v-4h-4v-4h-5v-5h-8 v-4h-4v-4h-9v-4h-9v-5h-8v-4h-5v-4h-8v-4h-9v-5h-13v-4h-8v-4h-13v-5h-8v-4h-22v-4h-9v-5h-29v-4h-30v-4h-65v4h-42v4h-26v5h-17v4h-9v4h-17v5h-8v4h-13v4h-9v5h-8v4h-9v4h-9v4h-4v5h-8v4h-5v4h-8v4h-4v5h-9v4h-4v4h-4v4h-9v5h-4v4h-5v5h-4v4h-4v4h-4v4h-5v5h-4v4h-4v4h-4v9 h-5v4h-4v4h-5v5h-4v8h-4v4h-4v5h-5v8h-4v9h-4v4h-4v8h-5v9h-4v8h-4v9h-4v9h-5v8h-4v14h-4v8h-4v13h-5v17h-4v13h-4v25h-5v39zM298 520h5v8h17v-4h4v-17h-4v-5h-5v-4h-17v22zM226 609h4v17h21v-21h-8v-4h-17v8zM521 511h4v-21h-22v4h5v8h4v9h5v4h4v-4zM431 318h4v5h9v-17h-5 v-5h-8v17z" />
<glyph unicode="?" horiz-adv-x="509" d="M288 254q15 -32 2 -107q-14 -75 -6 -80q-35 -16 -117 -14q-75 3 -88 5q-23 32 -17 114q8 84 34 99q3 0 89 -2q66 -2 103 -15zM463 770q-5 -23 9 -86t12 -129q0 -65 -29 -112t-116 -37q-1 0 -27 -56q-4 -10 -9 -20t-7 -15l-5 -11q-3 -5 -3 -7l-1 -2q-195 6 -195 7 q-9 49 5 138q13 87 116 93q1 11 4 32q4 29 4 34l-6 -31l-6 -31l-15 3q-16 2 -39 7l-47 9q-23 4 -39 8.5t-16 7.5q-5 59 15 131t36 120l42 6q45 6 100 5q60 0 119 -13q60 -13 98 -51z" />
<glyph unicode="A" horiz-adv-x="710" d="M356 908q42 0 59 -1q42 0 88 -67q49 -71 85 -178q90 -257 86 -558q-21 -17 -75 -49q-57 -33 -187 -35q-9 9 -23 118h-25h-25q-15 -104 -23 -118q-23 2 -58.5 7t-110.5 26.5t-107 51.5l3 125q5 128 37 269q34 153 96 281q61 127 124 127q10 0 28 0.5t28 0.5zM354 284l20 4 v43q0 64 -1 103q0 39 -2 117q-2 60 -6 88l-6 -69q-5 -75 -5 -286z" />
<glyph unicode="B" horiz-adv-x="682" d="M331 351l-18 -5q0 -11 -1 -34q0 -46 -1 -73v-106l10 43q10 41 10 175zM66 884q73 12 139.5 15.5t124.5 10.5q152 16 210 -51q59 -68 69 -155q10 -85 -7 -164l-16 -76q9 -5 28 -14q30 -14 31 -54q4 -92 -23 -185q-27 -91 -89 -141q-38 -29 -103.5 -41.5t-139.5 -7.5 q-74 6 -136.5 27.5t-91.5 55.5l-12 108q-10 109 -6 220l7 93q7 69 12 148q7 87 8 141q2 65 -5 70zM312 467l18 -5q0 133 -10 174l-10 44v-34v-73z" />
<glyph unicode="C" horiz-adv-x="664" d="M630 52q-164 -50 -279 -28q-116 22 -192 91q-74 68 -107 167t-28 204q5 107 47 199.5t119.5 156t187.5 72t252 -53.5q3 -63 -25 -138q-29 -75 -48 -120q-53 -5 -106 -12q-5 -1 -32.5 -3.5t-40.5 -4.5l-33 -3q16 -40 29 -153l14 -114q21 4 64 11l106 20l22 -40 q21 -39 37 -93q12 -46 12 -102z" />
<glyph unicode="D" horiz-adv-x="749" d="M357 652l1 -374q18 75 24 186q6 109 -5 188h-20zM64 817q53 49 144 68q92 19 180 24q80 4 153 -1l65 -4q53 -76 80 -220q27 -147 2 -291q-24 -146 -115 -256q-91 -111 -276 -117q-96 -3 -155 25q-58 29 -81 54l-13 114q-12 111 -4 219q1 11 8 75t11 111t6.5 114t-5.5 85z " />
<glyph unicode="E" horiz-adv-x="693" d="M62 816q51 48 144 68q92 20 180 24t153 0l65 -4q-17 -124 -57 -203l-40 -80h-57q-44 0 -97.5 -12.5t-60.5 -12.5q1 0 4 -25l73 18q72 19 98 13q35 -10 68.5 -67.5t51 -110.5t15.5 -53q-116 -38 -193 -48l-78 -9q3 -23 4 -23l118 21l75 14q35 -6 76 -98q42 -94 56 -147 l-119 -30q-121 -29 -246 -32q-94 -3 -155 26q-58 29 -81 54l-13 113q-13 111 -4 220q1 11 8 75t11 111t6.5 113.5t-5.5 84.5z" />
<glyph unicode="F" horiz-adv-x="634" d="M62 815q51 48 144 68q92 19 180 24t153 0l65 -4q-17 -124 -57 -203l-40 -80h-57q-44 0 -97.5 -12.5t-60.5 -12.5q1 0 4 -25l73 18q72 19 98 13q35 -10 68.5 -67.5t51 -110.5t15.5 -53q-116 -38 -193 -48l-78 -9q23 -182 2 -293q-67 -4 -147 9q-77 13 -127 69l-13 113 q-13 111 -4 220q1 11 8 75t11 111t6.5 113.5t-5.5 84.5z" />
<glyph unicode="G" horiz-adv-x="724" d="M689 388q-24 -20 -25 -93l-2 -136l-6 -73q-307 -129 -461.5 0t-153.5 501q1 172 94 240q94 68 203 80q108 13 201 -5l91 -18q3 -60 -26 -138q-36 -95 -47 -121q-11 -1 -34 -4l-73 -7q-5 -1 -32.5 -3.5t-40.5 -4.5l-33 -3q6 -14 11 -36t9.5 -46.5t8 -51t5.5 -49.5l5 -43 q2 -19 3 -30l1 -11q4 3 22.5 21.5t27 24t33.5 16.5t50.5 11.5t69.5 -4t99 -17.5z" />
<glyph unicode="H" horiz-adv-x="706" d="M40 429l7 94q8 90 11 147q7 85 8 139q2 64 -5 72q-1 1 36 6l85 9q63 6 88 7q43 2 49 -1l9 -123q10 -117 10 -241q6 2 11.5 2t8.5 -1l3 -1l3 57l7 127l7 126l3 58q114 -4 184 -40q71 -36 84 -47l12 -107q12 -110 5 -220q-2 -35 -7.5 -102t-9 -115t-7 -101.5t-3 -87.5 t5.5 -46q1 -2 -58 -9.5t-118 -11.5t-88 1q-20 189 -20 290h1h-1h-10h-3h-7q1 -35 -9 -167l-12 -123q-50 2 -121 11q-81 10 -143 71q-2 10 -13 127q-9 115 -3 200z" />
<glyph unicode="I" horiz-adv-x="394" d="M44 429q31 232 25 312l-5 79q95 79 261 85h29q17 -42 19 -146q2 -116 -5 -230q-9 -152 -20 -264l-22 -245q-36 0 -121 11q-80 10 -144 71q-3 16 -8.5 67t-10.5 129t2 131z" />
<glyph unicode="J" horiz-adv-x="629" d="M588 493q-14 -147 -16.5 -240t0.5 -121.5t3 -29.5q-64 -61 -144 -71q-85 -11 -120 -11l-85 10q-81 10 -186 46l9 33q8 31 26 75q46 109 99 123q23 5 66 -5l45 -10q-15 169 -23 371q-6 179 20 242q3 -1 19.5 0.5t50.5 -3t69.5 -11.5t77.5 -26t73 -45l14 -103 q14 -104 2 -224z" />
<glyph unicode="K" horiz-adv-x="748" d="M63 100q-23 144 -22 224q2 91 10 157q11 92 17 147q8 80 -2 190q3 3 72 44q70 43 218 39l15 -81q15 -80 0 -280q10 77 22 191q11 104 42 143q17 21 62 26q42 6 92 4q51 -2 83 -7q36 -5 35 -6q-11 -16 -19 -85q-5 -59 -17 -148q-12 -88 -29 -151q-19 -69 -54 -89 q-2 -2 -5 -6v1l5 5q5 6 26 -17q22 -23 39 -90q25 -95 34 -218q11 -121 25 -143q0 -1 -15.5 -3.5t-44 -5.5t-55.5 -3q-126 -2 -156 35q-30 32 -53 148q-22 122 -32 202v-40q0 -57 -1 -92l-2 -103q0 -44 -2 -70q-34 2 -125 9q-93 9 -163 73z" />
<glyph unicode="L" horiz-adv-x="626" d="M44 429q31 232 25 312l-5 79q95 79 261 85h29q25 -60 19 -242q-5 -179 -21 -371q15 3 44 10q43 10 66 5q52 -13 98 -123q18 -40 27 -75l9 -33q-105 -36 -186 -46l-84 -10q-36 0 -121 11q-80 10 -144 71q-3 16 -8.5 67t-10.5 129t2 131z" />
<glyph unicode="M" horiz-adv-x="1074" d="M414 907q55 0 117 -113l36 56q36 57 82 57h115q73 -7 133 -144t93 -293q24 -116 29 -244l4 -121q-1 -7 -69 -39q-65 -31 -207 -46q-10 22 -18 85l-15 127l-10 114q0 8 -1 17.5t-1 14.5t-0.5 9.5t-0.5 6.5v1q-4 -67 -16 -165t-12 -126q-21 -17 -75 -49q-57 -33 -187 -35 q-7 7 -16 66q-11 71 -17 128q-7 68 -12 125l-5 56q-1 -18 -4 -54q-8 -92 -11 -120q-4 -48 -14 -127q-7 -60 -17 -74h-7q-6 1 -19 3l-29 5q-16 2 -35.5 5.5t-40 8.5t-41.5 11.5t-39.5 14t-35.5 17t-29 20.5l3 125q5 128 37 269q33 149 97 281q61 127 123 127h115z" />
<glyph unicode="N" horiz-adv-x="737" d="M39 430l7 94q8 90 11 147q7 85 8 139q2 64 -5 72q-2 2 36 6l85 9q63 6 88 7q43 2 49 -1q19 -39 41 -153q26 -124 38 -211v54q0 32 2 122q1 66 6 125q5 60 12 67q126 -1 186 -37q58 -34 76 -48l12 -107q12 -104 4 -220q-2 -34 -7.5 -101.5t-9 -115.5t-7 -101.5t-3 -88 t5.5 -46.5q-55 -8 -115 -15q-122 -10 -148 -4l-35 139l-37 146q-15 60 -15 59v-56q0 -77 -1 -120q-2 -79 -4 -118q-2 -54 -6 -53q-36 0 -118 11q-78 12 -139 72q-2 10 -13 127q-10 112 -4 200z" />
<glyph unicode="O" horiz-adv-x="752" d="M59 817q51 48 144 68q91 19 180 24t154 0l65 -4q81 -161 98 -391q16 -226 -42 -432l-119 -30q-121 -29 -246 -32q-97 -2 -155 26q-59 28 -82 54l-13 114q-12 114 -3 219l18 185q13 147 1 199zM376 622q-16 -7 -22 -57q-5 -55 -5 -110q0 -61 3 -119q3 -57 3 -79l10 73 q11 77 11 292z" />
<glyph unicode="P" horiz-adv-x="768" d="M44 383q0 29 9 130q10 108 11 151q4 102 5 138q2 65 -6 79l104 29q107 29 229 22q126 -8 229 -82q106 -75 107 -282q0 -71 -23 -136t-71.5 -115.5t-123 -64t-176.5 19.5l-3 -82q-1 -76 -17 -206q-8 1 -20 1q-42 3 -112 15q-72 14 -125 67q0 17 -12 117q-11 104 -5 199z M379 697l-18 -5q0 -11 -1 -34q0 -46 -1 -73q0 -50 -1 -73v-33q3 15 10 44q11 46 11 174z" />
<glyph unicode="Q" horiz-adv-x="760" d="M62 817q52 49 144 69t180 24q81 4 154 -1l65 -4q61 -125 87 -288t9 -330q4 -13 11 -40q12 -39 -3 -120q-18 -90 -29 -134q-15 -67 -15 -98l-42 6q-40 4 -103 29q-31 11 -67 38q-34 25 -33 61q-16 -1 -47 -4q-41 -4 -77 -4q-96 -3 -155 25t-82 54l-13 114q-12 111 -4 219 q1 11 8 75t11 111t6.5 114t-5.5 84zM380 622q-18 -8 -22 -57q-5 -55 -5 -110q0 -42 2 -118q3 -57 3 -80q4 24 11 73q11 77 11 292z" />
<glyph unicode="R" horiz-adv-x="765" d="M41 384q0 30 9 130q10 109 11 152l4 138q3 64 -5 78l103 29q107 29 229 22q126 -8 229 -82q106 -75 107 -282q1 -148 -50 -203l-51 -54q21 -37 44 -167t29 -138l-51 -12q-48 -13 -112 -10q-62 3 -117 34q-54 32 -62 121q-2 9 -3 61l-1 52l-18 3l11 -146q7 -87 7 -125 q-9 1 -21 1q-47 4 -132 16q-91 14 -144 67q1 14 -11 117t-5 198zM375 699l-18 -5q0 -11 -1 -34q0 -46 -1 -73v-74v-33q3 15 10 44q10 41 10 175z" />
<glyph unicode="S" horiz-adv-x="760" d="M74 831q51 47 145 67q91 20 180 24t153 0l65 -4q26 -51 64 -144q37 -85 34 -157q-1 -4 -36 -13q-63 -14 -76 -16l-76 -15l-35 -6l-18 36l-17 36q-1 -1 7 -40q9 -39 11 -39q156 -2 202 -81q47 -80 38 -141q-9 -107 -54 -256l-119 -30q-121 -31 -246 -32q-94 -3 -155 26 q-59 28 -81 54l-9 70q-8 66 -10 158q0 5 225 50l16 -37l16 -36q1 0 0.5 4t-2.5 13.5t-5 22.5l-10 40q-132 -18 -179 39q-45 56 -50 138q-4 82 12 162q17 82 10 107z" />
<glyph unicode="T" horiz-adv-x="989" d="M942 906q-14 -115 -55 -199l-42 -84q-58 3 -134 -8l-73 -10q4 -49 -12.5 -252t-15.5 -251q-21 -24 -94 -55q-70 -30 -165 -27q-29 305 -23 440l6 140q-7 1 -32.5 7.5t-52 10.5t-53.5 4h-57l-40 80q-40 79 -57 203l47 8q31 6 128 16t197 13t245.5 -5t282.5 -31z" />
<glyph unicode="U" horiz-adv-x="766" d="M413 20h-56q-10 0 -28 0.5t-28 0.5q-104 0 -160 98q-55 100 -77 231q-21 127 -23 267q-1 103 1 205q32 29 103 50.5t117 28.5t55 7q10 -15 20 -75q13 -78 20 -128l17 -119l7 -53h25q5 50 10 92l16 122q9 61 18 108t15 53q129 -2 187 -36q62 -37 76 -48q1 -198 -5 -328 t-30 -230q-58 -245 -225 -245q-9 -1 -55 -1z" />
<glyph unicode="V" horiz-adv-x="709" d="M414 21h-115q-61 0 -123 126q-63 131 -97 282q-32 140 -37 268l-3 125q12 11 29 20.5t35.5 17t39.5 14t41.5 11.5t40 9t36 6.5t28.5 4t19 2.5l7 1q10 -16 17 -76q9 -75 14 -127q3 -29 11 -119l4 -53q2 19 5 56q5 59 12 124q6 60 17 128q9 60 16 67q127 -1 187 -37 q63 -37 75 -47q2 -163 -23 -303q-24 -145 -63 -256q-39 -112 -85 -178t-88 -66z" />
<glyph unicode="W" horiz-adv-x="1074" d="M414 21h-115q-61 0 -123 126q-63 131 -97 282q-32 140 -37 268l-3 125q12 11 29 20.5t35.5 17t39.5 14t41.5 11.5t40 9t36 6.5t28.5 4t19 2.5l7 1q10 -16 17 -76q9 -75 14 -127q3 -29 11 -119l4 -53q2 19 5 56q5 59 12 124q6 60 17 128q9 60 16 67q127 -1 187 -37 q63 -37 75 -47q0 -29 12 -127t16 -164v1q0 2 0.5 5.5t0.5 9t0.5 14t1.5 17.5l10 114l15 127q7 63 18 87q144 -17 207 -47q68 -30 69 -39q-1 -40 -4 -121q-5 -127 -29 -243q-33 -158 -93 -294t-133 -143h-115q-46 0 -82 56l-36 56q-61 -112 -117 -112z" />
<glyph unicode="X" horiz-adv-x="742" d="M376 327h-12q-2 -49 -15 -147q-12 -97 -42 -127q-40 -37 -134 -33q-92 6 -127 15l8 26q8 27 17 142q6 87 33 156q28 69 51 66q-35 19 -54 90q-19 73 -29 151q-9 68 -16 147q-6 67 -17 83q-3 3 50 11t115 3t83 -32q24 -30 37 -82q15 -52 24 -105l17 -128q4 3 12 0 q-3 59 2 128q10 137 55 190q17 20 62 26q42 6 92 4q51 -2 83 -7q7 -1 13 -2t10 -1.5t6.5 -1.5t3.5 -1l1 -1q-10 -13 -18 -83q-5 -57 -17 -149q-11 -81 -30 -151q-18 -69 -53 -89q-2 -2 -5 -6v1l5 5q4 5 26 -17q23 -22 39 -90q25 -95 28 -179q3 -82 18 -104q1 -2 -14.5 -4.5 t-44 -6t-57.5 -4.5q-127 -2 -156 34q-34 39 -39 129q-5 102 -11 144z" />
<glyph unicode="Y" horiz-adv-x="742" d="M518 404l-9 -97q-8 -90 -10 -202l-62 -42q-61 -42 -198 -40q-7 59 -12.5 153.5t-7.5 157.5l-2 64q-90 18 -118 84q-27 65 -32 146q-4 67 -2 155q3 76 -25 113q-3 3 50 10.5t115 3t83 -30.5q24 -30 37 -82q15 -53 24 -105l17 -128q4 1 11 0q-3 58 4 126q4 47 17 105 q12 56 37 86q18 25 63 31q43 6 92 4q42 -1 82 -10q6 -1 12.5 -2.5t10 -2t6.5 -1.5t4 -2h1q-14 -19 -16 -98q-2 -78 -12 -165q-10 -84 -46 -157q-34 -69 -114 -74z" />
<glyph unicode="Z" horiz-adv-x="724" d="M690 817q-4 -146 -46 -246q-41 -99 -87 -158q-45 -57 -85 -84q-38 -24 -36 -24l39 -10q41 -9 87 -21l87 -22l40 -9q-1 -10 -6 -28t-13 -37l-17 -42l-19 -42l-16 -34q-8 -16 -12 -25l-5 -9q-11 -2 -34 -5q-31 -4 -129 -1q-48 1 -106.5 8t-108 16t-92 18t-67.5 15t-24 6 q24 69 20 174q-3 108 19 158q67 158 139 184l71 26l-39 10q-36 10 -86 21l-85 22l-38 10q19 79 88 217q22 1 67 4q68 5 160 0t186 -24q95 -20 148 -68z" />
<glyph unicode="[" horiz-adv-x="456" d="M163 21q-45 51 -80 157q-35 110 -45 239q-9 133 16 266q26 137 103 240q17 21 61 27q42 6 92 4q43 -1 83 -8l14 -2q6 -1 10 -1.5t7 -1.5t4 -1l1 -1q-11 -13 -19 -83q-5 -57 -17 -149q-12 -88 -29 -151q-19 -70 -53 -89l-6 -6q-5 -5 6 6q4 5 25 -17q22 -22 39 -91 q25 -95 34 -218q11 -120 25 -142l-34 -6q-34 -5 -81 -6q-51 -2 -91 5q-47 8 -65 29z" />
<glyph unicode="\" horiz-adv-x="1256" d="M405 472v19h5v9h5v5h9v4h10v-4h4v4h5v24h-24v-5h-4v-5h-5v10h-23v-19h-5v-23h-5v-24h-4v-28h23v10h5v23h4zM279 491v9h10v5h4v4h5v10h5v33h-5v4h-5v5h-4v4h-66v-9h-5v-23h-5v-24h-4v-23h-5v-24h-5v-23h24v5h5v14h4v23h5v10h14v-5h4v-9h5v-24h5v-14h28v14h-4v28h-5v10h-5z M794 477v23h5v23h5v10h-24v-10h-5v5h-4v5h-33v-5h-9v-5h-5v-4h-5v-5h-4v-9h-5v-14h-5v-33h5v-9h5v-5h4v-5h29v5h9v5h4v-10h24v14h5v24h4zM532 477v23h5v23h5v10h-29v-14h-5v-28h-4v-14h-5v-5h-4v-5h-5v-5h-5v-4h-9v4h-5v15h5v23h4v19h5v14h-28v-14h-5v-23h-4v-47h4v-5h5v-5 h28v5h10v5h4v-10h23v14h5v24h5zM677 472v24h5v18h23v19h-18v9h4v14h-28v-14h-5v-9h-13v-19h9v-18h-5v-24h-4v-19h4v-9h5v-5h33v5h4v18h-4v-4h-10v4h-5v10h5zM583 505v14h5v23h5v28h-24v-14h-4v-23h-5v-19h-5v-28h-4v-24h-5v-23h23v10h5v28h5v4h4v-9h5v-14h5v-9h5v-10h27v14 h-4v9h-5v10h-5v9h-4v15h4v4h5v5h5v4h4v5h5v5h5v4h5v10h-29v-5h-4v-5h-5v-4h-4v-5h-5v-5h-5v-4h-5zM190 496v23h5v23h4v23h-37v-4h-5v-5h-4v-9h-5v-5h-5v-9h-4v-10h-5v-9h-5v-5h-4v-9h-5v-9h-5v-5h-5v5h-5v37h-4v24h-5v9h-4v4h-33v-4h-5v-5h-5v-23h-4v-24h-5v-23h-5v-24h-4 v-23h23v5h5v23h4v29h5v23h5v19h5v-33h5v-28h4v-33h5v-5h23v5h5v9h5v9h4v10h5v9h5v5h4v10h5v9h5v9h4v5h5v9h5v-23h-5v-24h-5v-23h-4v-19h23v10h5v23h4v24h5zM363 542v5h5v5h19v18h-33v-5h-9v-4h-5v-9h-5v-14h-4v-5h-15v-19h10v-23h-5v-24h-5v-23h-4v-14h-5v-5h-14v-5h-4v-14 h32v5h5v5h5v4h4v10h5v23h5v24h4v19h5v18h19v5h4v14h-18v9h4zM-16 477h-5v84h5v28h5v19h5v18h5v15h4v13h4v10h5v14h5v9h4v10h5v9h5v9h4v5h5v9h5v10h4v5h5v9h5v5h4v4h5v9h5v5h5v5h5v5h4v5h5v9h4v4h5v5h4v5h5v4h5v5h5v5h9v5h5v4h5v5h4v9h5v5h5v5h4v4h5v5h5v5h4v4h5v5h5v5h4v5h5 v4h5v5h4v5h5v4h5v5h4v4h5v5h5v5h5v5h4v4h5v5h5v5h4v4h5v5h4v5h5v4h5v5h5v5h4v4h5v5h5v5h5v5h4v4h5v5h5v5h4v4h5v5h4v4h5v5h5v5h5v5h4v4h5v5h5v5h4v5h5v4h5v5h4v4h5v5h5v5h4v4h5v5h5v5h5v5h4v4h5v5h9v-5h5v-4h4v-5h5v-5h5v-5h5v-4h4v-5h5v-5h5v-4h4v-5h5v-4h4v-5h5v-5h5v-5h5 v-4h4v-5h5v-5h5v-5h5v-4h4v-5h5v-4h4v-5h5v-5h5v-4h4v-5h5v-5h5v-5h5v-4h5v-5h4v-5h5v-4h4v-5h5v-5h5v-4h4v-5h5v-5h5v-4h4v-5h5v-5h5v-5h5v-4h4v-5h5v-4h4v-5h5v-5h5v-4h4v-5h5v-5h5v-5h5v-4h5v-5h4v-5h5v-4h4v-5h5v-5h4v-4h5v-5h5v-5h5v-4h5v-5h4v-5h5v-5h5v-4h4v-5h5v-9 h5v-5h4v-4h5v-5h5v-5h4v-5h5v-9h5v-5h5v-4h4v-10h5v-4h4v-10h5v-5h5v-9h4v-9h5v-5h5v-9h5v-10h4v-9h5v-10h5v-9h4v-14h5v-14h4v-14h5v-14h5v-23h5v-33h4v-5h-4v-80h-5v-23h-5v-23h-5v-19h-4v-19h-5v-14h-4v-9h-5v-14h-5v-9h-4v-10h-5v-10h-5v-9h-5v-9h-4v-9h-5v-5h-5v-9h-4 v-5h-5v-10h-4v-4h-5v-10h-5v-4h-5v-5h-4v-9h-5v-5h-5v-5h-4v-5h-5v-4h-5v-5h-4v-4h-5v-5h-5v-5h-4v-4h-10v-5h-5v-5h-5v-5h-4v-4h-5v-5h-9v-5h-4v-4h-10v-5h-5v-5h-9v-4h-10v-5h-9v-5h-9v-4h-10v-5h-9v-5h-14v-5h-9v-4h-19v-5h-14v-5h-23v-4h-29v-5h-23v-4h-70v4h-38v5h-28 v4h-18v5h-19v5h-15v4h-13v5h-10v5h-9v5h-10v4h-9v5h-9v5h-10v4h-9v5h-5v5h-9v4h-5v5h-4v5h-10v4h-4v5h-5v5h-9v5h-5v4h-5v5h-5v5h-5v4h-4v5h-5v4h-4v5h-5v10h-4v5h-5v4h-5v9h-5v5h-5v5h-4v9h-5v5h-5v9h-4v10h-5v4h-5v10h-4v9h-5v9h-5v10h-4v14h-5v9h-5v14h-4v14h-4v14h-5v24 h-5v23h-5v38zM733 462v34h5v9h5v4h5v5h13v-5h5v-4h5v-14h-5v-14h-5v-10h-4v-5h-9v-4h-10v4h-5zM242 509v19h4v19h24v-5h4v-23h-4v-5h-10v-5h-18zM-317 119q-42 48 -61 176q-20 134 -20 276q0 150 19 276q20 132 56 174q37 43 91 50q56 9 104 2q50 -8 86 -21q9 -4 15 -6 t10.5 -4t6.5 -4l2 -1q-11 -16 -17 -84q-8 -74 -18 -148q-10 -78 -29 -151q-20 -71 -54 -89q-2 -2 -5 -6q2 3 5 6q4 4 26 -18q22 -23 39 -90q25 -95 34 -218q9 -121 25 -143l-2 -2q-2 -1 -7 -3t-11.5 -4t-16.5 -6q-36 -11 -90 -19q-54 -6 -105 4q-55 11 -83 53zM1116 105 q-29 -42 -84 -53q-51 -10 -105 -4q-57 8 -89 20l-14 4l-10.5 4.5t-7 2.5t-4.5 2l-1 1q15 22 24 143q9 123 34 218q18 69 39 91q23 23 27 17l5 -7l-1 1l-4 6q-35 18 -54 88t-30 151q-3 24 -17 149q-8 71 -17 84q-1 1 33 15q36 13 86 21q48 7 105 -1q54 -8 90 -51 q37 -43 57 -173q20 -129 18 -276q0 -143 -20 -277q-19 -129 -60 -176z" />
<glyph unicode="]" horiz-adv-x="472" d="M315 21q-23 -27 -91.5 -32.5t-126 1t-54.5 9.5q16 22 25 142q9 117 35 218q17 68 38 91q22 22 26 17l6 -7l-1 1l-5 6q-35 20 -54 89q-19 73 -29 151l-18 149q-6 69 -17 83l1 1q1 0 4 1t7 1.5t10 1.5t13 2q40 7 83 8q50 2 92 -4q44 -6 61 -27q77 -103 103 -240 q26 -139 16 -266q-9 -129 -45 -239q-36 -108 -79 -157z" />
<glyph unicode="^" d="M551 301h4v9h4v30h-4v4h-17v-4h-4v-5h-5v-3h-4v-9h-4v-22h4v-4h4v-5h17v5h5v4zM422 292h30v18h5v22h-9v-5h-4v5h-13v-5h-4v-4h-5v-9h-4v-17h4v-5zM636 306h5v12h4v17h-4v9h-22v-4h-4v-5h-4v-8h-5v-30h5v-5h17v5h8v9zM328 301h-8v17h4v14h-13v-22h-4v-13h4v-5h13v5h9v-5h8 v18h4v22h-8v-9h-4v-17h-5v-5zM396 332h-3v-9h3v-13h-3v-13h3v-5h14v9h-5v22h13v9h-8v8h-14v-8zM290 318h4v5h13v9h-26v-18h-4v-22h8v9h5v17zM576 340v-5h-4v-3h9v-14h-5v-17h-13v-9h35v9h-9v22h4v21h-8v-4h-9zM166 318h-5v22h-4v4h-17v-17h-4v-21h-5v-14h13v26h4v14h5v-35h4 v-5h13v9h4v9h4v8h5v5h4v-13h-4v-18h8v14h4v8h5v30h-13v-4h-4v-5h-5v-8h-4v-9h-4v-4h-4v4zM486 332h5v3h12v-3h5v-5h-5v-4h-3v-5h-5v-4h-4v-4h-5v-4h-4v-5h-4v-9h34v9h-17v5h5v4h3v4h5v4h4v5h5v17h-5v4h-17v-4h-9v-8zM371 327v-4h-4v17h4v9h-13v-26h-4v-22h-4v-9h8v5h4v9h5 v-5h4v-9h8v14h-4v12h4v5h5v4h4v5h-13v-5h-4zM251 323h4v-26h-4v-8h-8v-9h12v4h5v13h4v17h4v9h9v9h-9v3h4v5h9v9h-13v-5h-4v-4h-4v-8h-9v3h-4v5h-4v4h-31v-17h-4v-21h-4v-14h13v22h13v-22h13v18h-5v8h5v5h4v4h4v-4zM709 421h-13v-13h5v-12h4v-5h-4v-8h-5v-5h-4v-8h-5v-9h14v5 h4v8h4v4h4v5h5v21h-5v9h-4v8zM735 421h-13v-8h4v-13h4v-13h-4v-4h-4v-9h-4v-4h-5v-9h13v5h4v4h5v4h4v9h4v4h5v9h-5v12h-4v9h-4v4zM615 400h4v17h5v-13h4v-13h4v-8h4v-13h5v-9h4v-4h17v4h5v22h3v13h5v21h4v25h-12v-4h-5v-21h-4v-21h-5v-13h-4v17h-4v8h-4v13h-5v13h-4v8h-21 v-4h-5v-30h-4v-21h-4v-13h-5v-17h13v4h5v17h4v22zM191 408h4v9h5v4h-13v-4h-4v-4h-5v-5h-4v-8h-4v-4h-4v-9h4v-13h4v-8h4v-5h13v9h-4v8h-4v18h4v8h4v4zM166 408h4v9h4v4h-17v-8h-4v-5h-5v-4h-4v-4h-4v-17h4v-13h4v-9h13v17h-4v9h-4v4h4v9h4v4h5v4zM452 413v4h5v-9h-5v-21h-4 v-30h13v4h4v22h4v17h5v25h4v17h-26v-4h-4v-4h-4v-9h-5v-8h-4v-4h-4v-9h-4v-8h-5v-5h-4v5h-4v8h-4v34h-5v4h-26v-4h-4v-30h-4v-17h-4v-13h-5v-21h17v26h5v13h4v21h5v-4h3v-22h5v-30h4v-4h13v4h4v9h5v4h4v9h4v8h4v9h5v4h4v9h4zM585 408h4v22h4v12h-17v-4h-4v-30h-4v-12h-5v-26 h-4v-13h17v9h5v21h4v21zM234 425h4v5h17v-5h13v13h-8v4h-22v-4h-12v-4h-5v-4h-4v-26h4v-4h5v-4h8v-5h9v-17h-5v-4h-21v4h-5v4h-4v-4h-4v-13h13v-4h21v4h13v5h4v4h5v4h4v22h-4v4h-5v4h-8v4h-9v5h-4v12zM508 391h4v-8h5v-9h4v-8h4v-9h17v13h-4v8h-4v9h-5v9h-4v8h4v4h5v5h4v4h4 v4h4v4h5v5h4v4h4v8h-17v-4h-4v-4h-4v-4h-5v-5h-4v-8h-4v-4h-9v29h-12v-4h-5v-17h-4v-21h-5v-34h-4v-9h18v17h3v13h5v4zM298 421h5v13h4v8h-17v-4h-5v-21h-4v-17h-4v-30h4v-4h4v-5h9v-4h26v4h13v5h4v4h4v4h4v9h5v21h4v21h4v17h-17v-8h-4v-21h-4v-30h-5v-5h-4v-4h-4v-4h-17v4 h-9v17h4v30zM491 468h4v9h34v-21h17v42h-4v22h-4v21h-21v-4h-5v-5h-4v-8h-5v-9h-3v-8h-5v-5h-4v-8h-5v-9h-4v-8h-4v-9h-4v-4h-5v-8h17v3h5v9zM333 498h4v4h4v30h-4v5h-9v4h-38v-4h-5v-30h-4v-13h-4v-21h-5v-17h18v12h4v17h21v5h13v4h5v4zM687 507h-25v21h34v13h-47v-4h-4 v-30h-4v-13h-5v-26h-4v-12h52v12h-31v26h31v4h3v9zM593 524h9v4h17v-4h5v-4h8v12h-4v5h-9v4h-21v-4h-13v-5h-4v-4h-5v-4h-4v-4h-4v-13h-5v-39h5v-4h4v-5h9v-3h30v3h4v5h4v13h-4v-4h-9v-5h-17v5h-4v4h-4v25h4v9h4v9h4v4zM405 507h-26v21h35v13h-47v-4h-5v-30h-4v-13h-4v-26 h-4v-12h51v12h-30v26h30v4h4v9zM144 537h-4v-9h21v-26h-4v-29h-4v-17h13v3h4v14h4v21h4v21h5v13h25v13h-64v-4zM444 528h30v4h4v9h-47v-4h-4v-30h-5v-22h-4v-12h-4v-17h17v17h4v17h30v4h4v8h-30v13h5v13zM272 528h5v9h4v4h-21v-9h-5v-4h-4v-8h-4v-5h-4v-8h-5v13h-4v8h-4v13 h-18v-13h5v-13h4v-13h5v-25h-5v-21h17v8h5v26h4v4h4v4h4v9h5v4h4v9h4v4h4v4zM264 605h4v4h4v22h-8v4h-9v4h-38v-4h-5v-17h-4v-34h-4v-22h-4v-8h17v13h4v21h13v-4h4v-4h5v-22h4v-4h17v13h-4v17h-5v4h-4v4h4v5h9v8zM396 605h-25v21h34v13h-47v-4h-4v-30h-4v-13h-5v-25h-4v-13 h52v13h-31v25h31v5h3v8zM333 605h-26v21h34v13h-47v-4h-4v-30h-5v-13h-4v-25h-4v-13h51v13h-30v25h30v5h5v8zM166 626h29v5h5v8h-47v-4h-5v-30h-4v-21h-4v-13h-4v-17h17v17h4v17h30v4h4v9h-30v13h5v12zM24 447h-4v77h4v26h5v17h4v17h4v13h5v12h4v9h4v13h4v8h5v9h4v9h4v8h4v4 h5v9h4v9h4v4h4v8h5v5h4v4h4v8h4v5h5v4h4v4h5v4h4v9h4v5h4v3h5v5h4v4h4v5h4v4h9v4h4v4h5v5h4v8h4v4h4v5h5v4h4v4h4v5h4v4h5v4h4v4h4v5h4v4h5v4h4v4h5v5h4v4h4v5h4v4h5v4h4v4h4v5h4v4h5v4h4v4h4v5h4v4h5v4h4v4h4v5h5v4h4v4h4v4h5v5h4v4h4v4h4v5h5v4h4v4h4v5h5v4h4v4h4v4h4v5h5 v4h4v4h4v5h4v4h5v4h4v4h4v5h4v4h5v4h4v4h5v5h3v4h5v5h4v3h9v-3h4v-5h4v-4h5v-5h4v-4h4v-4h4v-4h5v-5h4v-4h4v-4h5v-4h4v-5h4v-4h4v-4h5v-5h4v-4h4v-4h4v-4h5v-5h4v-4h5v-4h3v-5h5v-4h4v-4h5v-5h4v-4h4v-4h4v-4h5v-5h4v-4h4v-4h4v-4h5v-5h4v-4h4v-4h4v-4h5v-5h4v-4h4v-4h5v-4 h4v-5h4v-4h4v-5h5v-4h4v-4h4v-4h5v-5h4v-4h4v-4h5v-4h4v-5h4v-4h4v-4h5v-5h4v-4h4v-4h4v-4h5v-5h4v-4h5v-4h3v-4h5v-5h4v-4h5v-5h3v-8h5v-4h4v-5h5v-4h4v-4h4v-4h4v-9h5v-4h4v-4h4v-9h4v-4h5v-9h4v-4h4v-9h5v-8h4v-4h4v-9h5v-9h4v-8h4v-9h4v-8h5v-13h4v-13h4v-13h5v-13h4 v-21h4v-30h4v-60h-4v-17h-4v-30h-4v-21h-5v-9h-4v-17h-4v-13h-5v-12h-4v-9h-4v-13h-4v-9h-5v-9h-4v-8h-4v-4h-5v-9h-4v-8h-4v-5h-5v-8h-4v-4h-4v-9h-4v-4h-5v-4h-4v-5h-4v-8h-4v-5h-5v-4h-4v-4h-5v-4h-3v-5h-5v-4h-4v-4h-5v-4h-3v-5h-5v-4h-4v-5h-9v-4h-4v-4h-4v-4h-5v-5h-8 v-4h-4v-4h-9v-4h-9v-5h-8v-4h-5v-4h-8v-4h-9v-5h-13v-4h-8v-4h-13v-5h-8v-4h-22v-4h-9v-5h-29v-4h-30v-4h-65v4h-42v4h-26v5h-17v4h-9v4h-17v5h-8v4h-13v4h-9v5h-8v4h-9v4h-9v4h-4v5h-8v4h-5v4h-8v4h-4v5h-9v4h-4v4h-4v4h-9v5h-4v4h-5v5h-4v4h-4v4h-4v4h-5v5h-4v4h-4v4h-4v9 h-5v4h-4v4h-5v5h-4v8h-4v4h-4v5h-5v8h-4v9h-4v4h-4v8h-5v9h-4v8h-4v9h-4v9h-5v8h-4v14h-4v8h-4v13h-5v17h-4v13h-4v25h-5v39zM298 520h5v8h17v-4h4v-17h-4v-5h-5v-4h-17v22zM226 609h4v17h21v-21h-8v-4h-17v8zM521 511h4v-21h-22v4h5v8h4v9h5v4h4v-4zM431 318h4v5h9v-17h-5 v-5h-8v17z" />
<glyph unicode="_" d="M551 301h4v9h4v30h-4v4h-17v-4h-4v-5h-5v-3h-4v-9h-4v-22h4v-4h4v-5h17v5h5v4zM422 292h30v18h5v22h-9v-5h-4v5h-13v-5h-4v-4h-5v-9h-4v-17h4v-5zM636 306h5v12h4v17h-4v9h-22v-4h-4v-5h-4v-8h-5v-30h5v-5h17v5h8v9zM328 301h-8v17h4v14h-13v-22h-4v-13h4v-5h13v5h9v-5h8 v18h4v22h-8v-9h-4v-17h-5v-5zM396 332h-3v-9h3v-13h-3v-13h3v-5h14v9h-5v22h13v9h-8v8h-14v-8zM290 318h4v5h13v9h-26v-18h-4v-22h8v9h5v17zM576 340v-5h-4v-3h9v-14h-5v-17h-13v-9h35v9h-9v22h4v21h-8v-4h-9zM166 318h-5v22h-4v4h-17v-17h-4v-21h-5v-14h13v26h4v14h5v-35h4 v-5h13v9h4v9h4v8h5v5h4v-13h-4v-18h8v14h4v8h5v30h-13v-4h-4v-5h-5v-8h-4v-9h-4v-4h-4v4zM486 332h5v3h12v-3h5v-5h-5v-4h-3v-5h-5v-4h-4v-4h-5v-4h-4v-5h-4v-9h34v9h-17v5h5v4h3v4h5v4h4v5h5v17h-5v4h-17v-4h-9v-8zM371 327v-4h-4v17h4v9h-13v-26h-4v-22h-4v-9h8v5h4v9h5 v-5h4v-9h8v14h-4v12h4v5h5v4h4v5h-13v-5h-4zM251 323h4v-26h-4v-8h-8v-9h12v4h5v13h4v17h4v9h9v9h-9v3h4v5h9v9h-13v-5h-4v-4h-4v-8h-9v3h-4v5h-4v4h-31v-17h-4v-21h-4v-14h13v22h13v-22h13v18h-5v8h5v5h4v4h4v-4zM709 421h-13v-13h5v-12h4v-5h-4v-8h-5v-5h-4v-8h-5v-9h14v5 h4v8h4v4h4v5h5v21h-5v9h-4v8zM735 421h-13v-8h4v-13h4v-13h-4v-4h-4v-9h-4v-4h-5v-9h13v5h4v4h5v4h4v9h4v4h5v9h-5v12h-4v9h-4v4zM615 400h4v17h5v-13h4v-13h4v-8h4v-13h5v-9h4v-4h17v4h5v22h3v13h5v21h4v25h-12v-4h-5v-21h-4v-21h-5v-13h-4v17h-4v8h-4v13h-5v13h-4v8h-21 v-4h-5v-30h-4v-21h-4v-13h-5v-17h13v4h5v17h4v22zM191 408h4v9h5v4h-13v-4h-4v-4h-5v-5h-4v-8h-4v-4h-4v-9h4v-13h4v-8h4v-5h13v9h-4v8h-4v18h4v8h4v4zM166 408h4v9h4v4h-17v-8h-4v-5h-5v-4h-4v-4h-4v-17h4v-13h4v-9h13v17h-4v9h-4v4h4v9h4v4h5v4zM452 413v4h5v-9h-5v-21h-4 v-30h13v4h4v22h4v17h5v25h4v17h-26v-4h-4v-4h-4v-9h-5v-8h-4v-4h-4v-9h-4v-8h-5v-5h-4v5h-4v8h-4v34h-5v4h-26v-4h-4v-30h-4v-17h-4v-13h-5v-21h17v26h5v13h4v21h5v-4h3v-22h5v-30h4v-4h13v4h4v9h5v4h4v9h4v8h4v9h5v4h4v9h4zM585 408h4v22h4v12h-17v-4h-4v-30h-4v-12h-5v-26 h-4v-13h17v9h5v21h4v21zM234 425h4v5h17v-5h13v13h-8v4h-22v-4h-12v-4h-5v-4h-4v-26h4v-4h5v-4h8v-5h9v-17h-5v-4h-21v4h-5v4h-4v-4h-4v-13h13v-4h21v4h13v5h4v4h5v4h4v22h-4v4h-5v4h-8v4h-9v5h-4v12zM508 391h4v-8h5v-9h4v-8h4v-9h17v13h-4v8h-4v9h-5v9h-4v8h4v4h5v5h4v4h4 v4h4v4h5v5h4v4h4v8h-17v-4h-4v-4h-4v-4h-5v-5h-4v-8h-4v-4h-9v29h-12v-4h-5v-17h-4v-21h-5v-34h-4v-9h18v17h3v13h5v4zM298 421h5v13h4v8h-17v-4h-5v-21h-4v-17h-4v-30h4v-4h4v-5h9v-4h26v4h13v5h4v4h4v4h4v9h5v21h4v21h4v17h-17v-8h-4v-21h-4v-30h-5v-5h-4v-4h-4v-4h-17v4 h-9v17h4v30zM491 468h4v9h34v-21h17v42h-4v22h-4v21h-21v-4h-5v-5h-4v-8h-5v-9h-3v-8h-5v-5h-4v-8h-5v-9h-4v-8h-4v-9h-4v-4h-5v-8h17v3h5v9zM333 498h4v4h4v30h-4v5h-9v4h-38v-4h-5v-30h-4v-13h-4v-21h-5v-17h18v12h4v17h21v5h13v4h5v4zM687 507h-25v21h34v13h-47v-4h-4 v-30h-4v-13h-5v-26h-4v-12h52v12h-31v26h31v4h3v9zM593 524h9v4h17v-4h5v-4h8v12h-4v5h-9v4h-21v-4h-13v-5h-4v-4h-5v-4h-4v-4h-4v-13h-5v-39h5v-4h4v-5h9v-3h30v3h4v5h4v13h-4v-4h-9v-5h-17v5h-4v4h-4v25h4v9h4v9h4v4zM405 507h-26v21h35v13h-47v-4h-5v-30h-4v-13h-4v-26 h-4v-12h51v12h-30v26h30v4h4v9zM144 537h-4v-9h21v-26h-4v-29h-4v-17h13v3h4v14h4v21h4v21h5v13h25v13h-64v-4zM444 528h30v4h4v9h-47v-4h-4v-30h-5v-22h-4v-12h-4v-17h17v17h4v17h30v4h4v8h-30v13h5v13zM272 528h5v9h4v4h-21v-9h-5v-4h-4v-8h-4v-5h-4v-8h-5v13h-4v8h-4v13 h-18v-13h5v-13h4v-13h5v-25h-5v-21h17v8h5v26h4v4h4v4h4v9h5v4h4v9h4v4h4v4zM264 605h4v4h4v22h-8v4h-9v4h-38v-4h-5v-17h-4v-34h-4v-22h-4v-8h17v13h4v21h13v-4h4v-4h5v-22h4v-4h17v13h-4v17h-5v4h-4v4h4v5h9v8zM396 605h-25v21h34v13h-47v-4h-4v-30h-4v-13h-5v-25h-4v-13 h52v13h-31v25h31v5h3v8zM333 605h-26v21h34v13h-47v-4h-4v-30h-5v-13h-4v-25h-4v-13h51v13h-30v25h30v5h5v8zM166 626h29v5h5v8h-47v-4h-5v-30h-4v-21h-4v-13h-4v-17h17v17h4v17h30v4h4v9h-30v13h5v12zM24 447h-4v77h4v26h5v17h4v17h4v13h5v12h4v9h4v13h4v8h5v9h4v9h4v8h4v4 h5v9h4v9h4v4h4v8h5v5h4v4h4v8h4v5h5v4h4v4h5v4h4v9h4v5h4v3h5v5h4v4h4v5h4v4h9v4h4v4h5v5h4v8h4v4h4v5h5v4h4v4h4v5h4v4h5v4h4v4h4v5h4v4h5v4h4v4h5v5h4v4h4v5h4v4h5v4h4v4h4v5h4v4h5v4h4v4h4v5h4v4h5v4h4v4h4v5h5v4h4v4h4v4h5v5h4v4h4v4h4v5h5v4h4v4h4v5h5v4h4v4h4v4h4v5h5 v4h4v4h4v5h4v4h5v4h4v4h4v5h4v4h5v4h4v4h5v5h3v4h5v5h4v3h9v-3h4v-5h4v-4h5v-5h4v-4h4v-4h4v-4h5v-5h4v-4h4v-4h5v-4h4v-5h4v-4h4v-4h5v-5h4v-4h4v-4h4v-4h5v-5h4v-4h5v-4h3v-5h5v-4h4v-4h5v-5h4v-4h4v-4h4v-4h5v-5h4v-4h4v-4h4v-4h5v-5h4v-4h4v-4h4v-4h5v-5h4v-4h4v-4h5v-4 h4v-5h4v-4h4v-5h5v-4h4v-4h4v-4h5v-5h4v-4h4v-4h5v-4h4v-5h4v-4h4v-4h5v-5h4v-4h4v-4h4v-4h5v-5h4v-4h5v-4h3v-4h5v-5h4v-4h5v-5h3v-8h5v-4h4v-5h5v-4h4v-4h4v-4h4v-9h5v-4h4v-4h4v-9h4v-4h5v-9h4v-4h4v-9h5v-8h4v-4h4v-9h5v-9h4v-8h4v-9h4v-8h5v-13h4v-13h4v-13h5v-13h4 v-21h4v-30h4v-60h-4v-17h-4v-30h-4v-21h-5v-9h-4v-17h-4v-13h-5v-12h-4v-9h-4v-13h-4v-9h-5v-9h-4v-8h-4v-4h-5v-9h-4v-8h-4v-5h-5v-8h-4v-4h-4v-9h-4v-4h-5v-4h-4v-5h-4v-8h-4v-5h-5v-4h-4v-4h-5v-4h-3v-5h-5v-4h-4v-4h-5v-4h-3v-5h-5v-4h-4v-5h-9v-4h-4v-4h-4v-4h-5v-5h-8 v-4h-4v-4h-9v-4h-9v-5h-8v-4h-5v-4h-8v-4h-9v-5h-13v-4h-8v-4h-13v-5h-8v-4h-22v-4h-9v-5h-29v-4h-30v-4h-65v4h-42v4h-26v5h-17v4h-9v4h-17v5h-8v4h-13v4h-9v5h-8v4h-9v4h-9v4h-4v5h-8v4h-5v4h-8v4h-4v5h-9v4h-4v4h-4v4h-9v5h-4v4h-5v5h-4v4h-4v4h-4v4h-5v5h-4v4h-4v4h-4v9 h-5v4h-4v4h-5v5h-4v8h-4v4h-4v5h-5v8h-4v9h-4v4h-4v8h-5v9h-4v8h-4v9h-4v9h-5v8h-4v14h-4v8h-4v13h-5v17h-4v13h-4v25h-5v39zM298 520h5v8h17v-4h4v-17h-4v-5h-5v-4h-17v22zM226 609h4v17h21v-21h-8v-4h-17v8zM521 511h4v-21h-22v4h5v8h4v9h5v4h4v-4zM431 318h4v5h9v-17h-5 v-5h-8v17z" />
<glyph unicode="a" horiz-adv-x="560" d="M33 -4q6 8 12.5 53.5t13 104t10.5 80.5q11 56 5 138q-6 84 3 163q7 80 42 137q34 57 127 60q164 -2 217 -38l54 -36q10 -65 13 -145q4 -64 0 -121q-3 -55 -15 -146q-13 -94 -1 -162l-45 -34q-44 -34 -160 -34q-1 53 -1 132v86l-15 4v-12v-77q-18 -112 -88 -145 q-71 -33 -172 -8zM292 328l16 2v276l-4 -10q-12 -50 -12 -268z" />
<glyph unicode="b" horiz-adv-x="546" d="M265 281l-15 -4v-27q0 -37 -1 -59v-85q2 12 8 35q8 37 8 140zM53 707q58 9 111.5 12.5t99.5 8.5q121 13 168 -41q48 -55 55 -124q8 -64 -5 -131l-13 -61q7 -4 22 -11q23 -11 25 -43q3 -75 -18 -148q-23 -74 -72 -113q-63 -49 -194 -39q-134 11 -182 66q-4 29 -10 87 q-8 79 -5 176l6 74q6 56 9 118q5 55 7 113q1 52 -4 56zM250 374l14 -4q0 108 -8 139l-8 35v-27v-59z" />
<glyph unicode="c" horiz-adv-x="660" d="M469 298l52 -45q52 -44 108 -134q-299 -158 -447.5 -67t-147.5 418q3 138 76 192q72 54 161 65q87 10 160 -5l73 -15q2 -51 -20 -110q-27 -72 -38 -96l-170 -19q9 -23 17 -73t12 -94t5 -46l35 6l75 13q39 7 49 10z" />
<glyph unicode="d" horiz-adv-x="599" d="M286 522v-300q14 57 19 149q5 89 -3 151h-16zM51 654q44 38 116 54q71 16 144 19q75 3 122 -1l52 -3q42 -60 63 -176q22 -113 2 -233q-20 -118 -92 -205q-72 -89 -220 -93q-78 -2 -124 20q-47 22 -65 43l-10 91q-10 89 -4 176q28 260 16 308z" />
<glyph unicode="e" horiz-adv-x="554" d="M50 653q42 39 115 54q71 16 144 19q71 5 122 0l52 -3q-14 -100 -45 -162l-32 -64h-46q-36 0 -78 -10t-48 -10l3 -20l58 14q56 16 79 11q54 -15 101 -162l7 -23q-94 -30 -155 -39l-62 -7q2 -18 3 -18l94 17l60 11q29 -5 61 -79q32 -70 45 -117l-95 -24q-97 -23 -197 -26 q-76 -2 -124 21q-46 22 -65 43q-3 31 -10 91q-11 90 -3 176l6 60q6 51 9 88.5t5 91t-4 67.5z" />
<glyph unicode="f" horiz-adv-x="507" d="M50 652q42 39 115 54q67 15 144 20q71 5 122 0l52 -4q-13 -98 -45 -162l-32 -64h-46q-36 0 -78 -10t-48 -10l3 -20l58 15q58 15 79 10q54 -15 101 -162l7 -23q-94 -31 -155 -38l-62 -8q17 -148 1 -234q-56 -3 -117 7q-62 10 -102 55q-4 30 -11 91q-10 86 -2 176 q0 8 8.5 87.5t10.5 123t-3 96.5z" />
<glyph unicode="g" horiz-adv-x="579" d="M551 310q-18 -15 -20 -74q-1 -39 -1 -109l-5 -58q-245 -104 -369 -0.5t-123 401.5q2 137 75 191q72 54 162 65q86 10 161 -5l73 -14q1 -49 -21 -110l-37 -97l-43 -4l-85 -10l-43 -4q6 -15 11.5 -43t9.5 -56t7.5 -55t4.5 -43l2 -16l15 15q12 12 18 16l20 13q14 9 29 11 t38 3.5t53 -3.5t68 -14z" />
<glyph unicode="h" horiz-adv-x="565" d="M32 343l6 75q6 74 8 118q5 54 7 111q2 51 -4 58l15 3q9 1 14 2l68 7q60 5 70 5q33 2 39 0q3 -33 7 -99q8 -87 8 -193q5 2 9.5 2t6.5 -1l3 -1q1 16 2 46l6 102l5 100l3 47q92 -4 147 -32q56 -30 67 -38q3 -29 10 -85q10 -92 4 -176q-2 -27 -7 -81l-7 -93q-3 -38 -5.5 -81 t-2 -70.5t4.5 -36.5q1 -2 -46.5 -7.5t-94.5 -9t-70 0.5q-16 151 -16 232h-8h-3h-5q1 -27 -7 -134l-10 -98q-48 2 -97 9q-63 7 -114 57q-2 6 -11 101q-6 97 -2 160z" />
<glyph unicode="i" horiz-adv-x="315" d="M35 343q25 183 20 250l-4 63q40 34 98 51t96 17h38q25 -57 11 -301q-4 -101 -15 -211l-18 -196q-33 0 -97 9q-66 9 -115 57q-2 9 -7 53t-8.5 103.5t1.5 104.5z" />
<glyph unicode="j" horiz-adv-x="503" d="M470 394q-11 -117 -12.5 -192t0.5 -96.5t2 -23.5q-49 -48 -115 -57q-65 -9 -96 -9q-23 3 -68 8q-71 9 -149 37q-2 0 11 42.5t39.5 88.5t56.5 54q15 4 53 -4l36 -8q-13 153 -18 296q-5 146 16 194q16 1 42 0t88 -17.5t102 -50.5q4 -27 11 -82q11 -87 1 -180z" />
<glyph unicode="k" horiz-adv-x="518" d="M33 335q0 30 7 104q7 60 9 121q3 105 3 110q3 54 -2 64q-1 0 15 2t38.5 4.5t49 5t48 3t34.5 -1.5q0 -253 1 -314q6 48 23 153q13 81 40 114q16 20 63.5 24t87.5 -1t38 -8q-8 -11 -14 -67q-10 -90 -14 -118q-9 -67 -24 -121q-15 -58 -42 -71q-2 -2 -4 -5h-1l5 5 q1 2 6.5 -1.5t13.5 -12.5q18 -18 32 -73q20 -78 27 -174q8 -95 20 -114q1 -3 -37.5 -8.5t-86 -1t-66.5 25.5q-23 27 -41 119q-15 75 -26 161q1 -10 2 -32l6 -73l6 -81q2 -54 2 -57q-6 0 -17 1q-34 2 -89 12q-56 10 -100 54q0 12 -9 93q-9 78 -4 159z" />
<glyph unicode="l" horiz-adv-x="501" d="M35 343q25 183 20 250l-4 63q40 34 98 51t96 17h38q20 -50 15 -194q-5 -154 -16 -296l35 8q38 8 53 4q29 -8 56 -54t39 -88l12 -43q-78 -28 -149 -37l-67 -8q-33 0 -97 9q-66 9 -115 57q-2 9 -7 53t-8.5 103.5t1.5 104.5z" />
<glyph unicode="m" horiz-adv-x="859" d="M331 726q45 0 94 -91l28 45q28 46 66 46h92q59 -8 107 -116q49 -110 74 -234q20 -100 23 -195l3 -97q-1 -6 -55 -31q-51 -25 -165 -37q-7 18 -15 68l-12 102l-8 91q0 8 -0.5 14.5t-0.5 11t-0.5 8t-0.5 4.5v1q-4 -54 -13.5 -132.5t-9.5 -100.5q-11 -9 -59 -39 q-46 -26 -150 -28q-5 5 -13 53q-6 37 -13 102l-10 100l-4 45q-1 -14 -4 -43l-8 -96q-5 -53 -12 -102q-6 -49 -13 -59l-8 1q-9 1 -25 4l-35 5q-19 3 -41 9t-42 12.5t-39 16t-31 20.5l3 100q3 97 29 215q29 127 77 225q50 102 99 102h92z" />
<glyph unicode="n" horiz-adv-x="590" d="M31 344l6 75l9 118q4 61 6 111q2 51 -4 58q-2 1 49 7t96.5 9.5t60.5 -0.5q15 -30 33 -122q17 -80 31 -169v43q0 62 1 98q1 40 5 100q3 47 10 54q102 -2 148 -30q51 -30 61 -38l9 -86q10 -83 4 -176q-2 -30 -6 -81l-7 -92q-3 -40 -5.5 -82t-2.5 -70t4 -37q0 -1 -46.5 -7 t-93.5 -9.5t-70 0.5q-9 41 -27 111l-30 117l-13 48v-45q0 -61 -1 -96q0 -37 -2 -95q-2 -44 -6 -42q-32 0 -94 9t-111 57q-4 13 -11 102q-8 92 -3 160z" />
<glyph unicode="o" horiz-adv-x="602" d="M47 654q42 39 115 54q80 16 144 19q72 4 124 0l52 -3q64 -127 78 -313q14 -183 -34 -345l-95 -24q-90 -23 -197 -26q-76 -2 -124 21q-47 22 -65 43q-3 30 -11 91q-9 94 -2 175l14 148q11 115 1 160zM301 498q-13 -6 -18 -46q-4 -52 -4 -88q0 -48 3 -95q2 -62 2 -63 q2 19 8 58q9 58 9 234z" />
<glyph unicode="p" horiz-adv-x="614" d="M35 306q0 30 7 104q8 81 9 121q2 36 4 111q2 54 -5 63l83 23q85 23 184 17q100 -4 183 -65q85 -60 86 -226q0 -57 -18.5 -108.5t-57.5 -92.5t-98.5 -51t-141.5 16q-1 -22 -2 -66q-1 -61 -14 -165q-5 1 -16 1q-32 2 -89 12q-56 10 -100 54q0 17 -10 93q-9 78 -4 159z M303 558l-14 -4l-1 -85q-2 -85 -2 -86q3 12 8 35q9 36 9 140z" />
<glyph unicode="q" horiz-adv-x="608" d="M50 654q41 38 115 55q71 16 144 19q74 3 123 -1l52 -3q51 -102 70 -231q20 -135 7 -263l9 -32q9 -32 -3 -96q-13 -70 -23 -108q-12 -52 -12 -78q-51 3 -116 28q-26 10 -54 30t-26 49l-37 -3q-37 -3 -62 -3q-75 -3 -124 20q-46 22 -66 43l-10 91q-10 91 -3 175l9 89 q8 78 10 122t-3 97zM304 498q-10 -4 -15.5 -30.5t-6 -66t0 -75.5t2 -73.5t1.5 -46.5l9 58q9 58 9 234z" />
<glyph unicode="r" horiz-adv-x="612" d="M33 307q0 30 7 104q7 81 9 122l3 110q2 53 -4 63l83 23q84 23 183 17q100 -4 183 -65q84 -60 85 -226q1 -117 -40 -162l-40 -43q16 -28 34 -133t24 -111q-14 -3 -41 -10q-37 -10 -90 -8q-49 2 -93 27q-42 25 -50 97q0 2 -0.5 8t-1 17.5t-0.5 22.5l-1 42l-14 3l8 -117 q6 -74 6 -100q-6 1 -17 1q-32 1 -105 12q-71 10 -115 54q0 18 -10 94q-9 80 -3 158zM300 559l-14 -4l-2 -171q3 12 8 35q8 37 8 140z" />
<glyph unicode="s" horiz-adv-x="608" d="M59 665q45 38 116 53q67 15 144 20q71 4 123 0l52 -4q24 -47 51 -115q29 -69 27 -125q-1 -4 -45 -14t-89 -18l-44 -8q-5 9 -14 28l-14 29q-1 -1 5 -32q7 -31 9 -31q124 -1 161 -65q38 -64 31 -113q-5 -71 -43 -204l-96 -24q-97 -25 -196 -26q-76 -1 -124 21 q-46 22 -65 43q-2 19 -7 56q-6 48 -8 126q0 4 73 19.5t107 20.5l12 -29l13 -29q1 1 0 8.5t-5 23.5l-8 32q-106 -13 -143 31q-36 45 -41 111q-3 66 10 129q14 65 8 86z" />
<glyph unicode="t" horiz-adv-x="791" d="M754 725q-10 -91 -45 -159l-33 -68q-48 3 -107 -6l-59 -8q4 -40 -9.5 -202t-12.5 -200q-19 -20 -75 -44q-54 -24 -132 -22q-23 249 -19 352l5 112q-6 1 -26 6t-41 8.5t-43 3.5h-46l-32 64q-31 64 -45 162q13 3 37.5 7t102 12t157.5 11t196.5 -3.5t226.5 -25.5z" />
<glyph unicode="u" horiz-adv-x="652" d="M52 705q40 11 119 19q75 8 105 -30q20 -29 29 -79l30 -154q1 -4 9 -4l7 3q3 21 7 68.5t8 71.5q20 90 88.5 115.5t166.5 -9.5q-28 -46 -29 -133q-2 -128 -5 -194q-2 -58 -6.5 -101.5t-20 -96t-40.5 -86t-70.5 -56.5t-107.5 -23q-148 0 -204 114q-55 114 -55 249v205 q1 89 -31 121z" />
<glyph unicode="v" horiz-adv-x="567" d="M331 17h-92q-49 0 -99 101q-48 97 -77 225q-26 118 -29 215l-3 100q17 15 45.5 27.5t58 19.5t57 12t44.5 7l16 2q7 -11 13 -60q7 -48 12 -102l8 -96l4 -42q1 15 4 45l10 100q7 65 13 102q8 48 13 53q105 -2 150 -29q46 -27 59 -38q1 -97 -11 -195t-34 -176.5t-49 -140.5 t-56.5 -96t-56.5 -34z" />
<glyph unicode="w" horiz-adv-x="859" d="M331 17h-92q-49 0 -99 101q-48 97 -77 225q-26 118 -29 215l-3 100q17 15 45.5 27.5t58 19.5t57 12t44.5 7l16 2q7 -11 13 -60q7 -48 12 -102l8 -96l4 -42q1 15 4 45l10 100q7 65 13 102q8 48 13 53q105 -2 150 -29q46 -27 59 -38q0 -23 9.5 -101.5t13.5 -131.5v1 q0 1 0.5 4.5t0.5 7.5t0.5 11t0.5 14l8 91l12 102q7 49 15 69q114 -12 165 -37q54 -24 55 -31l-3 -97q-3 -95 -23 -195q-25 -123 -74 -235q-48 -109 -107 -114h-92q-37 0 -66 44l-28 45q-50 -89 -94 -89z" />
<glyph unicode="x" horiz-adv-x="594" d="M301 262h-10q-1 -40 -12 -118q-9 -78 -33 -102q-32 -29 -108 -26q-74 5 -101 12l6 21q6 21 14 113q4 68 26 125q23 56 41 53q-28 16 -43 72q-16 61 -23 121q-8 55 -13 117q-5 54 -14 67q-2 2 40.5 8t92.5 2.5t66 -25.5q19 -23 29 -65q14 -49 19 -84l14 -103q3 3 10 0 q-3 48 1 103q8 110 44 152q13 15 50 21q36 5 73 3q39 -2 67 -6q5 -1 10 -1.5t8 -1t5.5 -1t3.5 -1.5q-8 -11 -14 -67q-10 -92 -14 -119q-9 -65 -24 -121t-42 -71q-2 -2 -4 -5q-2 -2 -1 0l5 5q1 2 5.5 -1t14.5 -13q19 -19 32 -72q19 -75 22 -143q3 -67 14 -83q0 -1 -4.5 -2 t-13 -2.5t-20 -3t-26.5 -2.5l-28 -2q-102 -2 -125 27q-28 31 -31 103q-6 93 -9 116z" />
<glyph unicode="y" horiz-adv-x="594" d="M414 323q-2 -26 -7 -77q-6 -64 -8 -162l-50 -34q-50 -33 -158 -32q-3 22 -5 51l-4 56q-2 27 -3.5 56t-2 53t-1.5 43.5t-1 30.5v10q-72 15 -95 68q-21 50 -26 116q-3 57 -1 124q2 62 -20 91l44 8q126 15 154 -22q22 -27 37 -90.5t21 -112.5l5 -49q4 1 9 0q-1 0 -1 19.5 t1.5 50t6 64.5t14.5 67t25 53q17 23 71.5 27t101.5 -3.5t44 -10.5q-11 -16 -13 -78q-2 -66 -10 -132q-8 -69 -36 -126q-29 -56 -92 -59z" />
<glyph unicode="z" horiz-adv-x="579" d="M552 654q-2 -51 -10 -97.5t-20 -82t-27.5 -67t-32 -54.5t-33.5 -42t-31 -31t-25.5 -20.5t-17.5 -11.5l-6 -4l51 -12l100 -26l51 -12q-1 -18 -18.5 -61t-34.5 -78t-17 -34q-3 -1 -11.5 -2t-41 -3t-78.5 0q-61 2 -140 14.5t-128.5 23.5t-49.5 12q19 54 16 140q-2 86 15 126 q55 128 111 147l57 21l-49 12l-100 26l-49 12q16 68 70 174l54 3q54 4 127 0q77 -3 149 -19q75 -15 119 -54z" />
<glyph unicode="{" horiz-adv-x="456" d="M163 21q-45 51 -80 157q-35 110 -45 239q-9 133 16 266q26 137 103 240q17 21 61 27q42 6 92 4q43 -1 83 -8l14 -2q6 -1 10 -1.5t7 -1.5t4 -1l1 -1q-11 -13 -19 -83q-5 -57 -17 -149q-12 -88 -29 -151q-19 -70 -53 -89l-6 -6q-5 -5 6 6q4 5 25 -17q22 -22 39 -91 q25 -95 34 -218q11 -120 25 -142l-34 -6q-34 -5 -81 -6q-51 -2 -91 5q-47 8 -65 29z" />
<glyph unicode="|" horiz-adv-x="878" d="M405 472v19h5v9h5v5h9v4h10v-4h4v4h5v24h-24v-5h-4v-5h-5v10h-23v-19h-5v-23h-5v-24h-4v-28h23v10h5v23h4zM279 491v9h10v5h4v4h5v10h5v33h-5v4h-5v5h-4v4h-66v-9h-5v-23h-5v-24h-4v-23h-5v-24h-5v-23h24v5h5v14h4v23h5v10h14v-5h4v-9h5v-24h5v-14h28v14h-4v28h-5v10h-5z M794 477v23h5v23h5v10h-24v-10h-5v5h-4v5h-33v-5h-9v-5h-5v-4h-5v-5h-4v-9h-5v-14h-5v-33h5v-9h5v-5h4v-5h29v5h9v5h4v-10h24v14h5v24h4zM532 477v23h5v23h5v10h-29v-14h-5v-28h-4v-14h-5v-5h-4v-5h-5v-5h-5v-4h-9v4h-5v15h5v23h4v19h5v14h-28v-14h-5v-23h-4v-47h4v-5h5v-5 h28v5h10v5h4v-10h23v14h5v24h5zM677 472v24h5v18h23v19h-18v9h4v14h-28v-14h-5v-9h-13v-19h9v-18h-5v-24h-4v-19h4v-9h5v-5h33v5h4v18h-4v-4h-10v4h-5v10h5zM583 505v14h5v23h5v28h-24v-14h-4v-23h-5v-19h-5v-28h-4v-24h-5v-23h23v10h5v28h5v4h4v-9h5v-14h5v-9h5v-10h27v14 h-4v9h-5v10h-5v9h-4v15h4v4h5v5h5v4h4v5h5v5h5v4h5v10h-29v-5h-4v-5h-5v-4h-4v-5h-5v-5h-5v-4h-5zM190 496v23h5v23h4v23h-37v-4h-5v-5h-4v-9h-5v-5h-5v-9h-4v-10h-5v-9h-5v-5h-4v-9h-5v-9h-5v-5h-5v5h-5v37h-4v24h-5v9h-4v4h-33v-4h-5v-5h-5v-23h-4v-24h-5v-23h-5v-24h-4 v-23h23v5h5v23h4v29h5v23h5v19h5v-33h5v-28h4v-33h5v-5h23v5h5v9h5v9h4v10h5v9h5v5h4v10h5v9h5v9h4v5h5v9h5v-23h-5v-24h-5v-23h-4v-19h23v10h5v23h4v24h5zM363 542v5h5v5h19v18h-33v-5h-9v-4h-5v-9h-5v-14h-4v-5h-15v-19h10v-23h-5v-24h-5v-23h-4v-14h-5v-5h-14v-5h-4v-14 h32v5h5v5h5v4h4v10h5v23h5v24h4v19h5v18h19v5h4v14h-18v9h4zM-16 477h-5v84h5v28h5v19h5v18h5v15h4v13h4v10h5v14h5v9h4v10h5v9h5v9h4v5h5v9h5v10h4v5h5v9h5v5h4v4h5v9h5v5h5v5h5v5h4v5h5v9h4v4h5v5h4v5h5v4h5v5h5v5h9v5h5v4h5v5h4v9h5v5h5v5h4v4h5v5h5v5h4v4h5v5h5v5h4v5h5 v4h5v5h4v5h5v4h5v5h4v4h5v5h5v5h5v5h4v4h5v5h5v5h4v4h5v5h4v5h5v4h5v5h5v5h4v4h5v5h5v5h5v5h4v4h5v5h5v5h4v4h5v5h4v4h5v5h5v5h5v5h4v4h5v5h5v5h4v5h5v4h5v5h4v4h5v5h5v5h4v4h5v5h5v5h5v5h4v4h5v5h9v-5h5v-4h4v-5h5v-5h5v-5h5v-4h4v-5h5v-5h5v-4h4v-5h5v-4h4v-5h5v-5h5v-5h5 v-4h4v-5h5v-5h5v-5h5v-4h4v-5h5v-4h4v-5h5v-5h5v-4h4v-5h5v-5h5v-5h5v-4h5v-5h4v-5h5v-4h4v-5h5v-5h5v-4h4v-5h5v-5h5v-4h4v-5h5v-5h5v-5h5v-4h4v-5h5v-4h4v-5h5v-5h5v-4h4v-5h5v-5h5v-5h5v-4h5v-5h4v-5h5v-4h4v-5h5v-5h4v-4h5v-5h5v-5h5v-4h5v-5h4v-5h5v-5h5v-4h4v-5h5v-9 h5v-5h4v-4h5v-5h5v-5h4v-5h5v-9h5v-5h5v-4h4v-10h5v-4h4v-10h5v-5h5v-9h4v-9h5v-5h5v-9h5v-10h4v-9h5v-10h5v-9h4v-14h5v-14h4v-14h5v-14h5v-23h5v-33h4v-5h-4v-80h-5v-23h-5v-23h-5v-19h-4v-19h-5v-14h-4v-9h-5v-14h-5v-9h-4v-10h-5v-10h-5v-9h-5v-9h-4v-9h-5v-5h-5v-9h-4 v-5h-5v-10h-4v-4h-5v-10h-5v-4h-5v-5h-4v-9h-5v-5h-5v-5h-4v-5h-5v-4h-5v-5h-4v-4h-5v-5h-5v-5h-4v-4h-10v-5h-5v-5h-5v-5h-4v-4h-5v-5h-9v-5h-4v-4h-10v-5h-5v-5h-9v-4h-10v-5h-9v-5h-9v-4h-10v-5h-9v-5h-14v-5h-9v-4h-19v-5h-14v-5h-23v-4h-29v-5h-23v-4h-70v4h-38v5h-28 v4h-18v5h-19v5h-15v4h-13v5h-10v5h-9v5h-10v4h-9v5h-9v5h-10v4h-9v5h-5v5h-9v4h-5v5h-4v5h-10v4h-4v5h-5v5h-9v5h-5v4h-5v5h-5v5h-5v4h-4v5h-5v4h-4v5h-5v10h-4v5h-5v4h-5v9h-5v5h-5v5h-4v9h-5v5h-5v9h-4v10h-5v4h-5v10h-4v9h-5v9h-5v10h-4v14h-5v9h-5v14h-4v14h-4v14h-5v24 h-5v23h-5v38zM733 462v34h5v9h5v4h5v5h13v-5h5v-4h5v-14h-5v-14h-5v-10h-4v-5h-9v-4h-10v4h-5zM242 509v19h4v19h24v-5h4v-23h-4v-5h-10v-5h-18z" />
<glyph unicode="}" horiz-adv-x="472" d="M315 21q-23 -27 -91.5 -32.5t-126 1t-54.5 9.5q16 22 25 142q9 117 35 218q17 68 38 91q22 22 26 17l6 -7l-1 1l-5 6q-35 20 -54 89q-19 73 -29 151l-18 149q-6 69 -17 83l1 1q1 0 4 1t7 1.5t10 1.5t13 2q40 7 83 8q50 2 92 -4q44 -6 61 -27q77 -103 103 -240 q26 -139 16 -266q-9 -129 -45 -239q-36 -108 -79 -157z" />
<glyph unicode="~" d="M551 301h4v9h4v30h-4v4h-17v-4h-4v-5h-5v-3h-4v-9h-4v-22h4v-4h4v-5h17v5h5v4zM422 292h30v18h5v22h-9v-5h-4v5h-13v-5h-4v-4h-5v-9h-4v-17h4v-5zM636 306h5v12h4v17h-4v9h-22v-4h-4v-5h-4v-8h-5v-30h5v-5h17v5h8v9zM328 301h-8v17h4v14h-13v-22h-4v-13h4v-5h13v5h9v-5h8 v18h4v22h-8v-9h-4v-17h-5v-5zM396 332h-3v-9h3v-13h-3v-13h3v-5h14v9h-5v22h13v9h-8v8h-14v-8zM290 318h4v5h13v9h-26v-18h-4v-22h8v9h5v17zM576 340v-5h-4v-3h9v-14h-5v-17h-13v-9h35v9h-9v22h4v21h-8v-4h-9zM166 318h-5v22h-4v4h-17v-17h-4v-21h-5v-14h13v26h4v14h5v-35h4 v-5h13v9h4v9h4v8h5v5h4v-13h-4v-18h8v14h4v8h5v30h-13v-4h-4v-5h-5v-8h-4v-9h-4v-4h-4v4zM486 332h5v3h12v-3h5v-5h-5v-4h-3v-5h-5v-4h-4v-4h-5v-4h-4v-5h-4v-9h34v9h-17v5h5v4h3v4h5v4h4v5h5v17h-5v4h-17v-4h-9v-8zM371 327v-4h-4v17h4v9h-13v-26h-4v-22h-4v-9h8v5h4v9h5 v-5h4v-9h8v14h-4v12h4v5h5v4h4v5h-13v-5h-4zM251 323h4v-26h-4v-8h-8v-9h12v4h5v13h4v17h4v9h9v9h-9v3h4v5h9v9h-13v-5h-4v-4h-4v-8h-9v3h-4v5h-4v4h-31v-17h-4v-21h-4v-14h13v22h13v-22h13v18h-5v8h5v5h4v4h4v-4zM709 421h-13v-13h5v-12h4v-5h-4v-8h-5v-5h-4v-8h-5v-9h14v5 h4v8h4v4h4v5h5v21h-5v9h-4v8zM735 421h-13v-8h4v-13h4v-13h-4v-4h-4v-9h-4v-4h-5v-9h13v5h4v4h5v4h4v9h4v4h5v9h-5v12h-4v9h-4v4zM615 400h4v17h5v-13h4v-13h4v-8h4v-13h5v-9h4v-4h17v4h5v22h3v13h5v21h4v25h-12v-4h-5v-21h-4v-21h-5v-13h-4v17h-4v8h-4v13h-5v13h-4v8h-21 v-4h-5v-30h-4v-21h-4v-13h-5v-17h13v4h5v17h4v22zM191 408h4v9h5v4h-13v-4h-4v-4h-5v-5h-4v-8h-4v-4h-4v-9h4v-13h4v-8h4v-5h13v9h-4v8h-4v18h4v8h4v4zM166 408h4v9h4v4h-17v-8h-4v-5h-5v-4h-4v-4h-4v-17h4v-13h4v-9h13v17h-4v9h-4v4h4v9h4v4h5v4zM452 413v4h5v-9h-5v-21h-4 v-30h13v4h4v22h4v17h5v25h4v17h-26v-4h-4v-4h-4v-9h-5v-8h-4v-4h-4v-9h-4v-8h-5v-5h-4v5h-4v8h-4v34h-5v4h-26v-4h-4v-30h-4v-17h-4v-13h-5v-21h17v26h5v13h4v21h5v-4h3v-22h5v-30h4v-4h13v4h4v9h5v4h4v9h4v8h4v9h5v4h4v9h4zM585 408h4v22h4v12h-17v-4h-4v-30h-4v-12h-5v-26 h-4v-13h17v9h5v21h4v21zM234 425h4v5h17v-5h13v13h-8v4h-22v-4h-12v-4h-5v-4h-4v-26h4v-4h5v-4h8v-5h9v-17h-5v-4h-21v4h-5v4h-4v-4h-4v-13h13v-4h21v4h13v5h4v4h5v4h4v22h-4v4h-5v4h-8v4h-9v5h-4v12zM508 391h4v-8h5v-9h4v-8h4v-9h17v13h-4v8h-4v9h-5v9h-4v8h4v4h5v5h4v4h4 v4h4v4h5v5h4v4h4v8h-17v-4h-4v-4h-4v-4h-5v-5h-4v-8h-4v-4h-9v29h-12v-4h-5v-17h-4v-21h-5v-34h-4v-9h18v17h3v13h5v4zM298 421h5v13h4v8h-17v-4h-5v-21h-4v-17h-4v-30h4v-4h4v-5h9v-4h26v4h13v5h4v4h4v4h4v9h5v21h4v21h4v17h-17v-8h-4v-21h-4v-30h-5v-5h-4v-4h-4v-4h-17v4 h-9v17h4v30zM491 468h4v9h34v-21h17v42h-4v22h-4v21h-21v-4h-5v-5h-4v-8h-5v-9h-3v-8h-5v-5h-4v-8h-5v-9h-4v-8h-4v-9h-4v-4h-5v-8h17v3h5v9zM333 498h4v4h4v30h-4v5h-9v4h-38v-4h-5v-30h-4v-13h-4v-21h-5v-17h18v12h4v17h21v5h13v4h5v4zM687 507h-25v21h34v13h-47v-4h-4 v-30h-4v-13h-5v-26h-4v-12h52v12h-31v26h31v4h3v9zM593 524h9v4h17v-4h5v-4h8v12h-4v5h-9v4h-21v-4h-13v-5h-4v-4h-5v-4h-4v-4h-4v-13h-5v-39h5v-4h4v-5h9v-3h30v3h4v5h4v13h-4v-4h-9v-5h-17v5h-4v4h-4v25h4v9h4v9h4v4zM405 507h-26v21h35v13h-47v-4h-5v-30h-4v-13h-4v-26 h-4v-12h51v12h-30v26h30v4h4v9zM144 537h-4v-9h21v-26h-4v-29h-4v-17h13v3h4v14h4v21h4v21h5v13h25v13h-64v-4zM444 528h30v4h4v9h-47v-4h-4v-30h-5v-22h-4v-12h-4v-17h17v17h4v17h30v4h4v8h-30v13h5v13zM272 528h5v9h4v4h-21v-9h-5v-4h-4v-8h-4v-5h-4v-8h-5v13h-4v8h-4v13 h-18v-13h5v-13h4v-13h5v-25h-5v-21h17v8h5v26h4v4h4v4h4v9h5v4h4v9h4v4h4v4zM264 605h4v4h4v22h-8v4h-9v4h-38v-4h-5v-17h-4v-34h-4v-22h-4v-8h17v13h4v21h13v-4h4v-4h5v-22h4v-4h17v13h-4v17h-5v4h-4v4h4v5h9v8zM396 605h-25v21h34v13h-47v-4h-4v-30h-4v-13h-5v-25h-4v-13 h52v13h-31v25h31v5h3v8zM333 605h-26v21h34v13h-47v-4h-4v-30h-5v-13h-4v-25h-4v-13h51v13h-30v25h30v5h5v8zM166 626h29v5h5v8h-47v-4h-5v-30h-4v-21h-4v-13h-4v-17h17v17h4v17h30v4h4v9h-30v13h5v12zM24 447h-4v77h4v26h5v17h4v17h4v13h5v12h4v9h4v13h4v8h5v9h4v9h4v8h4v4 h5v9h4v9h4v4h4v8h5v5h4v4h4v8h4v5h5v4h4v4h5v4h4v9h4v5h4v3h5v5h4v4h4v5h4v4h9v4h4v4h5v5h4v8h4v4h4v5h5v4h4v4h4v5h4v4h5v4h4v4h4v5h4v4h5v4h4v4h5v5h4v4h4v5h4v4h5v4h4v4h4v5h4v4h5v4h4v4h4v5h4v4h5v4h4v4h4v5h5v4h4v4h4v4h5v5h4v4h4v4h4v5h5v4h4v4h4v5h5v4h4v4h4v4h4v5h5 v4h4v4h4v5h4v4h5v4h4v4h4v5h4v4h5v4h4v4h5v5h3v4h5v5h4v3h9v-3h4v-5h4v-4h5v-5h4v-4h4v-4h4v-4h5v-5h4v-4h4v-4h5v-4h4v-5h4v-4h4v-4h5v-5h4v-4h4v-4h4v-4h5v-5h4v-4h5v-4h3v-5h5v-4h4v-4h5v-5h4v-4h4v-4h4v-4h5v-5h4v-4h4v-4h4v-4h5v-5h4v-4h4v-4h4v-4h5v-5h4v-4h4v-4h5v-4 h4v-5h4v-4h4v-5h5v-4h4v-4h4v-4h5v-5h4v-4h4v-4h5v-4h4v-5h4v-4h4v-4h5v-5h4v-4h4v-4h4v-4h5v-5h4v-4h5v-4h3v-4h5v-5h4v-4h5v-5h3v-8h5v-4h4v-5h5v-4h4v-4h4v-4h4v-9h5v-4h4v-4h4v-9h4v-4h5v-9h4v-4h4v-9h5v-8h4v-4h4v-9h5v-9h4v-8h4v-9h4v-8h5v-13h4v-13h4v-13h5v-13h4 v-21h4v-30h4v-60h-4v-17h-4v-30h-4v-21h-5v-9h-4v-17h-4v-13h-5v-12h-4v-9h-4v-13h-4v-9h-5v-9h-4v-8h-4v-4h-5v-9h-4v-8h-4v-5h-5v-8h-4v-4h-4v-9h-4v-4h-5v-4h-4v-5h-4v-8h-4v-5h-5v-4h-4v-4h-5v-4h-3v-5h-5v-4h-4v-4h-5v-4h-3v-5h-5v-4h-4v-5h-9v-4h-4v-4h-4v-4h-5v-5h-8 v-4h-4v-4h-9v-4h-9v-5h-8v-4h-5v-4h-8v-4h-9v-5h-13v-4h-8v-4h-13v-5h-8v-4h-22v-4h-9v-5h-29v-4h-30v-4h-65v4h-42v4h-26v5h-17v4h-9v4h-17v5h-8v4h-13v4h-9v5h-8v4h-9v4h-9v4h-4v5h-8v4h-5v4h-8v4h-4v5h-9v4h-4v4h-4v4h-9v5h-4v4h-5v5h-4v4h-4v4h-4v4h-5v5h-4v4h-4v4h-4v9 h-5v4h-4v4h-5v5h-4v8h-4v4h-4v5h-5v8h-4v9h-4v4h-4v8h-5v9h-4v8h-4v9h-4v9h-5v8h-4v14h-4v8h-4v13h-5v17h-4v13h-4v25h-5v39zM298 520h5v8h17v-4h4v-17h-4v-5h-5v-4h-17v22zM226 609h4v17h21v-21h-8v-4h-17v8zM521 511h4v-21h-22v4h5v8h4v9h5v4h4v-4zM431 318h4v5h9v-17h-5 v-5h-8v17z" />
<glyph unicode="&#xa4;" d="M551 301h4v9h4v30h-4v4h-17v-4h-4v-5h-5v-3h-4v-9h-4v-22h4v-4h4v-5h17v5h5v4zM422 292h30v18h5v22h-9v-5h-4v5h-13v-5h-4v-4h-5v-9h-4v-17h4v-5zM636 306h5v12h4v17h-4v9h-22v-4h-4v-5h-4v-8h-5v-30h5v-5h17v5h8v9zM328 301h-8v17h4v14h-13v-22h-4v-13h4v-5h13v5h9v-5h8 v18h4v22h-8v-9h-4v-17h-5v-5zM396 332h-3v-9h3v-13h-3v-13h3v-5h14v9h-5v22h13v9h-8v8h-14v-8zM290 318h4v5h13v9h-26v-18h-4v-22h8v9h5v17zM576 340v-5h-4v-3h9v-14h-5v-17h-13v-9h35v9h-9v22h4v21h-8v-4h-9zM166 318h-5v22h-4v4h-17v-17h-4v-21h-5v-14h13v26h4v14h5v-35h4 v-5h13v9h4v9h4v8h5v5h4v-13h-4v-18h8v14h4v8h5v30h-13v-4h-4v-5h-5v-8h-4v-9h-4v-4h-4v4zM486 332h5v3h12v-3h5v-5h-5v-4h-3v-5h-5v-4h-4v-4h-5v-4h-4v-5h-4v-9h34v9h-17v5h5v4h3v4h5v4h4v5h5v17h-5v4h-17v-4h-9v-8zM371 327v-4h-4v17h4v9h-13v-26h-4v-22h-4v-9h8v5h4v9h5 v-5h4v-9h8v14h-4v12h4v5h5v4h4v5h-13v-5h-4zM251 323h4v-26h-4v-8h-8v-9h12v4h5v13h4v17h4v9h9v9h-9v3h4v5h9v9h-13v-5h-4v-4h-4v-8h-9v3h-4v5h-4v4h-31v-17h-4v-21h-4v-14h13v22h13v-22h13v18h-5v8h5v5h4v4h4v-4zM709 421h-13v-13h5v-12h4v-5h-4v-8h-5v-5h-4v-8h-5v-9h14v5 h4v8h4v4h4v5h5v21h-5v9h-4v8zM735 421h-13v-8h4v-13h4v-13h-4v-4h-4v-9h-4v-4h-5v-9h13v5h4v4h5v4h4v9h4v4h5v9h-5v12h-4v9h-4v4zM615 400h4v17h5v-13h4v-13h4v-8h4v-13h5v-9h4v-4h17v4h5v22h3v13h5v21h4v25h-12v-4h-5v-21h-4v-21h-5v-13h-4v17h-4v8h-4v13h-5v13h-4v8h-21 v-4h-5v-30h-4v-21h-4v-13h-5v-17h13v4h5v17h4v22zM191 408h4v9h5v4h-13v-4h-4v-4h-5v-5h-4v-8h-4v-4h-4v-9h4v-13h4v-8h4v-5h13v9h-4v8h-4v18h4v8h4v4zM166 408h4v9h4v4h-17v-8h-4v-5h-5v-4h-4v-4h-4v-17h4v-13h4v-9h13v17h-4v9h-4v4h4v9h4v4h5v4zM452 413v4h5v-9h-5v-21h-4 v-30h13v4h4v22h4v17h5v25h4v17h-26v-4h-4v-4h-4v-9h-5v-8h-4v-4h-4v-9h-4v-8h-5v-5h-4v5h-4v8h-4v34h-5v4h-26v-4h-4v-30h-4v-17h-4v-13h-5v-21h17v26h5v13h4v21h5v-4h3v-22h5v-30h4v-4h13v4h4v9h5v4h4v9h4v8h4v9h5v4h4v9h4zM585 408h4v22h4v12h-17v-4h-4v-30h-4v-12h-5v-26 h-4v-13h17v9h5v21h4v21zM234 425h4v5h17v-5h13v13h-8v4h-22v-4h-12v-4h-5v-4h-4v-26h4v-4h5v-4h8v-5h9v-17h-5v-4h-21v4h-5v4h-4v-4h-4v-13h13v-4h21v4h13v5h4v4h5v4h4v22h-4v4h-5v4h-8v4h-9v5h-4v12zM508 391h4v-8h5v-9h4v-8h4v-9h17v13h-4v8h-4v9h-5v9h-4v8h4v4h5v5h4v4h4 v4h4v4h5v5h4v4h4v8h-17v-4h-4v-4h-4v-4h-5v-5h-4v-8h-4v-4h-9v29h-12v-4h-5v-17h-4v-21h-5v-34h-4v-9h18v17h3v13h5v4zM298 421h5v13h4v8h-17v-4h-5v-21h-4v-17h-4v-30h4v-4h4v-5h9v-4h26v4h13v5h4v4h4v4h4v9h5v21h4v21h4v17h-17v-8h-4v-21h-4v-30h-5v-5h-4v-4h-4v-4h-17v4 h-9v17h4v30zM491 468h4v9h34v-21h17v42h-4v22h-4v21h-21v-4h-5v-5h-4v-8h-5v-9h-3v-8h-5v-5h-4v-8h-5v-9h-4v-8h-4v-9h-4v-4h-5v-8h17v3h5v9zM333 498h4v4h4v30h-4v5h-9v4h-38v-4h-5v-30h-4v-13h-4v-21h-5v-17h18v12h4v17h21v5h13v4h5v4zM687 507h-25v21h34v13h-47v-4h-4 v-30h-4v-13h-5v-26h-4v-12h52v12h-31v26h31v4h3v9zM593 524h9v4h17v-4h5v-4h8v12h-4v5h-9v4h-21v-4h-13v-5h-4v-4h-5v-4h-4v-4h-4v-13h-5v-39h5v-4h4v-5h9v-3h30v3h4v5h4v13h-4v-4h-9v-5h-17v5h-4v4h-4v25h4v9h4v9h4v4zM405 507h-26v21h35v13h-47v-4h-5v-30h-4v-13h-4v-26 h-4v-12h51v12h-30v26h30v4h4v9zM144 537h-4v-9h21v-26h-4v-29h-4v-17h13v3h4v14h4v21h4v21h5v13h25v13h-64v-4zM444 528h30v4h4v9h-47v-4h-4v-30h-5v-22h-4v-12h-4v-17h17v17h4v17h30v4h4v8h-30v13h5v13zM272 528h5v9h4v4h-21v-9h-5v-4h-4v-8h-4v-5h-4v-8h-5v13h-4v8h-4v13 h-18v-13h5v-13h4v-13h5v-25h-5v-21h17v8h5v26h4v4h4v4h4v9h5v4h4v9h4v4h4v4zM264 605h4v4h4v22h-8v4h-9v4h-38v-4h-5v-17h-4v-34h-4v-22h-4v-8h17v13h4v21h13v-4h4v-4h5v-22h4v-4h17v13h-4v17h-5v4h-4v4h4v5h9v8zM396 605h-25v21h34v13h-47v-4h-4v-30h-4v-13h-5v-25h-4v-13 h52v13h-31v25h31v5h3v8zM333 605h-26v21h34v13h-47v-4h-4v-30h-5v-13h-4v-25h-4v-13h51v13h-30v25h30v5h5v8zM166 626h29v5h5v8h-47v-4h-5v-30h-4v-21h-4v-13h-4v-17h17v17h4v17h30v4h4v9h-30v13h5v12zM24 447h-4v77h4v26h5v17h4v17h4v13h5v12h4v9h4v13h4v8h5v9h4v9h4v8h4v4 h5v9h4v9h4v4h4v8h5v5h4v4h4v8h4v5h5v4h4v4h5v4h4v9h4v5h4v3h5v5h4v4h4v5h4v4h9v4h4v4h5v5h4v8h4v4h4v5h5v4h4v4h4v5h4v4h5v4h4v4h4v5h4v4h5v4h4v4h5v5h4v4h4v5h4v4h5v4h4v4h4v5h4v4h5v4h4v4h4v5h4v4h5v4h4v4h4v5h5v4h4v4h4v4h5v5h4v4h4v4h4v5h5v4h4v4h4v5h5v4h4v4h4v4h4v5h5 v4h4v4h4v5h4v4h5v4h4v4h4v5h4v4h5v4h4v4h5v5h3v4h5v5h4v3h9v-3h4v-5h4v-4h5v-5h4v-4h4v-4h4v-4h5v-5h4v-4h4v-4h5v-4h4v-5h4v-4h4v-4h5v-5h4v-4h4v-4h4v-4h5v-5h4v-4h5v-4h3v-5h5v-4h4v-4h5v-5h4v-4h4v-4h4v-4h5v-5h4v-4h4v-4h4v-4h5v-5h4v-4h4v-4h4v-4h5v-5h4v-4h4v-4h5v-4 h4v-5h4v-4h4v-5h5v-4h4v-4h4v-4h5v-5h4v-4h4v-4h5v-4h4v-5h4v-4h4v-4h5v-5h4v-4h4v-4h4v-4h5v-5h4v-4h5v-4h3v-4h5v-5h4v-4h5v-5h3v-8h5v-4h4v-5h5v-4h4v-4h4v-4h4v-9h5v-4h4v-4h4v-9h4v-4h5v-9h4v-4h4v-9h5v-8h4v-4h4v-9h5v-9h4v-8h4v-9h4v-8h5v-13h4v-13h4v-13h5v-13h4 v-21h4v-30h4v-60h-4v-17h-4v-30h-4v-21h-5v-9h-4v-17h-4v-13h-5v-12h-4v-9h-4v-13h-4v-9h-5v-9h-4v-8h-4v-4h-5v-9h-4v-8h-4v-5h-5v-8h-4v-4h-4v-9h-4v-4h-5v-4h-4v-5h-4v-8h-4v-5h-5v-4h-4v-4h-5v-4h-3v-5h-5v-4h-4v-4h-5v-4h-3v-5h-5v-4h-4v-5h-9v-4h-4v-4h-4v-4h-5v-5h-8 v-4h-4v-4h-9v-4h-9v-5h-8v-4h-5v-4h-8v-4h-9v-5h-13v-4h-8v-4h-13v-5h-8v-4h-22v-4h-9v-5h-29v-4h-30v-4h-65v4h-42v4h-26v5h-17v4h-9v4h-17v5h-8v4h-13v4h-9v5h-8v4h-9v4h-9v4h-4v5h-8v4h-5v4h-8v4h-4v5h-9v4h-4v4h-4v4h-9v5h-4v4h-5v5h-4v4h-4v4h-4v4h-5v5h-4v4h-4v4h-4v9 h-5v4h-4v4h-5v5h-4v8h-4v4h-4v5h-5v8h-4v9h-4v4h-4v8h-5v9h-4v8h-4v9h-4v9h-5v8h-4v14h-4v8h-4v13h-5v17h-4v13h-4v25h-5v39zM298 520h5v8h17v-4h4v-17h-4v-5h-5v-4h-17v22zM226 609h4v17h21v-21h-8v-4h-17v8zM521 511h4v-21h-22v4h5v8h4v9h5v4h4v-4zM431 318h4v5h9v-17h-5 v-5h-8v17z" />
<glyph unicode="&#xa6;" d="M551 301h4v9h4v30h-4v4h-17v-4h-4v-5h-5v-3h-4v-9h-4v-22h4v-4h4v-5h17v5h5v4zM422 292h30v18h5v22h-9v-5h-4v5h-13v-5h-4v-4h-5v-9h-4v-17h4v-5zM636 306h5v12h4v17h-4v9h-22v-4h-4v-5h-4v-8h-5v-30h5v-5h17v5h8v9zM328 301h-8v17h4v14h-13v-22h-4v-13h4v-5h13v5h9v-5h8 v18h4v22h-8v-9h-4v-17h-5v-5zM396 332h-3v-9h3v-13h-3v-13h3v-5h14v9h-5v22h13v9h-8v8h-14v-8zM290 318h4v5h13v9h-26v-18h-4v-22h8v9h5v17zM576 340v-5h-4v-3h9v-14h-5v-17h-13v-9h35v9h-9v22h4v21h-8v-4h-9zM166 318h-5v22h-4v4h-17v-17h-4v-21h-5v-14h13v26h4v14h5v-35h4 v-5h13v9h4v9h4v8h5v5h4v-13h-4v-18h8v14h4v8h5v30h-13v-4h-4v-5h-5v-8h-4v-9h-4v-4h-4v4zM486 332h5v3h12v-3h5v-5h-5v-4h-3v-5h-5v-4h-4v-4h-5v-4h-4v-5h-4v-9h34v9h-17v5h5v4h3v4h5v4h4v5h5v17h-5v4h-17v-4h-9v-8zM371 327v-4h-4v17h4v9h-13v-26h-4v-22h-4v-9h8v5h4v9h5 v-5h4v-9h8v14h-4v12h4v5h5v4h4v5h-13v-5h-4zM251 323h4v-26h-4v-8h-8v-9h12v4h5v13h4v17h4v9h9v9h-9v3h4v5h9v9h-13v-5h-4v-4h-4v-8h-9v3h-4v5h-4v4h-31v-17h-4v-21h-4v-14h13v22h13v-22h13v18h-5v8h5v5h4v4h4v-4zM709 421h-13v-13h5v-12h4v-5h-4v-8h-5v-5h-4v-8h-5v-9h14v5 h4v8h4v4h4v5h5v21h-5v9h-4v8zM735 421h-13v-8h4v-13h4v-13h-4v-4h-4v-9h-4v-4h-5v-9h13v5h4v4h5v4h4v9h4v4h5v9h-5v12h-4v9h-4v4zM615 400h4v17h5v-13h4v-13h4v-8h4v-13h5v-9h4v-4h17v4h5v22h3v13h5v21h4v25h-12v-4h-5v-21h-4v-21h-5v-13h-4v17h-4v8h-4v13h-5v13h-4v8h-21 v-4h-5v-30h-4v-21h-4v-13h-5v-17h13v4h5v17h4v22zM191 408h4v9h5v4h-13v-4h-4v-4h-5v-5h-4v-8h-4v-4h-4v-9h4v-13h4v-8h4v-5h13v9h-4v8h-4v18h4v8h4v4zM166 408h4v9h4v4h-17v-8h-4v-5h-5v-4h-4v-4h-4v-17h4v-13h4v-9h13v17h-4v9h-4v4h4v9h4v4h5v4zM452 413v4h5v-9h-5v-21h-4 v-30h13v4h4v22h4v17h5v25h4v17h-26v-4h-4v-4h-4v-9h-5v-8h-4v-4h-4v-9h-4v-8h-5v-5h-4v5h-4v8h-4v34h-5v4h-26v-4h-4v-30h-4v-17h-4v-13h-5v-21h17v26h5v13h4v21h5v-4h3v-22h5v-30h4v-4h13v4h4v9h5v4h4v9h4v8h4v9h5v4h4v9h4zM585 408h4v22h4v12h-17v-4h-4v-30h-4v-12h-5v-26 h-4v-13h17v9h5v21h4v21zM234 425h4v5h17v-5h13v13h-8v4h-22v-4h-12v-4h-5v-4h-4v-26h4v-4h5v-4h8v-5h9v-17h-5v-4h-21v4h-5v4h-4v-4h-4v-13h13v-4h21v4h13v5h4v4h5v4h4v22h-4v4h-5v4h-8v4h-9v5h-4v12zM508 391h4v-8h5v-9h4v-8h4v-9h17v13h-4v8h-4v9h-5v9h-4v8h4v4h5v5h4v4h4 v4h4v4h5v5h4v4h4v8h-17v-4h-4v-4h-4v-4h-5v-5h-4v-8h-4v-4h-9v29h-12v-4h-5v-17h-4v-21h-5v-34h-4v-9h18v17h3v13h5v4zM298 421h5v13h4v8h-17v-4h-5v-21h-4v-17h-4v-30h4v-4h4v-5h9v-4h26v4h13v5h4v4h4v4h4v9h5v21h4v21h4v17h-17v-8h-4v-21h-4v-30h-5v-5h-4v-4h-4v-4h-17v4 h-9v17h4v30zM491 468h4v9h34v-21h17v42h-4v22h-4v21h-21v-4h-5v-5h-4v-8h-5v-9h-3v-8h-5v-5h-4v-8h-5v-9h-4v-8h-4v-9h-4v-4h-5v-8h17v3h5v9zM333 498h4v4h4v30h-4v5h-9v4h-38v-4h-5v-30h-4v-13h-4v-21h-5v-17h18v12h4v17h21v5h13v4h5v4zM687 507h-25v21h34v13h-47v-4h-4 v-30h-4v-13h-5v-26h-4v-12h52v12h-31v26h31v4h3v9zM593 524h9v4h17v-4h5v-4h8v12h-4v5h-9v4h-21v-4h-13v-5h-4v-4h-5v-4h-4v-4h-4v-13h-5v-39h5v-4h4v-5h9v-3h30v3h4v5h4v13h-4v-4h-9v-5h-17v5h-4v4h-4v25h4v9h4v9h4v4zM405 507h-26v21h35v13h-47v-4h-5v-30h-4v-13h-4v-26 h-4v-12h51v12h-30v26h30v4h4v9zM144 537h-4v-9h21v-26h-4v-29h-4v-17h13v3h4v14h4v21h4v21h5v13h25v13h-64v-4zM444 528h30v4h4v9h-47v-4h-4v-30h-5v-22h-4v-12h-4v-17h17v17h4v17h30v4h4v8h-30v13h5v13zM272 528h5v9h4v4h-21v-9h-5v-4h-4v-8h-4v-5h-4v-8h-5v13h-4v8h-4v13 h-18v-13h5v-13h4v-13h5v-25h-5v-21h17v8h5v26h4v4h4v4h4v9h5v4h4v9h4v4h4v4zM264 605h4v4h4v22h-8v4h-9v4h-38v-4h-5v-17h-4v-34h-4v-22h-4v-8h17v13h4v21h13v-4h4v-4h5v-22h4v-4h17v13h-4v17h-5v4h-4v4h4v5h9v8zM396 605h-25v21h34v13h-47v-4h-4v-30h-4v-13h-5v-25h-4v-13 h52v13h-31v25h31v5h3v8zM333 605h-26v21h34v13h-47v-4h-4v-30h-5v-13h-4v-25h-4v-13h51v13h-30v25h30v5h5v8zM166 626h29v5h5v8h-47v-4h-5v-30h-4v-21h-4v-13h-4v-17h17v17h4v17h30v4h4v9h-30v13h5v12zM24 447h-4v77h4v26h5v17h4v17h4v13h5v12h4v9h4v13h4v8h5v9h4v9h4v8h4v4 h5v9h4v9h4v4h4v8h5v5h4v4h4v8h4v5h5v4h4v4h5v4h4v9h4v5h4v3h5v5h4v4h4v5h4v4h9v4h4v4h5v5h4v8h4v4h4v5h5v4h4v4h4v5h4v4h5v4h4v4h4v5h4v4h5v4h4v4h5v5h4v4h4v5h4v4h5v4h4v4h4v5h4v4h5v4h4v4h4v5h4v4h5v4h4v4h4v5h5v4h4v4h4v4h5v5h4v4h4v4h4v5h5v4h4v4h4v5h5v4h4v4h4v4h4v5h5 v4h4v4h4v5h4v4h5v4h4v4h4v5h4v4h5v4h4v4h5v5h3v4h5v5h4v3h9v-3h4v-5h4v-4h5v-5h4v-4h4v-4h4v-4h5v-5h4v-4h4v-4h5v-4h4v-5h4v-4h4v-4h5v-5h4v-4h4v-4h4v-4h5v-5h4v-4h5v-4h3v-5h5v-4h4v-4h5v-5h4v-4h4v-4h4v-4h5v-5h4v-4h4v-4h4v-4h5v-5h4v-4h4v-4h4v-4h5v-5h4v-4h4v-4h5v-4 h4v-5h4v-4h4v-5h5v-4h4v-4h4v-4h5v-5h4v-4h4v-4h5v-4h4v-5h4v-4h4v-4h5v-5h4v-4h4v-4h4v-4h5v-5h4v-4h5v-4h3v-4h5v-5h4v-4h5v-5h3v-8h5v-4h4v-5h5v-4h4v-4h4v-4h4v-9h5v-4h4v-4h4v-9h4v-4h5v-9h4v-4h4v-9h5v-8h4v-4h4v-9h5v-9h4v-8h4v-9h4v-8h5v-13h4v-13h4v-13h5v-13h4 v-21h4v-30h4v-60h-4v-17h-4v-30h-4v-21h-5v-9h-4v-17h-4v-13h-5v-12h-4v-9h-4v-13h-4v-9h-5v-9h-4v-8h-4v-4h-5v-9h-4v-8h-4v-5h-5v-8h-4v-4h-4v-9h-4v-4h-5v-4h-4v-5h-4v-8h-4v-5h-5v-4h-4v-4h-5v-4h-3v-5h-5v-4h-4v-4h-5v-4h-3v-5h-5v-4h-4v-5h-9v-4h-4v-4h-4v-4h-5v-5h-8 v-4h-4v-4h-9v-4h-9v-5h-8v-4h-5v-4h-8v-4h-9v-5h-13v-4h-8v-4h-13v-5h-8v-4h-22v-4h-9v-5h-29v-4h-30v-4h-65v4h-42v4h-26v5h-17v4h-9v4h-17v5h-8v4h-13v4h-9v5h-8v4h-9v4h-9v4h-4v5h-8v4h-5v4h-8v4h-4v5h-9v4h-4v4h-4v4h-9v5h-4v4h-5v5h-4v4h-4v4h-4v4h-5v5h-4v4h-4v4h-4v9 h-5v4h-4v4h-5v5h-4v8h-4v4h-4v5h-5v8h-4v9h-4v4h-4v8h-5v9h-4v8h-4v9h-4v9h-5v8h-4v14h-4v8h-4v13h-5v17h-4v13h-4v25h-5v39zM298 520h5v8h17v-4h4v-17h-4v-5h-5v-4h-17v22zM226 609h4v17h21v-21h-8v-4h-17v8zM521 511h4v-21h-22v4h5v8h4v9h5v4h4v-4zM431 318h4v5h9v-17h-5 v-5h-8v17z" />
<glyph unicode="&#xaa;" horiz-adv-x="560" d="M33 -4q6 8 12.5 53.5t13 104t10.5 80.5q11 56 5 138q-6 84 3 163q7 80 42 137q34 57 127 60q164 -2 217 -38l54 -36q10 -65 13 -145q4 -64 0 -121q-3 -55 -15 -146q-13 -94 -1 -162l-45 -34q-44 -34 -160 -34q-1 53 -1 132v86l-15 4v-12v-77q-18 -112 -88 -145 q-71 -33 -172 -8zM292 328l16 2v276l-4 -10q-12 -50 -12 -268z" />
<glyph unicode="&#xab;" d="M551 301h4v9h4v30h-4v4h-17v-4h-4v-5h-5v-3h-4v-9h-4v-22h4v-4h4v-5h17v5h5v4zM422 292h30v18h5v22h-9v-5h-4v5h-13v-5h-4v-4h-5v-9h-4v-17h4v-5zM636 306h5v12h4v17h-4v9h-22v-4h-4v-5h-4v-8h-5v-30h5v-5h17v5h8v9zM328 301h-8v17h4v14h-13v-22h-4v-13h4v-5h13v5h9v-5h8 v18h4v22h-8v-9h-4v-17h-5v-5zM396 332h-3v-9h3v-13h-3v-13h3v-5h14v9h-5v22h13v9h-8v8h-14v-8zM290 318h4v5h13v9h-26v-18h-4v-22h8v9h5v17zM576 340v-5h-4v-3h9v-14h-5v-17h-13v-9h35v9h-9v22h4v21h-8v-4h-9zM166 318h-5v22h-4v4h-17v-17h-4v-21h-5v-14h13v26h4v14h5v-35h4 v-5h13v9h4v9h4v8h5v5h4v-13h-4v-18h8v14h4v8h5v30h-13v-4h-4v-5h-5v-8h-4v-9h-4v-4h-4v4zM486 332h5v3h12v-3h5v-5h-5v-4h-3v-5h-5v-4h-4v-4h-5v-4h-4v-5h-4v-9h34v9h-17v5h5v4h3v4h5v4h4v5h5v17h-5v4h-17v-4h-9v-8zM371 327v-4h-4v17h4v9h-13v-26h-4v-22h-4v-9h8v5h4v9h5 v-5h4v-9h8v14h-4v12h4v5h5v4h4v5h-13v-5h-4zM251 323h4v-26h-4v-8h-8v-9h12v4h5v13h4v17h4v9h9v9h-9v3h4v5h9v9h-13v-5h-4v-4h-4v-8h-9v3h-4v5h-4v4h-31v-17h-4v-21h-4v-14h13v22h13v-22h13v18h-5v8h5v5h4v4h4v-4zM709 421h-13v-13h5v-12h4v-5h-4v-8h-5v-5h-4v-8h-5v-9h14v5 h4v8h4v4h4v5h5v21h-5v9h-4v8zM735 421h-13v-8h4v-13h4v-13h-4v-4h-4v-9h-4v-4h-5v-9h13v5h4v4h5v4h4v9h4v4h5v9h-5v12h-4v9h-4v4zM615 400h4v17h5v-13h4v-13h4v-8h4v-13h5v-9h4v-4h17v4h5v22h3v13h5v21h4v25h-12v-4h-5v-21h-4v-21h-5v-13h-4v17h-4v8h-4v13h-5v13h-4v8h-21 v-4h-5v-30h-4v-21h-4v-13h-5v-17h13v4h5v17h4v22zM191 408h4v9h5v4h-13v-4h-4v-4h-5v-5h-4v-8h-4v-4h-4v-9h4v-13h4v-8h4v-5h13v9h-4v8h-4v18h4v8h4v4zM166 408h4v9h4v4h-17v-8h-4v-5h-5v-4h-4v-4h-4v-17h4v-13h4v-9h13v17h-4v9h-4v4h4v9h4v4h5v4zM452 413v4h5v-9h-5v-21h-4 v-30h13v4h4v22h4v17h5v25h4v17h-26v-4h-4v-4h-4v-9h-5v-8h-4v-4h-4v-9h-4v-8h-5v-5h-4v5h-4v8h-4v34h-5v4h-26v-4h-4v-30h-4v-17h-4v-13h-5v-21h17v26h5v13h4v21h5v-4h3v-22h5v-30h4v-4h13v4h4v9h5v4h4v9h4v8h4v9h5v4h4v9h4zM585 408h4v22h4v12h-17v-4h-4v-30h-4v-12h-5v-26 h-4v-13h17v9h5v21h4v21zM234 425h4v5h17v-5h13v13h-8v4h-22v-4h-12v-4h-5v-4h-4v-26h4v-4h5v-4h8v-5h9v-17h-5v-4h-21v4h-5v4h-4v-4h-4v-13h13v-4h21v4h13v5h4v4h5v4h4v22h-4v4h-5v4h-8v4h-9v5h-4v12zM508 391h4v-8h5v-9h4v-8h4v-9h17v13h-4v8h-4v9h-5v9h-4v8h4v4h5v5h4v4h4 v4h4v4h5v5h4v4h4v8h-17v-4h-4v-4h-4v-4h-5v-5h-4v-8h-4v-4h-9v29h-12v-4h-5v-17h-4v-21h-5v-34h-4v-9h18v17h3v13h5v4zM298 421h5v13h4v8h-17v-4h-5v-21h-4v-17h-4v-30h4v-4h4v-5h9v-4h26v4h13v5h4v4h4v4h4v9h5v21h4v21h4v17h-17v-8h-4v-21h-4v-30h-5v-5h-4v-4h-4v-4h-17v4 h-9v17h4v30zM491 468h4v9h34v-21h17v42h-4v22h-4v21h-21v-4h-5v-5h-4v-8h-5v-9h-3v-8h-5v-5h-4v-8h-5v-9h-4v-8h-4v-9h-4v-4h-5v-8h17v3h5v9zM333 498h4v4h4v30h-4v5h-9v4h-38v-4h-5v-30h-4v-13h-4v-21h-5v-17h18v12h4v17h21v5h13v4h5v4zM687 507h-25v21h34v13h-47v-4h-4 v-30h-4v-13h-5v-26h-4v-12h52v12h-31v26h31v4h3v9zM593 524h9v4h17v-4h5v-4h8v12h-4v5h-9v4h-21v-4h-13v-5h-4v-4h-5v-4h-4v-4h-4v-13h-5v-39h5v-4h4v-5h9v-3h30v3h4v5h4v13h-4v-4h-9v-5h-17v5h-4v4h-4v25h4v9h4v9h4v4zM405 507h-26v21h35v13h-47v-4h-5v-30h-4v-13h-4v-26 h-4v-12h51v12h-30v26h30v4h4v9zM144 537h-4v-9h21v-26h-4v-29h-4v-17h13v3h4v14h4v21h4v21h5v13h25v13h-64v-4zM444 528h30v4h4v9h-47v-4h-4v-30h-5v-22h-4v-12h-4v-17h17v17h4v17h30v4h4v8h-30v13h5v13zM272 528h5v9h4v4h-21v-9h-5v-4h-4v-8h-4v-5h-4v-8h-5v13h-4v8h-4v13 h-18v-13h5v-13h4v-13h5v-25h-5v-21h17v8h5v26h4v4h4v4h4v9h5v4h4v9h4v4h4v4zM264 605h4v4h4v22h-8v4h-9v4h-38v-4h-5v-17h-4v-34h-4v-22h-4v-8h17v13h4v21h13v-4h4v-4h5v-22h4v-4h17v13h-4v17h-5v4h-4v4h4v5h9v8zM396 605h-25v21h34v13h-47v-4h-4v-30h-4v-13h-5v-25h-4v-13 h52v13h-31v25h31v5h3v8zM333 605h-26v21h34v13h-47v-4h-4v-30h-5v-13h-4v-25h-4v-13h51v13h-30v25h30v5h5v8zM166 626h29v5h5v8h-47v-4h-5v-30h-4v-21h-4v-13h-4v-17h17v17h4v17h30v4h4v9h-30v13h5v12zM24 447h-4v77h4v26h5v17h4v17h4v13h5v12h4v9h4v13h4v8h5v9h4v9h4v8h4v4 h5v9h4v9h4v4h4v8h5v5h4v4h4v8h4v5h5v4h4v4h5v4h4v9h4v5h4v3h5v5h4v4h4v5h4v4h9v4h4v4h5v5h4v8h4v4h4v5h5v4h4v4h4v5h4v4h5v4h4v4h4v5h4v4h5v4h4v4h5v5h4v4h4v5h4v4h5v4h4v4h4v5h4v4h5v4h4v4h4v5h4v4h5v4h4v4h4v5h5v4h4v4h4v4h5v5h4v4h4v4h4v5h5v4h4v4h4v5h5v4h4v4h4v4h4v5h5 v4h4v4h4v5h4v4h5v4h4v4h4v5h4v4h5v4h4v4h5v5h3v4h5v5h4v3h9v-3h4v-5h4v-4h5v-5h4v-4h4v-4h4v-4h5v-5h4v-4h4v-4h5v-4h4v-5h4v-4h4v-4h5v-5h4v-4h4v-4h4v-4h5v-5h4v-4h5v-4h3v-5h5v-4h4v-4h5v-5h4v-4h4v-4h4v-4h5v-5h4v-4h4v-4h4v-4h5v-5h4v-4h4v-4h4v-4h5v-5h4v-4h4v-4h5v-4 h4v-5h4v-4h4v-5h5v-4h4v-4h4v-4h5v-5h4v-4h4v-4h5v-4h4v-5h4v-4h4v-4h5v-5h4v-4h4v-4h4v-4h5v-5h4v-4h5v-4h3v-4h5v-5h4v-4h5v-5h3v-8h5v-4h4v-5h5v-4h4v-4h4v-4h4v-9h5v-4h4v-4h4v-9h4v-4h5v-9h4v-4h4v-9h5v-8h4v-4h4v-9h5v-9h4v-8h4v-9h4v-8h5v-13h4v-13h4v-13h5v-13h4 v-21h4v-30h4v-60h-4v-17h-4v-30h-4v-21h-5v-9h-4v-17h-4v-13h-5v-12h-4v-9h-4v-13h-4v-9h-5v-9h-4v-8h-4v-4h-5v-9h-4v-8h-4v-5h-5v-8h-4v-4h-4v-9h-4v-4h-5v-4h-4v-5h-4v-8h-4v-5h-5v-4h-4v-4h-5v-4h-3v-5h-5v-4h-4v-4h-5v-4h-3v-5h-5v-4h-4v-5h-9v-4h-4v-4h-4v-4h-5v-5h-8 v-4h-4v-4h-9v-4h-9v-5h-8v-4h-5v-4h-8v-4h-9v-5h-13v-4h-8v-4h-13v-5h-8v-4h-22v-4h-9v-5h-29v-4h-30v-4h-65v4h-42v4h-26v5h-17v4h-9v4h-17v5h-8v4h-13v4h-9v5h-8v4h-9v4h-9v4h-4v5h-8v4h-5v4h-8v4h-4v5h-9v4h-4v4h-4v4h-9v5h-4v4h-5v5h-4v4h-4v4h-4v4h-5v5h-4v4h-4v4h-4v9 h-5v4h-4v4h-5v5h-4v8h-4v4h-4v5h-5v8h-4v9h-4v4h-4v8h-5v9h-4v8h-4v9h-4v9h-5v8h-4v14h-4v8h-4v13h-5v17h-4v13h-4v25h-5v39zM298 520h5v8h17v-4h4v-17h-4v-5h-5v-4h-17v22zM226 609h4v17h21v-21h-8v-4h-17v8zM521 511h4v-21h-22v4h5v8h4v9h5v4h4v-4zM431 318h4v5h9v-17h-5 v-5h-8v17z" />
<glyph unicode="&#xac;" d="M551 301h4v9h4v30h-4v4h-17v-4h-4v-5h-5v-3h-4v-9h-4v-22h4v-4h4v-5h17v5h5v4zM422 292h30v18h5v22h-9v-5h-4v5h-13v-5h-4v-4h-5v-9h-4v-17h4v-5zM636 306h5v12h4v17h-4v9h-22v-4h-4v-5h-4v-8h-5v-30h5v-5h17v5h8v9zM328 301h-8v17h4v14h-13v-22h-4v-13h4v-5h13v5h9v-5h8 v18h4v22h-8v-9h-4v-17h-5v-5zM396 332h-3v-9h3v-13h-3v-13h3v-5h14v9h-5v22h13v9h-8v8h-14v-8zM290 318h4v5h13v9h-26v-18h-4v-22h8v9h5v17zM576 340v-5h-4v-3h9v-14h-5v-17h-13v-9h35v9h-9v22h4v21h-8v-4h-9zM166 318h-5v22h-4v4h-17v-17h-4v-21h-5v-14h13v26h4v14h5v-35h4 v-5h13v9h4v9h4v8h5v5h4v-13h-4v-18h8v14h4v8h5v30h-13v-4h-4v-5h-5v-8h-4v-9h-4v-4h-4v4zM486 332h5v3h12v-3h5v-5h-5v-4h-3v-5h-5v-4h-4v-4h-5v-4h-4v-5h-4v-9h34v9h-17v5h5v4h3v4h5v4h4v5h5v17h-5v4h-17v-4h-9v-8zM371 327v-4h-4v17h4v9h-13v-26h-4v-22h-4v-9h8v5h4v9h5 v-5h4v-9h8v14h-4v12h4v5h5v4h4v5h-13v-5h-4zM251 323h4v-26h-4v-8h-8v-9h12v4h5v13h4v17h4v9h9v9h-9v3h4v5h9v9h-13v-5h-4v-4h-4v-8h-9v3h-4v5h-4v4h-31v-17h-4v-21h-4v-14h13v22h13v-22h13v18h-5v8h5v5h4v4h4v-4zM709 421h-13v-13h5v-12h4v-5h-4v-8h-5v-5h-4v-8h-5v-9h14v5 h4v8h4v4h4v5h5v21h-5v9h-4v8zM735 421h-13v-8h4v-13h4v-13h-4v-4h-4v-9h-4v-4h-5v-9h13v5h4v4h5v4h4v9h4v4h5v9h-5v12h-4v9h-4v4zM615 400h4v17h5v-13h4v-13h4v-8h4v-13h5v-9h4v-4h17v4h5v22h3v13h5v21h4v25h-12v-4h-5v-21h-4v-21h-5v-13h-4v17h-4v8h-4v13h-5v13h-4v8h-21 v-4h-5v-30h-4v-21h-4v-13h-5v-17h13v4h5v17h4v22zM191 408h4v9h5v4h-13v-4h-4v-4h-5v-5h-4v-8h-4v-4h-4v-9h4v-13h4v-8h4v-5h13v9h-4v8h-4v18h4v8h4v4zM166 408h4v9h4v4h-17v-8h-4v-5h-5v-4h-4v-4h-4v-17h4v-13h4v-9h13v17h-4v9h-4v4h4v9h4v4h5v4zM452 413v4h5v-9h-5v-21h-4 v-30h13v4h4v22h4v17h5v25h4v17h-26v-4h-4v-4h-4v-9h-5v-8h-4v-4h-4v-9h-4v-8h-5v-5h-4v5h-4v8h-4v34h-5v4h-26v-4h-4v-30h-4v-17h-4v-13h-5v-21h17v26h5v13h4v21h5v-4h3v-22h5v-30h4v-4h13v4h4v9h5v4h4v9h4v8h4v9h5v4h4v9h4zM585 408h4v22h4v12h-17v-4h-4v-30h-4v-12h-5v-26 h-4v-13h17v9h5v21h4v21zM234 425h4v5h17v-5h13v13h-8v4h-22v-4h-12v-4h-5v-4h-4v-26h4v-4h5v-4h8v-5h9v-17h-5v-4h-21v4h-5v4h-4v-4h-4v-13h13v-4h21v4h13v5h4v4h5v4h4v22h-4v4h-5v4h-8v4h-9v5h-4v12zM508 391h4v-8h5v-9h4v-8h4v-9h17v13h-4v8h-4v9h-5v9h-4v8h4v4h5v5h4v4h4 v4h4v4h5v5h4v4h4v8h-17v-4h-4v-4h-4v-4h-5v-5h-4v-8h-4v-4h-9v29h-12v-4h-5v-17h-4v-21h-5v-34h-4v-9h18v17h3v13h5v4zM298 421h5v13h4v8h-17v-4h-5v-21h-4v-17h-4v-30h4v-4h4v-5h9v-4h26v4h13v5h4v4h4v4h4v9h5v21h4v21h4v17h-17v-8h-4v-21h-4v-30h-5v-5h-4v-4h-4v-4h-17v4 h-9v17h4v30zM491 468h4v9h34v-21h17v42h-4v22h-4v21h-21v-4h-5v-5h-4v-8h-5v-9h-3v-8h-5v-5h-4v-8h-5v-9h-4v-8h-4v-9h-4v-4h-5v-8h17v3h5v9zM333 498h4v4h4v30h-4v5h-9v4h-38v-4h-5v-30h-4v-13h-4v-21h-5v-17h18v12h4v17h21v5h13v4h5v4zM687 507h-25v21h34v13h-47v-4h-4 v-30h-4v-13h-5v-26h-4v-12h52v12h-31v26h31v4h3v9zM593 524h9v4h17v-4h5v-4h8v12h-4v5h-9v4h-21v-4h-13v-5h-4v-4h-5v-4h-4v-4h-4v-13h-5v-39h5v-4h4v-5h9v-3h30v3h4v5h4v13h-4v-4h-9v-5h-17v5h-4v4h-4v25h4v9h4v9h4v4zM405 507h-26v21h35v13h-47v-4h-5v-30h-4v-13h-4v-26 h-4v-12h51v12h-30v26h30v4h4v9zM144 537h-4v-9h21v-26h-4v-29h-4v-17h13v3h4v14h4v21h4v21h5v13h25v13h-64v-4zM444 528h30v4h4v9h-47v-4h-4v-30h-5v-22h-4v-12h-4v-17h17v17h4v17h30v4h4v8h-30v13h5v13zM272 528h5v9h4v4h-21v-9h-5v-4h-4v-8h-4v-5h-4v-8h-5v13h-4v8h-4v13 h-18v-13h5v-13h4v-13h5v-25h-5v-21h17v8h5v26h4v4h4v4h4v9h5v4h4v9h4v4h4v4zM264 605h4v4h4v22h-8v4h-9v4h-38v-4h-5v-17h-4v-34h-4v-22h-4v-8h17v13h4v21h13v-4h4v-4h5v-22h4v-4h17v13h-4v17h-5v4h-4v4h4v5h9v8zM396 605h-25v21h34v13h-47v-4h-4v-30h-4v-13h-5v-25h-4v-13 h52v13h-31v25h31v5h3v8zM333 605h-26v21h34v13h-47v-4h-4v-30h-5v-13h-4v-25h-4v-13h51v13h-30v25h30v5h5v8zM166 626h29v5h5v8h-47v-4h-5v-30h-4v-21h-4v-13h-4v-17h17v17h4v17h30v4h4v9h-30v13h5v12zM24 447h-4v77h4v26h5v17h4v17h4v13h5v12h4v9h4v13h4v8h5v9h4v9h4v8h4v4 h5v9h4v9h4v4h4v8h5v5h4v4h4v8h4v5h5v4h4v4h5v4h4v9h4v5h4v3h5v5h4v4h4v5h4v4h9v4h4v4h5v5h4v8h4v4h4v5h5v4h4v4h4v5h4v4h5v4h4v4h4v5h4v4h5v4h4v4h5v5h4v4h4v5h4v4h5v4h4v4h4v5h4v4h5v4h4v4h4v5h4v4h5v4h4v4h4v5h5v4h4v4h4v4h5v5h4v4h4v4h4v5h5v4h4v4h4v5h5v4h4v4h4v4h4v5h5 v4h4v4h4v5h4v4h5v4h4v4h4v5h4v4h5v4h4v4h5v5h3v4h5v5h4v3h9v-3h4v-5h4v-4h5v-5h4v-4h4v-4h4v-4h5v-5h4v-4h4v-4h5v-4h4v-5h4v-4h4v-4h5v-5h4v-4h4v-4h4v-4h5v-5h4v-4h5v-4h3v-5h5v-4h4v-4h5v-5h4v-4h4v-4h4v-4h5v-5h4v-4h4v-4h4v-4h5v-5h4v-4h4v-4h4v-4h5v-5h4v-4h4v-4h5v-4 h4v-5h4v-4h4v-5h5v-4h4v-4h4v-4h5v-5h4v-4h4v-4h5v-4h4v-5h4v-4h4v-4h5v-5h4v-4h4v-4h4v-4h5v-5h4v-4h5v-4h3v-4h5v-5h4v-4h5v-5h3v-8h5v-4h4v-5h5v-4h4v-4h4v-4h4v-9h5v-4h4v-4h4v-9h4v-4h5v-9h4v-4h4v-9h5v-8h4v-4h4v-9h5v-9h4v-8h4v-9h4v-8h5v-13h4v-13h4v-13h5v-13h4 v-21h4v-30h4v-60h-4v-17h-4v-30h-4v-21h-5v-9h-4v-17h-4v-13h-5v-12h-4v-9h-4v-13h-4v-9h-5v-9h-4v-8h-4v-4h-5v-9h-4v-8h-4v-5h-5v-8h-4v-4h-4v-9h-4v-4h-5v-4h-4v-5h-4v-8h-4v-5h-5v-4h-4v-4h-5v-4h-3v-5h-5v-4h-4v-4h-5v-4h-3v-5h-5v-4h-4v-5h-9v-4h-4v-4h-4v-4h-5v-5h-8 v-4h-4v-4h-9v-4h-9v-5h-8v-4h-5v-4h-8v-4h-9v-5h-13v-4h-8v-4h-13v-5h-8v-4h-22v-4h-9v-5h-29v-4h-30v-4h-65v4h-42v4h-26v5h-17v4h-9v4h-17v5h-8v4h-13v4h-9v5h-8v4h-9v4h-9v4h-4v5h-8v4h-5v4h-8v4h-4v5h-9v4h-4v4h-4v4h-9v5h-4v4h-5v5h-4v4h-4v4h-4v4h-5v5h-4v4h-4v4h-4v9 h-5v4h-4v4h-5v5h-4v8h-4v4h-4v5h-5v8h-4v9h-4v4h-4v8h-5v9h-4v8h-4v9h-4v9h-5v8h-4v14h-4v8h-4v13h-5v17h-4v13h-4v25h-5v39zM298 520h5v8h17v-4h4v-17h-4v-5h-5v-4h-17v22zM226 609h4v17h21v-21h-8v-4h-17v8zM521 511h4v-21h-22v4h5v8h4v9h5v4h4v-4zM431 318h4v5h9v-17h-5 v-5h-8v17z" />
<glyph unicode="&#xad;" d="M551 301h4v9h4v30h-4v4h-17v-4h-4v-5h-5v-3h-4v-9h-4v-22h4v-4h4v-5h17v5h5v4zM422 292h30v18h5v22h-9v-5h-4v5h-13v-5h-4v-4h-5v-9h-4v-17h4v-5zM636 306h5v12h4v17h-4v9h-22v-4h-4v-5h-4v-8h-5v-30h5v-5h17v5h8v9zM328 301h-8v17h4v14h-13v-22h-4v-13h4v-5h13v5h9v-5h8 v18h4v22h-8v-9h-4v-17h-5v-5zM396 332h-3v-9h3v-13h-3v-13h3v-5h14v9h-5v22h13v9h-8v8h-14v-8zM290 318h4v5h13v9h-26v-18h-4v-22h8v9h5v17zM576 340v-5h-4v-3h9v-14h-5v-17h-13v-9h35v9h-9v22h4v21h-8v-4h-9zM166 318h-5v22h-4v4h-17v-17h-4v-21h-5v-14h13v26h4v14h5v-35h4 v-5h13v9h4v9h4v8h5v5h4v-13h-4v-18h8v14h4v8h5v30h-13v-4h-4v-5h-5v-8h-4v-9h-4v-4h-4v4zM486 332h5v3h12v-3h5v-5h-5v-4h-3v-5h-5v-4h-4v-4h-5v-4h-4v-5h-4v-9h34v9h-17v5h5v4h3v4h5v4h4v5h5v17h-5v4h-17v-4h-9v-8zM371 327v-4h-4v17h4v9h-13v-26h-4v-22h-4v-9h8v5h4v9h5 v-5h4v-9h8v14h-4v12h4v5h5v4h4v5h-13v-5h-4zM251 323h4v-26h-4v-8h-8v-9h12v4h5v13h4v17h4v9h9v9h-9v3h4v5h9v9h-13v-5h-4v-4h-4v-8h-9v3h-4v5h-4v4h-31v-17h-4v-21h-4v-14h13v22h13v-22h13v18h-5v8h5v5h4v4h4v-4zM709 421h-13v-13h5v-12h4v-5h-4v-8h-5v-5h-4v-8h-5v-9h14v5 h4v8h4v4h4v5h5v21h-5v9h-4v8zM735 421h-13v-8h4v-13h4v-13h-4v-4h-4v-9h-4v-4h-5v-9h13v5h4v4h5v4h4v9h4v4h5v9h-5v12h-4v9h-4v4zM615 400h4v17h5v-13h4v-13h4v-8h4v-13h5v-9h4v-4h17v4h5v22h3v13h5v21h4v25h-12v-4h-5v-21h-4v-21h-5v-13h-4v17h-4v8h-4v13h-5v13h-4v8h-21 v-4h-5v-30h-4v-21h-4v-13h-5v-17h13v4h5v17h4v22zM191 408h4v9h5v4h-13v-4h-4v-4h-5v-5h-4v-8h-4v-4h-4v-9h4v-13h4v-8h4v-5h13v9h-4v8h-4v18h4v8h4v4zM166 408h4v9h4v4h-17v-8h-4v-5h-5v-4h-4v-4h-4v-17h4v-13h4v-9h13v17h-4v9h-4v4h4v9h4v4h5v4zM452 413v4h5v-9h-5v-21h-4 v-30h13v4h4v22h4v17h5v25h4v17h-26v-4h-4v-4h-4v-9h-5v-8h-4v-4h-4v-9h-4v-8h-5v-5h-4v5h-4v8h-4v34h-5v4h-26v-4h-4v-30h-4v-17h-4v-13h-5v-21h17v26h5v13h4v21h5v-4h3v-22h5v-30h4v-4h13v4h4v9h5v4h4v9h4v8h4v9h5v4h4v9h4zM585 408h4v22h4v12h-17v-4h-4v-30h-4v-12h-5v-26 h-4v-13h17v9h5v21h4v21zM234 425h4v5h17v-5h13v13h-8v4h-22v-4h-12v-4h-5v-4h-4v-26h4v-4h5v-4h8v-5h9v-17h-5v-4h-21v4h-5v4h-4v-4h-4v-13h13v-4h21v4h13v5h4v4h5v4h4v22h-4v4h-5v4h-8v4h-9v5h-4v12zM508 391h4v-8h5v-9h4v-8h4v-9h17v13h-4v8h-4v9h-5v9h-4v8h4v4h5v5h4v4h4 v4h4v4h5v5h4v4h4v8h-17v-4h-4v-4h-4v-4h-5v-5h-4v-8h-4v-4h-9v29h-12v-4h-5v-17h-4v-21h-5v-34h-4v-9h18v17h3v13h5v4zM298 421h5v13h4v8h-17v-4h-5v-21h-4v-17h-4v-30h4v-4h4v-5h9v-4h26v4h13v5h4v4h4v4h4v9h5v21h4v21h4v17h-17v-8h-4v-21h-4v-30h-5v-5h-4v-4h-4v-4h-17v4 h-9v17h4v30zM491 468h4v9h34v-21h17v42h-4v22h-4v21h-21v-4h-5v-5h-4v-8h-5v-9h-3v-8h-5v-5h-4v-8h-5v-9h-4v-8h-4v-9h-4v-4h-5v-8h17v3h5v9zM333 498h4v4h4v30h-4v5h-9v4h-38v-4h-5v-30h-4v-13h-4v-21h-5v-17h18v12h4v17h21v5h13v4h5v4zM687 507h-25v21h34v13h-47v-4h-4 v-30h-4v-13h-5v-26h-4v-12h52v12h-31v26h31v4h3v9zM593 524h9v4h17v-4h5v-4h8v12h-4v5h-9v4h-21v-4h-13v-5h-4v-4h-5v-4h-4v-4h-4v-13h-5v-39h5v-4h4v-5h9v-3h30v3h4v5h4v13h-4v-4h-9v-5h-17v5h-4v4h-4v25h4v9h4v9h4v4zM405 507h-26v21h35v13h-47v-4h-5v-30h-4v-13h-4v-26 h-4v-12h51v12h-30v26h30v4h4v9zM144 537h-4v-9h21v-26h-4v-29h-4v-17h13v3h4v14h4v21h4v21h5v13h25v13h-64v-4zM444 528h30v4h4v9h-47v-4h-4v-30h-5v-22h-4v-12h-4v-17h17v17h4v17h30v4h4v8h-30v13h5v13zM272 528h5v9h4v4h-21v-9h-5v-4h-4v-8h-4v-5h-4v-8h-5v13h-4v8h-4v13 h-18v-13h5v-13h4v-13h5v-25h-5v-21h17v8h5v26h4v4h4v4h4v9h5v4h4v9h4v4h4v4zM264 605h4v4h4v22h-8v4h-9v4h-38v-4h-5v-17h-4v-34h-4v-22h-4v-8h17v13h4v21h13v-4h4v-4h5v-22h4v-4h17v13h-4v17h-5v4h-4v4h4v5h9v8zM396 605h-25v21h34v13h-47v-4h-4v-30h-4v-13h-5v-25h-4v-13 h52v13h-31v25h31v5h3v8zM333 605h-26v21h34v13h-47v-4h-4v-30h-5v-13h-4v-25h-4v-13h51v13h-30v25h30v5h5v8zM166 626h29v5h5v8h-47v-4h-5v-30h-4v-21h-4v-13h-4v-17h17v17h4v17h30v4h4v9h-30v13h5v12zM24 447h-4v77h4v26h5v17h4v17h4v13h5v12h4v9h4v13h4v8h5v9h4v9h4v8h4v4 h5v9h4v9h4v4h4v8h5v5h4v4h4v8h4v5h5v4h4v4h5v4h4v9h4v5h4v3h5v5h4v4h4v5h4v4h9v4h4v4h5v5h4v8h4v4h4v5h5v4h4v4h4v5h4v4h5v4h4v4h4v5h4v4h5v4h4v4h5v5h4v4h4v5h4v4h5v4h4v4h4v5h4v4h5v4h4v4h4v5h4v4h5v4h4v4h4v5h5v4h4v4h4v4h5v5h4v4h4v4h4v5h5v4h4v4h4v5h5v4h4v4h4v4h4v5h5 v4h4v4h4v5h4v4h5v4h4v4h4v5h4v4h5v4h4v4h5v5h3v4h5v5h4v3h9v-3h4v-5h4v-4h5v-5h4v-4h4v-4h4v-4h5v-5h4v-4h4v-4h5v-4h4v-5h4v-4h4v-4h5v-5h4v-4h4v-4h4v-4h5v-5h4v-4h5v-4h3v-5h5v-4h4v-4h5v-5h4v-4h4v-4h4v-4h5v-5h4v-4h4v-4h4v-4h5v-5h4v-4h4v-4h4v-4h5v-5h4v-4h4v-4h5v-4 h4v-5h4v-4h4v-5h5v-4h4v-4h4v-4h5v-5h4v-4h4v-4h5v-4h4v-5h4v-4h4v-4h5v-5h4v-4h4v-4h4v-4h5v-5h4v-4h5v-4h3v-4h5v-5h4v-4h5v-5h3v-8h5v-4h4v-5h5v-4h4v-4h4v-4h4v-9h5v-4h4v-4h4v-9h4v-4h5v-9h4v-4h4v-9h5v-8h4v-4h4v-9h5v-9h4v-8h4v-9h4v-8h5v-13h4v-13h4v-13h5v-13h4 v-21h4v-30h4v-60h-4v-17h-4v-30h-4v-21h-5v-9h-4v-17h-4v-13h-5v-12h-4v-9h-4v-13h-4v-9h-5v-9h-4v-8h-4v-4h-5v-9h-4v-8h-4v-5h-5v-8h-4v-4h-4v-9h-4v-4h-5v-4h-4v-5h-4v-8h-4v-5h-5v-4h-4v-4h-5v-4h-3v-5h-5v-4h-4v-4h-5v-4h-3v-5h-5v-4h-4v-5h-9v-4h-4v-4h-4v-4h-5v-5h-8 v-4h-4v-4h-9v-4h-9v-5h-8v-4h-5v-4h-8v-4h-9v-5h-13v-4h-8v-4h-13v-5h-8v-4h-22v-4h-9v-5h-29v-4h-30v-4h-65v4h-42v4h-26v5h-17v4h-9v4h-17v5h-8v4h-13v4h-9v5h-8v4h-9v4h-9v4h-4v5h-8v4h-5v4h-8v4h-4v5h-9v4h-4v4h-4v4h-9v5h-4v4h-5v5h-4v4h-4v4h-4v4h-5v5h-4v4h-4v4h-4v9 h-5v4h-4v4h-5v5h-4v8h-4v4h-4v5h-5v8h-4v9h-4v4h-4v8h-5v9h-4v8h-4v9h-4v9h-5v8h-4v14h-4v8h-4v13h-5v17h-4v13h-4v25h-5v39zM298 520h5v8h17v-4h4v-17h-4v-5h-5v-4h-17v22zM226 609h4v17h21v-21h-8v-4h-17v8zM521 511h4v-21h-22v4h5v8h4v9h5v4h4v-4zM431 318h4v5h9v-17h-5 v-5h-8v17z" />
<glyph unicode="&#xae;" d="M551 301h4v9h4v30h-4v4h-17v-4h-4v-5h-5v-3h-4v-9h-4v-22h4v-4h4v-5h17v5h5v4zM422 292h30v18h5v22h-9v-5h-4v5h-13v-5h-4v-4h-5v-9h-4v-17h4v-5zM636 306h5v12h4v17h-4v9h-22v-4h-4v-5h-4v-8h-5v-30h5v-5h17v5h8v9zM328 301h-8v17h4v14h-13v-22h-4v-13h4v-5h13v5h9v-5h8 v18h4v22h-8v-9h-4v-17h-5v-5zM396 332h-3v-9h3v-13h-3v-13h3v-5h14v9h-5v22h13v9h-8v8h-14v-8zM290 318h4v5h13v9h-26v-18h-4v-22h8v9h5v17zM576 340v-5h-4v-3h9v-14h-5v-17h-13v-9h35v9h-9v22h4v21h-8v-4h-9zM166 318h-5v22h-4v4h-17v-17h-4v-21h-5v-14h13v26h4v14h5v-35h4 v-5h13v9h4v9h4v8h5v5h4v-13h-4v-18h8v14h4v8h5v30h-13v-4h-4v-5h-5v-8h-4v-9h-4v-4h-4v4zM486 332h5v3h12v-3h5v-5h-5v-4h-3v-5h-5v-4h-4v-4h-5v-4h-4v-5h-4v-9h34v9h-17v5h5v4h3v4h5v4h4v5h5v17h-5v4h-17v-4h-9v-8zM371 327v-4h-4v17h4v9h-13v-26h-4v-22h-4v-9h8v5h4v9h5 v-5h4v-9h8v14h-4v12h4v5h5v4h4v5h-13v-5h-4zM251 323h4v-26h-4v-8h-8v-9h12v4h5v13h4v17h4v9h9v9h-9v3h4v5h9v9h-13v-5h-4v-4h-4v-8h-9v3h-4v5h-4v4h-31v-17h-4v-21h-4v-14h13v22h13v-22h13v18h-5v8h5v5h4v4h4v-4zM709 421h-13v-13h5v-12h4v-5h-4v-8h-5v-5h-4v-8h-5v-9h14v5 h4v8h4v4h4v5h5v21h-5v9h-4v8zM735 421h-13v-8h4v-13h4v-13h-4v-4h-4v-9h-4v-4h-5v-9h13v5h4v4h5v4h4v9h4v4h5v9h-5v12h-4v9h-4v4zM615 400h4v17h5v-13h4v-13h4v-8h4v-13h5v-9h4v-4h17v4h5v22h3v13h5v21h4v25h-12v-4h-5v-21h-4v-21h-5v-13h-4v17h-4v8h-4v13h-5v13h-4v8h-21 v-4h-5v-30h-4v-21h-4v-13h-5v-17h13v4h5v17h4v22zM191 408h4v9h5v4h-13v-4h-4v-4h-5v-5h-4v-8h-4v-4h-4v-9h4v-13h4v-8h4v-5h13v9h-4v8h-4v18h4v8h4v4zM166 408h4v9h4v4h-17v-8h-4v-5h-5v-4h-4v-4h-4v-17h4v-13h4v-9h13v17h-4v9h-4v4h4v9h4v4h5v4zM452 413v4h5v-9h-5v-21h-4 v-30h13v4h4v22h4v17h5v25h4v17h-26v-4h-4v-4h-4v-9h-5v-8h-4v-4h-4v-9h-4v-8h-5v-5h-4v5h-4v8h-4v34h-5v4h-26v-4h-4v-30h-4v-17h-4v-13h-5v-21h17v26h5v13h4v21h5v-4h3v-22h5v-30h4v-4h13v4h4v9h5v4h4v9h4v8h4v9h5v4h4v9h4zM585 408h4v22h4v12h-17v-4h-4v-30h-4v-12h-5v-26 h-4v-13h17v9h5v21h4v21zM234 425h4v5h17v-5h13v13h-8v4h-22v-4h-12v-4h-5v-4h-4v-26h4v-4h5v-4h8v-5h9v-17h-5v-4h-21v4h-5v4h-4v-4h-4v-13h13v-4h21v4h13v5h4v4h5v4h4v22h-4v4h-5v4h-8v4h-9v5h-4v12zM508 391h4v-8h5v-9h4v-8h4v-9h17v13h-4v8h-4v9h-5v9h-4v8h4v4h5v5h4v4h4 v4h4v4h5v5h4v4h4v8h-17v-4h-4v-4h-4v-4h-5v-5h-4v-8h-4v-4h-9v29h-12v-4h-5v-17h-4v-21h-5v-34h-4v-9h18v17h3v13h5v4zM298 421h5v13h4v8h-17v-4h-5v-21h-4v-17h-4v-30h4v-4h4v-5h9v-4h26v4h13v5h4v4h4v4h4v9h5v21h4v21h4v17h-17v-8h-4v-21h-4v-30h-5v-5h-4v-4h-4v-4h-17v4 h-9v17h4v30zM491 468h4v9h34v-21h17v42h-4v22h-4v21h-21v-4h-5v-5h-4v-8h-5v-9h-3v-8h-5v-5h-4v-8h-5v-9h-4v-8h-4v-9h-4v-4h-5v-8h17v3h5v9zM333 498h4v4h4v30h-4v5h-9v4h-38v-4h-5v-30h-4v-13h-4v-21h-5v-17h18v12h4v17h21v5h13v4h5v4zM687 507h-25v21h34v13h-47v-4h-4 v-30h-4v-13h-5v-26h-4v-12h52v12h-31v26h31v4h3v9zM593 524h9v4h17v-4h5v-4h8v12h-4v5h-9v4h-21v-4h-13v-5h-4v-4h-5v-4h-4v-4h-4v-13h-5v-39h5v-4h4v-5h9v-3h30v3h4v5h4v13h-4v-4h-9v-5h-17v5h-4v4h-4v25h4v9h4v9h4v4zM405 507h-26v21h35v13h-47v-4h-5v-30h-4v-13h-4v-26 h-4v-12h51v12h-30v26h30v4h4v9zM144 537h-4v-9h21v-26h-4v-29h-4v-17h13v3h4v14h4v21h4v21h5v13h25v13h-64v-4zM444 528h30v4h4v9h-47v-4h-4v-30h-5v-22h-4v-12h-4v-17h17v17h4v17h30v4h4v8h-30v13h5v13zM272 528h5v9h4v4h-21v-9h-5v-4h-4v-8h-4v-5h-4v-8h-5v13h-4v8h-4v13 h-18v-13h5v-13h4v-13h5v-25h-5v-21h17v8h5v26h4v4h4v4h4v9h5v4h4v9h4v4h4v4zM264 605h4v4h4v22h-8v4h-9v4h-38v-4h-5v-17h-4v-34h-4v-22h-4v-8h17v13h4v21h13v-4h4v-4h5v-22h4v-4h17v13h-4v17h-5v4h-4v4h4v5h9v8zM396 605h-25v21h34v13h-47v-4h-4v-30h-4v-13h-5v-25h-4v-13 h52v13h-31v25h31v5h3v8zM333 605h-26v21h34v13h-47v-4h-4v-30h-5v-13h-4v-25h-4v-13h51v13h-30v25h30v5h5v8zM166 626h29v5h5v8h-47v-4h-5v-30h-4v-21h-4v-13h-4v-17h17v17h4v17h30v4h4v9h-30v13h5v12zM24 447h-4v77h4v26h5v17h4v17h4v13h5v12h4v9h4v13h4v8h5v9h4v9h4v8h4v4 h5v9h4v9h4v4h4v8h5v5h4v4h4v8h4v5h5v4h4v4h5v4h4v9h4v5h4v3h5v5h4v4h4v5h4v4h9v4h4v4h5v5h4v8h4v4h4v5h5v4h4v4h4v5h4v4h5v4h4v4h4v5h4v4h5v4h4v4h5v5h4v4h4v5h4v4h5v4h4v4h4v5h4v4h5v4h4v4h4v5h4v4h5v4h4v4h4v5h5v4h4v4h4v4h5v5h4v4h4v4h4v5h5v4h4v4h4v5h5v4h4v4h4v4h4v5h5 v4h4v4h4v5h4v4h5v4h4v4h4v5h4v4h5v4h4v4h5v5h3v4h5v5h4v3h9v-3h4v-5h4v-4h5v-5h4v-4h4v-4h4v-4h5v-5h4v-4h4v-4h5v-4h4v-5h4v-4h4v-4h5v-5h4v-4h4v-4h4v-4h5v-5h4v-4h5v-4h3v-5h5v-4h4v-4h5v-5h4v-4h4v-4h4v-4h5v-5h4v-4h4v-4h4v-4h5v-5h4v-4h4v-4h4v-4h5v-5h4v-4h4v-4h5v-4 h4v-5h4v-4h4v-5h5v-4h4v-4h4v-4h5v-5h4v-4h4v-4h5v-4h4v-5h4v-4h4v-4h5v-5h4v-4h4v-4h4v-4h5v-5h4v-4h5v-4h3v-4h5v-5h4v-4h5v-5h3v-8h5v-4h4v-5h5v-4h4v-4h4v-4h4v-9h5v-4h4v-4h4v-9h4v-4h5v-9h4v-4h4v-9h5v-8h4v-4h4v-9h5v-9h4v-8h4v-9h4v-8h5v-13h4v-13h4v-13h5v-13h4 v-21h4v-30h4v-60h-4v-17h-4v-30h-4v-21h-5v-9h-4v-17h-4v-13h-5v-12h-4v-9h-4v-13h-4v-9h-5v-9h-4v-8h-4v-4h-5v-9h-4v-8h-4v-5h-5v-8h-4v-4h-4v-9h-4v-4h-5v-4h-4v-5h-4v-8h-4v-5h-5v-4h-4v-4h-5v-4h-3v-5h-5v-4h-4v-4h-5v-4h-3v-5h-5v-4h-4v-5h-9v-4h-4v-4h-4v-4h-5v-5h-8 v-4h-4v-4h-9v-4h-9v-5h-8v-4h-5v-4h-8v-4h-9v-5h-13v-4h-8v-4h-13v-5h-8v-4h-22v-4h-9v-5h-29v-4h-30v-4h-65v4h-42v4h-26v5h-17v4h-9v4h-17v5h-8v4h-13v4h-9v5h-8v4h-9v4h-9v4h-4v5h-8v4h-5v4h-8v4h-4v5h-9v4h-4v4h-4v4h-9v5h-4v4h-5v5h-4v4h-4v4h-4v4h-5v5h-4v4h-4v4h-4v9 h-5v4h-4v4h-5v5h-4v8h-4v4h-4v5h-5v8h-4v9h-4v4h-4v8h-5v9h-4v8h-4v9h-4v9h-5v8h-4v14h-4v8h-4v13h-5v17h-4v13h-4v25h-5v39zM298 520h5v8h17v-4h4v-17h-4v-5h-5v-4h-17v22zM226 609h4v17h21v-21h-8v-4h-17v8zM521 511h4v-21h-22v4h5v8h4v9h5v4h4v-4zM431 318h4v5h9v-17h-5 v-5h-8v17z" />
<glyph unicode="&#xb0;" d="M551 301h4v9h4v30h-4v4h-17v-4h-4v-5h-5v-3h-4v-9h-4v-22h4v-4h4v-5h17v5h5v4zM422 292h30v18h5v22h-9v-5h-4v5h-13v-5h-4v-4h-5v-9h-4v-17h4v-5zM636 306h5v12h4v17h-4v9h-22v-4h-4v-5h-4v-8h-5v-30h5v-5h17v5h8v9zM328 301h-8v17h4v14h-13v-22h-4v-13h4v-5h13v5h9v-5h8 v18h4v22h-8v-9h-4v-17h-5v-5zM396 332h-3v-9h3v-13h-3v-13h3v-5h14v9h-5v22h13v9h-8v8h-14v-8zM290 318h4v5h13v9h-26v-18h-4v-22h8v9h5v17zM576 340v-5h-4v-3h9v-14h-5v-17h-13v-9h35v9h-9v22h4v21h-8v-4h-9zM166 318h-5v22h-4v4h-17v-17h-4v-21h-5v-14h13v26h4v14h5v-35h4 v-5h13v9h4v9h4v8h5v5h4v-13h-4v-18h8v14h4v8h5v30h-13v-4h-4v-5h-5v-8h-4v-9h-4v-4h-4v4zM486 332h5v3h12v-3h5v-5h-5v-4h-3v-5h-5v-4h-4v-4h-5v-4h-4v-5h-4v-9h34v9h-17v5h5v4h3v4h5v4h4v5h5v17h-5v4h-17v-4h-9v-8zM371 327v-4h-4v17h4v9h-13v-26h-4v-22h-4v-9h8v5h4v9h5 v-5h4v-9h8v14h-4v12h4v5h5v4h4v5h-13v-5h-4zM251 323h4v-26h-4v-8h-8v-9h12v4h5v13h4v17h4v9h9v9h-9v3h4v5h9v9h-13v-5h-4v-4h-4v-8h-9v3h-4v5h-4v4h-31v-17h-4v-21h-4v-14h13v22h13v-22h13v18h-5v8h5v5h4v4h4v-4zM709 421h-13v-13h5v-12h4v-5h-4v-8h-5v-5h-4v-8h-5v-9h14v5 h4v8h4v4h4v5h5v21h-5v9h-4v8zM735 421h-13v-8h4v-13h4v-13h-4v-4h-4v-9h-4v-4h-5v-9h13v5h4v4h5v4h4v9h4v4h5v9h-5v12h-4v9h-4v4zM615 400h4v17h5v-13h4v-13h4v-8h4v-13h5v-9h4v-4h17v4h5v22h3v13h5v21h4v25h-12v-4h-5v-21h-4v-21h-5v-13h-4v17h-4v8h-4v13h-5v13h-4v8h-21 v-4h-5v-30h-4v-21h-4v-13h-5v-17h13v4h5v17h4v22zM191 408h4v9h5v4h-13v-4h-4v-4h-5v-5h-4v-8h-4v-4h-4v-9h4v-13h4v-8h4v-5h13v9h-4v8h-4v18h4v8h4v4zM166 408h4v9h4v4h-17v-8h-4v-5h-5v-4h-4v-4h-4v-17h4v-13h4v-9h13v17h-4v9h-4v4h4v9h4v4h5v4zM452 413v4h5v-9h-5v-21h-4 v-30h13v4h4v22h4v17h5v25h4v17h-26v-4h-4v-4h-4v-9h-5v-8h-4v-4h-4v-9h-4v-8h-5v-5h-4v5h-4v8h-4v34h-5v4h-26v-4h-4v-30h-4v-17h-4v-13h-5v-21h17v26h5v13h4v21h5v-4h3v-22h5v-30h4v-4h13v4h4v9h5v4h4v9h4v8h4v9h5v4h4v9h4zM585 408h4v22h4v12h-17v-4h-4v-30h-4v-12h-5v-26 h-4v-13h17v9h5v21h4v21zM234 425h4v5h17v-5h13v13h-8v4h-22v-4h-12v-4h-5v-4h-4v-26h4v-4h5v-4h8v-5h9v-17h-5v-4h-21v4h-5v4h-4v-4h-4v-13h13v-4h21v4h13v5h4v4h5v4h4v22h-4v4h-5v4h-8v4h-9v5h-4v12zM508 391h4v-8h5v-9h4v-8h4v-9h17v13h-4v8h-4v9h-5v9h-4v8h4v4h5v5h4v4h4 v4h4v4h5v5h4v4h4v8h-17v-4h-4v-4h-4v-4h-5v-5h-4v-8h-4v-4h-9v29h-12v-4h-5v-17h-4v-21h-5v-34h-4v-9h18v17h3v13h5v4zM298 421h5v13h4v8h-17v-4h-5v-21h-4v-17h-4v-30h4v-4h4v-5h9v-4h26v4h13v5h4v4h4v4h4v9h5v21h4v21h4v17h-17v-8h-4v-21h-4v-30h-5v-5h-4v-4h-4v-4h-17v4 h-9v17h4v30zM491 468h4v9h34v-21h17v42h-4v22h-4v21h-21v-4h-5v-5h-4v-8h-5v-9h-3v-8h-5v-5h-4v-8h-5v-9h-4v-8h-4v-9h-4v-4h-5v-8h17v3h5v9zM333 498h4v4h4v30h-4v5h-9v4h-38v-4h-5v-30h-4v-13h-4v-21h-5v-17h18v12h4v17h21v5h13v4h5v4zM687 507h-25v21h34v13h-47v-4h-4 v-30h-4v-13h-5v-26h-4v-12h52v12h-31v26h31v4h3v9zM593 524h9v4h17v-4h5v-4h8v12h-4v5h-9v4h-21v-4h-13v-5h-4v-4h-5v-4h-4v-4h-4v-13h-5v-39h5v-4h4v-5h9v-3h30v3h4v5h4v13h-4v-4h-9v-5h-17v5h-4v4h-4v25h4v9h4v9h4v4zM405 507h-26v21h35v13h-47v-4h-5v-30h-4v-13h-4v-26 h-4v-12h51v12h-30v26h30v4h4v9zM144 537h-4v-9h21v-26h-4v-29h-4v-17h13v3h4v14h4v21h4v21h5v13h25v13h-64v-4zM444 528h30v4h4v9h-47v-4h-4v-30h-5v-22h-4v-12h-4v-17h17v17h4v17h30v4h4v8h-30v13h5v13zM272 528h5v9h4v4h-21v-9h-5v-4h-4v-8h-4v-5h-4v-8h-5v13h-4v8h-4v13 h-18v-13h5v-13h4v-13h5v-25h-5v-21h17v8h5v26h4v4h4v4h4v9h5v4h4v9h4v4h4v4zM264 605h4v4h4v22h-8v4h-9v4h-38v-4h-5v-17h-4v-34h-4v-22h-4v-8h17v13h4v21h13v-4h4v-4h5v-22h4v-4h17v13h-4v17h-5v4h-4v4h4v5h9v8zM396 605h-25v21h34v13h-47v-4h-4v-30h-4v-13h-5v-25h-4v-13 h52v13h-31v25h31v5h3v8zM333 605h-26v21h34v13h-47v-4h-4v-30h-5v-13h-4v-25h-4v-13h51v13h-30v25h30v5h5v8zM166 626h29v5h5v8h-47v-4h-5v-30h-4v-21h-4v-13h-4v-17h17v17h4v17h30v4h4v9h-30v13h5v12zM24 447h-4v77h4v26h5v17h4v17h4v13h5v12h4v9h4v13h4v8h5v9h4v9h4v8h4v4 h5v9h4v9h4v4h4v8h5v5h4v4h4v8h4v5h5v4h4v4h5v4h4v9h4v5h4v3h5v5h4v4h4v5h4v4h9v4h4v4h5v5h4v8h4v4h4v5h5v4h4v4h4v5h4v4h5v4h4v4h4v5h4v4h5v4h4v4h5v5h4v4h4v5h4v4h5v4h4v4h4v5h4v4h5v4h4v4h4v5h4v4h5v4h4v4h4v5h5v4h4v4h4v4h5v5h4v4h4v4h4v5h5v4h4v4h4v5h5v4h4v4h4v4h4v5h5 v4h4v4h4v5h4v4h5v4h4v4h4v5h4v4h5v4h4v4h5v5h3v4h5v5h4v3h9v-3h4v-5h4v-4h5v-5h4v-4h4v-4h4v-4h5v-5h4v-4h4v-4h5v-4h4v-5h4v-4h4v-4h5v-5h4v-4h4v-4h4v-4h5v-5h4v-4h5v-4h3v-5h5v-4h4v-4h5v-5h4v-4h4v-4h4v-4h5v-5h4v-4h4v-4h4v-4h5v-5h4v-4h4v-4h4v-4h5v-5h4v-4h4v-4h5v-4 h4v-5h4v-4h4v-5h5v-4h4v-4h4v-4h5v-5h4v-4h4v-4h5v-4h4v-5h4v-4h4v-4h5v-5h4v-4h4v-4h4v-4h5v-5h4v-4h5v-4h3v-4h5v-5h4v-4h5v-5h3v-8h5v-4h4v-5h5v-4h4v-4h4v-4h4v-9h5v-4h4v-4h4v-9h4v-4h5v-9h4v-4h4v-9h5v-8h4v-4h4v-9h5v-9h4v-8h4v-9h4v-8h5v-13h4v-13h4v-13h5v-13h4 v-21h4v-30h4v-60h-4v-17h-4v-30h-4v-21h-5v-9h-4v-17h-4v-13h-5v-12h-4v-9h-4v-13h-4v-9h-5v-9h-4v-8h-4v-4h-5v-9h-4v-8h-4v-5h-5v-8h-4v-4h-4v-9h-4v-4h-5v-4h-4v-5h-4v-8h-4v-5h-5v-4h-4v-4h-5v-4h-3v-5h-5v-4h-4v-4h-5v-4h-3v-5h-5v-4h-4v-5h-9v-4h-4v-4h-4v-4h-5v-5h-8 v-4h-4v-4h-9v-4h-9v-5h-8v-4h-5v-4h-8v-4h-9v-5h-13v-4h-8v-4h-13v-5h-8v-4h-22v-4h-9v-5h-29v-4h-30v-4h-65v4h-42v4h-26v5h-17v4h-9v4h-17v5h-8v4h-13v4h-9v5h-8v4h-9v4h-9v4h-4v5h-8v4h-5v4h-8v4h-4v5h-9v4h-4v4h-4v4h-9v5h-4v4h-5v5h-4v4h-4v4h-4v4h-5v5h-4v4h-4v4h-4v9 h-5v4h-4v4h-5v5h-4v8h-4v4h-4v5h-5v8h-4v9h-4v4h-4v8h-5v9h-4v8h-4v9h-4v9h-5v8h-4v14h-4v8h-4v13h-5v17h-4v13h-4v25h-5v39zM298 520h5v8h17v-4h4v-17h-4v-5h-5v-4h-17v22zM226 609h4v17h21v-21h-8v-4h-17v8zM521 511h4v-21h-22v4h5v8h4v9h5v4h4v-4zM431 318h4v5h9v-17h-5 v-5h-8v17z" />
<glyph unicode="&#xb1;" d="M551 301h4v9h4v30h-4v4h-17v-4h-4v-5h-5v-3h-4v-9h-4v-22h4v-4h4v-5h17v5h5v4zM422 292h30v18h5v22h-9v-5h-4v5h-13v-5h-4v-4h-5v-9h-4v-17h4v-5zM636 306h5v12h4v17h-4v9h-22v-4h-4v-5h-4v-8h-5v-30h5v-5h17v5h8v9zM328 301h-8v17h4v14h-13v-22h-4v-13h4v-5h13v5h9v-5h8 v18h4v22h-8v-9h-4v-17h-5v-5zM396 332h-3v-9h3v-13h-3v-13h3v-5h14v9h-5v22h13v9h-8v8h-14v-8zM290 318h4v5h13v9h-26v-18h-4v-22h8v9h5v17zM576 340v-5h-4v-3h9v-14h-5v-17h-13v-9h35v9h-9v22h4v21h-8v-4h-9zM166 318h-5v22h-4v4h-17v-17h-4v-21h-5v-14h13v26h4v14h5v-35h4 v-5h13v9h4v9h4v8h5v5h4v-13h-4v-18h8v14h4v8h5v30h-13v-4h-4v-5h-5v-8h-4v-9h-4v-4h-4v4zM486 332h5v3h12v-3h5v-5h-5v-4h-3v-5h-5v-4h-4v-4h-5v-4h-4v-5h-4v-9h34v9h-17v5h5v4h3v4h5v4h4v5h5v17h-5v4h-17v-4h-9v-8zM371 327v-4h-4v17h4v9h-13v-26h-4v-22h-4v-9h8v5h4v9h5 v-5h4v-9h8v14h-4v12h4v5h5v4h4v5h-13v-5h-4zM251 323h4v-26h-4v-8h-8v-9h12v4h5v13h4v17h4v9h9v9h-9v3h4v5h9v9h-13v-5h-4v-4h-4v-8h-9v3h-4v5h-4v4h-31v-17h-4v-21h-4v-14h13v22h13v-22h13v18h-5v8h5v5h4v4h4v-4zM709 421h-13v-13h5v-12h4v-5h-4v-8h-5v-5h-4v-8h-5v-9h14v5 h4v8h4v4h4v5h5v21h-5v9h-4v8zM735 421h-13v-8h4v-13h4v-13h-4v-4h-4v-9h-4v-4h-5v-9h13v5h4v4h5v4h4v9h4v4h5v9h-5v12h-4v9h-4v4zM615 400h4v17h5v-13h4v-13h4v-8h4v-13h5v-9h4v-4h17v4h5v22h3v13h5v21h4v25h-12v-4h-5v-21h-4v-21h-5v-13h-4v17h-4v8h-4v13h-5v13h-4v8h-21 v-4h-5v-30h-4v-21h-4v-13h-5v-17h13v4h5v17h4v22zM191 408h4v9h5v4h-13v-4h-4v-4h-5v-5h-4v-8h-4v-4h-4v-9h4v-13h4v-8h4v-5h13v9h-4v8h-4v18h4v8h4v4zM166 408h4v9h4v4h-17v-8h-4v-5h-5v-4h-4v-4h-4v-17h4v-13h4v-9h13v17h-4v9h-4v4h4v9h4v4h5v4zM452 413v4h5v-9h-5v-21h-4 v-30h13v4h4v22h4v17h5v25h4v17h-26v-4h-4v-4h-4v-9h-5v-8h-4v-4h-4v-9h-4v-8h-5v-5h-4v5h-4v8h-4v34h-5v4h-26v-4h-4v-30h-4v-17h-4v-13h-5v-21h17v26h5v13h4v21h5v-4h3v-22h5v-30h4v-4h13v4h4v9h5v4h4v9h4v8h4v9h5v4h4v9h4zM585 408h4v22h4v12h-17v-4h-4v-30h-4v-12h-5v-26 h-4v-13h17v9h5v21h4v21zM234 425h4v5h17v-5h13v13h-8v4h-22v-4h-12v-4h-5v-4h-4v-26h4v-4h5v-4h8v-5h9v-17h-5v-4h-21v4h-5v4h-4v-4h-4v-13h13v-4h21v4h13v5h4v4h5v4h4v22h-4v4h-5v4h-8v4h-9v5h-4v12zM508 391h4v-8h5v-9h4v-8h4v-9h17v13h-4v8h-4v9h-5v9h-4v8h4v4h5v5h4v4h4 v4h4v4h5v5h4v4h4v8h-17v-4h-4v-4h-4v-4h-5v-5h-4v-8h-4v-4h-9v29h-12v-4h-5v-17h-4v-21h-5v-34h-4v-9h18v17h3v13h5v4zM298 421h5v13h4v8h-17v-4h-5v-21h-4v-17h-4v-30h4v-4h4v-5h9v-4h26v4h13v5h4v4h4v4h4v9h5v21h4v21h4v17h-17v-8h-4v-21h-4v-30h-5v-5h-4v-4h-4v-4h-17v4 h-9v17h4v30zM491 468h4v9h34v-21h17v42h-4v22h-4v21h-21v-4h-5v-5h-4v-8h-5v-9h-3v-8h-5v-5h-4v-8h-5v-9h-4v-8h-4v-9h-4v-4h-5v-8h17v3h5v9zM333 498h4v4h4v30h-4v5h-9v4h-38v-4h-5v-30h-4v-13h-4v-21h-5v-17h18v12h4v17h21v5h13v4h5v4zM687 507h-25v21h34v13h-47v-4h-4 v-30h-4v-13h-5v-26h-4v-12h52v12h-31v26h31v4h3v9zM593 524h9v4h17v-4h5v-4h8v12h-4v5h-9v4h-21v-4h-13v-5h-4v-4h-5v-4h-4v-4h-4v-13h-5v-39h5v-4h4v-5h9v-3h30v3h4v5h4v13h-4v-4h-9v-5h-17v5h-4v4h-4v25h4v9h4v9h4v4zM405 507h-26v21h35v13h-47v-4h-5v-30h-4v-13h-4v-26 h-4v-12h51v12h-30v26h30v4h4v9zM144 537h-4v-9h21v-26h-4v-29h-4v-17h13v3h4v14h4v21h4v21h5v13h25v13h-64v-4zM444 528h30v4h4v9h-47v-4h-4v-30h-5v-22h-4v-12h-4v-17h17v17h4v17h30v4h4v8h-30v13h5v13zM272 528h5v9h4v4h-21v-9h-5v-4h-4v-8h-4v-5h-4v-8h-5v13h-4v8h-4v13 h-18v-13h5v-13h4v-13h5v-25h-5v-21h17v8h5v26h4v4h4v4h4v9h5v4h4v9h4v4h4v4zM264 605h4v4h4v22h-8v4h-9v4h-38v-4h-5v-17h-4v-34h-4v-22h-4v-8h17v13h4v21h13v-4h4v-4h5v-22h4v-4h17v13h-4v17h-5v4h-4v4h4v5h9v8zM396 605h-25v21h34v13h-47v-4h-4v-30h-4v-13h-5v-25h-4v-13 h52v13h-31v25h31v5h3v8zM333 605h-26v21h34v13h-47v-4h-4v-30h-5v-13h-4v-25h-4v-13h51v13h-30v25h30v5h5v8zM166 626h29v5h5v8h-47v-4h-5v-30h-4v-21h-4v-13h-4v-17h17v17h4v17h30v4h4v9h-30v13h5v12zM24 447h-4v77h4v26h5v17h4v17h4v13h5v12h4v9h4v13h4v8h5v9h4v9h4v8h4v4 h5v9h4v9h4v4h4v8h5v5h4v4h4v8h4v5h5v4h4v4h5v4h4v9h4v5h4v3h5v5h4v4h4v5h4v4h9v4h4v4h5v5h4v8h4v4h4v5h5v4h4v4h4v5h4v4h5v4h4v4h4v5h4v4h5v4h4v4h5v5h4v4h4v5h4v4h5v4h4v4h4v5h4v4h5v4h4v4h4v5h4v4h5v4h4v4h4v5h5v4h4v4h4v4h5v5h4v4h4v4h4v5h5v4h4v4h4v5h5v4h4v4h4v4h4v5h5 v4h4v4h4v5h4v4h5v4h4v4h4v5h4v4h5v4h4v4h5v5h3v4h5v5h4v3h9v-3h4v-5h4v-4h5v-5h4v-4h4v-4h4v-4h5v-5h4v-4h4v-4h5v-4h4v-5h4v-4h4v-4h5v-5h4v-4h4v-4h4v-4h5v-5h4v-4h5v-4h3v-5h5v-4h4v-4h5v-5h4v-4h4v-4h4v-4h5v-5h4v-4h4v-4h4v-4h5v-5h4v-4h4v-4h4v-4h5v-5h4v-4h4v-4h5v-4 h4v-5h4v-4h4v-5h5v-4h4v-4h4v-4h5v-5h4v-4h4v-4h5v-4h4v-5h4v-4h4v-4h5v-5h4v-4h4v-4h4v-4h5v-5h4v-4h5v-4h3v-4h5v-5h4v-4h5v-5h3v-8h5v-4h4v-5h5v-4h4v-4h4v-4h4v-9h5v-4h4v-4h4v-9h4v-4h5v-9h4v-4h4v-9h5v-8h4v-4h4v-9h5v-9h4v-8h4v-9h4v-8h5v-13h4v-13h4v-13h5v-13h4 v-21h4v-30h4v-60h-4v-17h-4v-30h-4v-21h-5v-9h-4v-17h-4v-13h-5v-12h-4v-9h-4v-13h-4v-9h-5v-9h-4v-8h-4v-4h-5v-9h-4v-8h-4v-5h-5v-8h-4v-4h-4v-9h-4v-4h-5v-4h-4v-5h-4v-8h-4v-5h-5v-4h-4v-4h-5v-4h-3v-5h-5v-4h-4v-4h-5v-4h-3v-5h-5v-4h-4v-5h-9v-4h-4v-4h-4v-4h-5v-5h-8 v-4h-4v-4h-9v-4h-9v-5h-8v-4h-5v-4h-8v-4h-9v-5h-13v-4h-8v-4h-13v-5h-8v-4h-22v-4h-9v-5h-29v-4h-30v-4h-65v4h-42v4h-26v5h-17v4h-9v4h-17v5h-8v4h-13v4h-9v5h-8v4h-9v4h-9v4h-4v5h-8v4h-5v4h-8v4h-4v5h-9v4h-4v4h-4v4h-9v5h-4v4h-5v5h-4v4h-4v4h-4v4h-5v5h-4v4h-4v4h-4v9 h-5v4h-4v4h-5v5h-4v8h-4v4h-4v5h-5v8h-4v9h-4v4h-4v8h-5v9h-4v8h-4v9h-4v9h-5v8h-4v14h-4v8h-4v13h-5v17h-4v13h-4v25h-5v39zM298 520h5v8h17v-4h4v-17h-4v-5h-5v-4h-17v22zM226 609h4v17h21v-21h-8v-4h-17v8zM521 511h4v-21h-22v4h5v8h4v9h5v4h4v-4zM431 318h4v5h9v-17h-5 v-5h-8v17z" />
<glyph unicode="&#xb2;" horiz-adv-x="740" d="M683 817q-7 -25 7 -105q15 -78 8 -156q-6 -80 -54 -135t-180 -37q-1 0 -11 -40q-9 -39 -6 -39l10 37q10 37 12 37q4 -1 73 -14t116 -23.5t47 -14.5q-1 -82 -11 -157l-8 -70q-22 -25 -83 -54q-60 -29 -154 -26q-124 1 -247 31l-118 30q-33 117 -42 243q-10 61 37 142 q46 78 203 80q2 0 9 39q9 39 9 40l-12 -37l-11 -37l-37 6l-80 16l-81 17q-37 9 -37 13q-3 72 33 158q35 82 65 143q22 1 65 4q73 5 153 1q87 -4 179 -24q91 -19 146 -68z" />
<glyph unicode="&#xb3;" horiz-adv-x="667" d="M91 312l201 -6v14l-63 3q-63 5 -124 21q-4 1 -22 60q-18 60 -5 155q25 4 84 5.5t92 8.5l1 15q1 0 -42.5 -1.5t-86.5 -2.5l-42 -2q-28 45 -37 94.5t-1 88.5t20 72t24 51l11 17q54 -70 137 -50q82 19 164 24q83 5 146 -56q66 -61 82 -286q5 -69 -47 -73l-51 -5l51 -10 q52 -10 51 -71q-7 -205 -111 -295q-103 -88 -406 -51l-25 98q-25 97 -1 182z" />
<glyph unicode="&#xb5;" d="M551 301h4v9h4v30h-4v4h-17v-4h-4v-5h-5v-3h-4v-9h-4v-22h4v-4h4v-5h17v5h5v4zM422 292h30v18h5v22h-9v-5h-4v5h-13v-5h-4v-4h-5v-9h-4v-17h4v-5zM636 306h5v12h4v17h-4v9h-22v-4h-4v-5h-4v-8h-5v-30h5v-5h17v5h8v9zM328 301h-8v17h4v14h-13v-22h-4v-13h4v-5h13v5h9v-5h8 v18h4v22h-8v-9h-4v-17h-5v-5zM396 332h-3v-9h3v-13h-3v-13h3v-5h14v9h-5v22h13v9h-8v8h-14v-8zM290 318h4v5h13v9h-26v-18h-4v-22h8v9h5v17zM576 340v-5h-4v-3h9v-14h-5v-17h-13v-9h35v9h-9v22h4v21h-8v-4h-9zM166 318h-5v22h-4v4h-17v-17h-4v-21h-5v-14h13v26h4v14h5v-35h4 v-5h13v9h4v9h4v8h5v5h4v-13h-4v-18h8v14h4v8h5v30h-13v-4h-4v-5h-5v-8h-4v-9h-4v-4h-4v4zM486 332h5v3h12v-3h5v-5h-5v-4h-3v-5h-5v-4h-4v-4h-5v-4h-4v-5h-4v-9h34v9h-17v5h5v4h3v4h5v4h4v5h5v17h-5v4h-17v-4h-9v-8zM371 327v-4h-4v17h4v9h-13v-26h-4v-22h-4v-9h8v5h4v9h5 v-5h4v-9h8v14h-4v12h4v5h5v4h4v5h-13v-5h-4zM251 323h4v-26h-4v-8h-8v-9h12v4h5v13h4v17h4v9h9v9h-9v3h4v5h9v9h-13v-5h-4v-4h-4v-8h-9v3h-4v5h-4v4h-31v-17h-4v-21h-4v-14h13v22h13v-22h13v18h-5v8h5v5h4v4h4v-4zM709 421h-13v-13h5v-12h4v-5h-4v-8h-5v-5h-4v-8h-5v-9h14v5 h4v8h4v4h4v5h5v21h-5v9h-4v8zM735 421h-13v-8h4v-13h4v-13h-4v-4h-4v-9h-4v-4h-5v-9h13v5h4v4h5v4h4v9h4v4h5v9h-5v12h-4v9h-4v4zM615 400h4v17h5v-13h4v-13h4v-8h4v-13h5v-9h4v-4h17v4h5v22h3v13h5v21h4v25h-12v-4h-5v-21h-4v-21h-5v-13h-4v17h-4v8h-4v13h-5v13h-4v8h-21 v-4h-5v-30h-4v-21h-4v-13h-5v-17h13v4h5v17h4v22zM191 408h4v9h5v4h-13v-4h-4v-4h-5v-5h-4v-8h-4v-4h-4v-9h4v-13h4v-8h4v-5h13v9h-4v8h-4v18h4v8h4v4zM166 408h4v9h4v4h-17v-8h-4v-5h-5v-4h-4v-4h-4v-17h4v-13h4v-9h13v17h-4v9h-4v4h4v9h4v4h5v4zM452 413v4h5v-9h-5v-21h-4 v-30h13v4h4v22h4v17h5v25h4v17h-26v-4h-4v-4h-4v-9h-5v-8h-4v-4h-4v-9h-4v-8h-5v-5h-4v5h-4v8h-4v34h-5v4h-26v-4h-4v-30h-4v-17h-4v-13h-5v-21h17v26h5v13h4v21h5v-4h3v-22h5v-30h4v-4h13v4h4v9h5v4h4v9h4v8h4v9h5v4h4v9h4zM585 408h4v22h4v12h-17v-4h-4v-30h-4v-12h-5v-26 h-4v-13h17v9h5v21h4v21zM234 425h4v5h17v-5h13v13h-8v4h-22v-4h-12v-4h-5v-4h-4v-26h4v-4h5v-4h8v-5h9v-17h-5v-4h-21v4h-5v4h-4v-4h-4v-13h13v-4h21v4h13v5h4v4h5v4h4v22h-4v4h-5v4h-8v4h-9v5h-4v12zM508 391h4v-8h5v-9h4v-8h4v-9h17v13h-4v8h-4v9h-5v9h-4v8h4v4h5v5h4v4h4 v4h4v4h5v5h4v4h4v8h-17v-4h-4v-4h-4v-4h-5v-5h-4v-8h-4v-4h-9v29h-12v-4h-5v-17h-4v-21h-5v-34h-4v-9h18v17h3v13h5v4zM298 421h5v13h4v8h-17v-4h-5v-21h-4v-17h-4v-30h4v-4h4v-5h9v-4h26v4h13v5h4v4h4v4h4v9h5v21h4v21h4v17h-17v-8h-4v-21h-4v-30h-5v-5h-4v-4h-4v-4h-17v4 h-9v17h4v30zM491 468h4v9h34v-21h17v42h-4v22h-4v21h-21v-4h-5v-5h-4v-8h-5v-9h-3v-8h-5v-5h-4v-8h-5v-9h-4v-8h-4v-9h-4v-4h-5v-8h17v3h5v9zM333 498h4v4h4v30h-4v5h-9v4h-38v-4h-5v-30h-4v-13h-4v-21h-5v-17h18v12h4v17h21v5h13v4h5v4zM687 507h-25v21h34v13h-47v-4h-4 v-30h-4v-13h-5v-26h-4v-12h52v12h-31v26h31v4h3v9zM593 524h9v4h17v-4h5v-4h8v12h-4v5h-9v4h-21v-4h-13v-5h-4v-4h-5v-4h-4v-4h-4v-13h-5v-39h5v-4h4v-5h9v-3h30v3h4v5h4v13h-4v-4h-9v-5h-17v5h-4v4h-4v25h4v9h4v9h4v4zM405 507h-26v21h35v13h-47v-4h-5v-30h-4v-13h-4v-26 h-4v-12h51v12h-30v26h30v4h4v9zM144 537h-4v-9h21v-26h-4v-29h-4v-17h13v3h4v14h4v21h4v21h5v13h25v13h-64v-4zM444 528h30v4h4v9h-47v-4h-4v-30h-5v-22h-4v-12h-4v-17h17v17h4v17h30v4h4v8h-30v13h5v13zM272 528h5v9h4v4h-21v-9h-5v-4h-4v-8h-4v-5h-4v-8h-5v13h-4v8h-4v13 h-18v-13h5v-13h4v-13h5v-25h-5v-21h17v8h5v26h4v4h4v4h4v9h5v4h4v9h4v4h4v4zM264 605h4v4h4v22h-8v4h-9v4h-38v-4h-5v-17h-4v-34h-4v-22h-4v-8h17v13h4v21h13v-4h4v-4h5v-22h4v-4h17v13h-4v17h-5v4h-4v4h4v5h9v8zM396 605h-25v21h34v13h-47v-4h-4v-30h-4v-13h-5v-25h-4v-13 h52v13h-31v25h31v5h3v8zM333 605h-26v21h34v13h-47v-4h-4v-30h-5v-13h-4v-25h-4v-13h51v13h-30v25h30v5h5v8zM166 626h29v5h5v8h-47v-4h-5v-30h-4v-21h-4v-13h-4v-17h17v17h4v17h30v4h4v9h-30v13h5v12zM24 447h-4v77h4v26h5v17h4v17h4v13h5v12h4v9h4v13h4v8h5v9h4v9h4v8h4v4 h5v9h4v9h4v4h4v8h5v5h4v4h4v8h4v5h5v4h4v4h5v4h4v9h4v5h4v3h5v5h4v4h4v5h4v4h9v4h4v4h5v5h4v8h4v4h4v5h5v4h4v4h4v5h4v4h5v4h4v4h4v5h4v4h5v4h4v4h5v5h4v4h4v5h4v4h5v4h4v4h4v5h4v4h5v4h4v4h4v5h4v4h5v4h4v4h4v5h5v4h4v4h4v4h5v5h4v4h4v4h4v5h5v4h4v4h4v5h5v4h4v4h4v4h4v5h5 v4h4v4h4v5h4v4h5v4h4v4h4v5h4v4h5v4h4v4h5v5h3v4h5v5h4v3h9v-3h4v-5h4v-4h5v-5h4v-4h4v-4h4v-4h5v-5h4v-4h4v-4h5v-4h4v-5h4v-4h4v-4h5v-5h4v-4h4v-4h4v-4h5v-5h4v-4h5v-4h3v-5h5v-4h4v-4h5v-5h4v-4h4v-4h4v-4h5v-5h4v-4h4v-4h4v-4h5v-5h4v-4h4v-4h4v-4h5v-5h4v-4h4v-4h5v-4 h4v-5h4v-4h4v-5h5v-4h4v-4h4v-4h5v-5h4v-4h4v-4h5v-4h4v-5h4v-4h4v-4h5v-5h4v-4h4v-4h4v-4h5v-5h4v-4h5v-4h3v-4h5v-5h4v-4h5v-5h3v-8h5v-4h4v-5h5v-4h4v-4h4v-4h4v-9h5v-4h4v-4h4v-9h4v-4h5v-9h4v-4h4v-9h5v-8h4v-4h4v-9h5v-9h4v-8h4v-9h4v-8h5v-13h4v-13h4v-13h5v-13h4 v-21h4v-30h4v-60h-4v-17h-4v-30h-4v-21h-5v-9h-4v-17h-4v-13h-5v-12h-4v-9h-4v-13h-4v-9h-5v-9h-4v-8h-4v-4h-5v-9h-4v-8h-4v-5h-5v-8h-4v-4h-4v-9h-4v-4h-5v-4h-4v-5h-4v-8h-4v-5h-5v-4h-4v-4h-5v-4h-3v-5h-5v-4h-4v-4h-5v-4h-3v-5h-5v-4h-4v-5h-9v-4h-4v-4h-4v-4h-5v-5h-8 v-4h-4v-4h-9v-4h-9v-5h-8v-4h-5v-4h-8v-4h-9v-5h-13v-4h-8v-4h-13v-5h-8v-4h-22v-4h-9v-5h-29v-4h-30v-4h-65v4h-42v4h-26v5h-17v4h-9v4h-17v5h-8v4h-13v4h-9v5h-8v4h-9v4h-9v4h-4v5h-8v4h-5v4h-8v4h-4v5h-9v4h-4v4h-4v4h-9v5h-4v4h-5v5h-4v4h-4v4h-4v4h-5v5h-4v4h-4v4h-4v9 h-5v4h-4v4h-5v5h-4v8h-4v4h-4v5h-5v8h-4v9h-4v4h-4v8h-5v9h-4v8h-4v9h-4v9h-5v8h-4v14h-4v8h-4v13h-5v17h-4v13h-4v25h-5v39zM298 520h5v8h17v-4h4v-17h-4v-5h-5v-4h-17v22zM226 609h4v17h21v-21h-8v-4h-17v8zM521 511h4v-21h-22v4h5v8h4v9h5v4h4v-4zM431 318h4v5h9v-17h-5 v-5h-8v17z" />
<glyph unicode="&#xb9;" horiz-adv-x="548" d="M35 492q15 5 30.5 29t25 45t28.5 67q54 132 82 172q5 8 11 15q32 37 80 58t97.5 24.5t71 3t39.5 -2.5h1q17 -42 19 -146q2 -115 -5 -229q-6 -135 -19 -263l-23 -245q-36 0 -121 11q-80 10 -144 71l-15 123q-12 113 -2 197q-41 10 -76 25q-12 5 -25 11l-22 12 q-10 6 -17.5 11t-11.5 8z" />
<glyph unicode="&#xba;" horiz-adv-x="602" d="M47 654q42 39 115 54q80 16 144 19q72 4 124 0l52 -3q64 -127 78 -313q14 -183 -34 -345l-95 -24q-90 -23 -197 -26q-76 -2 -124 21q-47 22 -65 43q-3 30 -11 91q-9 94 -2 175l14 148q11 115 1 160zM301 498q-13 -6 -18 -46q-4 -52 -4 -88q0 -48 3 -95q2 -62 2 -63 q2 19 8 58q9 58 9 234z" />
<glyph unicode="&#xbb;" d="M551 301h4v9h4v30h-4v4h-17v-4h-4v-5h-5v-3h-4v-9h-4v-22h4v-4h4v-5h17v5h5v4zM422 292h30v18h5v22h-9v-5h-4v5h-13v-5h-4v-4h-5v-9h-4v-17h4v-5zM636 306h5v12h4v17h-4v9h-22v-4h-4v-5h-4v-8h-5v-30h5v-5h17v5h8v9zM328 301h-8v17h4v14h-13v-22h-4v-13h4v-5h13v5h9v-5h8 v18h4v22h-8v-9h-4v-17h-5v-5zM396 332h-3v-9h3v-13h-3v-13h3v-5h14v9h-5v22h13v9h-8v8h-14v-8zM290 318h4v5h13v9h-26v-18h-4v-22h8v9h5v17zM576 340v-5h-4v-3h9v-14h-5v-17h-13v-9h35v9h-9v22h4v21h-8v-4h-9zM166 318h-5v22h-4v4h-17v-17h-4v-21h-5v-14h13v26h4v14h5v-35h4 v-5h13v9h4v9h4v8h5v5h4v-13h-4v-18h8v14h4v8h5v30h-13v-4h-4v-5h-5v-8h-4v-9h-4v-4h-4v4zM486 332h5v3h12v-3h5v-5h-5v-4h-3v-5h-5v-4h-4v-4h-5v-4h-4v-5h-4v-9h34v9h-17v5h5v4h3v4h5v4h4v5h5v17h-5v4h-17v-4h-9v-8zM371 327v-4h-4v17h4v9h-13v-26h-4v-22h-4v-9h8v5h4v9h5 v-5h4v-9h8v14h-4v12h4v5h5v4h4v5h-13v-5h-4zM251 323h4v-26h-4v-8h-8v-9h12v4h5v13h4v17h4v9h9v9h-9v3h4v5h9v9h-13v-5h-4v-4h-4v-8h-9v3h-4v5h-4v4h-31v-17h-4v-21h-4v-14h13v22h13v-22h13v18h-5v8h5v5h4v4h4v-4zM709 421h-13v-13h5v-12h4v-5h-4v-8h-5v-5h-4v-8h-5v-9h14v5 h4v8h4v4h4v5h5v21h-5v9h-4v8zM735 421h-13v-8h4v-13h4v-13h-4v-4h-4v-9h-4v-4h-5v-9h13v5h4v4h5v4h4v9h4v4h5v9h-5v12h-4v9h-4v4zM615 400h4v17h5v-13h4v-13h4v-8h4v-13h5v-9h4v-4h17v4h5v22h3v13h5v21h4v25h-12v-4h-5v-21h-4v-21h-5v-13h-4v17h-4v8h-4v13h-5v13h-4v8h-21 v-4h-5v-30h-4v-21h-4v-13h-5v-17h13v4h5v17h4v22zM191 408h4v9h5v4h-13v-4h-4v-4h-5v-5h-4v-8h-4v-4h-4v-9h4v-13h4v-8h4v-5h13v9h-4v8h-4v18h4v8h4v4zM166 408h4v9h4v4h-17v-8h-4v-5h-5v-4h-4v-4h-4v-17h4v-13h4v-9h13v17h-4v9h-4v4h4v9h4v4h5v4zM452 413v4h5v-9h-5v-21h-4 v-30h13v4h4v22h4v17h5v25h4v17h-26v-4h-4v-4h-4v-9h-5v-8h-4v-4h-4v-9h-4v-8h-5v-5h-4v5h-4v8h-4v34h-5v4h-26v-4h-4v-30h-4v-17h-4v-13h-5v-21h17v26h5v13h4v21h5v-4h3v-22h5v-30h4v-4h13v4h4v9h5v4h4v9h4v8h4v9h5v4h4v9h4zM585 408h4v22h4v12h-17v-4h-4v-30h-4v-12h-5v-26 h-4v-13h17v9h5v21h4v21zM234 425h4v5h17v-5h13v13h-8v4h-22v-4h-12v-4h-5v-4h-4v-26h4v-4h5v-4h8v-5h9v-17h-5v-4h-21v4h-5v4h-4v-4h-4v-13h13v-4h21v4h13v5h4v4h5v4h4v22h-4v4h-5v4h-8v4h-9v5h-4v12zM508 391h4v-8h5v-9h4v-8h4v-9h17v13h-4v8h-4v9h-5v9h-4v8h4v4h5v5h4v4h4 v4h4v4h5v5h4v4h4v8h-17v-4h-4v-4h-4v-4h-5v-5h-4v-8h-4v-4h-9v29h-12v-4h-5v-17h-4v-21h-5v-34h-4v-9h18v17h3v13h5v4zM298 421h5v13h4v8h-17v-4h-5v-21h-4v-17h-4v-30h4v-4h4v-5h9v-4h26v4h13v5h4v4h4v4h4v9h5v21h4v21h4v17h-17v-8h-4v-21h-4v-30h-5v-5h-4v-4h-4v-4h-17v4 h-9v17h4v30zM491 468h4v9h34v-21h17v42h-4v22h-4v21h-21v-4h-5v-5h-4v-8h-5v-9h-3v-8h-5v-5h-4v-8h-5v-9h-4v-8h-4v-9h-4v-4h-5v-8h17v3h5v9zM333 498h4v4h4v30h-4v5h-9v4h-38v-4h-5v-30h-4v-13h-4v-21h-5v-17h18v12h4v17h21v5h13v4h5v4zM687 507h-25v21h34v13h-47v-4h-4 v-30h-4v-13h-5v-26h-4v-12h52v12h-31v26h31v4h3v9zM593 524h9v4h17v-4h5v-4h8v12h-4v5h-9v4h-21v-4h-13v-5h-4v-4h-5v-4h-4v-4h-4v-13h-5v-39h5v-4h4v-5h9v-3h30v3h4v5h4v13h-4v-4h-9v-5h-17v5h-4v4h-4v25h4v9h4v9h4v4zM405 507h-26v21h35v13h-47v-4h-5v-30h-4v-13h-4v-26 h-4v-12h51v12h-30v26h30v4h4v9zM144 537h-4v-9h21v-26h-4v-29h-4v-17h13v3h4v14h4v21h4v21h5v13h25v13h-64v-4zM444 528h30v4h4v9h-47v-4h-4v-30h-5v-22h-4v-12h-4v-17h17v17h4v17h30v4h4v8h-30v13h5v13zM272 528h5v9h4v4h-21v-9h-5v-4h-4v-8h-4v-5h-4v-8h-5v13h-4v8h-4v13 h-18v-13h5v-13h4v-13h5v-25h-5v-21h17v8h5v26h4v4h4v4h4v9h5v4h4v9h4v4h4v4zM264 605h4v4h4v22h-8v4h-9v4h-38v-4h-5v-17h-4v-34h-4v-22h-4v-8h17v13h4v21h13v-4h4v-4h5v-22h4v-4h17v13h-4v17h-5v4h-4v4h4v5h9v8zM396 605h-25v21h34v13h-47v-4h-4v-30h-4v-13h-5v-25h-4v-13 h52v13h-31v25h31v5h3v8zM333 605h-26v21h34v13h-47v-4h-4v-30h-5v-13h-4v-25h-4v-13h51v13h-30v25h30v5h5v8zM166 626h29v5h5v8h-47v-4h-5v-30h-4v-21h-4v-13h-4v-17h17v17h4v17h30v4h4v9h-30v13h5v12zM24 447h-4v77h4v26h5v17h4v17h4v13h5v12h4v9h4v13h4v8h5v9h4v9h4v8h4v4 h5v9h4v9h4v4h4v8h5v5h4v4h4v8h4v5h5v4h4v4h5v4h4v9h4v5h4v3h5v5h4v4h4v5h4v4h9v4h4v4h5v5h4v8h4v4h4v5h5v4h4v4h4v5h4v4h5v4h4v4h4v5h4v4h5v4h4v4h5v5h4v4h4v5h4v4h5v4h4v4h4v5h4v4h5v4h4v4h4v5h4v4h5v4h4v4h4v5h5v4h4v4h4v4h5v5h4v4h4v4h4v5h5v4h4v4h4v5h5v4h4v4h4v4h4v5h5 v4h4v4h4v5h4v4h5v4h4v4h4v5h4v4h5v4h4v4h5v5h3v4h5v5h4v3h9v-3h4v-5h4v-4h5v-5h4v-4h4v-4h4v-4h5v-5h4v-4h4v-4h5v-4h4v-5h4v-4h4v-4h5v-5h4v-4h4v-4h4v-4h5v-5h4v-4h5v-4h3v-5h5v-4h4v-4h5v-5h4v-4h4v-4h4v-4h5v-5h4v-4h4v-4h4v-4h5v-5h4v-4h4v-4h4v-4h5v-5h4v-4h4v-4h5v-4 h4v-5h4v-4h4v-5h5v-4h4v-4h4v-4h5v-5h4v-4h4v-4h5v-4h4v-5h4v-4h4v-4h5v-5h4v-4h4v-4h4v-4h5v-5h4v-4h5v-4h3v-4h5v-5h4v-4h5v-5h3v-8h5v-4h4v-5h5v-4h4v-4h4v-4h4v-9h5v-4h4v-4h4v-9h4v-4h5v-9h4v-4h4v-9h5v-8h4v-4h4v-9h5v-9h4v-8h4v-9h4v-8h5v-13h4v-13h4v-13h5v-13h4 v-21h4v-30h4v-60h-4v-17h-4v-30h-4v-21h-5v-9h-4v-17h-4v-13h-5v-12h-4v-9h-4v-13h-4v-9h-5v-9h-4v-8h-4v-4h-5v-9h-4v-8h-4v-5h-5v-8h-4v-4h-4v-9h-4v-4h-5v-4h-4v-5h-4v-8h-4v-5h-5v-4h-4v-4h-5v-4h-3v-5h-5v-4h-4v-4h-5v-4h-3v-5h-5v-4h-4v-5h-9v-4h-4v-4h-4v-4h-5v-5h-8 v-4h-4v-4h-9v-4h-9v-5h-8v-4h-5v-4h-8v-4h-9v-5h-13v-4h-8v-4h-13v-5h-8v-4h-22v-4h-9v-5h-29v-4h-30v-4h-65v4h-42v4h-26v5h-17v4h-9v4h-17v5h-8v4h-13v4h-9v5h-8v4h-9v4h-9v4h-4v5h-8v4h-5v4h-8v4h-4v5h-9v4h-4v4h-4v4h-9v5h-4v4h-5v5h-4v4h-4v4h-4v4h-5v5h-4v4h-4v4h-4v9 h-5v4h-4v4h-5v5h-4v8h-4v4h-4v5h-5v8h-4v9h-4v4h-4v8h-5v9h-4v8h-4v9h-4v9h-5v8h-4v14h-4v8h-4v13h-5v17h-4v13h-4v25h-5v39zM298 520h5v8h17v-4h4v-17h-4v-5h-5v-4h-17v22zM226 609h4v17h21v-21h-8v-4h-17v8zM521 511h4v-21h-22v4h5v8h4v9h5v4h4v-4zM431 318h4v5h9v-17h-5 v-5h-8v17z" />
<glyph unicode="&#xc2;" horiz-adv-x="710" d="M533 1187h4v9h4v30h-4v4h-17v-4h-4v-5h-5v-3h-4v-9h-4v-22h4v-4h4v-5h17v5h5v4zM404 1178h30v18h5v22h-9v-5h-4v5h-13v-5h-4v-4h-5v-9h-4v-17h4v-5zM618 1192h5v12h4v17h-4v9h-22v-4h-4v-5h-4v-8h-5v-30h5v-5h17v5h8v9zM310 1187h-8v17h4v14h-13v-22h-4v-13h4v-5h13v5h9 v-5h8v18h4v22h-8v-9h-4v-17h-5v-5zM378 1218h-3v-9h3v-13h-3v-13h3v-5h14v9h-5v22h13v9h-8v8h-14v-8zM272 1204h4v5h13v9h-26v-18h-4v-22h8v9h5v17zM558 1226v-5h-4v-3h9v-14h-5v-17h-13v-9h35v9h-9v22h4v21h-8v-4h-9zM148 1204h-5v22h-4v4h-17v-17h-4v-21h-5v-14h13v26h4 v14h5v-35h4v-5h13v9h4v9h4v8h5v5h4v-13h-4v-18h8v14h4v8h5v30h-13v-4h-4v-5h-5v-8h-4v-9h-4v-4h-4v4zM468 1218h5v3h12v-3h5v-5h-5v-4h-3v-5h-5v-4h-4v-4h-5v-4h-4v-5h-4v-9h34v9h-17v5h5v4h3v4h5v4h4v5h5v17h-5v4h-17v-4h-9v-8zM353 1213v-4h-4v17h4v9h-13v-26h-4v-22h-4 v-9h8v5h4v9h5v-5h4v-9h8v14h-4v12h4v5h5v4h4v5h-13v-5h-4zM233 1209h4v-26h-4v-8h-8v-9h12v4h5v13h4v17h4v9h9v9h-9v3h4v5h9v9h-13v-5h-4v-4h-4v-8h-9v3h-4v5h-4v4h-31v-17h-4v-21h-4v-14h13v22h13v-22h13v18h-5v8h5v5h4v4h4v-4zM691 1307h-13v-13h5v-12h4v-5h-4v-8h-5v-5 h-4v-8h-5v-9h14v5h4v8h4v4h4v5h5v21h-5v9h-4v8zM717 1307h-13v-8h4v-13h4v-13h-4v-4h-4v-9h-4v-4h-5v-9h13v5h4v4h5v4h4v9h4v4h5v9h-5v12h-4v9h-4v4zM597 1286h4v17h5v-13h4v-13h4v-8h4v-13h5v-9h4v-4h17v4h5v22h3v13h5v21h4v25h-12v-4h-5v-21h-4v-21h-5v-13h-4v17h-4v8h-4 v13h-5v13h-4v8h-21v-4h-5v-30h-4v-21h-4v-13h-5v-17h13v4h5v17h4v22zM173 1294h4v9h5v4h-13v-4h-4v-4h-5v-5h-4v-8h-4v-4h-4v-9h4v-13h4v-8h4v-5h13v9h-4v8h-4v18h4v8h4v4zM148 1294h4v9h4v4h-17v-8h-4v-5h-5v-4h-4v-4h-4v-17h4v-13h4v-9h13v17h-4v9h-4v4h4v9h4v4h5v4z M434 1299v4h5v-9h-5v-21h-4v-30h13v4h4v22h4v17h5v25h4v17h-26v-4h-4v-4h-4v-9h-5v-8h-4v-4h-4v-9h-4v-8h-5v-5h-4v5h-4v8h-4v34h-5v4h-26v-4h-4v-30h-4v-17h-4v-13h-5v-21h17v26h5v13h4v21h5v-4h3v-22h5v-30h4v-4h13v4h4v9h5v4h4v9h4v8h4v9h5v4h4v9h4zM567 1294h4v22h4v12 h-17v-4h-4v-30h-4v-12h-5v-26h-4v-13h17v9h5v21h4v21zM216 1311h4v5h17v-5h13v13h-8v4h-22v-4h-12v-4h-5v-4h-4v-26h4v-4h5v-4h8v-5h9v-17h-5v-4h-21v4h-5v4h-4v-4h-4v-13h13v-4h21v4h13v5h4v4h5v4h4v22h-4v4h-5v4h-8v4h-9v5h-4v12zM490 1277h4v-8h5v-9h4v-8h4v-9h17v13h-4 v8h-4v9h-5v9h-4v8h4v4h5v5h4v4h4v4h4v4h5v5h4v4h4v8h-17v-4h-4v-4h-4v-4h-5v-5h-4v-8h-4v-4h-9v29h-12v-4h-5v-17h-4v-21h-5v-34h-4v-9h18v17h3v13h5v4zM280 1307h5v13h4v8h-17v-4h-5v-21h-4v-17h-4v-30h4v-4h4v-5h9v-4h26v4h13v5h4v4h4v4h4v9h5v21h4v21h4v17h-17v-8h-4v-21 h-4v-30h-5v-5h-4v-4h-4v-4h-17v4h-9v17h4v30zM473 1354h4v9h34v-21h17v42h-4v22h-4v21h-21v-4h-5v-5h-4v-8h-5v-9h-3v-8h-5v-5h-4v-8h-5v-9h-4v-8h-4v-9h-4v-4h-5v-8h17v3h5v9zM315 1384h4v4h4v30h-4v5h-9v4h-38v-4h-5v-30h-4v-13h-4v-21h-5v-17h18v12h4v17h21v5h13v4h5v4z M669 1393h-25v21h34v13h-47v-4h-4v-30h-4v-13h-5v-26h-4v-12h52v12h-31v26h31v4h3v9zM575 1410h9v4h17v-4h5v-4h8v12h-4v5h-9v4h-21v-4h-13v-5h-4v-4h-5v-4h-4v-4h-4v-13h-5v-39h5v-4h4v-5h9v-3h30v3h4v5h4v13h-4v-4h-9v-5h-17v5h-4v4h-4v25h4v9h4v9h4v4zM387 1393h-26v21 h35v13h-47v-4h-5v-30h-4v-13h-4v-26h-4v-12h51v12h-30v26h30v4h4v9zM126 1423h-4v-9h21v-26h-4v-29h-4v-17h13v3h4v14h4v21h4v21h5v13h25v13h-64v-4zM426 1414h30v4h4v9h-47v-4h-4v-30h-5v-22h-4v-12h-4v-17h17v17h4v17h30v4h4v8h-30v13h5v13zM254 1414h5v9h4v4h-21v-9h-5 v-4h-4v-8h-4v-5h-4v-8h-5v13h-4v8h-4v13h-18v-13h5v-13h4v-13h5v-25h-5v-21h17v8h5v26h4v4h4v4h4v9h5v4h4v9h4v4h4v4zM246 1491h4v4h4v22h-8v4h-9v4h-38v-4h-5v-17h-4v-34h-4v-22h-4v-8h17v13h4v21h13v-4h4v-4h5v-22h4v-4h17v13h-4v17h-5v4h-4v4h4v5h9v8zM378 1491h-25v21 h34v13h-47v-4h-4v-30h-4v-13h-5v-25h-4v-13h52v13h-31v25h31v5h3v8zM315 1491h-26v21h34v13h-47v-4h-4v-30h-5v-13h-4v-25h-4v-13h51v13h-30v25h30v5h5v8zM148 1512h29v5h5v8h-47v-4h-5v-30h-4v-21h-4v-13h-4v-17h17v17h4v17h30v4h4v9h-30v13h5v12zM6 1333h-4v77h4v26h5v17 h4v17h4v13h5v12h4v9h4v13h4v8h5v9h4v9h4v8h4v4h5v9h4v9h4v4h4v8h5v5h4v4h4v8h4v5h5v4h4v4h5v4h4v9h4v5h4v3h5v5h4v4h4v5h4v4h9v4h4v4h5v5h4v8h4v4h4v5h5v4h4v4h4v5h4v4h5v4h4v4h4v5h4v4h5v4h4v4h5v5h4v4h4v5h4v4h5v4h4v4h4v5h4v4h5v4h4v4h4v5h4v4h5v4h4v4h4v5h5v4h4v4h4v4h5 v5h4v4h4v4h4v5h5v4h4v4h4v5h5v4h4v4h4v4h4v5h5v4h4v4h4v5h4v4h5v4h4v4h4v5h4v4h5v4h4v4h5v5h3v4h5v5h4v3h9v-3h4v-5h4v-4h5v-5h4v-4h4v-4h4v-4h5v-5h4v-4h4v-4h5v-4h4v-5h4v-4h4v-4h5v-5h4v-4h4v-4h4v-4h5v-5h4v-4h5v-4h3v-5h5v-4h4v-4h5v-5h4v-4h4v-4h4v-4h5v-5h4v-4h4v-4 h4v-4h5v-5h4v-4h4v-4h4v-4h5v-5h4v-4h4v-4h5v-4h4v-5h4v-4h4v-5h5v-4h4v-4h4v-4h5v-5h4v-4h4v-4h5v-4h4v-5h4v-4h4v-4h5v-5h4v-4h4v-4h4v-4h5v-5h4v-4h5v-4h3v-4h5v-5h4v-4h5v-5h3v-8h5v-4h4v-5h5v-4h4v-4h4v-4h4v-9h5v-4h4v-4h4v-9h4v-4h5v-9h4v-4h4v-9h5v-8h4v-4h4v-9h5 v-9h4v-8h4v-9h4v-8h5v-13h4v-13h4v-13h5v-13h4v-21h4v-30h4v-60h-4v-17h-4v-30h-4v-21h-5v-9h-4v-17h-4v-13h-5v-12h-4v-9h-4v-13h-4v-9h-5v-9h-4v-8h-4v-4h-5v-9h-4v-8h-4v-5h-5v-8h-4v-4h-4v-9h-4v-4h-5v-4h-4v-5h-4v-8h-4v-5h-5v-4h-4v-4h-5v-4h-3v-5h-5v-4h-4v-4h-5v-4 h-3v-5h-5v-4h-4v-5h-9v-4h-4v-4h-4v-4h-5v-5h-8v-4h-4v-4h-9v-4h-9v-5h-8v-4h-5v-4h-8v-4h-9v-5h-13v-4h-8v-4h-13v-5h-8v-4h-22v-4h-9v-5h-29v-4h-30v-4h-65v4h-42v4h-26v5h-17v4h-9v4h-17v5h-8v4h-13v4h-9v5h-8v4h-9v4h-9v4h-4v5h-8v4h-5v4h-8v4h-4v5h-9v4h-4v4h-4v4h-9v5 h-4v4h-5v5h-4v4h-4v4h-4v4h-5v5h-4v4h-4v4h-4v9h-5v4h-4v4h-5v5h-4v8h-4v4h-4v5h-5v8h-4v9h-4v4h-4v8h-5v9h-4v8h-4v9h-4v9h-5v8h-4v14h-4v8h-4v13h-5v17h-4v13h-4v25h-5v39zM280 1406h5v8h17v-4h4v-17h-4v-5h-5v-4h-17v22zM208 1495h4v17h21v-21h-8v-4h-17v8zM503 1397h4 v-21h-22v4h5v8h4v9h5v4h4v-4zM413 1204h4v5h9v-17h-5v-5h-8v17zM356 908q42 0 59 -1q42 0 88 -67q49 -71 85 -178q90 -257 86 -558q-21 -17 -75 -49q-57 -33 -187 -35q-9 9 -23 118h-25h-25q-15 -104 -23 -118q-23 2 -58.5 7t-110.5 26.5t-107 51.5l3 125q5 128 37 269 q34 153 96 281q61 127 124 127q10 0 28 0.5t28 0.5zM354 284l20 4v43q0 64 -1 103q0 39 -2 117q-2 60 -6 88l-6 -69q-5 -75 -5 -286z" />
<glyph unicode="&#xc3;" horiz-adv-x="710" d="M533 1187h4v9h4v30h-4v4h-17v-4h-4v-5h-5v-3h-4v-9h-4v-22h4v-4h4v-5h17v5h5v4zM404 1178h30v18h5v22h-9v-5h-4v5h-13v-5h-4v-4h-5v-9h-4v-17h4v-5zM618 1192h5v12h4v17h-4v9h-22v-4h-4v-5h-4v-8h-5v-30h5v-5h17v5h8v9zM310 1187h-8v17h4v14h-13v-22h-4v-13h4v-5h13v5h9 v-5h8v18h4v22h-8v-9h-4v-17h-5v-5zM378 1218h-3v-9h3v-13h-3v-13h3v-5h14v9h-5v22h13v9h-8v8h-14v-8zM272 1204h4v5h13v9h-26v-18h-4v-22h8v9h5v17zM558 1226v-5h-4v-3h9v-14h-5v-17h-13v-9h35v9h-9v22h4v21h-8v-4h-9zM148 1204h-5v22h-4v4h-17v-17h-4v-21h-5v-14h13v26h4 v14h5v-35h4v-5h13v9h4v9h4v8h5v5h4v-13h-4v-18h8v14h4v8h5v30h-13v-4h-4v-5h-5v-8h-4v-9h-4v-4h-4v4zM468 1218h5v3h12v-3h5v-5h-5v-4h-3v-5h-5v-4h-4v-4h-5v-4h-4v-5h-4v-9h34v9h-17v5h5v4h3v4h5v4h4v5h5v17h-5v4h-17v-4h-9v-8zM353 1213v-4h-4v17h4v9h-13v-26h-4v-22h-4 v-9h8v5h4v9h5v-5h4v-9h8v14h-4v12h4v5h5v4h4v5h-13v-5h-4zM233 1209h4v-26h-4v-8h-8v-9h12v4h5v13h4v17h4v9h9v9h-9v3h4v5h9v9h-13v-5h-4v-4h-4v-8h-9v3h-4v5h-4v4h-31v-17h-4v-21h-4v-14h13v22h13v-22h13v18h-5v8h5v5h4v4h4v-4zM691 1307h-13v-13h5v-12h4v-5h-4v-8h-5v-5 h-4v-8h-5v-9h14v5h4v8h4v4h4v5h5v21h-5v9h-4v8zM717 1307h-13v-8h4v-13h4v-13h-4v-4h-4v-9h-4v-4h-5v-9h13v5h4v4h5v4h4v9h4v4h5v9h-5v12h-4v9h-4v4zM597 1286h4v17h5v-13h4v-13h4v-8h4v-13h5v-9h4v-4h17v4h5v22h3v13h5v21h4v25h-12v-4h-5v-21h-4v-21h-5v-13h-4v17h-4v8h-4 v13h-5v13h-4v8h-21v-4h-5v-30h-4v-21h-4v-13h-5v-17h13v4h5v17h4v22zM173 1294h4v9h5v4h-13v-4h-4v-4h-5v-5h-4v-8h-4v-4h-4v-9h4v-13h4v-8h4v-5h13v9h-4v8h-4v18h4v8h4v4zM148 1294h4v9h4v4h-17v-8h-4v-5h-5v-4h-4v-4h-4v-17h4v-13h4v-9h13v17h-4v9h-4v4h4v9h4v4h5v4z M434 1299v4h5v-9h-5v-21h-4v-30h13v4h4v22h4v17h5v25h4v17h-26v-4h-4v-4h-4v-9h-5v-8h-4v-4h-4v-9h-4v-8h-5v-5h-4v5h-4v8h-4v34h-5v4h-26v-4h-4v-30h-4v-17h-4v-13h-5v-21h17v26h5v13h4v21h5v-4h3v-22h5v-30h4v-4h13v4h4v9h5v4h4v9h4v8h4v9h5v4h4v9h4zM567 1294h4v22h4v12 h-17v-4h-4v-30h-4v-12h-5v-26h-4v-13h17v9h5v21h4v21zM216 1311h4v5h17v-5h13v13h-8v4h-22v-4h-12v-4h-5v-4h-4v-26h4v-4h5v-4h8v-5h9v-17h-5v-4h-21v4h-5v4h-4v-4h-4v-13h13v-4h21v4h13v5h4v4h5v4h4v22h-4v4h-5v4h-8v4h-9v5h-4v12zM490 1277h4v-8h5v-9h4v-8h4v-9h17v13h-4 v8h-4v9h-5v9h-4v8h4v4h5v5h4v4h4v4h4v4h5v5h4v4h4v8h-17v-4h-4v-4h-4v-4h-5v-5h-4v-8h-4v-4h-9v29h-12v-4h-5v-17h-4v-21h-5v-34h-4v-9h18v17h3v13h5v4zM280 1307h5v13h4v8h-17v-4h-5v-21h-4v-17h-4v-30h4v-4h4v-5h9v-4h26v4h13v5h4v4h4v4h4v9h5v21h4v21h4v17h-17v-8h-4v-21 h-4v-30h-5v-5h-4v-4h-4v-4h-17v4h-9v17h4v30zM473 1354h4v9h34v-21h17v42h-4v22h-4v21h-21v-4h-5v-5h-4v-8h-5v-9h-3v-8h-5v-5h-4v-8h-5v-9h-4v-8h-4v-9h-4v-4h-5v-8h17v3h5v9zM315 1384h4v4h4v30h-4v5h-9v4h-38v-4h-5v-30h-4v-13h-4v-21h-5v-17h18v12h4v17h21v5h13v4h5v4z M669 1393h-25v21h34v13h-47v-4h-4v-30h-4v-13h-5v-26h-4v-12h52v12h-31v26h31v4h3v9zM575 1410h9v4h17v-4h5v-4h8v12h-4v5h-9v4h-21v-4h-13v-5h-4v-4h-5v-4h-4v-4h-4v-13h-5v-39h5v-4h4v-5h9v-3h30v3h4v5h4v13h-4v-4h-9v-5h-17v5h-4v4h-4v25h4v9h4v9h4v4zM387 1393h-26v21 h35v13h-47v-4h-5v-30h-4v-13h-4v-26h-4v-12h51v12h-30v26h30v4h4v9zM126 1423h-4v-9h21v-26h-4v-29h-4v-17h13v3h4v14h4v21h4v21h5v13h25v13h-64v-4zM426 1414h30v4h4v9h-47v-4h-4v-30h-5v-22h-4v-12h-4v-17h17v17h4v17h30v4h4v8h-30v13h5v13zM254 1414h5v9h4v4h-21v-9h-5 v-4h-4v-8h-4v-5h-4v-8h-5v13h-4v8h-4v13h-18v-13h5v-13h4v-13h5v-25h-5v-21h17v8h5v26h4v4h4v4h4v9h5v4h4v9h4v4h4v4zM246 1491h4v4h4v22h-8v4h-9v4h-38v-4h-5v-17h-4v-34h-4v-22h-4v-8h17v13h4v21h13v-4h4v-4h5v-22h4v-4h17v13h-4v17h-5v4h-4v4h4v5h9v8zM378 1491h-25v21 h34v13h-47v-4h-4v-30h-4v-13h-5v-25h-4v-13h52v13h-31v25h31v5h3v8zM315 1491h-26v21h34v13h-47v-4h-4v-30h-5v-13h-4v-25h-4v-13h51v13h-30v25h30v5h5v8zM148 1512h29v5h5v8h-47v-4h-5v-30h-4v-21h-4v-13h-4v-17h17v17h4v17h30v4h4v9h-30v13h5v12zM6 1333h-4v77h4v26h5v17 h4v17h4v13h5v12h4v9h4v13h4v8h5v9h4v9h4v8h4v4h5v9h4v9h4v4h4v8h5v5h4v4h4v8h4v5h5v4h4v4h5v4h4v9h4v5h4v3h5v5h4v4h4v5h4v4h9v4h4v4h5v5h4v8h4v4h4v5h5v4h4v4h4v5h4v4h5v4h4v4h4v5h4v4h5v4h4v4h5v5h4v4h4v5h4v4h5v4h4v4h4v5h4v4h5v4h4v4h4v5h4v4h5v4h4v4h4v5h5v4h4v4h4v4h5 v5h4v4h4v4h4v5h5v4h4v4h4v5h5v4h4v4h4v4h4v5h5v4h4v4h4v5h4v4h5v4h4v4h4v5h4v4h5v4h4v4h5v5h3v4h5v5h4v3h9v-3h4v-5h4v-4h5v-5h4v-4h4v-4h4v-4h5v-5h4v-4h4v-4h5v-4h4v-5h4v-4h4v-4h5v-5h4v-4h4v-4h4v-4h5v-5h4v-4h5v-4h3v-5h5v-4h4v-4h5v-5h4v-4h4v-4h4v-4h5v-5h4v-4h4v-4 h4v-4h5v-5h4v-4h4v-4h4v-4h5v-5h4v-4h4v-4h5v-4h4v-5h4v-4h4v-5h5v-4h4v-4h4v-4h5v-5h4v-4h4v-4h5v-4h4v-5h4v-4h4v-4h5v-5h4v-4h4v-4h4v-4h5v-5h4v-4h5v-4h3v-4h5v-5h4v-4h5v-5h3v-8h5v-4h4v-5h5v-4h4v-4h4v-4h4v-9h5v-4h4v-4h4v-9h4v-4h5v-9h4v-4h4v-9h5v-8h4v-4h4v-9h5 v-9h4v-8h4v-9h4v-8h5v-13h4v-13h4v-13h5v-13h4v-21h4v-30h4v-60h-4v-17h-4v-30h-4v-21h-5v-9h-4v-17h-4v-13h-5v-12h-4v-9h-4v-13h-4v-9h-5v-9h-4v-8h-4v-4h-5v-9h-4v-8h-4v-5h-5v-8h-4v-4h-4v-9h-4v-4h-5v-4h-4v-5h-4v-8h-4v-5h-5v-4h-4v-4h-5v-4h-3v-5h-5v-4h-4v-4h-5v-4 h-3v-5h-5v-4h-4v-5h-9v-4h-4v-4h-4v-4h-5v-5h-8v-4h-4v-4h-9v-4h-9v-5h-8v-4h-5v-4h-8v-4h-9v-5h-13v-4h-8v-4h-13v-5h-8v-4h-22v-4h-9v-5h-29v-4h-30v-4h-65v4h-42v4h-26v5h-17v4h-9v4h-17v5h-8v4h-13v4h-9v5h-8v4h-9v4h-9v4h-4v5h-8v4h-5v4h-8v4h-4v5h-9v4h-4v4h-4v4h-9v5 h-4v4h-5v5h-4v4h-4v4h-4v4h-5v5h-4v4h-4v4h-4v9h-5v4h-4v4h-5v5h-4v8h-4v4h-4v5h-5v8h-4v9h-4v4h-4v8h-5v9h-4v8h-4v9h-4v9h-5v8h-4v14h-4v8h-4v13h-5v17h-4v13h-4v25h-5v39zM280 1406h5v8h17v-4h4v-17h-4v-5h-5v-4h-17v22zM208 1495h4v17h21v-21h-8v-4h-17v8zM503 1397h4 v-21h-22v4h5v8h4v9h5v4h4v-4zM413 1204h4v5h9v-17h-5v-5h-8v17zM356 908q42 0 59 -1q42 0 88 -67q49 -71 85 -178q90 -257 86 -558q-21 -17 -75 -49q-57 -33 -187 -35q-9 9 -23 118h-25h-25q-15 -104 -23 -118q-23 2 -58.5 7t-110.5 26.5t-107 51.5l3 125q5 128 37 269 q34 153 96 281q61 127 124 127q10 0 28 0.5t28 0.5zM354 284l20 4v43q0 64 -1 103q0 39 -2 117q-2 60 -6 88l-6 -69q-5 -75 -5 -286z" />
<glyph unicode="&#xc5;" horiz-adv-x="710" d="M528 1096h4v9h4v30h-4v4h-17v-4h-4v-5h-5v-3h-4v-9h-4v-22h4v-4h4v-5h17v5h5v4zM399 1087h30v18h5v22h-9v-5h-4v5h-13v-5h-4v-4h-5v-9h-4v-17h4v-5zM613 1101h5v12h4v17h-4v9h-22v-4h-4v-5h-4v-8h-5v-30h5v-5h17v5h8v9zM305 1096h-8v17h4v14h-13v-22h-4v-13h4v-5h13v5h9 v-5h8v18h4v22h-8v-9h-4v-17h-5v-5zM373 1127h-3v-9h3v-13h-3v-13h3v-5h14v9h-5v22h13v9h-8v8h-14v-8zM267 1113h4v5h13v9h-26v-18h-4v-22h8v9h5v17zM553 1135v-5h-4v-3h9v-14h-5v-17h-13v-9h35v9h-9v22h4v21h-8v-4h-9zM143 1113h-5v22h-4v4h-17v-17h-4v-21h-5v-14h13v26h4 v14h5v-35h4v-5h13v9h4v9h4v8h5v5h4v-13h-4v-18h8v14h4v8h5v30h-13v-4h-4v-5h-5v-8h-4v-9h-4v-4h-4v4zM463 1127h5v3h12v-3h5v-5h-5v-4h-3v-5h-5v-4h-4v-4h-5v-4h-4v-5h-4v-9h34v9h-17v5h5v4h3v4h5v4h4v5h5v17h-5v4h-17v-4h-9v-8zM348 1122v-4h-4v17h4v9h-13v-26h-4v-22h-4 v-9h8v5h4v9h5v-5h4v-9h8v14h-4v12h4v5h5v4h4v5h-13v-5h-4zM228 1118h4v-26h-4v-8h-8v-9h12v4h5v13h4v17h4v9h9v9h-9v3h4v5h9v9h-13v-5h-4v-4h-4v-8h-9v3h-4v5h-4v4h-31v-17h-4v-21h-4v-14h13v22h13v-22h13v18h-5v8h5v5h4v4h4v-4zM686 1216h-13v-13h5v-12h4v-5h-4v-8h-5v-5 h-4v-8h-5v-9h14v5h4v8h4v4h4v5h5v21h-5v9h-4v8zM712 1216h-13v-8h4v-13h4v-13h-4v-4h-4v-9h-4v-4h-5v-9h13v5h4v4h5v4h4v9h4v4h5v9h-5v12h-4v9h-4v4zM592 1195h4v17h5v-13h4v-13h4v-8h4v-13h5v-9h4v-4h17v4h5v22h3v13h5v21h4v25h-12v-4h-5v-21h-4v-21h-5v-13h-4v17h-4v8h-4 v13h-5v13h-4v8h-21v-4h-5v-30h-4v-21h-4v-13h-5v-17h13v4h5v17h4v22zM168 1203h4v9h5v4h-13v-4h-4v-4h-5v-5h-4v-8h-4v-4h-4v-9h4v-13h4v-8h4v-5h13v9h-4v8h-4v18h4v8h4v4zM143 1203h4v9h4v4h-17v-8h-4v-5h-5v-4h-4v-4h-4v-17h4v-13h4v-9h13v17h-4v9h-4v4h4v9h4v4h5v4z M429 1208v4h5v-9h-5v-21h-4v-30h13v4h4v22h4v17h5v25h4v17h-26v-4h-4v-4h-4v-9h-5v-8h-4v-4h-4v-9h-4v-8h-5v-5h-4v5h-4v8h-4v34h-5v4h-26v-4h-4v-30h-4v-17h-4v-13h-5v-21h17v26h5v13h4v21h5v-4h3v-22h5v-30h4v-4h13v4h4v9h5v4h4v9h4v8h4v9h5v4h4v9h4zM562 1203h4v22h4v12 h-17v-4h-4v-30h-4v-12h-5v-26h-4v-13h17v9h5v21h4v21zM211 1220h4v5h17v-5h13v13h-8v4h-22v-4h-12v-4h-5v-4h-4v-26h4v-4h5v-4h8v-5h9v-17h-5v-4h-21v4h-5v4h-4v-4h-4v-13h13v-4h21v4h13v5h4v4h5v4h4v22h-4v4h-5v4h-8v4h-9v5h-4v12zM485 1186h4v-8h5v-9h4v-8h4v-9h17v13h-4 v8h-4v9h-5v9h-4v8h4v4h5v5h4v4h4v4h4v4h5v5h4v4h4v8h-17v-4h-4v-4h-4v-4h-5v-5h-4v-8h-4v-4h-9v29h-12v-4h-5v-17h-4v-21h-5v-34h-4v-9h18v17h3v13h5v4zM275 1216h5v13h4v8h-17v-4h-5v-21h-4v-17h-4v-30h4v-4h4v-5h9v-4h26v4h13v5h4v4h4v4h4v9h5v21h4v21h4v17h-17v-8h-4v-21 h-4v-30h-5v-5h-4v-4h-4v-4h-17v4h-9v17h4v30zM468 1263h4v9h34v-21h17v42h-4v22h-4v21h-21v-4h-5v-5h-4v-8h-5v-9h-3v-8h-5v-5h-4v-8h-5v-9h-4v-8h-4v-9h-4v-4h-5v-8h17v3h5v9zM310 1293h4v4h4v30h-4v5h-9v4h-38v-4h-5v-30h-4v-13h-4v-21h-5v-17h18v12h4v17h21v5h13v4h5v4z M664 1302h-25v21h34v13h-47v-4h-4v-30h-4v-13h-5v-26h-4v-12h52v12h-31v26h31v4h3v9zM570 1319h9v4h17v-4h5v-4h8v12h-4v5h-9v4h-21v-4h-13v-5h-4v-4h-5v-4h-4v-4h-4v-13h-5v-39h5v-4h4v-5h9v-3h30v3h4v5h4v13h-4v-4h-9v-5h-17v5h-4v4h-4v25h4v9h4v9h4v4zM382 1302h-26v21 h35v13h-47v-4h-5v-30h-4v-13h-4v-26h-4v-12h51v12h-30v26h30v4h4v9zM121 1332h-4v-9h21v-26h-4v-29h-4v-17h13v3h4v14h4v21h4v21h5v13h25v13h-64v-4zM421 1323h30v4h4v9h-47v-4h-4v-30h-5v-22h-4v-12h-4v-17h17v17h4v17h30v4h4v8h-30v13h5v13zM249 1323h5v9h4v4h-21v-9h-5 v-4h-4v-8h-4v-5h-4v-8h-5v13h-4v8h-4v13h-18v-13h5v-13h4v-13h5v-25h-5v-21h17v8h5v26h4v4h4v4h4v9h5v4h4v9h4v4h4v4zM241 1400h4v4h4v22h-8v4h-9v4h-38v-4h-5v-17h-4v-34h-4v-22h-4v-8h17v13h4v21h13v-4h4v-4h5v-22h4v-4h17v13h-4v17h-5v4h-4v4h4v5h9v8zM373 1400h-25v21 h34v13h-47v-4h-4v-30h-4v-13h-5v-25h-4v-13h52v13h-31v25h31v5h3v8zM310 1400h-26v21h34v13h-47v-4h-4v-30h-5v-13h-4v-25h-4v-13h51v13h-30v25h30v5h5v8zM143 1421h29v5h5v8h-47v-4h-5v-30h-4v-21h-4v-13h-4v-17h17v17h4v17h30v4h4v9h-30v13h5v12zM1 1242h-4v77h4v26h5v17 h4v17h4v13h5v12h4v9h4v13h4v8h5v9h4v9h4v8h4v4h5v9h4v9h4v4h4v8h5v5h4v4h4v8h4v5h5v4h4v4h5v4h4v9h4v5h4v3h5v5h4v4h4v5h4v4h9v4h4v4h5v5h4v8h4v4h4v5h5v4h4v4h4v5h4v4h5v4h4v4h4v5h4v4h5v4h4v4h5v5h4v4h4v5h4v4h5v4h4v4h4v5h4v4h5v4h4v4h4v5h4v4h5v4h4v4h4v5h5v4h4v4h4v4h5 v5h4v4h4v4h4v5h5v4h4v4h4v5h5v4h4v4h4v4h4v5h5v4h4v4h4v5h4v4h5v4h4v4h4v5h4v4h5v4h4v4h5v5h3v4h5v5h4v3h9v-3h4v-5h4v-4h5v-5h4v-4h4v-4h4v-4h5v-5h4v-4h4v-4h5v-4h4v-5h4v-4h4v-4h5v-5h4v-4h4v-4h4v-4h5v-5h4v-4h5v-4h3v-5h5v-4h4v-4h5v-5h4v-4h4v-4h4v-4h5v-5h4v-4h4v-4 h4v-4h5v-5h4v-4h4v-4h4v-4h5v-5h4v-4h4v-4h5v-4h4v-5h4v-4h4v-5h5v-4h4v-4h4v-4h5v-5h4v-4h4v-4h5v-4h4v-5h4v-4h4v-4h5v-5h4v-4h4v-4h4v-4h5v-5h4v-4h5v-4h3v-4h5v-5h4v-4h5v-5h3v-8h5v-4h4v-5h5v-4h4v-4h4v-4h4v-9h5v-4h4v-4h4v-9h4v-4h5v-9h4v-4h4v-9h5v-8h4v-4h4v-9h5 v-9h4v-8h4v-9h4v-8h5v-13h4v-13h4v-13h5v-13h4v-21h4v-30h4v-60h-4v-17h-4v-30h-4v-21h-5v-9h-4v-17h-4v-13h-5v-12h-4v-9h-4v-13h-4v-9h-5v-9h-4v-8h-4v-4h-5v-9h-4v-8h-4v-5h-5v-8h-4v-4h-4v-9h-4v-4h-5v-4h-4v-5h-4v-8h-4v-5h-5v-4h-4v-4h-5v-4h-3v-5h-5v-4h-4v-4h-5v-4 h-3v-5h-5v-4h-4v-5h-9v-4h-4v-4h-4v-4h-5v-5h-8v-4h-4v-4h-9v-4h-9v-5h-8v-4h-5v-4h-8v-4h-9v-5h-13v-4h-8v-4h-13v-5h-8v-4h-22v-4h-9v-5h-29v-4h-30v-4h-65v4h-42v4h-26v5h-17v4h-9v4h-17v5h-8v4h-13v4h-9v5h-8v4h-9v4h-9v4h-4v5h-8v4h-5v4h-8v4h-4v5h-9v4h-4v4h-4v4h-9v5 h-4v4h-5v5h-4v4h-4v4h-4v4h-5v5h-4v4h-4v4h-4v9h-5v4h-4v4h-5v5h-4v8h-4v4h-4v5h-5v8h-4v9h-4v4h-4v8h-5v9h-4v8h-4v9h-4v9h-5v8h-4v14h-4v8h-4v13h-5v17h-4v13h-4v25h-5v39zM275 1315h5v8h17v-4h4v-17h-4v-5h-5v-4h-17v22zM203 1404h4v17h21v-21h-8v-4h-17v8zM498 1306h4 v-21h-22v4h5v8h4v9h5v4h4v-4zM408 1113h4v5h9v-17h-5v-5h-8v17zM356 908q42 0 59 -1q42 0 88 -67q49 -71 85 -178q90 -257 86 -558q-21 -17 -75 -49q-57 -33 -187 -35q-9 9 -23 118h-25h-25q-15 -104 -23 -118q-23 2 -58.5 7t-110.5 26.5t-107 51.5l3 125q5 128 37 269 q34 153 96 281q61 127 124 127q10 0 28 0.5t28 0.5zM354 284l20 4v43q0 64 -1 103q0 39 -2 117q-2 60 -6 88l-6 -69q-5 -75 -5 -286z" />
<glyph unicode="&#xca;" horiz-adv-x="693" d="M645 1188h4v9h4v30h-4v4h-17v-4h-4v-5h-5v-3h-4v-9h-4v-22h4v-4h4v-5h17v5h5v4zM516 1179h30v18h5v22h-9v-5h-4v5h-13v-5h-4v-4h-5v-9h-4v-17h4v-5zM730 1193h5v12h4v17h-4v9h-22v-4h-4v-5h-4v-8h-5v-30h5v-5h17v5h8v9zM422 1188h-8v17h4v14h-13v-22h-4v-13h4v-5h13v5h9 v-5h8v18h4v22h-8v-9h-4v-17h-5v-5zM490 1219h-3v-9h3v-13h-3v-13h3v-5h14v9h-5v22h13v9h-8v8h-14v-8zM384 1205h4v5h13v9h-26v-18h-4v-22h8v9h5v17zM670 1227v-5h-4v-3h9v-14h-5v-17h-13v-9h35v9h-9v22h4v21h-8v-4h-9zM260 1205h-5v22h-4v4h-17v-17h-4v-21h-5v-14h13v26h4 v14h5v-35h4v-5h13v9h4v9h4v8h5v5h4v-13h-4v-18h8v14h4v8h5v30h-13v-4h-4v-5h-5v-8h-4v-9h-4v-4h-4v4zM580 1219h5v3h12v-3h5v-5h-5v-4h-3v-5h-5v-4h-4v-4h-5v-4h-4v-5h-4v-9h34v9h-17v5h5v4h3v4h5v4h4v5h5v17h-5v4h-17v-4h-9v-8zM465 1214v-4h-4v17h4v9h-13v-26h-4v-22h-4 v-9h8v5h4v9h5v-5h4v-9h8v14h-4v12h4v5h5v4h4v5h-13v-5h-4zM345 1210h4v-26h-4v-8h-8v-9h12v4h5v13h4v17h4v9h9v9h-9v3h4v5h9v9h-13v-5h-4v-4h-4v-8h-9v3h-4v5h-4v4h-31v-17h-4v-21h-4v-14h13v22h13v-22h13v18h-5v8h5v5h4v4h4v-4zM803 1308h-13v-13h5v-12h4v-5h-4v-8h-5v-5 h-4v-8h-5v-9h14v5h4v8h4v4h4v5h5v21h-5v9h-4v8zM829 1308h-13v-8h4v-13h4v-13h-4v-4h-4v-9h-4v-4h-5v-9h13v5h4v4h5v4h4v9h4v4h5v9h-5v12h-4v9h-4v4zM709 1287h4v17h5v-13h4v-13h4v-8h4v-13h5v-9h4v-4h17v4h5v22h3v13h5v21h4v25h-12v-4h-5v-21h-4v-21h-5v-13h-4v17h-4v8h-4 v13h-5v13h-4v8h-21v-4h-5v-30h-4v-21h-4v-13h-5v-17h13v4h5v17h4v22zM285 1295h4v9h5v4h-13v-4h-4v-4h-5v-5h-4v-8h-4v-4h-4v-9h4v-13h4v-8h4v-5h13v9h-4v8h-4v18h4v8h4v4zM260 1295h4v9h4v4h-17v-8h-4v-5h-5v-4h-4v-4h-4v-17h4v-13h4v-9h13v17h-4v9h-4v4h4v9h4v4h5v4z M546 1300v4h5v-9h-5v-21h-4v-30h13v4h4v22h4v17h5v25h4v17h-26v-4h-4v-4h-4v-9h-5v-8h-4v-4h-4v-9h-4v-8h-5v-5h-4v5h-4v8h-4v34h-5v4h-26v-4h-4v-30h-4v-17h-4v-13h-5v-21h17v26h5v13h4v21h5v-4h3v-22h5v-30h4v-4h13v4h4v9h5v4h4v9h4v8h4v9h5v4h4v9h4zM679 1295h4v22h4v12 h-17v-4h-4v-30h-4v-12h-5v-26h-4v-13h17v9h5v21h4v21zM328 1312h4v5h17v-5h13v13h-8v4h-22v-4h-12v-4h-5v-4h-4v-26h4v-4h5v-4h8v-5h9v-17h-5v-4h-21v4h-5v4h-4v-4h-4v-13h13v-4h21v4h13v5h4v4h5v4h4v22h-4v4h-5v4h-8v4h-9v5h-4v12zM602 1278h4v-8h5v-9h4v-8h4v-9h17v13h-4 v8h-4v9h-5v9h-4v8h4v4h5v5h4v4h4v4h4v4h5v5h4v4h4v8h-17v-4h-4v-4h-4v-4h-5v-5h-4v-8h-4v-4h-9v29h-12v-4h-5v-17h-4v-21h-5v-34h-4v-9h18v17h3v13h5v4zM392 1308h5v13h4v8h-17v-4h-5v-21h-4v-17h-4v-30h4v-4h4v-5h9v-4h26v4h13v5h4v4h4v4h4v9h5v21h4v21h4v17h-17v-8h-4v-21 h-4v-30h-5v-5h-4v-4h-4v-4h-17v4h-9v17h4v30zM585 1355h4v9h34v-21h17v42h-4v22h-4v21h-21v-4h-5v-5h-4v-8h-5v-9h-3v-8h-5v-5h-4v-8h-5v-9h-4v-8h-4v-9h-4v-4h-5v-8h17v3h5v9zM427 1385h4v4h4v30h-4v5h-9v4h-38v-4h-5v-30h-4v-13h-4v-21h-5v-17h18v12h4v17h21v5h13v4h5v4z M781 1394h-25v21h34v13h-47v-4h-4v-30h-4v-13h-5v-26h-4v-12h52v12h-31v26h31v4h3v9zM687 1411h9v4h17v-4h5v-4h8v12h-4v5h-9v4h-21v-4h-13v-5h-4v-4h-5v-4h-4v-4h-4v-13h-5v-39h5v-4h4v-5h9v-3h30v3h4v5h4v13h-4v-4h-9v-5h-17v5h-4v4h-4v25h4v9h4v9h4v4zM499 1394h-26v21 h35v13h-47v-4h-5v-30h-4v-13h-4v-26h-4v-12h51v12h-30v26h30v4h4v9zM238 1424h-4v-9h21v-26h-4v-29h-4v-17h13v3h4v14h4v21h4v21h5v13h25v13h-64v-4zM538 1415h30v4h4v9h-47v-4h-4v-30h-5v-22h-4v-12h-4v-17h17v17h4v17h30v4h4v8h-30v13h5v13zM366 1415h5v9h4v4h-21v-9h-5 v-4h-4v-8h-4v-5h-4v-8h-5v13h-4v8h-4v13h-18v-13h5v-13h4v-13h5v-25h-5v-21h17v8h5v26h4v4h4v4h4v9h5v4h4v9h4v4h4v4zM358 1492h4v4h4v22h-8v4h-9v4h-38v-4h-5v-17h-4v-34h-4v-22h-4v-8h17v13h4v21h13v-4h4v-4h5v-22h4v-4h17v13h-4v17h-5v4h-4v4h4v5h9v8zM490 1492h-25v21 h34v13h-47v-4h-4v-30h-4v-13h-5v-25h-4v-13h52v13h-31v25h31v5h3v8zM427 1492h-26v21h34v13h-47v-4h-4v-30h-5v-13h-4v-25h-4v-13h51v13h-30v25h30v5h5v8zM260 1513h29v5h5v8h-47v-4h-5v-30h-4v-21h-4v-13h-4v-17h17v17h4v17h30v4h4v9h-30v13h5v12zM118 1334h-4v77h4v26h5 v17h4v17h4v13h5v12h4v9h4v13h4v8h5v9h4v9h4v8h4v4h5v9h4v9h4v4h4v8h5v5h4v4h4v8h4v5h5v4h4v4h5v4h4v9h4v5h4v3h5v5h4v4h4v5h4v4h9v4h4v4h5v5h4v8h4v4h4v5h5v4h4v4h4v5h4v4h5v4h4v4h4v5h4v4h5v4h4v4h5v5h4v4h4v5h4v4h5v4h4v4h4v5h4v4h5v4h4v4h4v5h4v4h5v4h4v4h4v5h5v4h4v4h4 v4h5v5h4v4h4v4h4v5h5v4h4v4h4v5h5v4h4v4h4v4h4v5h5v4h4v4h4v5h4v4h5v4h4v4h4v5h4v4h5v4h4v4h5v5h3v4h5v5h4v3h9v-3h4v-5h4v-4h5v-5h4v-4h4v-4h4v-4h5v-5h4v-4h4v-4h5v-4h4v-5h4v-4h4v-4h5v-5h4v-4h4v-4h4v-4h5v-5h4v-4h5v-4h3v-5h5v-4h4v-4h5v-5h4v-4h4v-4h4v-4h5v-5h4v-4h4 v-4h4v-4h5v-5h4v-4h4v-4h4v-4h5v-5h4v-4h4v-4h5v-4h4v-5h4v-4h4v-5h5v-4h4v-4h4v-4h5v-5h4v-4h4v-4h5v-4h4v-5h4v-4h4v-4h5v-5h4v-4h4v-4h4v-4h5v-5h4v-4h5v-4h3v-4h5v-5h4v-4h5v-5h3v-8h5v-4h4v-5h5v-4h4v-4h4v-4h4v-9h5v-4h4v-4h4v-9h4v-4h5v-9h4v-4h4v-9h5v-8h4v-4h4v-9 h5v-9h4v-8h4v-9h4v-8h5v-13h4v-13h4v-13h5v-13h4v-21h4v-30h4v-60h-4v-17h-4v-30h-4v-21h-5v-9h-4v-17h-4v-13h-5v-12h-4v-9h-4v-13h-4v-9h-5v-9h-4v-8h-4v-4h-5v-9h-4v-8h-4v-5h-5v-8h-4v-4h-4v-9h-4v-4h-5v-4h-4v-5h-4v-8h-4v-5h-5v-4h-4v-4h-5v-4h-3v-5h-5v-4h-4v-4h-5 v-4h-3v-5h-5v-4h-4v-5h-9v-4h-4v-4h-4v-4h-5v-5h-8v-4h-4v-4h-9v-4h-9v-5h-8v-4h-5v-4h-8v-4h-9v-5h-13v-4h-8v-4h-13v-5h-8v-4h-22v-4h-9v-5h-29v-4h-30v-4h-65v4h-42v4h-26v5h-17v4h-9v4h-17v5h-8v4h-13v4h-9v5h-8v4h-9v4h-9v4h-4v5h-8v4h-5v4h-8v4h-4v5h-9v4h-4v4h-4v4 h-9v5h-4v4h-5v5h-4v4h-4v4h-4v4h-5v5h-4v4h-4v4h-4v9h-5v4h-4v4h-5v5h-4v8h-4v4h-4v5h-5v8h-4v9h-4v4h-4v8h-5v9h-4v8h-4v9h-4v9h-5v8h-4v14h-4v8h-4v13h-5v17h-4v13h-4v25h-5v39zM392 1407h5v8h17v-4h4v-17h-4v-5h-5v-4h-17v22zM320 1496h4v17h21v-21h-8v-4h-17v8z M615 1398h4v-21h-22v4h5v8h4v9h5v4h4v-4zM525 1205h4v5h9v-17h-5v-5h-8v17zM62 816q51 48 144 68q92 20 180 24t153 0l65 -4q-17 -124 -57 -203l-40 -80h-57q-44 0 -97.5 -12.5t-60.5 -12.5q1 0 4 -25l73 18q72 19 98 13q35 -10 68.5 -67.5t51 -110.5t15.5 -53 q-116 -38 -193 -48l-78 -9q3 -23 4 -23l118 21l75 14q35 -6 76 -98q42 -94 56 -147l-119 -30q-121 -29 -246 -32q-94 -3 -155 26q-58 29 -81 54l-13 113q-13 111 -4 220q1 11 8 75t11 111t6.5 113.5t-5.5 84.5z" />
<glyph unicode="&#xce;" horiz-adv-x="394" d="M517 1187h4v9h4v30h-4v4h-17v-4h-4v-5h-5v-3h-4v-9h-4v-22h4v-4h4v-5h17v5h5v4zM388 1178h30v18h5v22h-9v-5h-4v5h-13v-5h-4v-4h-5v-9h-4v-17h4v-5zM602 1192h5v12h4v17h-4v9h-22v-4h-4v-5h-4v-8h-5v-30h5v-5h17v5h8v9zM294 1187h-8v17h4v14h-13v-22h-4v-13h4v-5h13v5h9 v-5h8v18h4v22h-8v-9h-4v-17h-5v-5zM362 1218h-3v-9h3v-13h-3v-13h3v-5h14v9h-5v22h13v9h-8v8h-14v-8zM256 1204h4v5h13v9h-26v-18h-4v-22h8v9h5v17zM542 1226v-5h-4v-3h9v-14h-5v-17h-13v-9h35v9h-9v22h4v21h-8v-4h-9zM132 1204h-5v22h-4v4h-17v-17h-4v-21h-5v-14h13v26h4 v14h5v-35h4v-5h13v9h4v9h4v8h5v5h4v-13h-4v-18h8v14h4v8h5v30h-13v-4h-4v-5h-5v-8h-4v-9h-4v-4h-4v4zM452 1218h5v3h12v-3h5v-5h-5v-4h-3v-5h-5v-4h-4v-4h-5v-4h-4v-5h-4v-9h34v9h-17v5h5v4h3v4h5v4h4v5h5v17h-5v4h-17v-4h-9v-8zM337 1213v-4h-4v17h4v9h-13v-26h-4v-22h-4 v-9h8v5h4v9h5v-5h4v-9h8v14h-4v12h4v5h5v4h4v5h-13v-5h-4zM217 1209h4v-26h-4v-8h-8v-9h12v4h5v13h4v17h4v9h9v9h-9v3h4v5h9v9h-13v-5h-4v-4h-4v-8h-9v3h-4v5h-4v4h-31v-17h-4v-21h-4v-14h13v22h13v-22h13v18h-5v8h5v5h4v4h4v-4zM675 1307h-13v-13h5v-12h4v-5h-4v-8h-5v-5 h-4v-8h-5v-9h14v5h4v8h4v4h4v5h5v21h-5v9h-4v8zM701 1307h-13v-8h4v-13h4v-13h-4v-4h-4v-9h-4v-4h-5v-9h13v5h4v4h5v4h4v9h4v4h5v9h-5v12h-4v9h-4v4zM581 1286h4v17h5v-13h4v-13h4v-8h4v-13h5v-9h4v-4h17v4h5v22h3v13h5v21h4v25h-12v-4h-5v-21h-4v-21h-5v-13h-4v17h-4v8h-4 v13h-5v13h-4v8h-21v-4h-5v-30h-4v-21h-4v-13h-5v-17h13v4h5v17h4v22zM157 1294h4v9h5v4h-13v-4h-4v-4h-5v-5h-4v-8h-4v-4h-4v-9h4v-13h4v-8h4v-5h13v9h-4v8h-4v18h4v8h4v4zM132 1294h4v9h4v4h-17v-8h-4v-5h-5v-4h-4v-4h-4v-17h4v-13h4v-9h13v17h-4v9h-4v4h4v9h4v4h5v4z M418 1299v4h5v-9h-5v-21h-4v-30h13v4h4v22h4v17h5v25h4v17h-26v-4h-4v-4h-4v-9h-5v-8h-4v-4h-4v-9h-4v-8h-5v-5h-4v5h-4v8h-4v34h-5v4h-26v-4h-4v-30h-4v-17h-4v-13h-5v-21h17v26h5v13h4v21h5v-4h3v-22h5v-30h4v-4h13v4h4v9h5v4h4v9h4v8h4v9h5v4h4v9h4zM551 1294h4v22h4v12 h-17v-4h-4v-30h-4v-12h-5v-26h-4v-13h17v9h5v21h4v21zM200 1311h4v5h17v-5h13v13h-8v4h-22v-4h-12v-4h-5v-4h-4v-26h4v-4h5v-4h8v-5h9v-17h-5v-4h-21v4h-5v4h-4v-4h-4v-13h13v-4h21v4h13v5h4v4h5v4h4v22h-4v4h-5v4h-8v4h-9v5h-4v12zM474 1277h4v-8h5v-9h4v-8h4v-9h17v13h-4 v8h-4v9h-5v9h-4v8h4v4h5v5h4v4h4v4h4v4h5v5h4v4h4v8h-17v-4h-4v-4h-4v-4h-5v-5h-4v-8h-4v-4h-9v29h-12v-4h-5v-17h-4v-21h-5v-34h-4v-9h18v17h3v13h5v4zM264 1307h5v13h4v8h-17v-4h-5v-21h-4v-17h-4v-30h4v-4h4v-5h9v-4h26v4h13v5h4v4h4v4h4v9h5v21h4v21h4v17h-17v-8h-4v-21 h-4v-30h-5v-5h-4v-4h-4v-4h-17v4h-9v17h4v30zM457 1354h4v9h34v-21h17v42h-4v22h-4v21h-21v-4h-5v-5h-4v-8h-5v-9h-3v-8h-5v-5h-4v-8h-5v-9h-4v-8h-4v-9h-4v-4h-5v-8h17v3h5v9zM299 1384h4v4h4v30h-4v5h-9v4h-38v-4h-5v-30h-4v-13h-4v-21h-5v-17h18v12h4v17h21v5h13v4h5v4z M653 1393h-25v21h34v13h-47v-4h-4v-30h-4v-13h-5v-26h-4v-12h52v12h-31v26h31v4h3v9zM559 1410h9v4h17v-4h5v-4h8v12h-4v5h-9v4h-21v-4h-13v-5h-4v-4h-5v-4h-4v-4h-4v-13h-5v-39h5v-4h4v-5h9v-3h30v3h4v5h4v13h-4v-4h-9v-5h-17v5h-4v4h-4v25h4v9h4v9h4v4zM371 1393h-26v21 h35v13h-47v-4h-5v-30h-4v-13h-4v-26h-4v-12h51v12h-30v26h30v4h4v9zM110 1423h-4v-9h21v-26h-4v-29h-4v-17h13v3h4v14h4v21h4v21h5v13h25v13h-64v-4zM410 1414h30v4h4v9h-47v-4h-4v-30h-5v-22h-4v-12h-4v-17h17v17h4v17h30v4h4v8h-30v13h5v13zM238 1414h5v9h4v4h-21v-9h-5 v-4h-4v-8h-4v-5h-4v-8h-5v13h-4v8h-4v13h-18v-13h5v-13h4v-13h5v-25h-5v-21h17v8h5v26h4v4h4v4h4v9h5v4h4v9h4v4h4v4zM230 1491h4v4h4v22h-8v4h-9v4h-38v-4h-5v-17h-4v-34h-4v-22h-4v-8h17v13h4v21h13v-4h4v-4h5v-22h4v-4h17v13h-4v17h-5v4h-4v4h4v5h9v8zM362 1491h-25v21 h34v13h-47v-4h-4v-30h-4v-13h-5v-25h-4v-13h52v13h-31v25h31v5h3v8zM299 1491h-26v21h34v13h-47v-4h-4v-30h-5v-13h-4v-25h-4v-13h51v13h-30v25h30v5h5v8zM132 1512h29v5h5v8h-47v-4h-5v-30h-4v-21h-4v-13h-4v-17h17v17h4v17h30v4h4v9h-30v13h5v12zM-10 1333h-4v77h4v26h5 v17h4v17h4v13h5v12h4v9h4v13h4v8h5v9h4v9h4v8h4v4h5v9h4v9h4v4h4v8h5v5h4v4h4v8h4v5h5v4h4v4h5v4h4v9h4v5h4v3h5v5h4v4h4v5h4v4h9v4h4v4h5v5h4v8h4v4h4v5h5v4h4v4h4v5h4v4h5v4h4v4h4v5h4v4h5v4h4v4h5v5h4v4h4v5h4v4h5v4h4v4h4v5h4v4h5v4h4v4h4v5h4v4h5v4h4v4h4v5h5v4h4v4h4 v4h5v5h4v4h4v4h4v5h5v4h4v4h4v5h5v4h4v4h4v4h4v5h5v4h4v4h4v5h4v4h5v4h4v4h4v5h4v4h5v4h4v4h5v5h3v4h5v5h4v3h9v-3h4v-5h4v-4h5v-5h4v-4h4v-4h4v-4h5v-5h4v-4h4v-4h5v-4h4v-5h4v-4h4v-4h5v-5h4v-4h4v-4h4v-4h5v-5h4v-4h5v-4h3v-5h5v-4h4v-4h5v-5h4v-4h4v-4h4v-4h5v-5h4v-4h4 v-4h4v-4h5v-5h4v-4h4v-4h4v-4h5v-5h4v-4h4v-4h5v-4h4v-5h4v-4h4v-5h5v-4h4v-4h4v-4h5v-5h4v-4h4v-4h5v-4h4v-5h4v-4h4v-4h5v-5h4v-4h4v-4h4v-4h5v-5h4v-4h5v-4h3v-4h5v-5h4v-4h5v-5h3v-8h5v-4h4v-5h5v-4h4v-4h4v-4h4v-9h5v-4h4v-4h4v-9h4v-4h5v-9h4v-4h4v-9h5v-8h4v-4h4v-9 h5v-9h4v-8h4v-9h4v-8h5v-13h4v-13h4v-13h5v-13h4v-21h4v-30h4v-60h-4v-17h-4v-30h-4v-21h-5v-9h-4v-17h-4v-13h-5v-12h-4v-9h-4v-13h-4v-9h-5v-9h-4v-8h-4v-4h-5v-9h-4v-8h-4v-5h-5v-8h-4v-4h-4v-9h-4v-4h-5v-4h-4v-5h-4v-8h-4v-5h-5v-4h-4v-4h-5v-4h-3v-5h-5v-4h-4v-4h-5 v-4h-3v-5h-5v-4h-4v-5h-9v-4h-4v-4h-4v-4h-5v-5h-8v-4h-4v-4h-9v-4h-9v-5h-8v-4h-5v-4h-8v-4h-9v-5h-13v-4h-8v-4h-13v-5h-8v-4h-22v-4h-9v-5h-29v-4h-30v-4h-65v4h-42v4h-26v5h-17v4h-9v4h-17v5h-8v4h-13v4h-9v5h-8v4h-9v4h-9v4h-4v5h-8v4h-5v4h-8v4h-4v5h-9v4h-4v4h-4v4 h-9v5h-4v4h-5v5h-4v4h-4v4h-4v4h-5v5h-4v4h-4v4h-4v9h-5v4h-4v4h-5v5h-4v8h-4v4h-4v5h-5v8h-4v9h-4v4h-4v8h-5v9h-4v8h-4v9h-4v9h-5v8h-4v14h-4v8h-4v13h-5v17h-4v13h-4v25h-5v39zM264 1406h5v8h17v-4h4v-17h-4v-5h-5v-4h-17v22zM192 1495h4v17h21v-21h-8v-4h-17v8z M487 1397h4v-21h-22v4h5v8h4v9h5v4h4v-4zM397 1204h4v5h9v-17h-5v-5h-8v17zM44 429q31 232 25 312l-5 79q95 79 261 85h29q17 -42 19 -146q2 -116 -5 -230q-9 -152 -20 -264l-22 -245q-36 0 -121 11q-80 10 -144 71q-3 16 -8.5 67t-10.5 129t2 131z" />
<glyph unicode="&#xd1;" horiz-adv-x="737" d="M594 1187h4v9h4v30h-4v4h-17v-4h-4v-5h-5v-3h-4v-9h-4v-22h4v-4h4v-5h17v5h5v4zM465 1178h30v18h5v22h-9v-5h-4v5h-13v-5h-4v-4h-5v-9h-4v-17h4v-5zM679 1192h5v12h4v17h-4v9h-22v-4h-4v-5h-4v-8h-5v-30h5v-5h17v5h8v9zM371 1187h-8v17h4v14h-13v-22h-4v-13h4v-5h13v5h9 v-5h8v18h4v22h-8v-9h-4v-17h-5v-5zM439 1218h-3v-9h3v-13h-3v-13h3v-5h14v9h-5v22h13v9h-8v8h-14v-8zM333 1204h4v5h13v9h-26v-18h-4v-22h8v9h5v17zM619 1226v-5h-4v-3h9v-14h-5v-17h-13v-9h35v9h-9v22h4v21h-8v-4h-9zM209 1204h-5v22h-4v4h-17v-17h-4v-21h-5v-14h13v26h4 v14h5v-35h4v-5h13v9h4v9h4v8h5v5h4v-13h-4v-18h8v14h4v8h5v30h-13v-4h-4v-5h-5v-8h-4v-9h-4v-4h-4v4zM529 1218h5v3h12v-3h5v-5h-5v-4h-3v-5h-5v-4h-4v-4h-5v-4h-4v-5h-4v-9h34v9h-17v5h5v4h3v4h5v4h4v5h5v17h-5v4h-17v-4h-9v-8zM414 1213v-4h-4v17h4v9h-13v-26h-4v-22h-4 v-9h8v5h4v9h5v-5h4v-9h8v14h-4v12h4v5h5v4h4v5h-13v-5h-4zM294 1209h4v-26h-4v-8h-8v-9h12v4h5v13h4v17h4v9h9v9h-9v3h4v5h9v9h-13v-5h-4v-4h-4v-8h-9v3h-4v5h-4v4h-31v-17h-4v-21h-4v-14h13v22h13v-22h13v18h-5v8h5v5h4v4h4v-4zM752 1307h-13v-13h5v-12h4v-5h-4v-8h-5v-5 h-4v-8h-5v-9h14v5h4v8h4v4h4v5h5v21h-5v9h-4v8zM778 1307h-13v-8h4v-13h4v-13h-4v-4h-4v-9h-4v-4h-5v-9h13v5h4v4h5v4h4v9h4v4h5v9h-5v12h-4v9h-4v4zM658 1286h4v17h5v-13h4v-13h4v-8h4v-13h5v-9h4v-4h17v4h5v22h3v13h5v21h4v25h-12v-4h-5v-21h-4v-21h-5v-13h-4v17h-4v8h-4 v13h-5v13h-4v8h-21v-4h-5v-30h-4v-21h-4v-13h-5v-17h13v4h5v17h4v22zM234 1294h4v9h5v4h-13v-4h-4v-4h-5v-5h-4v-8h-4v-4h-4v-9h4v-13h4v-8h4v-5h13v9h-4v8h-4v18h4v8h4v4zM209 1294h4v9h4v4h-17v-8h-4v-5h-5v-4h-4v-4h-4v-17h4v-13h4v-9h13v17h-4v9h-4v4h4v9h4v4h5v4z M495 1299v4h5v-9h-5v-21h-4v-30h13v4h4v22h4v17h5v25h4v17h-26v-4h-4v-4h-4v-9h-5v-8h-4v-4h-4v-9h-4v-8h-5v-5h-4v5h-4v8h-4v34h-5v4h-26v-4h-4v-30h-4v-17h-4v-13h-5v-21h17v26h5v13h4v21h5v-4h3v-22h5v-30h4v-4h13v4h4v9h5v4h4v9h4v8h4v9h5v4h4v9h4zM628 1294h4v22h4v12 h-17v-4h-4v-30h-4v-12h-5v-26h-4v-13h17v9h5v21h4v21zM277 1311h4v5h17v-5h13v13h-8v4h-22v-4h-12v-4h-5v-4h-4v-26h4v-4h5v-4h8v-5h9v-17h-5v-4h-21v4h-5v4h-4v-4h-4v-13h13v-4h21v4h13v5h4v4h5v4h4v22h-4v4h-5v4h-8v4h-9v5h-4v12zM551 1277h4v-8h5v-9h4v-8h4v-9h17v13h-4 v8h-4v9h-5v9h-4v8h4v4h5v5h4v4h4v4h4v4h5v5h4v4h4v8h-17v-4h-4v-4h-4v-4h-5v-5h-4v-8h-4v-4h-9v29h-12v-4h-5v-17h-4v-21h-5v-34h-4v-9h18v17h3v13h5v4zM341 1307h5v13h4v8h-17v-4h-5v-21h-4v-17h-4v-30h4v-4h4v-5h9v-4h26v4h13v5h4v4h4v4h4v9h5v21h4v21h4v17h-17v-8h-4v-21 h-4v-30h-5v-5h-4v-4h-4v-4h-17v4h-9v17h4v30zM534 1354h4v9h34v-21h17v42h-4v22h-4v21h-21v-4h-5v-5h-4v-8h-5v-9h-3v-8h-5v-5h-4v-8h-5v-9h-4v-8h-4v-9h-4v-4h-5v-8h17v3h5v9zM376 1384h4v4h4v30h-4v5h-9v4h-38v-4h-5v-30h-4v-13h-4v-21h-5v-17h18v12h4v17h21v5h13v4h5v4z M730 1393h-25v21h34v13h-47v-4h-4v-30h-4v-13h-5v-26h-4v-12h52v12h-31v26h31v4h3v9zM636 1410h9v4h17v-4h5v-4h8v12h-4v5h-9v4h-21v-4h-13v-5h-4v-4h-5v-4h-4v-4h-4v-13h-5v-39h5v-4h4v-5h9v-3h30v3h4v5h4v13h-4v-4h-9v-5h-17v5h-4v4h-4v25h4v9h4v9h4v4zM448 1393h-26v21 h35v13h-47v-4h-5v-30h-4v-13h-4v-26h-4v-12h51v12h-30v26h30v4h4v9zM187 1423h-4v-9h21v-26h-4v-29h-4v-17h13v3h4v14h4v21h4v21h5v13h25v13h-64v-4zM487 1414h30v4h4v9h-47v-4h-4v-30h-5v-22h-4v-12h-4v-17h17v17h4v17h30v4h4v8h-30v13h5v13zM315 1414h5v9h4v4h-21v-9h-5 v-4h-4v-8h-4v-5h-4v-8h-5v13h-4v8h-4v13h-18v-13h5v-13h4v-13h5v-25h-5v-21h17v8h5v26h4v4h4v4h4v9h5v4h4v9h4v4h4v4zM307 1491h4v4h4v22h-8v4h-9v4h-38v-4h-5v-17h-4v-34h-4v-22h-4v-8h17v13h4v21h13v-4h4v-4h5v-22h4v-4h17v13h-4v17h-5v4h-4v4h4v5h9v8zM439 1491h-25v21 h34v13h-47v-4h-4v-30h-4v-13h-5v-25h-4v-13h52v13h-31v25h31v5h3v8zM376 1491h-26v21h34v13h-47v-4h-4v-30h-5v-13h-4v-25h-4v-13h51v13h-30v25h30v5h5v8zM209 1512h29v5h5v8h-47v-4h-5v-30h-4v-21h-4v-13h-4v-17h17v17h4v17h30v4h4v9h-30v13h5v12zM67 1333h-4v77h4v26h5v17 h4v17h4v13h5v12h4v9h4v13h4v8h5v9h4v9h4v8h4v4h5v9h4v9h4v4h4v8h5v5h4v4h4v8h4v5h5v4h4v4h5v4h4v9h4v5h4v3h5v5h4v4h4v5h4v4h9v4h4v4h5v5h4v8h4v4h4v5h5v4h4v4h4v5h4v4h5v4h4v4h4v5h4v4h5v4h4v4h5v5h4v4h4v5h4v4h5v4h4v4h4v5h4v4h5v4h4v4h4v5h4v4h5v4h4v4h4v5h5v4h4v4h4v4h5 v5h4v4h4v4h4v5h5v4h4v4h4v5h5v4h4v4h4v4h4v5h5v4h4v4h4v5h4v4h5v4h4v4h4v5h4v4h5v4h4v4h5v5h3v4h5v5h4v3h9v-3h4v-5h4v-4h5v-5h4v-4h4v-4h4v-4h5v-5h4v-4h4v-4h5v-4h4v-5h4v-4h4v-4h5v-5h4v-4h4v-4h4v-4h5v-5h4v-4h5v-4h3v-5h5v-4h4v-4h5v-5h4v-4h4v-4h4v-4h5v-5h4v-4h4v-4 h4v-4h5v-5h4v-4h4v-4h4v-4h5v-5h4v-4h4v-4h5v-4h4v-5h4v-4h4v-5h5v-4h4v-4h4v-4h5v-5h4v-4h4v-4h5v-4h4v-5h4v-4h4v-4h5v-5h4v-4h4v-4h4v-4h5v-5h4v-4h5v-4h3v-4h5v-5h4v-4h5v-5h3v-8h5v-4h4v-5h5v-4h4v-4h4v-4h4v-9h5v-4h4v-4h4v-9h4v-4h5v-9h4v-4h4v-9h5v-8h4v-4h4v-9h5 v-9h4v-8h4v-9h4v-8h5v-13h4v-13h4v-13h5v-13h4v-21h4v-30h4v-60h-4v-17h-4v-30h-4v-21h-5v-9h-4v-17h-4v-13h-5v-12h-4v-9h-4v-13h-4v-9h-5v-9h-4v-8h-4v-4h-5v-9h-4v-8h-4v-5h-5v-8h-4v-4h-4v-9h-4v-4h-5v-4h-4v-5h-4v-8h-4v-5h-5v-4h-4v-4h-5v-4h-3v-5h-5v-4h-4v-4h-5v-4 h-3v-5h-5v-4h-4v-5h-9v-4h-4v-4h-4v-4h-5v-5h-8v-4h-4v-4h-9v-4h-9v-5h-8v-4h-5v-4h-8v-4h-9v-5h-13v-4h-8v-4h-13v-5h-8v-4h-22v-4h-9v-5h-29v-4h-30v-4h-65v4h-42v4h-26v5h-17v4h-9v4h-17v5h-8v4h-13v4h-9v5h-8v4h-9v4h-9v4h-4v5h-8v4h-5v4h-8v4h-4v5h-9v4h-4v4h-4v4h-9v5 h-4v4h-5v5h-4v4h-4v4h-4v4h-5v5h-4v4h-4v4h-4v9h-5v4h-4v4h-5v5h-4v8h-4v4h-4v5h-5v8h-4v9h-4v4h-4v8h-5v9h-4v8h-4v9h-4v9h-5v8h-4v14h-4v8h-4v13h-5v17h-4v13h-4v25h-5v39zM341 1406h5v8h17v-4h4v-17h-4v-5h-5v-4h-17v22zM269 1495h4v17h21v-21h-8v-4h-17v8zM564 1397h4 v-21h-22v4h5v8h4v9h5v4h4v-4zM474 1204h4v5h9v-17h-5v-5h-8v17zM39 430l7 94q8 90 11 147q7 85 8 139q2 64 -5 72q-2 2 36 6l85 9q63 6 88 7q43 2 49 -1q19 -39 41 -153q26 -124 38 -211v54q0 32 2 122q1 66 6 125q5 60 12 67q126 -1 186 -37q58 -34 76 -48l12 -107 q12 -104 4 -220q-2 -34 -7.5 -101.5t-9 -115.5t-7 -101.5t-3 -88t5.5 -46.5q-55 -8 -115 -15q-122 -10 -148 -4l-35 139l-36 146q-16 60 -16 59v-56q0 -77 -1 -120q-2 -79 -4 -118q-2 -54 -6 -53q-36 0 -118 11q-78 12 -139 72q-2 10 -13 127q-10 112 -4 200z" />
<glyph unicode="&#xd4;" horiz-adv-x="752" d="M643 1189h4v9h4v30h-4v4h-17v-4h-4v-5h-5v-3h-4v-9h-4v-22h4v-4h4v-5h17v5h5v4zM514 1180h30v18h5v22h-9v-5h-4v5h-13v-5h-4v-4h-5v-9h-4v-17h4v-5zM728 1194h5v12h4v17h-4v9h-22v-4h-4v-5h-4v-8h-5v-30h5v-5h17v5h8v9zM420 1189h-8v17h4v14h-13v-22h-4v-13h4v-5h13v5h9 v-5h8v18h4v22h-8v-9h-4v-17h-5v-5zM488 1220h-3v-9h3v-13h-3v-13h3v-5h14v9h-5v22h13v9h-8v8h-14v-8zM382 1206h4v5h13v9h-26v-18h-4v-22h8v9h5v17zM668 1228v-5h-4v-3h9v-14h-5v-17h-13v-9h35v9h-9v22h4v21h-8v-4h-9zM258 1206h-5v22h-4v4h-17v-17h-4v-21h-5v-14h13v26h4 v14h5v-35h4v-5h13v9h4v9h4v8h5v5h4v-13h-4v-18h8v14h4v8h5v30h-13v-4h-4v-5h-5v-8h-4v-9h-4v-4h-4v4zM578 1220h5v3h12v-3h5v-5h-5v-4h-3v-5h-5v-4h-4v-4h-5v-4h-4v-5h-4v-9h34v9h-17v5h5v4h3v4h5v4h4v5h5v17h-5v4h-17v-4h-9v-8zM463 1215v-4h-4v17h4v9h-13v-26h-4v-22h-4 v-9h8v5h4v9h5v-5h4v-9h8v14h-4v12h4v5h5v4h4v5h-13v-5h-4zM343 1211h4v-26h-4v-8h-8v-9h12v4h5v13h4v17h4v9h9v9h-9v3h4v5h9v9h-13v-5h-4v-4h-4v-8h-9v3h-4v5h-4v4h-31v-17h-4v-21h-4v-14h13v22h13v-22h13v18h-5v8h5v5h4v4h4v-4zM801 1309h-13v-13h5v-12h4v-5h-4v-8h-5v-5 h-4v-8h-5v-9h14v5h4v8h4v4h4v5h5v21h-5v9h-4v8zM827 1309h-13v-8h4v-13h4v-13h-4v-4h-4v-9h-4v-4h-5v-9h13v5h4v4h5v4h4v9h4v4h5v9h-5v12h-4v9h-4v4zM707 1288h4v17h5v-13h4v-13h4v-8h4v-13h5v-9h4v-4h17v4h5v22h3v13h5v21h4v25h-12v-4h-5v-21h-4v-21h-5v-13h-4v17h-4v8h-4 v13h-5v13h-4v8h-21v-4h-5v-30h-4v-21h-4v-13h-5v-17h13v4h5v17h4v22zM283 1296h4v9h5v4h-13v-4h-4v-4h-5v-5h-4v-8h-4v-4h-4v-9h4v-13h4v-8h4v-5h13v9h-4v8h-4v18h4v8h4v4zM258 1296h4v9h4v4h-17v-8h-4v-5h-5v-4h-4v-4h-4v-17h4v-13h4v-9h13v17h-4v9h-4v4h4v9h4v4h5v4z M544 1301v4h5v-9h-5v-21h-4v-30h13v4h4v22h4v17h5v25h4v17h-26v-4h-4v-4h-4v-9h-5v-8h-4v-4h-4v-9h-4v-8h-5v-5h-4v5h-4v8h-4v34h-5v4h-26v-4h-4v-30h-4v-17h-4v-13h-5v-21h17v26h5v13h4v21h5v-4h3v-22h5v-30h4v-4h13v4h4v9h5v4h4v9h4v8h4v9h5v4h4v9h4zM677 1296h4v22h4v12 h-17v-4h-4v-30h-4v-12h-5v-26h-4v-13h17v9h5v21h4v21zM326 1313h4v5h17v-5h13v13h-8v4h-22v-4h-12v-4h-5v-4h-4v-26h4v-4h5v-4h8v-5h9v-17h-5v-4h-21v4h-5v4h-4v-4h-4v-13h13v-4h21v4h13v5h4v4h5v4h4v22h-4v4h-5v4h-8v4h-9v5h-4v12zM600 1279h4v-8h5v-9h4v-8h4v-9h17v13h-4 v8h-4v9h-5v9h-4v8h4v4h5v5h4v4h4v4h4v4h5v5h4v4h4v8h-17v-4h-4v-4h-4v-4h-5v-5h-4v-8h-4v-4h-9v29h-12v-4h-5v-17h-4v-21h-5v-34h-4v-9h18v17h3v13h5v4zM390 1309h5v13h4v8h-17v-4h-5v-21h-4v-17h-4v-30h4v-4h4v-5h9v-4h26v4h13v5h4v4h4v4h4v9h5v21h4v21h4v17h-17v-8h-4v-21 h-4v-30h-5v-5h-4v-4h-4v-4h-17v4h-9v17h4v30zM583 1356h4v9h34v-21h17v42h-4v22h-4v21h-21v-4h-5v-5h-4v-8h-5v-9h-3v-8h-5v-5h-4v-8h-5v-9h-4v-8h-4v-9h-4v-4h-5v-8h17v3h5v9zM425 1386h4v4h4v30h-4v5h-9v4h-38v-4h-5v-30h-4v-13h-4v-21h-5v-17h18v12h4v17h21v5h13v4h5v4z M779 1395h-25v21h34v13h-47v-4h-4v-30h-4v-13h-5v-26h-4v-12h52v12h-31v26h31v4h3v9zM685 1412h9v4h17v-4h5v-4h8v12h-4v5h-9v4h-21v-4h-13v-5h-4v-4h-5v-4h-4v-4h-4v-13h-5v-39h5v-4h4v-5h9v-3h30v3h4v5h4v13h-4v-4h-9v-5h-17v5h-4v4h-4v25h4v9h4v9h4v4zM497 1395h-26v21 h35v13h-47v-4h-5v-30h-4v-13h-4v-26h-4v-12h51v12h-30v26h30v4h4v9zM236 1425h-4v-9h21v-26h-4v-29h-4v-17h13v3h4v14h4v21h4v21h5v13h25v13h-64v-4zM536 1416h30v4h4v9h-47v-4h-4v-30h-5v-22h-4v-12h-4v-17h17v17h4v17h30v4h4v8h-30v13h5v13zM364 1416h5v9h4v4h-21v-9h-5 v-4h-4v-8h-4v-5h-4v-8h-5v13h-4v8h-4v13h-18v-13h5v-13h4v-13h5v-25h-5v-21h17v8h5v26h4v4h4v4h4v9h5v4h4v9h4v4h4v4zM356 1493h4v4h4v22h-8v4h-9v4h-38v-4h-5v-17h-4v-34h-4v-22h-4v-8h17v13h4v21h13v-4h4v-4h5v-22h4v-4h17v13h-4v17h-5v4h-4v4h4v5h9v8zM488 1493h-25v21 h34v13h-47v-4h-4v-30h-4v-13h-5v-25h-4v-13h52v13h-31v25h31v5h3v8zM425 1493h-26v21h34v13h-47v-4h-4v-30h-5v-13h-4v-25h-4v-13h51v13h-30v25h30v5h5v8zM258 1514h29v5h5v8h-47v-4h-5v-30h-4v-21h-4v-13h-4v-17h17v17h4v17h30v4h4v9h-30v13h5v12zM116 1335h-4v77h4v26h5 v17h4v17h4v13h5v12h4v9h4v13h4v8h5v9h4v9h4v8h4v4h5v9h4v9h4v4h4v8h5v5h4v4h4v8h4v5h5v4h4v4h5v4h4v9h4v5h4v3h5v5h4v4h4v5h4v4h9v4h4v4h5v5h4v8h4v4h4v5h5v4h4v4h4v5h4v4h5v4h4v4h4v5h4v4h5v4h4v4h5v5h4v4h4v5h4v4h5v4h4v4h4v5h4v4h5v4h4v4h4v5h4v4h5v4h4v4h4v5h5v4h4v4h4 v4h5v5h4v4h4v4h4v5h5v4h4v4h4v5h5v4h4v4h4v4h4v5h5v4h4v4h4v5h4v4h5v4h4v4h4v5h4v4h5v4h4v4h5v5h3v4h5v5h4v3h9v-3h4v-5h4v-4h5v-5h4v-4h4v-4h4v-4h5v-5h4v-4h4v-4h5v-4h4v-5h4v-4h4v-4h5v-5h4v-4h4v-4h4v-4h5v-5h4v-4h5v-4h3v-5h5v-4h4v-4h5v-5h4v-4h4v-4h4v-4h5v-5h4v-4h4 v-4h4v-4h5v-5h4v-4h4v-4h4v-4h5v-5h4v-4h4v-4h5v-4h4v-5h4v-4h4v-5h5v-4h4v-4h4v-4h5v-5h4v-4h4v-4h5v-4h4v-5h4v-4h4v-4h5v-5h4v-4h4v-4h4v-4h5v-5h4v-4h5v-4h3v-4h5v-5h4v-4h5v-5h3v-8h5v-4h4v-5h5v-4h4v-4h4v-4h4v-9h5v-4h4v-4h4v-9h4v-4h5v-9h4v-4h4v-9h5v-8h4v-4h4v-9 h5v-9h4v-8h4v-9h4v-8h5v-13h4v-13h4v-13h5v-13h4v-21h4v-30h4v-60h-4v-17h-4v-30h-4v-21h-5v-9h-4v-17h-4v-13h-5v-12h-4v-9h-4v-13h-4v-9h-5v-9h-4v-8h-4v-4h-5v-9h-4v-8h-4v-5h-5v-8h-4v-4h-4v-9h-4v-4h-5v-4h-4v-5h-4v-8h-4v-5h-5v-4h-4v-4h-5v-4h-3v-5h-5v-4h-4v-4h-5 v-4h-3v-5h-5v-4h-4v-5h-9v-4h-4v-4h-4v-4h-5v-5h-8v-4h-4v-4h-9v-4h-9v-5h-8v-4h-5v-4h-8v-4h-9v-5h-13v-4h-8v-4h-13v-5h-8v-4h-22v-4h-9v-5h-29v-4h-30v-4h-65v4h-42v4h-26v5h-17v4h-9v4h-17v5h-8v4h-13v4h-9v5h-8v4h-9v4h-9v4h-4v5h-8v4h-5v4h-8v4h-4v5h-9v4h-4v4h-4v4 h-9v5h-4v4h-5v5h-4v4h-4v4h-4v4h-5v5h-4v4h-4v4h-4v9h-5v4h-4v4h-5v5h-4v8h-4v4h-4v5h-5v8h-4v9h-4v4h-4v8h-5v9h-4v8h-4v9h-4v9h-5v8h-4v14h-4v8h-4v13h-5v17h-4v13h-4v25h-5v39zM390 1408h5v8h17v-4h4v-17h-4v-5h-5v-4h-17v22zM318 1497h4v17h21v-21h-8v-4h-17v8z M613 1399h4v-21h-22v4h5v8h4v9h5v4h4v-4zM523 1206h4v5h9v-17h-5v-5h-8v17zM59 817q51 48 144 68q91 19 180 24t154 0l65 -4q81 -161 98 -391q16 -226 -42 -432l-119 -30q-121 -29 -246 -32q-97 -2 -155 26q-59 28 -82 54l-13 114q-12 114 -3 219l18 185q13 147 1 199z M376 622q-16 -7 -22 -57q-5 -55 -5 -110q0 -61 3 -119q3 -57 3 -79l10 73q11 77 11 292z" />
<glyph unicode="&#xd5;" horiz-adv-x="752" d="M643 1189h4v9h4v30h-4v4h-17v-4h-4v-5h-5v-3h-4v-9h-4v-22h4v-4h4v-5h17v5h5v4zM514 1180h30v18h5v22h-9v-5h-4v5h-13v-5h-4v-4h-5v-9h-4v-17h4v-5zM728 1194h5v12h4v17h-4v9h-22v-4h-4v-5h-4v-8h-5v-30h5v-5h17v5h8v9zM420 1189h-8v17h4v14h-13v-22h-4v-13h4v-5h13v5h9 v-5h8v18h4v22h-8v-9h-4v-17h-5v-5zM488 1220h-3v-9h3v-13h-3v-13h3v-5h14v9h-5v22h13v9h-8v8h-14v-8zM382 1206h4v5h13v9h-26v-18h-4v-22h8v9h5v17zM668 1228v-5h-4v-3h9v-14h-5v-17h-13v-9h35v9h-9v22h4v21h-8v-4h-9zM258 1206h-5v22h-4v4h-17v-17h-4v-21h-5v-14h13v26h4 v14h5v-35h4v-5h13v9h4v9h4v8h5v5h4v-13h-4v-18h8v14h4v8h5v30h-13v-4h-4v-5h-5v-8h-4v-9h-4v-4h-4v4zM578 1220h5v3h12v-3h5v-5h-5v-4h-3v-5h-5v-4h-4v-4h-5v-4h-4v-5h-4v-9h34v9h-17v5h5v4h3v4h5v4h4v5h5v17h-5v4h-17v-4h-9v-8zM463 1215v-4h-4v17h4v9h-13v-26h-4v-22h-4 v-9h8v5h4v9h5v-5h4v-9h8v14h-4v12h4v5h5v4h4v5h-13v-5h-4zM343 1211h4v-26h-4v-8h-8v-9h12v4h5v13h4v17h4v9h9v9h-9v3h4v5h9v9h-13v-5h-4v-4h-4v-8h-9v3h-4v5h-4v4h-31v-17h-4v-21h-4v-14h13v22h13v-22h13v18h-5v8h5v5h4v4h4v-4zM801 1309h-13v-13h5v-12h4v-5h-4v-8h-5v-5 h-4v-8h-5v-9h14v5h4v8h4v4h4v5h5v21h-5v9h-4v8zM827 1309h-13v-8h4v-13h4v-13h-4v-4h-4v-9h-4v-4h-5v-9h13v5h4v4h5v4h4v9h4v4h5v9h-5v12h-4v9h-4v4zM707 1288h4v17h5v-13h4v-13h4v-8h4v-13h5v-9h4v-4h17v4h5v22h3v13h5v21h4v25h-12v-4h-5v-21h-4v-21h-5v-13h-4v17h-4v8h-4 v13h-5v13h-4v8h-21v-4h-5v-30h-4v-21h-4v-13h-5v-17h13v4h5v17h4v22zM283 1296h4v9h5v4h-13v-4h-4v-4h-5v-5h-4v-8h-4v-4h-4v-9h4v-13h4v-8h4v-5h13v9h-4v8h-4v18h4v8h4v4zM258 1296h4v9h4v4h-17v-8h-4v-5h-5v-4h-4v-4h-4v-17h4v-13h4v-9h13v17h-4v9h-4v4h4v9h4v4h5v4z M544 1301v4h5v-9h-5v-21h-4v-30h13v4h4v22h4v17h5v25h4v17h-26v-4h-4v-4h-4v-9h-5v-8h-4v-4h-4v-9h-4v-8h-5v-5h-4v5h-4v8h-4v34h-5v4h-26v-4h-4v-30h-4v-17h-4v-13h-5v-21h17v26h5v13h4v21h5v-4h3v-22h5v-30h4v-4h13v4h4v9h5v4h4v9h4v8h4v9h5v4h4v9h4zM677 1296h4v22h4v12 h-17v-4h-4v-30h-4v-12h-5v-26h-4v-13h17v9h5v21h4v21zM326 1313h4v5h17v-5h13v13h-8v4h-22v-4h-12v-4h-5v-4h-4v-26h4v-4h5v-4h8v-5h9v-17h-5v-4h-21v4h-5v4h-4v-4h-4v-13h13v-4h21v4h13v5h4v4h5v4h4v22h-4v4h-5v4h-8v4h-9v5h-4v12zM600 1279h4v-8h5v-9h4v-8h4v-9h17v13h-4 v8h-4v9h-5v9h-4v8h4v4h5v5h4v4h4v4h4v4h5v5h4v4h4v8h-17v-4h-4v-4h-4v-4h-5v-5h-4v-8h-4v-4h-9v29h-12v-4h-5v-17h-4v-21h-5v-34h-4v-9h18v17h3v13h5v4zM390 1309h5v13h4v8h-17v-4h-5v-21h-4v-17h-4v-30h4v-4h4v-5h9v-4h26v4h13v5h4v4h4v4h4v9h5v21h4v21h4v17h-17v-8h-4v-21 h-4v-30h-5v-5h-4v-4h-4v-4h-17v4h-9v17h4v30zM583 1356h4v9h34v-21h17v42h-4v22h-4v21h-21v-4h-5v-5h-4v-8h-5v-9h-3v-8h-5v-5h-4v-8h-5v-9h-4v-8h-4v-9h-4v-4h-5v-8h17v3h5v9zM425 1386h4v4h4v30h-4v5h-9v4h-38v-4h-5v-30h-4v-13h-4v-21h-5v-17h18v12h4v17h21v5h13v4h5v4z M779 1395h-25v21h34v13h-47v-4h-4v-30h-4v-13h-5v-26h-4v-12h52v12h-31v26h31v4h3v9zM685 1412h9v4h17v-4h5v-4h8v12h-4v5h-9v4h-21v-4h-13v-5h-4v-4h-5v-4h-4v-4h-4v-13h-5v-39h5v-4h4v-5h9v-3h30v3h4v5h4v13h-4v-4h-9v-5h-17v5h-4v4h-4v25h4v9h4v9h4v4zM497 1395h-26v21 h35v13h-47v-4h-5v-30h-4v-13h-4v-26h-4v-12h51v12h-30v26h30v4h4v9zM236 1425h-4v-9h21v-26h-4v-29h-4v-17h13v3h4v14h4v21h4v21h5v13h25v13h-64v-4zM536 1416h30v4h4v9h-47v-4h-4v-30h-5v-22h-4v-12h-4v-17h17v17h4v17h30v4h4v8h-30v13h5v13zM364 1416h5v9h4v4h-21v-9h-5 v-4h-4v-8h-4v-5h-4v-8h-5v13h-4v8h-4v13h-18v-13h5v-13h4v-13h5v-25h-5v-21h17v8h5v26h4v4h4v4h4v9h5v4h4v9h4v4h4v4zM356 1493h4v4h4v22h-8v4h-9v4h-38v-4h-5v-17h-4v-34h-4v-22h-4v-8h17v13h4v21h13v-4h4v-4h5v-22h4v-4h17v13h-4v17h-5v4h-4v4h4v5h9v8zM488 1493h-25v21 h34v13h-47v-4h-4v-30h-4v-13h-5v-25h-4v-13h52v13h-31v25h31v5h3v8zM425 1493h-26v21h34v13h-47v-4h-4v-30h-5v-13h-4v-25h-4v-13h51v13h-30v25h30v5h5v8zM258 1514h29v5h5v8h-47v-4h-5v-30h-4v-21h-4v-13h-4v-17h17v17h4v17h30v4h4v9h-30v13h5v12zM116 1335h-4v77h4v26h5 v17h4v17h4v13h5v12h4v9h4v13h4v8h5v9h4v9h4v8h4v4h5v9h4v9h4v4h4v8h5v5h4v4h4v8h4v5h5v4h4v4h5v4h4v9h4v5h4v3h5v5h4v4h4v5h4v4h9v4h4v4h5v5h4v8h4v4h4v5h5v4h4v4h4v5h4v4h5v4h4v4h4v5h4v4h5v4h4v4h5v5h4v4h4v5h4v4h5v4h4v4h4v5h4v4h5v4h4v4h4v5h4v4h5v4h4v4h4v5h5v4h4v4h4 v4h5v5h4v4h4v4h4v5h5v4h4v4h4v5h5v4h4v4h4v4h4v5h5v4h4v4h4v5h4v4h5v4h4v4h4v5h4v4h5v4h4v4h5v5h3v4h5v5h4v3h9v-3h4v-5h4v-4h5v-5h4v-4h4v-4h4v-4h5v-5h4v-4h4v-4h5v-4h4v-5h4v-4h4v-4h5v-5h4v-4h4v-4h4v-4h5v-5h4v-4h5v-4h3v-5h5v-4h4v-4h5v-5h4v-4h4v-4h4v-4h5v-5h4v-4h4 v-4h4v-4h5v-5h4v-4h4v-4h4v-4h5v-5h4v-4h4v-4h5v-4h4v-5h4v-4h4v-5h5v-4h4v-4h4v-4h5v-5h4v-4h4v-4h5v-4h4v-5h4v-4h4v-4h5v-5h4v-4h4v-4h4v-4h5v-5h4v-4h5v-4h3v-4h5v-5h4v-4h5v-5h3v-8h5v-4h4v-5h5v-4h4v-4h4v-4h4v-9h5v-4h4v-4h4v-9h4v-4h5v-9h4v-4h4v-9h5v-8h4v-4h4v-9 h5v-9h4v-8h4v-9h4v-8h5v-13h4v-13h4v-13h5v-13h4v-21h4v-30h4v-60h-4v-17h-4v-30h-4v-21h-5v-9h-4v-17h-4v-13h-5v-12h-4v-9h-4v-13h-4v-9h-5v-9h-4v-8h-4v-4h-5v-9h-4v-8h-4v-5h-5v-8h-4v-4h-4v-9h-4v-4h-5v-4h-4v-5h-4v-8h-4v-5h-5v-4h-4v-4h-5v-4h-3v-5h-5v-4h-4v-4h-5 v-4h-3v-5h-5v-4h-4v-5h-9v-4h-4v-4h-4v-4h-5v-5h-8v-4h-4v-4h-9v-4h-9v-5h-8v-4h-5v-4h-8v-4h-9v-5h-13v-4h-8v-4h-13v-5h-8v-4h-22v-4h-9v-5h-29v-4h-30v-4h-65v4h-42v4h-26v5h-17v4h-9v4h-17v5h-8v4h-13v4h-9v5h-8v4h-9v4h-9v4h-4v5h-8v4h-5v4h-8v4h-4v5h-9v4h-4v4h-4v4 h-9v5h-4v4h-5v5h-4v4h-4v4h-4v4h-5v5h-4v4h-4v4h-4v9h-5v4h-4v4h-5v5h-4v8h-4v4h-4v5h-5v8h-4v9h-4v4h-4v8h-5v9h-4v8h-4v9h-4v9h-5v8h-4v14h-4v8h-4v13h-5v17h-4v13h-4v25h-5v39zM390 1408h5v8h17v-4h4v-17h-4v-5h-5v-4h-17v22zM318 1497h4v17h21v-21h-8v-4h-17v8z M613 1399h4v-21h-22v4h5v8h4v9h5v4h4v-4zM523 1206h4v5h9v-17h-5v-5h-8v17zM59 817q51 48 144 68q91 19 180 24t154 0l65 -4q81 -161 98 -391q16 -226 -42 -432l-119 -30q-121 -29 -246 -32q-97 -2 -155 26q-59 28 -82 54l-13 114q-12 114 -3 219l18 185q13 147 1 199z M376 622q-16 -7 -22 -57q-5 -55 -5 -110q0 -61 3 -119q3 -57 3 -79l10 73q11 77 11 292z" />
<glyph unicode="&#xdb;" horiz-adv-x="766" d="M568 1187h4v9h4v30h-4v4h-17v-4h-4v-5h-5v-3h-4v-9h-4v-22h4v-4h4v-5h17v5h5v4zM439 1178h30v18h5v22h-9v-5h-4v5h-13v-5h-4v-4h-5v-9h-4v-17h4v-5zM653 1192h5v12h4v17h-4v9h-22v-4h-4v-5h-4v-8h-5v-30h5v-5h17v5h8v9zM345 1187h-8v17h4v14h-13v-22h-4v-13h4v-5h13v5h9 v-5h8v18h4v22h-8v-9h-4v-17h-5v-5zM413 1218h-3v-9h3v-13h-3v-13h3v-5h14v9h-5v22h13v9h-8v8h-14v-8zM307 1204h4v5h13v9h-26v-18h-4v-22h8v9h5v17zM593 1226v-5h-4v-3h9v-14h-5v-17h-13v-9h35v9h-9v22h4v21h-8v-4h-9zM183 1204h-5v22h-4v4h-17v-17h-4v-21h-5v-14h13v26h4 v14h5v-35h4v-5h13v9h4v9h4v8h5v5h4v-13h-4v-18h8v14h4v8h5v30h-13v-4h-4v-5h-5v-8h-4v-9h-4v-4h-4v4zM503 1218h5v3h12v-3h5v-5h-5v-4h-3v-5h-5v-4h-4v-4h-5v-4h-4v-5h-4v-9h34v9h-17v5h5v4h3v4h5v4h4v5h5v17h-5v4h-17v-4h-9v-8zM388 1213v-4h-4v17h4v9h-13v-26h-4v-22h-4 v-9h8v5h4v9h5v-5h4v-9h8v14h-4v12h4v5h5v4h4v5h-13v-5h-4zM268 1209h4v-26h-4v-8h-8v-9h12v4h5v13h4v17h4v9h9v9h-9v3h4v5h9v9h-13v-5h-4v-4h-4v-8h-9v3h-4v5h-4v4h-31v-17h-4v-21h-4v-14h13v22h13v-22h13v18h-5v8h5v5h4v4h4v-4zM726 1307h-13v-13h5v-12h4v-5h-4v-8h-5v-5 h-4v-8h-5v-9h14v5h4v8h4v4h4v5h5v21h-5v9h-4v8zM752 1307h-13v-8h4v-13h4v-13h-4v-4h-4v-9h-4v-4h-5v-9h13v5h4v4h5v4h4v9h4v4h5v9h-5v12h-4v9h-4v4zM632 1286h4v17h5v-13h4v-13h4v-8h4v-13h5v-9h4v-4h17v4h5v22h3v13h5v21h4v25h-12v-4h-5v-21h-4v-21h-5v-13h-4v17h-4v8h-4 v13h-5v13h-4v8h-21v-4h-5v-30h-4v-21h-4v-13h-5v-17h13v4h5v17h4v22zM208 1294h4v9h5v4h-13v-4h-4v-4h-5v-5h-4v-8h-4v-4h-4v-9h4v-13h4v-8h4v-5h13v9h-4v8h-4v18h4v8h4v4zM183 1294h4v9h4v4h-17v-8h-4v-5h-5v-4h-4v-4h-4v-17h4v-13h4v-9h13v17h-4v9h-4v4h4v9h4v4h5v4z M469 1299v4h5v-9h-5v-21h-4v-30h13v4h4v22h4v17h5v25h4v17h-26v-4h-4v-4h-4v-9h-5v-8h-4v-4h-4v-9h-4v-8h-5v-5h-4v5h-4v8h-4v34h-5v4h-26v-4h-4v-30h-4v-17h-4v-13h-5v-21h17v26h5v13h4v21h5v-4h3v-22h5v-30h4v-4h13v4h4v9h5v4h4v9h4v8h4v9h5v4h4v9h4zM602 1294h4v22h4v12 h-17v-4h-4v-30h-4v-12h-5v-26h-4v-13h17v9h5v21h4v21zM251 1311h4v5h17v-5h13v13h-8v4h-22v-4h-12v-4h-5v-4h-4v-26h4v-4h5v-4h8v-5h9v-17h-5v-4h-21v4h-5v4h-4v-4h-4v-13h13v-4h21v4h13v5h4v4h5v4h4v22h-4v4h-5v4h-8v4h-9v5h-4v12zM525 1277h4v-8h5v-9h4v-8h4v-9h17v13h-4 v8h-4v9h-5v9h-4v8h4v4h5v5h4v4h4v4h4v4h5v5h4v4h4v8h-17v-4h-4v-4h-4v-4h-5v-5h-4v-8h-4v-4h-9v29h-12v-4h-5v-17h-4v-21h-5v-34h-4v-9h18v17h3v13h5v4zM315 1307h5v13h4v8h-17v-4h-5v-21h-4v-17h-4v-30h4v-4h4v-5h9v-4h26v4h13v5h4v4h4v4h4v9h5v21h4v21h4v17h-17v-8h-4v-21 h-4v-30h-5v-5h-4v-4h-4v-4h-17v4h-9v17h4v30zM508 1354h4v9h34v-21h17v42h-4v22h-4v21h-21v-4h-5v-5h-4v-8h-5v-9h-3v-8h-5v-5h-4v-8h-5v-9h-4v-8h-4v-9h-4v-4h-5v-8h17v3h5v9zM350 1384h4v4h4v30h-4v5h-9v4h-38v-4h-5v-30h-4v-13h-4v-21h-5v-17h18v12h4v17h21v5h13v4h5v4z M704 1393h-25v21h34v13h-47v-4h-4v-30h-4v-13h-5v-26h-4v-12h52v12h-31v26h31v4h3v9zM610 1410h9v4h17v-4h5v-4h8v12h-4v5h-9v4h-21v-4h-13v-5h-4v-4h-5v-4h-4v-4h-4v-13h-5v-39h5v-4h4v-5h9v-3h30v3h4v5h4v13h-4v-4h-9v-5h-17v5h-4v4h-4v25h4v9h4v9h4v4zM422 1393h-26v21 h35v13h-47v-4h-5v-30h-4v-13h-4v-26h-4v-12h51v12h-30v26h30v4h4v9zM161 1423h-4v-9h21v-26h-4v-29h-4v-17h13v3h4v14h4v21h4v21h5v13h25v13h-64v-4zM461 1414h30v4h4v9h-47v-4h-4v-30h-5v-22h-4v-12h-4v-17h17v17h4v17h30v4h4v8h-30v13h5v13zM289 1414h5v9h4v4h-21v-9h-5 v-4h-4v-8h-4v-5h-4v-8h-5v13h-4v8h-4v13h-18v-13h5v-13h4v-13h5v-25h-5v-21h17v8h5v26h4v4h4v4h4v9h5v4h4v9h4v4h4v4zM281 1491h4v4h4v22h-8v4h-9v4h-38v-4h-5v-17h-4v-34h-4v-22h-4v-8h17v13h4v21h13v-4h4v-4h5v-22h4v-4h17v13h-4v17h-5v4h-4v4h4v5h9v8zM413 1491h-25v21 h34v13h-47v-4h-4v-30h-4v-13h-5v-25h-4v-13h52v13h-31v25h31v5h3v8zM350 1491h-26v21h34v13h-47v-4h-4v-30h-5v-13h-4v-25h-4v-13h51v13h-30v25h30v5h5v8zM183 1512h29v5h5v8h-47v-4h-5v-30h-4v-21h-4v-13h-4v-17h17v17h4v17h30v4h4v9h-30v13h5v12zM41 1333h-4v77h4v26h5v17 h4v17h4v13h5v12h4v9h4v13h4v8h5v9h4v9h4v8h4v4h5v9h4v9h4v4h4v8h5v5h4v4h4v8h4v5h5v4h4v4h5v4h4v9h4v5h4v3h5v5h4v4h4v5h4v4h9v4h4v4h5v5h4v8h4v4h4v5h5v4h4v4h4v5h4v4h5v4h4v4h4v5h4v4h5v4h4v4h5v5h4v4h4v5h4v4h5v4h4v4h4v5h4v4h5v4h4v4h4v5h4v4h5v4h4v4h4v5h5v4h4v4h4v4h5 v5h4v4h4v4h4v5h5v4h4v4h4v5h5v4h4v4h4v4h4v5h5v4h4v4h4v5h4v4h5v4h4v4h4v5h4v4h5v4h4v4h5v5h3v4h5v5h4v3h9v-3h4v-5h4v-4h5v-5h4v-4h4v-4h4v-4h5v-5h4v-4h4v-4h5v-4h4v-5h4v-4h4v-4h5v-5h4v-4h4v-4h4v-4h5v-5h4v-4h5v-4h3v-5h5v-4h4v-4h5v-5h4v-4h4v-4h4v-4h5v-5h4v-4h4v-4 h4v-4h5v-5h4v-4h4v-4h4v-4h5v-5h4v-4h4v-4h5v-4h4v-5h4v-4h4v-5h5v-4h4v-4h4v-4h5v-5h4v-4h4v-4h5v-4h4v-5h4v-4h4v-4h5v-5h4v-4h4v-4h4v-4h5v-5h4v-4h5v-4h3v-4h5v-5h4v-4h5v-5h3v-8h5v-4h4v-5h5v-4h4v-4h4v-4h4v-9h5v-4h4v-4h4v-9h4v-4h5v-9h4v-4h4v-9h5v-8h4v-4h4v-9h5 v-9h4v-8h4v-9h4v-8h5v-13h4v-13h4v-13h5v-13h4v-21h4v-30h4v-60h-4v-17h-4v-30h-4v-21h-5v-9h-4v-17h-4v-13h-5v-12h-4v-9h-4v-13h-4v-9h-5v-9h-4v-8h-4v-4h-5v-9h-4v-8h-4v-5h-5v-8h-4v-4h-4v-9h-4v-4h-5v-4h-4v-5h-4v-8h-4v-5h-5v-4h-4v-4h-5v-4h-3v-5h-5v-4h-4v-4h-5v-4 h-3v-5h-5v-4h-4v-5h-9v-4h-4v-4h-4v-4h-5v-5h-8v-4h-4v-4h-9v-4h-9v-5h-8v-4h-5v-4h-8v-4h-9v-5h-13v-4h-8v-4h-13v-5h-8v-4h-22v-4h-9v-5h-29v-4h-30v-4h-65v4h-42v4h-26v5h-17v4h-9v4h-17v5h-8v4h-13v4h-9v5h-8v4h-9v4h-9v4h-4v5h-8v4h-5v4h-8v4h-4v5h-9v4h-4v4h-4v4h-9v5 h-4v4h-5v5h-4v4h-4v4h-4v4h-5v5h-4v4h-4v4h-4v9h-5v4h-4v4h-5v5h-4v8h-4v4h-4v5h-5v8h-4v9h-4v4h-4v8h-5v9h-4v8h-4v9h-4v9h-5v8h-4v14h-4v8h-4v13h-5v17h-4v13h-4v25h-5v39zM315 1406h5v8h17v-4h4v-17h-4v-5h-5v-4h-17v22zM243 1495h4v17h21v-21h-8v-4h-17v8zM538 1397h4 v-21h-22v4h5v8h4v9h5v4h4v-4zM448 1204h4v5h9v-17h-5v-5h-8v17zM413 20h-56q-10 0 -28 0.5t-28 0.5q-104 0 -160 98q-55 100 -77 231q-21 127 -23 267q-1 103 1 205q32 29 103 50.5t117 28.5t55 7q10 -15 20 -75q13 -78 20 -128l17 -119l7 -53h25q5 50 10 92l16 122 q9 61 18 108t15 53q129 -2 187 -36q62 -37 76 -48q1 -198 -5 -328t-30 -230q-58 -245 -225 -245q-9 -1 -55 -1z" />
<glyph unicode="&#xe2;" horiz-adv-x="560" d="M423 1010h4v9h4v30h-4v4h-17v-4h-4v-5h-5v-3h-4v-9h-4v-22h4v-4h4v-5h17v5h5v4zM294 1001h30v18h5v22h-9v-5h-4v5h-13v-5h-4v-4h-5v-9h-4v-17h4v-5zM508 1015h5v12h4v17h-4v9h-22v-4h-4v-5h-4v-8h-5v-30h5v-5h17v5h8v9zM200 1010h-8v17h4v14h-13v-22h-4v-13h4v-5h13v5h9 v-5h8v18h4v22h-8v-9h-4v-17h-5v-5zM268 1041h-3v-9h3v-13h-3v-13h3v-5h14v9h-5v22h13v9h-8v8h-14v-8zM162 1027h4v5h13v9h-26v-18h-4v-22h8v9h5v17zM448 1049v-5h-4v-3h9v-14h-5v-17h-13v-9h35v9h-9v22h4v21h-8v-4h-9zM38 1027h-5v22h-4v4h-17v-17h-4v-21h-5v-14h13v26h4v14 h5v-35h4v-5h13v9h4v9h4v8h5v5h4v-13h-4v-18h8v14h4v8h5v30h-13v-4h-4v-5h-5v-8h-4v-9h-4v-4h-4v4zM358 1041h5v3h12v-3h5v-5h-5v-4h-3v-5h-5v-4h-4v-4h-5v-4h-4v-5h-4v-9h34v9h-17v5h5v4h3v4h5v4h4v5h5v17h-5v4h-17v-4h-9v-8zM243 1036v-4h-4v17h4v9h-13v-26h-4v-22h-4v-9h8 v5h4v9h5v-5h4v-9h8v14h-4v12h4v5h5v4h4v5h-13v-5h-4zM123 1032h4v-26h-4v-8h-8v-9h12v4h5v13h4v17h4v9h9v9h-9v3h4v5h9v9h-13v-5h-4v-4h-4v-8h-9v3h-4v5h-4v4h-31v-17h-4v-21h-4v-14h13v22h13v-22h13v18h-5v8h5v5h4v4h4v-4zM581 1130h-13v-13h5v-12h4v-5h-4v-8h-5v-5h-4v-8 h-5v-9h14v5h4v8h4v4h4v5h5v21h-5v9h-4v8zM607 1130h-13v-8h4v-13h4v-13h-4v-4h-4v-9h-4v-4h-5v-9h13v5h4v4h5v4h4v9h4v4h5v9h-5v12h-4v9h-4v4zM487 1109h4v17h5v-13h4v-13h4v-8h4v-13h5v-9h4v-4h17v4h5v22h3v13h5v21h4v25h-12v-4h-5v-21h-4v-21h-5v-13h-4v17h-4v8h-4v13h-5 v13h-4v8h-21v-4h-5v-30h-4v-21h-4v-13h-5v-17h13v4h5v17h4v22zM63 1117h4v9h5v4h-13v-4h-4v-4h-5v-5h-4v-8h-4v-4h-4v-9h4v-13h4v-8h4v-5h13v9h-4v8h-4v18h4v8h4v4zM38 1117h4v9h4v4h-17v-8h-4v-5h-5v-4h-4v-4h-4v-17h4v-13h4v-9h13v17h-4v9h-4v4h4v9h4v4h5v4zM324 1122v4h5 v-9h-5v-21h-4v-30h13v4h4v22h4v17h5v25h4v17h-26v-4h-4v-4h-4v-9h-5v-8h-4v-4h-4v-9h-4v-8h-5v-5h-4v5h-4v8h-4v34h-5v4h-26v-4h-4v-30h-4v-17h-4v-13h-5v-21h17v26h5v13h4v21h5v-4h3v-22h5v-30h4v-4h13v4h4v9h5v4h4v9h4v8h4v9h5v4h4v9h4zM457 1117h4v22h4v12h-17v-4h-4v-30 h-4v-12h-5v-26h-4v-13h17v9h5v21h4v21zM106 1134h4v5h17v-5h13v13h-8v4h-22v-4h-12v-4h-5v-4h-4v-26h4v-4h5v-4h8v-5h9v-17h-5v-4h-21v4h-5v4h-4v-4h-4v-13h13v-4h21v4h13v5h4v4h5v4h4v22h-4v4h-5v4h-8v4h-9v5h-4v12zM380 1100h4v-8h5v-9h4v-8h4v-9h17v13h-4v8h-4v9h-5v9h-4 v8h4v4h5v5h4v4h4v4h4v4h5v5h4v4h4v8h-17v-4h-4v-4h-4v-4h-5v-5h-4v-8h-4v-4h-9v29h-12v-4h-5v-17h-4v-21h-5v-34h-4v-9h18v17h3v13h5v4zM170 1130h5v13h4v8h-17v-4h-5v-21h-4v-17h-4v-30h4v-4h4v-5h9v-4h26v4h13v5h4v4h4v4h4v9h5v21h4v21h4v17h-17v-8h-4v-21h-4v-30h-5v-5 h-4v-4h-4v-4h-17v4h-9v17h4v30zM363 1177h4v9h34v-21h17v42h-4v22h-4v21h-21v-4h-5v-5h-4v-8h-5v-9h-3v-8h-5v-5h-4v-8h-5v-9h-4v-8h-4v-9h-4v-4h-5v-8h17v3h5v9zM205 1207h4v4h4v30h-4v5h-9v4h-38v-4h-5v-30h-4v-13h-4v-21h-5v-17h18v12h4v17h21v5h13v4h5v4zM559 1216h-25 v21h34v13h-47v-4h-4v-30h-4v-13h-5v-26h-4v-12h52v12h-31v26h31v4h3v9zM465 1233h9v4h17v-4h5v-4h8v12h-4v5h-9v4h-21v-4h-13v-5h-4v-4h-5v-4h-4v-4h-4v-13h-5v-39h5v-4h4v-5h9v-3h30v3h4v5h4v13h-4v-4h-9v-5h-17v5h-4v4h-4v25h4v9h4v9h4v4zM277 1216h-26v21h35v13h-47v-4 h-5v-30h-4v-13h-4v-26h-4v-12h51v12h-30v26h30v4h4v9zM16 1246h-4v-9h21v-26h-4v-29h-4v-17h13v3h4v14h4v21h4v21h5v13h25v13h-64v-4zM316 1237h30v4h4v9h-47v-4h-4v-30h-5v-22h-4v-12h-4v-17h17v17h4v17h30v4h4v8h-30v13h5v13zM144 1237h5v9h4v4h-21v-9h-5v-4h-4v-8h-4v-5 h-4v-8h-5v13h-4v8h-4v13h-18v-13h5v-13h4v-13h5v-25h-5v-21h17v8h5v26h4v4h4v4h4v9h5v4h4v9h4v4h4v4zM136 1314h4v4h4v22h-8v4h-9v4h-38v-4h-5v-17h-4v-34h-4v-22h-4v-8h17v13h4v21h13v-4h4v-4h5v-22h4v-4h17v13h-4v17h-5v4h-4v4h4v5h9v8zM268 1314h-25v21h34v13h-47v-4h-4 v-30h-4v-13h-5v-25h-4v-13h52v13h-31v25h31v5h3v8zM205 1314h-26v21h34v13h-47v-4h-4v-30h-5v-13h-4v-25h-4v-13h51v13h-30v25h30v5h5v8zM38 1335h29v5h5v8h-47v-4h-5v-30h-4v-21h-4v-13h-4v-17h17v17h4v17h30v4h4v9h-30v13h5v12zM-104 1156h-4v77h4v26h5v17h4v17h4v13h5v12 h4v9h4v13h4v8h5v9h4v9h4v8h4v4h5v9h4v9h4v4h4v8h5v5h4v4h4v8h4v5h5v4h4v4h5v4h4v9h4v5h4v3h5v5h4v4h4v5h4v4h9v4h4v4h5v5h4v8h4v4h4v5h5v4h4v4h4v5h4v4h5v4h4v4h4v5h4v4h5v4h4v4h5v5h4v4h4v5h4v4h5v4h4v4h4v5h4v4h5v4h4v4h4v5h4v4h5v4h4v4h4v5h5v4h4v4h4v4h5v5h4v4h4v4h4v5 h5v4h4v4h4v5h5v4h4v4h4v4h4v5h5v4h4v4h4v5h4v4h5v4h4v4h4v5h4v4h5v4h4v4h5v5h3v4h5v5h4v3h9v-3h4v-5h4v-4h5v-5h4v-4h4v-4h4v-4h5v-5h4v-4h4v-4h5v-4h4v-5h4v-4h4v-4h5v-5h4v-4h4v-4h4v-4h5v-5h4v-4h5v-4h3v-5h5v-4h4v-4h5v-5h4v-4h4v-4h4v-4h5v-5h4v-4h4v-4h4v-4h5v-5h4v-4 h4v-4h4v-4h5v-5h4v-4h4v-4h5v-4h4v-5h4v-4h4v-5h5v-4h4v-4h4v-4h5v-5h4v-4h4v-4h5v-4h4v-5h4v-4h4v-4h5v-5h4v-4h4v-4h4v-4h5v-5h4v-4h5v-4h3v-4h5v-5h4v-4h5v-5h3v-8h5v-4h4v-5h5v-4h4v-4h4v-4h4v-9h5v-4h4v-4h4v-9h4v-4h5v-9h4v-4h4v-9h5v-8h4v-4h4v-9h5v-9h4v-8h4v-9h4 v-8h5v-13h4v-13h4v-13h5v-13h4v-21h4v-30h4v-60h-4v-17h-4v-30h-4v-21h-5v-9h-4v-17h-4v-13h-5v-12h-4v-9h-4v-13h-4v-9h-5v-9h-4v-8h-4v-4h-5v-9h-4v-8h-4v-5h-5v-8h-4v-4h-4v-9h-4v-4h-5v-4h-4v-5h-4v-8h-4v-5h-5v-4h-4v-4h-5v-4h-3v-5h-5v-4h-4v-4h-5v-4h-3v-5h-5v-4h-4 v-5h-9v-4h-4v-4h-4v-4h-5v-5h-8v-4h-4v-4h-9v-4h-9v-5h-8v-4h-5v-4h-8v-4h-9v-5h-13v-4h-8v-4h-13v-5h-8v-4h-22v-4h-9v-5h-29v-4h-30v-4h-65v4h-42v4h-26v5h-17v4h-9v4h-17v5h-8v4h-13v4h-9v5h-8v4h-9v4h-9v4h-4v5h-8v4h-5v4h-8v4h-4v5h-9v4h-4v4h-4v4h-9v5h-4v4h-5v5h-4v4 h-4v4h-4v4h-5v5h-4v4h-4v4h-4v9h-5v4h-4v4h-5v5h-4v8h-4v4h-4v5h-5v8h-4v9h-4v4h-4v8h-5v9h-4v8h-4v9h-4v9h-5v8h-4v14h-4v8h-4v13h-5v17h-4v13h-4v25h-5v39zM170 1229h5v8h17v-4h4v-17h-4v-5h-5v-4h-17v22zM98 1318h4v17h21v-21h-8v-4h-17v8zM393 1220h4v-21h-22v4h5v8h4v9 h5v4h4v-4zM303 1027h4v5h9v-17h-5v-5h-8v17zM33 -4q6 8 12.5 53.5t13 104t10.5 80.5q11 56 5 138q-6 84 3 163q7 80 42 137q34 57 127 60q164 -2 217 -38l54 -36q10 -65 13 -145q4 -64 0 -121q-3 -55 -15 -146q-13 -94 -1 -162l-45 -34q-44 -34 -160 -34q-1 53 -1 132v86 l-15 4v-12v-77q-18 -112 -88 -145q-71 -33 -172 -8zM292 328l16 2v276l-4 -10q-12 -50 -12 -268z" />
<glyph unicode="&#xe3;" horiz-adv-x="560" d="M423 1010h4v9h4v30h-4v4h-17v-4h-4v-5h-5v-3h-4v-9h-4v-22h4v-4h4v-5h17v5h5v4zM294 1001h30v18h5v22h-9v-5h-4v5h-13v-5h-4v-4h-5v-9h-4v-17h4v-5zM508 1015h5v12h4v17h-4v9h-22v-4h-4v-5h-4v-8h-5v-30h5v-5h17v5h8v9zM200 1010h-8v17h4v14h-13v-22h-4v-13h4v-5h13v5h9 v-5h8v18h4v22h-8v-9h-4v-17h-5v-5zM268 1041h-3v-9h3v-13h-3v-13h3v-5h14v9h-5v22h13v9h-8v8h-14v-8zM162 1027h4v5h13v9h-26v-18h-4v-22h8v9h5v17zM448 1049v-5h-4v-3h9v-14h-5v-17h-13v-9h35v9h-9v22h4v21h-8v-4h-9zM38 1027h-5v22h-4v4h-17v-17h-4v-21h-5v-14h13v26h4v14 h5v-35h4v-5h13v9h4v9h4v8h5v5h4v-13h-4v-18h8v14h4v8h5v30h-13v-4h-4v-5h-5v-8h-4v-9h-4v-4h-4v4zM358 1041h5v3h12v-3h5v-5h-5v-4h-3v-5h-5v-4h-4v-4h-5v-4h-4v-5h-4v-9h34v9h-17v5h5v4h3v4h5v4h4v5h5v17h-5v4h-17v-4h-9v-8zM243 1036v-4h-4v17h4v9h-13v-26h-4v-22h-4v-9h8 v5h4v9h5v-5h4v-9h8v14h-4v12h4v5h5v4h4v5h-13v-5h-4zM123 1032h4v-26h-4v-8h-8v-9h12v4h5v13h4v17h4v9h9v9h-9v3h4v5h9v9h-13v-5h-4v-4h-4v-8h-9v3h-4v5h-4v4h-31v-17h-4v-21h-4v-14h13v22h13v-22h13v18h-5v8h5v5h4v4h4v-4zM581 1130h-13v-13h5v-12h4v-5h-4v-8h-5v-5h-4v-8 h-5v-9h14v5h4v8h4v4h4v5h5v21h-5v9h-4v8zM607 1130h-13v-8h4v-13h4v-13h-4v-4h-4v-9h-4v-4h-5v-9h13v5h4v4h5v4h4v9h4v4h5v9h-5v12h-4v9h-4v4zM487 1109h4v17h5v-13h4v-13h4v-8h4v-13h5v-9h4v-4h17v4h5v22h3v13h5v21h4v25h-12v-4h-5v-21h-4v-21h-5v-13h-4v17h-4v8h-4v13h-5 v13h-4v8h-21v-4h-5v-30h-4v-21h-4v-13h-5v-17h13v4h5v17h4v22zM63 1117h4v9h5v4h-13v-4h-4v-4h-5v-5h-4v-8h-4v-4h-4v-9h4v-13h4v-8h4v-5h13v9h-4v8h-4v18h4v8h4v4zM38 1117h4v9h4v4h-17v-8h-4v-5h-5v-4h-4v-4h-4v-17h4v-13h4v-9h13v17h-4v9h-4v4h4v9h4v4h5v4zM324 1122v4h5 v-9h-5v-21h-4v-30h13v4h4v22h4v17h5v25h4v17h-26v-4h-4v-4h-4v-9h-5v-8h-4v-4h-4v-9h-4v-8h-5v-5h-4v5h-4v8h-4v34h-5v4h-26v-4h-4v-30h-4v-17h-4v-13h-5v-21h17v26h5v13h4v21h5v-4h3v-22h5v-30h4v-4h13v4h4v9h5v4h4v9h4v8h4v9h5v4h4v9h4zM457 1117h4v22h4v12h-17v-4h-4v-30 h-4v-12h-5v-26h-4v-13h17v9h5v21h4v21zM106 1134h4v5h17v-5h13v13h-8v4h-22v-4h-12v-4h-5v-4h-4v-26h4v-4h5v-4h8v-5h9v-17h-5v-4h-21v4h-5v4h-4v-4h-4v-13h13v-4h21v4h13v5h4v4h5v4h4v22h-4v4h-5v4h-8v4h-9v5h-4v12zM380 1100h4v-8h5v-9h4v-8h4v-9h17v13h-4v8h-4v9h-5v9h-4 v8h4v4h5v5h4v4h4v4h4v4h5v5h4v4h4v8h-17v-4h-4v-4h-4v-4h-5v-5h-4v-8h-4v-4h-9v29h-12v-4h-5v-17h-4v-21h-5v-34h-4v-9h18v17h3v13h5v4zM170 1130h5v13h4v8h-17v-4h-5v-21h-4v-17h-4v-30h4v-4h4v-5h9v-4h26v4h13v5h4v4h4v4h4v9h5v21h4v21h4v17h-17v-8h-4v-21h-4v-30h-5v-5 h-4v-4h-4v-4h-17v4h-9v17h4v30zM363 1177h4v9h34v-21h17v42h-4v22h-4v21h-21v-4h-5v-5h-4v-8h-5v-9h-3v-8h-5v-5h-4v-8h-5v-9h-4v-8h-4v-9h-4v-4h-5v-8h17v3h5v9zM205 1207h4v4h4v30h-4v5h-9v4h-38v-4h-5v-30h-4v-13h-4v-21h-5v-17h18v12h4v17h21v5h13v4h5v4zM559 1216h-25 v21h34v13h-47v-4h-4v-30h-4v-13h-5v-26h-4v-12h52v12h-31v26h31v4h3v9zM465 1233h9v4h17v-4h5v-4h8v12h-4v5h-9v4h-21v-4h-13v-5h-4v-4h-5v-4h-4v-4h-4v-13h-5v-39h5v-4h4v-5h9v-3h30v3h4v5h4v13h-4v-4h-9v-5h-17v5h-4v4h-4v25h4v9h4v9h4v4zM277 1216h-26v21h35v13h-47v-4 h-5v-30h-4v-13h-4v-26h-4v-12h51v12h-30v26h30v4h4v9zM16 1246h-4v-9h21v-26h-4v-29h-4v-17h13v3h4v14h4v21h4v21h5v13h25v13h-64v-4zM316 1237h30v4h4v9h-47v-4h-4v-30h-5v-22h-4v-12h-4v-17h17v17h4v17h30v4h4v8h-30v13h5v13zM144 1237h5v9h4v4h-21v-9h-5v-4h-4v-8h-4v-5 h-4v-8h-5v13h-4v8h-4v13h-18v-13h5v-13h4v-13h5v-25h-5v-21h17v8h5v26h4v4h4v4h4v9h5v4h4v9h4v4h4v4zM136 1314h4v4h4v22h-8v4h-9v4h-38v-4h-5v-17h-4v-34h-4v-22h-4v-8h17v13h4v21h13v-4h4v-4h5v-22h4v-4h17v13h-4v17h-5v4h-4v4h4v5h9v8zM268 1314h-25v21h34v13h-47v-4h-4 v-30h-4v-13h-5v-25h-4v-13h52v13h-31v25h31v5h3v8zM205 1314h-26v21h34v13h-47v-4h-4v-30h-5v-13h-4v-25h-4v-13h51v13h-30v25h30v5h5v8zM38 1335h29v5h5v8h-47v-4h-5v-30h-4v-21h-4v-13h-4v-17h17v17h4v17h30v4h4v9h-30v13h5v12zM-104 1156h-4v77h4v26h5v17h4v17h4v13h5v12 h4v9h4v13h4v8h5v9h4v9h4v8h4v4h5v9h4v9h4v4h4v8h5v5h4v4h4v8h4v5h5v4h4v4h5v4h4v9h4v5h4v3h5v5h4v4h4v5h4v4h9v4h4v4h5v5h4v8h4v4h4v5h5v4h4v4h4v5h4v4h5v4h4v4h4v5h4v4h5v4h4v4h5v5h4v4h4v5h4v4h5v4h4v4h4v5h4v4h5v4h4v4h4v5h4v4h5v4h4v4h4v5h5v4h4v4h4v4h5v5h4v4h4v4h4v5 h5v4h4v4h4v5h5v4h4v4h4v4h4v5h5v4h4v4h4v5h4v4h5v4h4v4h4v5h4v4h5v4h4v4h5v5h3v4h5v5h4v3h9v-3h4v-5h4v-4h5v-5h4v-4h4v-4h4v-4h5v-5h4v-4h4v-4h5v-4h4v-5h4v-4h4v-4h5v-5h4v-4h4v-4h4v-4h5v-5h4v-4h5v-4h3v-5h5v-4h4v-4h5v-5h4v-4h4v-4h4v-4h5v-5h4v-4h4v-4h4v-4h5v-5h4v-4 h4v-4h4v-4h5v-5h4v-4h4v-4h5v-4h4v-5h4v-4h4v-5h5v-4h4v-4h4v-4h5v-5h4v-4h4v-4h5v-4h4v-5h4v-4h4v-4h5v-5h4v-4h4v-4h4v-4h5v-5h4v-4h5v-4h3v-4h5v-5h4v-4h5v-5h3v-8h5v-4h4v-5h5v-4h4v-4h4v-4h4v-9h5v-4h4v-4h4v-9h4v-4h5v-9h4v-4h4v-9h5v-8h4v-4h4v-9h5v-9h4v-8h4v-9h4 v-8h5v-13h4v-13h4v-13h5v-13h4v-21h4v-30h4v-60h-4v-17h-4v-30h-4v-21h-5v-9h-4v-17h-4v-13h-5v-12h-4v-9h-4v-13h-4v-9h-5v-9h-4v-8h-4v-4h-5v-9h-4v-8h-4v-5h-5v-8h-4v-4h-4v-9h-4v-4h-5v-4h-4v-5h-4v-8h-4v-5h-5v-4h-4v-4h-5v-4h-3v-5h-5v-4h-4v-4h-5v-4h-3v-5h-5v-4h-4 v-5h-9v-4h-4v-4h-4v-4h-5v-5h-8v-4h-4v-4h-9v-4h-9v-5h-8v-4h-5v-4h-8v-4h-9v-5h-13v-4h-8v-4h-13v-5h-8v-4h-22v-4h-9v-5h-29v-4h-30v-4h-65v4h-42v4h-26v5h-17v4h-9v4h-17v5h-8v4h-13v4h-9v5h-8v4h-9v4h-9v4h-4v5h-8v4h-5v4h-8v4h-4v5h-9v4h-4v4h-4v4h-9v5h-4v4h-5v5h-4v4 h-4v4h-4v4h-5v5h-4v4h-4v4h-4v9h-5v4h-4v4h-5v5h-4v8h-4v4h-4v5h-5v8h-4v9h-4v4h-4v8h-5v9h-4v8h-4v9h-4v9h-5v8h-4v14h-4v8h-4v13h-5v17h-4v13h-4v25h-5v39zM170 1229h5v8h17v-4h4v-17h-4v-5h-5v-4h-17v22zM98 1318h4v17h21v-21h-8v-4h-17v8zM393 1220h4v-21h-22v4h5v8h4v9 h5v4h4v-4zM303 1027h4v5h9v-17h-5v-5h-8v17zM33 -4q6 8 12.5 53.5t13 104t10.5 80.5q11 56 5 138q-6 84 3 163q7 80 42 137q34 57 127 60q164 -2 217 -38l54 -36q10 -65 13 -145q4 -64 0 -121q-3 -55 -15 -146q-13 -94 -1 -162l-45 -34q-44 -34 -160 -34q-1 53 -1 132v86 l-15 4v-12v-77q-18 -112 -88 -145q-71 -33 -172 -8zM292 328l16 2v276l-4 -10q-12 -50 -12 -268z" />
<glyph unicode="&#xe5;" horiz-adv-x="560" d="M423 1010h4v9h4v30h-4v4h-17v-4h-4v-5h-5v-3h-4v-9h-4v-22h4v-4h4v-5h17v5h5v4zM294 1001h30v18h5v22h-9v-5h-4v5h-13v-5h-4v-4h-5v-9h-4v-17h4v-5zM508 1015h5v12h4v17h-4v9h-22v-4h-4v-5h-4v-8h-5v-30h5v-5h17v5h8v9zM200 1010h-8v17h4v14h-13v-22h-4v-13h4v-5h13v5h9 v-5h8v18h4v22h-8v-9h-4v-17h-5v-5zM268 1041h-3v-9h3v-13h-3v-13h3v-5h14v9h-5v22h13v9h-8v8h-14v-8zM162 1027h4v5h13v9h-26v-18h-4v-22h8v9h5v17zM448 1049v-5h-4v-3h9v-14h-5v-17h-13v-9h35v9h-9v22h4v21h-8v-4h-9zM38 1027h-5v22h-4v4h-17v-17h-4v-21h-5v-14h13v26h4v14 h5v-35h4v-5h13v9h4v9h4v8h5v5h4v-13h-4v-18h8v14h4v8h5v30h-13v-4h-4v-5h-5v-8h-4v-9h-4v-4h-4v4zM358 1041h5v3h12v-3h5v-5h-5v-4h-3v-5h-5v-4h-4v-4h-5v-4h-4v-5h-4v-9h34v9h-17v5h5v4h3v4h5v4h4v5h5v17h-5v4h-17v-4h-9v-8zM243 1036v-4h-4v17h4v9h-13v-26h-4v-22h-4v-9h8 v5h4v9h5v-5h4v-9h8v14h-4v12h4v5h5v4h4v5h-13v-5h-4zM123 1032h4v-26h-4v-8h-8v-9h12v4h5v13h4v17h4v9h9v9h-9v3h4v5h9v9h-13v-5h-4v-4h-4v-8h-9v3h-4v5h-4v4h-31v-17h-4v-21h-4v-14h13v22h13v-22h13v18h-5v8h5v5h4v4h4v-4zM581 1130h-13v-13h5v-12h4v-5h-4v-8h-5v-5h-4v-8 h-5v-9h14v5h4v8h4v4h4v5h5v21h-5v9h-4v8zM607 1130h-13v-8h4v-13h4v-13h-4v-4h-4v-9h-4v-4h-5v-9h13v5h4v4h5v4h4v9h4v4h5v9h-5v12h-4v9h-4v4zM487 1109h4v17h5v-13h4v-13h4v-8h4v-13h5v-9h4v-4h17v4h5v22h3v13h5v21h4v25h-12v-4h-5v-21h-4v-21h-5v-13h-4v17h-4v8h-4v13h-5 v13h-4v8h-21v-4h-5v-30h-4v-21h-4v-13h-5v-17h13v4h5v17h4v22zM63 1117h4v9h5v4h-13v-4h-4v-4h-5v-5h-4v-8h-4v-4h-4v-9h4v-13h4v-8h4v-5h13v9h-4v8h-4v18h4v8h4v4zM38 1117h4v9h4v4h-17v-8h-4v-5h-5v-4h-4v-4h-4v-17h4v-13h4v-9h13v17h-4v9h-4v4h4v9h4v4h5v4zM324 1122v4h5 v-9h-5v-21h-4v-30h13v4h4v22h4v17h5v25h4v17h-26v-4h-4v-4h-4v-9h-5v-8h-4v-4h-4v-9h-4v-8h-5v-5h-4v5h-4v8h-4v34h-5v4h-26v-4h-4v-30h-4v-17h-4v-13h-5v-21h17v26h5v13h4v21h5v-4h3v-22h5v-30h4v-4h13v4h4v9h5v4h4v9h4v8h4v9h5v4h4v9h4zM457 1117h4v22h4v12h-17v-4h-4v-30 h-4v-12h-5v-26h-4v-13h17v9h5v21h4v21zM106 1134h4v5h17v-5h13v13h-8v4h-22v-4h-12v-4h-5v-4h-4v-26h4v-4h5v-4h8v-5h9v-17h-5v-4h-21v4h-5v4h-4v-4h-4v-13h13v-4h21v4h13v5h4v4h5v4h4v22h-4v4h-5v4h-8v4h-9v5h-4v12zM380 1100h4v-8h5v-9h4v-8h4v-9h17v13h-4v8h-4v9h-5v9h-4 v8h4v4h5v5h4v4h4v4h4v4h5v5h4v4h4v8h-17v-4h-4v-4h-4v-4h-5v-5h-4v-8h-4v-4h-9v29h-12v-4h-5v-17h-4v-21h-5v-34h-4v-9h18v17h3v13h5v4zM170 1130h5v13h4v8h-17v-4h-5v-21h-4v-17h-4v-30h4v-4h4v-5h9v-4h26v4h13v5h4v4h4v4h4v9h5v21h4v21h4v17h-17v-8h-4v-21h-4v-30h-5v-5 h-4v-4h-4v-4h-17v4h-9v17h4v30zM363 1177h4v9h34v-21h17v42h-4v22h-4v21h-21v-4h-5v-5h-4v-8h-5v-9h-3v-8h-5v-5h-4v-8h-5v-9h-4v-8h-4v-9h-4v-4h-5v-8h17v3h5v9zM205 1207h4v4h4v30h-4v5h-9v4h-38v-4h-5v-30h-4v-13h-4v-21h-5v-17h18v12h4v17h21v5h13v4h5v4zM559 1216h-25 v21h34v13h-47v-4h-4v-30h-4v-13h-5v-26h-4v-12h52v12h-31v26h31v4h3v9zM465 1233h9v4h17v-4h5v-4h8v12h-4v5h-9v4h-21v-4h-13v-5h-4v-4h-5v-4h-4v-4h-4v-13h-5v-39h5v-4h4v-5h9v-3h30v3h4v5h4v13h-4v-4h-9v-5h-17v5h-4v4h-4v25h4v9h4v9h4v4zM277 1216h-26v21h35v13h-47v-4 h-5v-30h-4v-13h-4v-26h-4v-12h51v12h-30v26h30v4h4v9zM16 1246h-4v-9h21v-26h-4v-29h-4v-17h13v3h4v14h4v21h4v21h5v13h25v13h-64v-4zM316 1237h30v4h4v9h-47v-4h-4v-30h-5v-22h-4v-12h-4v-17h17v17h4v17h30v4h4v8h-30v13h5v13zM144 1237h5v9h4v4h-21v-9h-5v-4h-4v-8h-4v-5 h-4v-8h-5v13h-4v8h-4v13h-18v-13h5v-13h4v-13h5v-25h-5v-21h17v8h5v26h4v4h4v4h4v9h5v4h4v9h4v4h4v4zM136 1314h4v4h4v22h-8v4h-9v4h-38v-4h-5v-17h-4v-34h-4v-22h-4v-8h17v13h4v21h13v-4h4v-4h5v-22h4v-4h17v13h-4v17h-5v4h-4v4h4v5h9v8zM268 1314h-25v21h34v13h-47v-4h-4 v-30h-4v-13h-5v-25h-4v-13h52v13h-31v25h31v5h3v8zM205 1314h-26v21h34v13h-47v-4h-4v-30h-5v-13h-4v-25h-4v-13h51v13h-30v25h30v5h5v8zM38 1335h29v5h5v8h-47v-4h-5v-30h-4v-21h-4v-13h-4v-17h17v17h4v17h30v4h4v9h-30v13h5v12zM-104 1156h-4v77h4v26h5v17h4v17h4v13h5v12 h4v9h4v13h4v8h5v9h4v9h4v8h4v4h5v9h4v9h4v4h4v8h5v5h4v4h4v8h4v5h5v4h4v4h5v4h4v9h4v5h4v3h5v5h4v4h4v5h4v4h9v4h4v4h5v5h4v8h4v4h4v5h5v4h4v4h4v5h4v4h5v4h4v4h4v5h4v4h5v4h4v4h5v5h4v4h4v5h4v4h5v4h4v4h4v5h4v4h5v4h4v4h4v5h4v4h5v4h4v4h4v5h5v4h4v4h4v4h5v5h4v4h4v4h4v5 h5v4h4v4h4v5h5v4h4v4h4v4h4v5h5v4h4v4h4v5h4v4h5v4h4v4h4v5h4v4h5v4h4v4h5v5h3v4h5v5h4v3h9v-3h4v-5h4v-4h5v-5h4v-4h4v-4h4v-4h5v-5h4v-4h4v-4h5v-4h4v-5h4v-4h4v-4h5v-5h4v-4h4v-4h4v-4h5v-5h4v-4h5v-4h3v-5h5v-4h4v-4h5v-5h4v-4h4v-4h4v-4h5v-5h4v-4h4v-4h4v-4h5v-5h4v-4 h4v-4h4v-4h5v-5h4v-4h4v-4h5v-4h4v-5h4v-4h4v-5h5v-4h4v-4h4v-4h5v-5h4v-4h4v-4h5v-4h4v-5h4v-4h4v-4h5v-5h4v-4h4v-4h4v-4h5v-5h4v-4h5v-4h3v-4h5v-5h4v-4h5v-5h3v-8h5v-4h4v-5h5v-4h4v-4h4v-4h4v-9h5v-4h4v-4h4v-9h4v-4h5v-9h4v-4h4v-9h5v-8h4v-4h4v-9h5v-9h4v-8h4v-9h4 v-8h5v-13h4v-13h4v-13h5v-13h4v-21h4v-30h4v-60h-4v-17h-4v-30h-4v-21h-5v-9h-4v-17h-4v-13h-5v-12h-4v-9h-4v-13h-4v-9h-5v-9h-4v-8h-4v-4h-5v-9h-4v-8h-4v-5h-5v-8h-4v-4h-4v-9h-4v-4h-5v-4h-4v-5h-4v-8h-4v-5h-5v-4h-4v-4h-5v-4h-3v-5h-5v-4h-4v-4h-5v-4h-3v-5h-5v-4h-4 v-5h-9v-4h-4v-4h-4v-4h-5v-5h-8v-4h-4v-4h-9v-4h-9v-5h-8v-4h-5v-4h-8v-4h-9v-5h-13v-4h-8v-4h-13v-5h-8v-4h-22v-4h-9v-5h-29v-4h-30v-4h-65v4h-42v4h-26v5h-17v4h-9v4h-17v5h-8v4h-13v4h-9v5h-8v4h-9v4h-9v4h-4v5h-8v4h-5v4h-8v4h-4v5h-9v4h-4v4h-4v4h-9v5h-4v4h-5v5h-4v4 h-4v4h-4v4h-5v5h-4v4h-4v4h-4v9h-5v4h-4v4h-5v5h-4v8h-4v4h-4v5h-5v8h-4v9h-4v4h-4v8h-5v9h-4v8h-4v9h-4v9h-5v8h-4v14h-4v8h-4v13h-5v17h-4v13h-4v25h-5v39zM170 1229h5v8h17v-4h4v-17h-4v-5h-5v-4h-17v22zM98 1318h4v17h21v-21h-8v-4h-17v8zM393 1220h4v-21h-22v4h5v8h4v9 h5v4h4v-4zM303 1027h4v5h9v-17h-5v-5h-8v17zM33 -4q6 8 12.5 53.5t13 104t10.5 80.5q11 56 5 138q-6 84 3 163q7 80 42 137q34 57 127 60q164 -2 217 -38l54 -36q10 -65 13 -145q4 -64 0 -121q-3 -55 -15 -146q-13 -94 -1 -162l-45 -34q-44 -34 -160 -34q-1 53 -1 132v86 l-15 4v-12v-77q-18 -112 -88 -145q-71 -33 -172 -8zM292 328l16 2v276l-4 -10q-12 -50 -12 -268z" />
</font>
</defs>
</svg>
